<svg width="159" height="34" viewBox="0 0 159 34" fill="none" xmlns="http://www.w3.org/2000/svg">
<path d="M22.7422 11.5771L27.9908 16.8271L22.7422 22.0771" stroke="#F8E5FF" stroke-width="2" stroke-linecap="round" stroke-linejoin="round"/>
<path d="M13.9912 16.8271H27.9875" stroke="#F8E5FF" stroke-width="2" stroke-linecap="round" stroke-linejoin="round"/>
<path d="M13.9912 27.8271H6.99121C6.72599 27.8271 6.47164 27.7218 6.2841 27.5343C6.09657 27.3467 5.99121 27.0924 5.99121 26.8271V6.82715C5.99121 6.56193 6.09657 6.30758 6.2841 6.12004C6.47164 5.93251 6.72599 5.82715 6.99121 5.82715H13.9912" stroke="#F8E5FF" stroke-width="2" stroke-linecap="round" stroke-linejoin="round"/>
<path d="M49.9522 23.5971V8.32715H47.0122V26.3271H56.2822V23.5971H49.9522ZM66.9529 26.5671C72.0529 26.5671 76.1929 22.4271 76.1929 17.3271C76.1929 12.2271 72.0529 8.08715 66.9529 8.08715C61.8529 8.08715 57.7129 12.2271 57.7129 17.3271C57.7129 22.4271 61.8529 26.5671 66.9529 26.5671ZM66.9529 23.6571C63.4129 23.6571 60.6229 20.8971 60.6229 17.3271C60.6229 13.7571 63.4129 10.9971 66.9529 10.9971C70.5229 10.9971 73.2829 13.7571 73.2829 17.3271C73.2829 20.8971 70.5229 23.6571 66.9529 23.6571ZM88.0532 16.6071V19.0671H94.1732C93.4532 21.7671 91.0232 23.6571 88.0832 23.6571C84.5132 23.6571 81.7232 20.8971 81.7232 17.3271C81.7232 13.7571 84.5132 10.9971 88.0832 10.9971C90.5132 10.9971 92.5832 12.2871 93.6632 14.2671L96.1832 12.9171C94.6232 10.0371 91.5632 8.08715 88.0832 8.08715C82.9532 8.08715 78.8432 12.2271 78.8432 17.3271C78.8432 22.4271 82.9532 26.5671 88.0832 26.5671C93.1832 26.5671 97.3232 22.4271 97.3232 17.3271V16.6071H88.0532ZM116.359 26.5671C121.459 26.5671 125.599 22.4271 125.599 17.3271C125.599 12.2271 121.459 8.08715 116.359 8.08715C111.259 8.08715 107.119 12.2271 107.119 17.3271C107.119 22.4271 111.259 26.5671 116.359 26.5671ZM116.359 23.6571C112.819 23.6571 110.029 20.8971 110.029 17.3271C110.029 13.7571 112.819 10.9971 116.359 10.9971C119.929 10.9971 122.689 13.7571 122.689 17.3271C122.689 20.8971 119.929 23.6571 116.359 23.6571ZM135.899 26.5671C139.979 26.5671 143.039 23.9571 143.039 20.4771V8.32715H140.099V19.9671C140.099 22.1871 138.299 23.8371 135.899 23.8371C133.499 23.8371 131.729 22.1871 131.729 19.9671V8.32715H128.789V20.4771C128.789 23.9571 131.819 26.5671 135.899 26.5671ZM157.433 8.32715H144.983V11.0571H149.753V26.3271H152.663V11.0571H157.433V8.32715Z" fill="white"/>
</svg>
