<svg xmlns="http://www.w3.org/2000/svg" xmlns:xlink="http://www.w3.org/1999/xlink" viewBox="0 0 424.67 324.63"><defs><style>.cls-1{fill:url(#linear-gradient);}.cls-2{fill:#cf1472;}.cls-3{fill:#f7e81a;}.cls-4{fill:url(#linear-gradient-2);}.cls-5{fill:url(#linear-gradient-3);}.cls-6{fill:url(#linear-gradient-4);}.cls-7{fill:url(#linear-gradient-5);}.cls-8{fill:url(#linear-gradient-6);}.cls-9{fill:url(#linear-gradient-7);}.cls-10{fill:url(#linear-gradient-8);}</style><linearGradient id="linear-gradient" x1="46.78" y1="59.95" x2="55.33" y2="147.15" gradientUnits="userSpaceOnUse"><stop offset="0" stop-color="#00f4c4"/><stop offset="1" stop-color="#00f5f5" stop-opacity="0"/></linearGradient><linearGradient id="linear-gradient-2" x1="370.13" y1="274.56" x2="374.46" y2="318.7" gradientTransform="translate(4.24 27.73)" xlink:href="#linear-gradient"/><linearGradient id="linear-gradient-3" x1="407.72" y1="278.34" x2="412.04" y2="322.49" gradientTransform="translate(-70.94 20.16)" xlink:href="#linear-gradient"/><linearGradient id="linear-gradient-4" x1="140.64" y1="115.63" x2="171.71" y2="268.73" xlink:href="#linear-gradient"/><linearGradient id="linear-gradient-5" x1="313.97" y1="172.4" x2="313.01" y2="125.45" xlink:href="#linear-gradient"/><linearGradient id="linear-gradient-6" x1="85.4" y1="3.88" x2="196.23" y2="549.92" xlink:href="#linear-gradient"/><linearGradient id="linear-gradient-7" x1="318.99" y1="11.09" x2="409.1" y2="455.06" xlink:href="#linear-gradient"/><linearGradient id="linear-gradient-8" x1="132.14" y1="81.69" x2="130.63" y2="7.42" xlink:href="#linear-gradient"/></defs><g id="Layer_2" data-name="Layer 2"><g id="OBJECTS"><rect class="cls-1" x="42.44" y="80.62" width="15.07" height="23.94"/><rect class="cls-2" y="185.87" width="15.07" height="23.94"/><rect class="cls-3" x="42.44" y="57.59" width="12.48" height="11.97"/><rect class="cls-2" x="80.03" y="61.48" width="12.48" height="11.97"/><rect class="cls-2" x="367.16" y="278.94" width="15.07" height="23.29" transform="translate(749.38 581.17) rotate(180)"/><rect class="cls-3" x="409.6" y="176.54" width="15.07" height="23.29" transform="translate(834.27 376.37) rotate(180)"/><rect class="cls-4" x="369.75" y="312.99" width="12.48" height="11.64" transform="translate(751.97 637.62) rotate(180)"/><rect class="cls-5" x="332.16" y="309.2" width="12.48" height="11.64" transform="translate(676.79 630.05) rotate(180)"/><rect class="cls-6" x="149.68" y="180.63" width="11.37" height="15.16"/><rect class="cls-7" x="302.78" y="120.76" width="20.84" height="27.79"/><rect class="cls-8" x="117.66" y="235.71" width="40.55" height="54.06"/><rect class="cls-9" x="345.22" y="199.58" width="32.97" height="43.96"/><rect class="cls-10" x="114.44" width="32.97" height="43.96"/></g></g></svg>