<svg xmlns="http://www.w3.org/2000/svg" xmlns:xlink="http://www.w3.org/1999/xlink" viewBox="0 0 311.64 377.67"><defs><style>.cls-1{fill:none;}.cls-2{isolation:isolate;}.cls-3{fill:url(#linear-gradient);}.cls-4,.cls-8{fill:#5036ae;}.cls-20,.cls-4,.cls-7{opacity:0.58;}.cls-14,.cls-35,.cls-4,.cls-7{mix-blend-mode:multiply;}.cls-5{fill:url(#linear-gradient-2);}.cls-11,.cls-6{fill:#fff;}.cls-11,.cls-14,.cls-9{opacity:0.32;}.cls-11,.cls-9{mix-blend-mode:overlay;}.cls-10{clip-path:url(#clip-path);}.cls-12{fill:url(#linear-gradient-3);}.cls-13{clip-path:url(#clip-path-2);}.cls-15{fill:url(#linear-gradient-4);}.cls-16{fill:url(#linear-gradient-5);}.cls-17{fill:url(#linear-gradient-6);}.cls-18{fill:url(#linear-gradient-7);}.cls-19{fill:#ebe033;}.cls-21{fill:#dc622b;}.cls-22{fill:#cf1472;}.cls-23{fill:url(#linear-gradient-8);}.cls-24{fill:url(#linear-gradient-9);}.cls-25{fill:#003;}.cls-26{fill:url(#linear-gradient-10);}.cls-27{fill:url(#linear-gradient-11);}.cls-28{fill:url(#linear-gradient-12);}.cls-29{fill:url(#linear-gradient-13);}.cls-30{fill:#00004a;}.cls-31{fill:url(#linear-gradient-14);}.cls-32{fill:#00c1e2;}.cls-33{fill:url(#linear-gradient-15);}.cls-34{fill:url(#linear-gradient-16);}.cls-36{fill:url(#linear-gradient-17);}.cls-37{fill:url(#linear-gradient-18);}.cls-38{fill:#6a212a;}.cls-39{fill:url(#radial-gradient);}.cls-40{fill:#f7e81a;}.cls-41{fill:url(#linear-gradient-19);}.cls-42{fill:url(#linear-gradient-20);}</style><linearGradient id="linear-gradient" x1="161.09" y1="316.88" x2="148.97" y2="54.96" gradientUnits="userSpaceOnUse"><stop offset="0" stop-color="#eaa4f7"/><stop offset="1" stop-color="#9d52f7"/></linearGradient><linearGradient id="linear-gradient-2" x1="158.97" y1="143.49" x2="155.94" y2="180.88" gradientUnits="userSpaceOnUse"><stop offset="0" stop-color="#00f4c4"/><stop offset="1" stop-color="#00f5f5" stop-opacity="0"/></linearGradient><clipPath id="clip-path"><path class="cls-1" d="M279,223.91c-1.83-6.83-3.65-13.19-5.25-18.81-2.9-10.18-5.19-18.23-6.1-23.79a.13.13,0,0,1,0-.06,24,24,0,0,1-.4-5.31c.35-5.71,0-9.62-.43-11.11-1.42-.14-4.2-.23-6.5-.23a2.66,2.66,0,0,1-2.49-1.71l-4.37-11.43-2.51,1.26a2.66,2.66,0,0,1-3.65-1.35c-6-14.28-11.3-25.78-12.79-27.74-2.09-1.19-11-5.77-17-8.51a2.67,2.67,0,0,1-1.48-3c.28-1.18,6.67-29.21-8.16-49.1A2.64,2.64,0,0,1,208,59.6a34.47,34.47,0,0,0,8.14-18.94c1.24-10.11-1.5-20.15-7.32-26.84C202.34,6.36,191.45,2.21,179.68,2.7,172,3,165.22,5.18,160,8.9,150.4,15.72,145.86,29,149.17,40.4a2.67,2.67,0,0,1-2.29,3.4c-18.17,1.83-31.55,8.53-39.76,19.91-14.42,20-8.37,48-8.11,49.19a2.68,2.68,0,0,1-1.46,3c-6,2.82-13.54,6.73-15.34,7.74-1.49,2-6.79,13.46-12.78,27.74a2.71,2.71,0,0,1-1.54,1.47,2.65,2.65,0,0,1-2.12-.12l-2.51-1.26-4.37,11.43a2.66,2.66,0,0,1-2.49,1.71c-2.29,0-5.06.09-6.49.23a17.74,17.74,0,0,0-.49,3.52c0,.22,0,.45,0,.68a67.84,67.84,0,0,0,.09,6.91,24,24,0,0,1-.4,5.31v.06c-.17,1-.38,2.1-.65,3.33l-.2.91c-.58,2.57-1.37,5.68-2.51,9.8l-.24.86c-.76,2.75-1.61,5.73-2.52,8.91l-1.3,4.57v0c-1.07,3.78-2.48,8.81-3.93,14.19-1.18,4.44-2.2,8.88-3,13.22v0l-.16.83a126.64,126.64,0,0,0-1.94,16.12v.32c-.51,11,1,19.38,4.56,24.93.16.26.34.51.52.76a16,16,0,0,0,9.05,6.42c14.32,4,27.34-5,33.83-10.78l.82-.74a46.67,46.67,0,0,0,3.45-3.49,2.67,2.67,0,0,1,4.55,2.59c-.32.94-7.52,23.23,15.69,38.52l.06,0,.06,0,.61.4a2.67,2.67,0,0,1,1,1.27l16,40.43h70.59l15.9-40.14h0s0,0,0,0l.11-.27a2.62,2.62,0,0,1,1-1.26c24.1-15.3,16.75-38,16.42-39a2.68,2.68,0,0,1-.12-1.16l0-.32a2.67,2.67,0,0,1,4.39-1.72l.3.25a3.15,3.15,0,0,1,.37.36A45.9,45.9,0,0,0,235.3,275a2.61,2.61,0,0,1,.23.24l.34.31a1.57,1.57,0,0,1,.25.2c6.5,5.77,19.54,14.86,33.87,10.8C291.6,280.42,283.48,240.71,279,223.91ZM135.37,204.05a2.66,2.66,0,0,1-1.68,2.47L130,208a2.81,2.81,0,0,1-1.14.18L121.28,211a2.63,2.63,0,0,1-1.17.91L82.68,226.84l-.05,0,0,0-.18.07a2.64,2.64,0,0,1-1,.19,2.66,2.66,0,0,1-2.55-3.44S79.3,222.3,80,220l0-.13c.85-2.82,2.1-7,3.48-11.61,6.88-23.21,8.29-29.59,8.56-31.34a15.74,15.74,0,0,0-3.89-2.22,2.63,2.63,0,0,1-1-.81,2.64,2.64,0,0,1-.88-3.4c1.53-3,2.1-5.37,2.06-6.22A2.67,2.67,0,0,1,89,160c2.1-1.05-.36-9-1.29-12.05l-.06-.21c-1.73-5.6-3-17.11-3-17.6a2.67,2.67,0,0,1,.49-1.85l3.34-4.58a2.59,2.59,0,0,1,.83-.75c.74-.43,1.51-.92,2.29-1.46a2.66,2.66,0,0,1,4.2,2.17v7.44a24.48,24.48,0,0,0,18,23.56,2.74,2.74,0,0,1,1.49,1.05,82.15,82.15,0,0,0,19.07,19.36,2.68,2.68,0,0,1,1.09,2.15ZM237.59,225.8l-.1.17,0,0a.43.43,0,0,1,0,.07l-.35.63a2.65,2.65,0,0,1-2.33,1.37,2.84,2.84,0,0,1-.81-.12,2.66,2.66,0,0,1-1.7-1.65l-39-15.55L186.48,208a2.38,2.38,0,0,1-.58-.16l-3.32-1.32a2.66,2.66,0,0,1-1.68-2.47v-6.81h0V177.16A2.65,2.65,0,0,1,182,175a84.55,84.55,0,0,0,18.84-19.9,2.7,2.7,0,0,1,1.32-1,24.49,24.49,0,0,0,16.31-23V121.7a2.66,2.66,0,0,1,4.38-2,31.63,31.63,0,0,0,4.61,3.26,2.59,2.59,0,0,1,.83.75l3.34,4.58a2.67,2.67,0,0,1,.49,1.85c-.05.49-1.29,12-3,17.6l-.06.21c-.93,3-3.39,11-1.29,12.05a2.65,2.65,0,0,1,.66,4.29c0,.84.54,3.18,2.06,6.22a2.64,2.64,0,0,1-.88,3.4,2.63,2.63,0,0,1-1.05.81,15.49,15.49,0,0,0-3.88,2.22c.12.8.5,2.7,1.65,7.09a1.78,1.78,0,0,1,.07.39l0,.09c0,.12.09.24.13.37,1,3.8,2.4,8.78,4.14,14.77a1.8,1.8,0,0,1,.08.39l0,.1a2,2,0,0,1,.14.37c.68,2.34,1.37,4.68,2,6.91a1.77,1.77,0,0,1,.08.4l0,.09a2.35,2.35,0,0,1,.14.37c1.26,4.26,2.42,8.1,3.26,10.88a2.74,2.74,0,0,1,.09.39l0,.1a2.35,2.35,0,0,1,.14.37c.7,2.31,1.13,3.7,1.13,3.71A2.7,2.7,0,0,1,237.59,225.8Z"/></clipPath><linearGradient id="linear-gradient-3" x1="154.23" y1="323.48" x2="154.23" y2="69.32" gradientUnits="userSpaceOnUse"><stop offset="0" stop-color="#300068"/><stop offset="1" stop-color="#10002f"/></linearGradient><clipPath id="clip-path-2"><path class="cls-1" d="M235.12,278.39c-1.12-10.76-.48-22.21,2.7-32.52,0-.12.05-.24.08-.37a69.79,69.79,0,0,1,2.67-13c-2-2.1-4-4.23-5.88-6.42a6.31,6.31,0,0,1-.84-1.24l-40-16.19s-11.67,16.16-36.36,14.81-36.68-11.71-38.51-14.44L83.61,223.49,84,222l-.8.62a73.1,73.1,0,0,1-13.72,10.76,5.32,5.32,0,0,1-1.55.66v51a113.47,113.47,0,0,0,17.95-10.32s-4.94,26.49,18,40.85l17.5,42.2,72.72.44,17.51-41.74s25.13-16.16,18.85-42.2C230.39,274.21,232.17,276,235.12,278.39Z"/></clipPath><linearGradient id="linear-gradient-4" x1="74.34" y1="266.43" x2="98.95" y2="266.43" xlink:href="#linear-gradient-3"/><linearGradient id="linear-gradient-5" x1="166.62" y1="266.43" x2="191.23" y2="266.43" gradientTransform="matrix(-1, 0, 0, 1, 408.98, 0)" xlink:href="#linear-gradient-3"/><linearGradient id="linear-gradient-6" x1="156.69" y1="90.37" x2="203.15" y2="-9.62" xlink:href="#linear-gradient-3"/><linearGradient id="linear-gradient-7" x1="192.5" y1="0.4" x2="192.5" y2="65.82" xlink:href="#linear-gradient-3"/><linearGradient id="linear-gradient-8" x1="72.49" y1="230.84" x2="133.85" y2="230.84" xlink:href="#linear-gradient-3"/><linearGradient id="linear-gradient-9" x1="166.59" y1="218.11" x2="220.49" y2="218.11" xlink:href="#linear-gradient-3"/><linearGradient id="linear-gradient-10" x1="152.16" y1="166.83" x2="156.2" y2="130.45" xlink:href="#linear-gradient-2"/><linearGradient id="linear-gradient-11" x1="153.91" y1="167.03" x2="157.95" y2="130.65" xlink:href="#linear-gradient-2"/><linearGradient id="linear-gradient-12" x1="154.79" y1="167.12" x2="158.84" y2="130.75" xlink:href="#linear-gradient-2"/><linearGradient id="linear-gradient-13" x1="155.24" y1="167.17" x2="159.28" y2="130.79" xlink:href="#linear-gradient-2"/><linearGradient id="linear-gradient-14" x1="157.56" y1="115.42" x2="157.56" y2="15.35" xlink:href="#linear-gradient-3"/><linearGradient id="linear-gradient-15" x1="85.38" y1="168.28" x2="85.38" y2="100.26" xlink:href="#linear-gradient"/><linearGradient id="linear-gradient-16" x1="231.31" y1="166.93" x2="231.31" y2="102.07" xlink:href="#linear-gradient"/><linearGradient id="linear-gradient-17" x1="158.02" y1="32.27" x2="158.02" y2="104.09" xlink:href="#linear-gradient-3"/><linearGradient id="linear-gradient-18" x1="100.01" y1="32.27" x2="100.01" y2="104.09" xlink:href="#linear-gradient-3"/><radialGradient id="radial-gradient" cx="88.42" cy="80.14" r="61.2" gradientTransform="translate(-69.3 71.28) scale(2.55 0.69)" gradientUnits="userSpaceOnUse"><stop offset="0" stop-color="#5ff7f7"/><stop offset="0.08" stop-color="#57d8e4" stop-opacity="0.87"/><stop offset="0.27" stop-color="#4598bd" stop-opacity="0.61"/><stop offset="0.45" stop-color="#37629d" stop-opacity="0.39"/><stop offset="0.62" stop-color="#2c3983" stop-opacity="0.22"/><stop offset="0.77" stop-color="#241b71" stop-opacity="0.1"/><stop offset="0.9" stop-color="#1f0866" stop-opacity="0.03"/><stop offset="0.99" stop-color="#1d0262" stop-opacity="0"/></radialGradient><linearGradient id="linear-gradient-19" x1="27.85" y1="325.76" x2="61.16" y2="215.04" xlink:href="#linear-gradient-2"/><linearGradient id="linear-gradient-20" x1="196.1" y1="325.76" x2="229.41" y2="215.04" gradientTransform="matrix(-1, 0, 0, 1, 484.98, 0)" xlink:href="#linear-gradient-2"/></defs><g class="cls-2"><g id="Layer_2" data-name="Layer 2"><g id="OBJECTS"><path class="cls-3" d="M279,223.91c-1.83-6.83-3.65-13.19-5.25-18.81-2.9-10.18-5.19-18.23-6.1-23.79a.13.13,0,0,1,0-.06,24,24,0,0,1-.4-5.31c.35-5.71,0-9.62-.43-11.11-1.42-.14-4.2-.23-6.5-.23a2.66,2.66,0,0,1-2.49-1.71l-4.37-11.43-2.51,1.26a2.66,2.66,0,0,1-3.65-1.35c-6-14.28-11.3-25.78-12.79-27.74-2.09-1.19-11-5.77-17-8.51a2.67,2.67,0,0,1-1.48-3c.28-1.18,6.67-29.21-8.16-49.1A2.64,2.64,0,0,1,208,59.6a34.47,34.47,0,0,0,8.14-18.94c1.24-10.11-1.5-20.15-7.32-26.84C202.34,6.36,191.45,2.21,179.68,2.7,172,3,165.22,5.18,160,8.9,150.4,15.72,145.86,29,149.17,40.4a2.67,2.67,0,0,1-2.29,3.4c-18.17,1.83-31.55,8.53-39.76,19.91-14.42,20-8.37,48-8.11,49.19a2.68,2.68,0,0,1-1.46,3c-6,2.82-13.54,6.73-15.34,7.74-1.49,2-6.79,13.46-12.78,27.74a2.71,2.71,0,0,1-1.54,1.47,2.65,2.65,0,0,1-2.12-.12l-2.51-1.26-4.37,11.43a2.66,2.66,0,0,1-2.49,1.71c-2.29,0-5.06.09-6.49.23a17.74,17.74,0,0,0-.49,3.52c0,.22,0,.45,0,.68a67.84,67.84,0,0,0,.09,6.91,24,24,0,0,1-.4,5.31v.06c-.17,1-.38,2.1-.65,3.33l-.2.91c-.58,2.57-1.37,5.68-2.51,9.8l-.24.86c-.76,2.75-1.61,5.73-2.52,8.91l-1.3,4.57v0c-1.07,3.78-2.48,8.81-3.93,14.19-1.18,4.44-2.2,8.88-3,13.22v0l-.16.83a126.64,126.64,0,0,0-1.94,16.12v.32c-.51,11,1,19.38,4.56,24.93.16.26.34.51.52.76a16,16,0,0,0,9.05,6.42c14.32,4,27.34-5,33.83-10.78l.82-.74a46.67,46.67,0,0,0,3.45-3.49,2.67,2.67,0,0,1,4.55,2.59c-.32.94-7.52,23.23,15.69,38.52l.06,0,.06,0,.61.4a2.67,2.67,0,0,1,1,1.27l16,40.43h70.59l15.9-40.14h0s0,0,0,0l.11-.27a2.62,2.62,0,0,1,1-1.26c24.1-15.3,16.75-38,16.42-39a2.68,2.68,0,0,1-.12-1.16l0-.32a2.67,2.67,0,0,1,4.39-1.72l.3.25a3.15,3.15,0,0,1,.37.36A45.9,45.9,0,0,0,235.3,275a2.61,2.61,0,0,1,.23.24l.34.31a1.57,1.57,0,0,1,.25.2c6.5,5.77,19.54,14.86,33.87,10.8C291.6,280.42,283.48,240.71,279,223.91ZM135.37,204.05a2.66,2.66,0,0,1-1.68,2.47L130,208a2.81,2.81,0,0,1-1.14.18L121.28,211a2.63,2.63,0,0,1-1.17.91L82.68,226.84l-.05,0,0,0-.18.07a2.64,2.64,0,0,1-1,.19,2.66,2.66,0,0,1-2.55-3.44S79.3,222.3,80,220l0-.13c.85-2.82,2.1-7,3.48-11.61,6.88-23.21,8.29-29.59,8.56-31.34a15.74,15.74,0,0,0-3.89-2.22,2.63,2.63,0,0,1-1-.81,2.64,2.64,0,0,1-.88-3.4c1.53-3,2.1-5.37,2.06-6.22A2.67,2.67,0,0,1,89,160c2.1-1.05-.36-9-1.29-12.05l-.06-.21c-1.73-5.6-3-17.11-3-17.6a2.67,2.67,0,0,1,.49-1.85l3.34-4.58a2.59,2.59,0,0,1,.83-.75c.74-.43,1.51-.92,2.29-1.46a2.66,2.66,0,0,1,4.2,2.17v7.44a24.48,24.48,0,0,0,18,23.56,2.74,2.74,0,0,1,1.49,1.05,82.15,82.15,0,0,0,19.07,19.36,2.68,2.68,0,0,1,1.09,2.15ZM237.59,225.8l-.1.17,0,0a.43.43,0,0,1,0,.07l-.35.63a2.65,2.65,0,0,1-2.33,1.37,2.84,2.84,0,0,1-.81-.12,2.66,2.66,0,0,1-1.7-1.65l-39-15.55L186.48,208a2.38,2.38,0,0,1-.58-.16l-3.32-1.32a2.66,2.66,0,0,1-1.68-2.47v-6.81h0V177.16A2.65,2.65,0,0,1,182,175a84.55,84.55,0,0,0,18.84-19.9,2.7,2.7,0,0,1,1.32-1,24.49,24.49,0,0,0,16.31-23V121.7a2.66,2.66,0,0,1,4.38-2,31.63,31.63,0,0,0,4.61,3.26,2.59,2.59,0,0,1,.83.75l3.34,4.58a2.67,2.67,0,0,1,.49,1.85c-.05.49-1.29,12-3,17.6l-.06.21c-.93,3-3.39,11-1.29,12.05a2.65,2.65,0,0,1,.66,4.29c0,.84.54,3.18,2.06,6.22a2.64,2.64,0,0,1-.88,3.4,2.63,2.63,0,0,1-1.05.81,15.49,15.49,0,0,0-3.88,2.22c.12.8.5,2.7,1.65,7.09a1.78,1.78,0,0,1,.07.39l0,.09c0,.12.09.24.13.37,1,3.8,2.4,8.78,4.14,14.77a1.8,1.8,0,0,1,.08.39l0,.1a2,2,0,0,1,.14.37c.68,2.34,1.37,4.68,2,6.91a1.77,1.77,0,0,1,.08.4l0,.09a2.35,2.35,0,0,1,.14.37c1.26,4.26,2.42,8.1,3.26,10.88a2.74,2.74,0,0,1,.09.39l0,.1a2.35,2.35,0,0,1,.14.37c.7,2.31,1.13,3.7,1.13,3.71A2.7,2.7,0,0,1,237.59,225.8Z"/><path class="cls-4" d="M161.51,187c-3.78,1.24-7.52.45-12.24-2-1.88-1-3.81-2-5.73-3,10.39,8.1,26.34,19.54,37.2,22.65l.07-29C176,180.93,168.48,186.6,161.51,187Z"/><path class="cls-5" d="M115.21,155.69S132.63,180.77,159,188c0,0,22.32-5.83,41.78-32.89"/><path class="cls-6" d="M115.21,155.69a103.55,103.55,0,0,0,9.35,10.16,109.62,109.62,0,0,0,10.49,8.9A83,83,0,0,0,146.64,182l3.06,1.52c1,.48,2.1.88,3.14,1.32l1.58.65L156,186l3.24,1h-.51a60,60,0,0,0,12.06-5.39,93.4,93.4,0,0,0,11.09-7.45c1.71-1.43,3.48-2.8,5.11-4.33.82-.76,1.67-1.5,2.48-2.27l2.37-2.38,1.2-1.18,1.13-1.24,2.27-2.49c.77-.82,1.43-1.73,2.16-2.59l2.16-2.6c-1.29,1.85-2.54,3.73-3.91,5.52l-2.11,2.65-1.06,1.33-1.13,1.26-2.27,2.53c-.79.81-1.6,1.6-2.4,2.4s-1.61,1.6-2.47,2.34l-2.55,2.25a86,86,0,0,1-11.13,7.88,59.45,59.45,0,0,1-12.5,5.69.84.84,0,0,1-.52,0l-3.34-1.08c-.56-.19-1.12-.36-1.67-.56l-1.63-.68c-1.07-.46-2.17-.88-3.23-1.37l-3.13-1.6A77.58,77.58,0,0,1,134.1,176a93.52,93.52,0,0,1-10.24-9.45c-1.57-1.71-3.09-3.45-4.54-5.26A62.23,62.23,0,0,1,115.21,155.69Z"/><g class="cls-7"><path class="cls-8" d="M98.81,117.58c1-6,6.37-10.37,12.16-12s11.94-1.14,17.95-.71a484.07,484.07,0,0,0,63.16.43c5.32-.32,10.86-.68,15.77,1.38s8.91,7.41,7.53,12.55a905.67,905.67,0,0,1-105.11,1.39,59.19,59.19,0,0,1-8.08-.74"/></g><g class="cls-9"><path class="cls-6" d="M125.6,214.43a46.36,46.36,0,0,0,13.73,8.5c5.09,1.85,10.83,2.3,15.9.4a200.26,200.26,0,0,0-17-38.61c-.94-1.64-1.91-3.3-2.82-5v24.31a2.66,2.66,0,0,1-1.68,2.47L130,208a2.81,2.81,0,0,1-1.14.18l-6.25,2.35.06.24A8.4,8.4,0,0,0,125.6,214.43Z"/></g><g class="cls-9"><path class="cls-6" d="M132.63,173.79a24.27,24.27,0,0,1-1.1-4.14l-3.34.5C129.62,171.4,131.1,172.62,132.63,173.79Z"/></g><g class="cls-9"><path class="cls-6" d="M131.15,67.51A88.55,88.55,0,0,0,126,127l-11.77-1.61a8.42,8.42,0,0,1-3.43-1,7.76,7.76,0,0,1-2-2.18c-8-11.36-12.46-26.42-7.1-39.21a20.57,20.57,0,0,1,3.35-5.61c6-7,16.38-7.53,25.56-7.59"/></g><g class="cls-10"><path class="cls-4" d="M210.6,122l-52.43-.38v0h-1.89v0l-52.44.38h0a4.66,4.66,0,0,0-4.52,4.79v12c0,14.33,11,25.94,24.52,25.94h66.77c13.54,0,24.52-11.61,24.52-25.94v-12A4.67,4.67,0,0,0,210.6,122Z"/><path class="cls-11" d="M113.72,154.64S131.64,180.85,159,188c0,0-18-6.29-27.38-38.16Z"/></g><path class="cls-12" d="M235.12,278.39c-1.12-10.76-.48-22.21,2.7-32.52,0-.12.05-.24.08-.37a69.79,69.79,0,0,1,2.67-13c-2-2.1-4-4.23-5.88-6.42a6.31,6.31,0,0,1-.84-1.24l-40-16.19s-11.67,16.16-36.36,14.81-36.68-11.71-38.51-14.44L83.61,223.49,84,222l-.8.62a73.1,73.1,0,0,1-13.72,10.76,5.32,5.32,0,0,1-1.55.66v51a113.47,113.47,0,0,0,17.95-10.32s-4.94,26.49,18,40.85l17.5,42.2,72.72.44,17.51-41.74s25.13-16.16,18.85-42.2C230.39,274.21,232.17,276,235.12,278.39Z"/><g class="cls-13"><g class="cls-9"><path class="cls-6" d="M87.53,252.82c-3.18,7.62.33,16.9,6.75,22.1s15.06,6.91,23.32,6.7,16.36-2.16,24.52-3.46a158.72,158.72,0,0,1,51.33.25L156,287.58a145.69,145.69,0,0,0,48.85-1c6.2-1.19,13.83-4.81,13.06-11.08l-55.47-11.21a299.15,299.15,0,0,1,68.16,3.32c2.58.42,5.38,1,7.08,3,1.36,1.61,1.73,3.82,2,5.91l2.43,16.37c.69,4.68,1.37,9.59-.28,14-1.26,3.41-3.77,6.18-6.22,8.86-21.19,23.15-43.49,47.08-72.84,58.18A50.13,50.13,0,0,1,146,377.66c-6,.1-11.89-1.41-17.61-3.16-18.25-5.57-36.66-14.54-46.95-30.61-12.25-19.14-10.36-44-5.29-66.14,1.89-8.28,4.16-16.47,6-24.76"/></g><g class="cls-9"><path class="cls-6" d="M87.53,252.82c-3.18,7.62.33,16.9,6.75,22.1s15.06,6.91,23.32,6.7,16.36-2.16,24.52-3.46a158.72,158.72,0,0,1,51.33.25L156,287.58a145.69,145.69,0,0,0,48.85-1c6.2-1.19,13.83-4.81,13.06-11.08l-55.47-11.21a299.15,299.15,0,0,1,68.16,3.32c2.58.42,5.38,1,7.08,3,1.36,1.61,1.73,3.82,2,5.91l2.43,16.37c.69,4.68,1.37,9.59-.28,14-1.26,3.41-3.77,6.18-6.22,8.86-21.19,23.15-43.49,47.08-72.84,58.18A50.13,50.13,0,0,1,146,377.66c-6,.1-11.89-1.41-17.61-3.16-18.25-5.57-36.66-14.54-46.95-30.61-12.25-19.14-10.36-44-5.29-66.14,1.89-8.28,4.16-16.47,6-24.76"/></g></g><g class="cls-14"><path class="cls-15" d="M83,226.18a397.48,397.48,0,0,1-7.41,43.07,31.14,31.14,0,0,0-1.18,9.07,16.74,16.74,0,0,0,.54,3.15,112.72,112.72,0,0,0,10.93-6.81s-3.29,17.71,8,32a121.27,121.27,0,0,1,2-20.74c1.16-6.42,2.85-12.79,3.09-19.31.54-14.4-6.06-28.3-15.12-39.5Z"/></g><g class="cls-14"><path class="cls-16" d="M233.73,226.18a399.94,399.94,0,0,0,7.41,43.07,31.16,31.16,0,0,1,1.19,9.07,17.6,17.6,0,0,1-.55,3.15,112.72,112.72,0,0,1-10.93-6.81s3.3,17.71-8,32a123.32,123.32,0,0,0-2-20.74c-1.17-6.42-2.85-12.79-3.09-19.31-.54-14.4,6.06-28.3,15.12-39.5Z"/></g><path class="cls-17" d="M147.31,43.26c-4.84-12.81,0-28.59,11.13-36.53C164.54,2.39,172.08.36,179.57,0c11.54-.49,23.69,3.31,31.27,12,6.75,7.77,9.21,18.7,8,28.92-1,7.95-4.15,15.78-9.81,21.44a21,21,0,0,1-8.25,5.32C194,70,186.62,67.48,180.1,64.6A157.21,157.21,0,0,1,149,46.32"/><g class="cls-14"><path class="cls-18" d="M187.57.4a48.35,48.35,0,0,0-21.68,7.38c5-1,10.18-1.57,15.14-.42s9.68,4.17,11.87,8.77A23.87,23.87,0,0,0,173.42,13a22.92,22.92,0,0,1,21.65,15.36,27.71,27.71,0,0,0-20.75-5.41,18.27,18.27,0,0,1,16.93,15.92A17.9,17.9,0,0,0,178,35.67c4.65-.44,8.95,3.13,10.74,7.44s1.6,9.16,1.08,13.79a5.44,5.44,0,0,0,.41,3.64,5.15,5.15,0,0,0,2.3,1.65,39.38,39.38,0,0,0,12.25,3.63A24.39,24.39,0,0,0,209,62.43c5.66-5.66,8.84-13.49,9.81-21.44,1.25-10.22-1.21-21.15-8-28.92C205,5.36,196.46,1.57,187.57.4Z"/></g><ellipse class="cls-19" cx="162.93" cy="42.69" rx="14.38" ry="11.26"/><g class="cls-20"><path class="cls-21" d="M175.28,48.44a9.43,9.43,0,0,0,2-5.75c0-5.21-4.52-9.57-10.65-10.86A11.25,11.25,0,0,1,168.91,33c.09.61-.81.78-1.43.71a17.41,17.41,0,0,0-10.18,2c3.64.21,7.77.68,9.92,3.63-6.39.06-13.09.42-18.56,3.71a46,46,0,0,1,23.12,3.85C172.94,47.44,174.09,48,175.28,48.44Z"/></g><path class="cls-22" d="M129,205.3s3.34,12.92,29.19,12.92,28.77-12.92,28.77-12.92l9.17,3.75s-6.67,18.76-38.36,18.76-38.78-18.76-38.78-18.76Z"/><g class="cls-14"><path class="cls-23" d="M133.85,218.65c-9-3.55-13.81-8-14.91-9.6L83.61,223.49,84,222l-.8.62a67.1,67.1,0,0,1-10.68,8.77q.9,7.37,1.78,14.74l1.4,6.54a68,68,0,0,1,52.82-33.78C130.28,218.71,132.07,218.66,133.85,218.65Z"/></g><g class="cls-14"><path class="cls-24" d="M193.81,208.68s-8.79,12.15-27.22,14.49c4.65,1,9.3,2,14,2.8,9.26,1.62,18.92,2.53,28-.06a31.94,31.94,0,0,0,12-6.44Z"/></g><path class="cls-25" d="M210.6,113.91l-52.43-.38v0h-1.89v0l-52.44.38h0a4.66,4.66,0,0,0-4.52,4.79v12c0,14.33,11,25.94,24.52,25.94h66.77c13.54,0,24.52-11.61,24.52-25.94v-12a4.67,4.67,0,0,0-4.53-4.79Z"/><path class="cls-26" d="M215.13,124V118.7a4.67,4.67,0,0,0-4.53-4.79l-52.43-.38v0h-1.89v0l-52.44.38a4.66,4.66,0,0,0-4.52,4.79V124Z"/><path class="cls-27" d="M212.54,142.23a26.13,26.13,0,0,0,1.81-5H100.1a26.13,26.13,0,0,0,1.81,5Z"/><path class="cls-28" d="M208.57,148.29a26.52,26.52,0,0,0,2.3-3H103.58a25.41,25.41,0,0,0,2.3,3Z"/><path class="cls-29" d="M106.81,149.31a23.75,23.75,0,0,0,17,7.3h66.77a23.73,23.73,0,0,0,17-7.3Z"/><path class="cls-30" d="M204,118.32,158.05,118H156.4l-45.93.31h0a3.89,3.89,0,0,0-4,3.79v9.48c0,11.34,9.62,20.53,21.48,20.53h58.49c11.86,0,21.48-9.19,21.48-20.53v-9.48a3.89,3.89,0,0,0-4-3.79Z"/><path class="cls-31" d="M109.77,114s-7.86-20.89-1.25-29.61c9.17-12.09,30-3.33,46.28-3.75,10.22-.26,47.53-8.76,52.54,4.17s-.84,27.94-.84,27.94h12.09S236.11,40.6,157.72,40.6s-61.29,73-61.29,73Z"/><path class="cls-22" d="M56.4,161.93l5.42-14.17s25.85,12.92,28.36,14.59-1.67,9.59-1.67,9.59,5.42,2.09,6.25,4.17-13.34,48.37-13.34,48.37S90.18,239.9,94.34,252s-7.5,21.27-7.5,21.27S68.08,295.36,46,289.1s-17.1-42.53-10.84-65.87,12.09-40.45,11.67-47.12,0-13.34,1.67-13.76A61.8,61.8,0,0,1,56.4,161.93Z"/><path class="cls-22" d="M260.29,161.93l-5.42-14.17S229,160.68,226.52,162.35s1.66,9.59,1.66,9.59-5.42,2.09-6.25,4.17,13.34,48.37,13.34,48.37S226.52,239.9,222.35,252s7.5,21.27,7.5,21.27,18.76,22.1,40.86,15.84,17.1-42.53,10.84-65.87-12.09-40.45-11.67-47.12,0-13.34-1.67-13.76A61.8,61.8,0,0,0,260.29,161.93Z"/><path class="cls-6" d="M46.78,167.94c0,.31-.05.64-.06,1a186.27,186.27,0,0,0,46.05,16.63c.07-.29.15-.58.22-.86A185,185,0,0,1,46.78,167.94Z"/><path class="cls-6" d="M45.82,184.08c-.06.29-.13.59-.2.89a257.42,257.42,0,0,0,42.74,16.26c.08-.29.16-.57.25-.85A256.89,256.89,0,0,1,45.82,184.08Z"/><path class="cls-6" d="M43.14,194.63l-.24.87C56.61,202,71.55,206,86.07,209c.09-.28.17-.57.25-.85C71.79,205.1,56.83,201.18,43.14,194.63Z"/><path class="cls-6" d="M39.33,208.11c-.08.29-.16.58-.25.87,13.85,6.07,28.89,9.36,43.47,11.79.08-.28.17-.56.26-.86C68.21,217.48,53.16,214.19,39.33,208.11Z"/><path class="cls-6" d="M35.2,223a183,183,0,0,0,50.68,9.82l-.46-.91a182.21,182.21,0,0,1-50-9.77C35.35,222.44,35.27,222.73,35.2,223Z"/><path class="cls-6" d="M32.08,236.63c-.06.3-.12.59-.17.89a298.8,298.8,0,0,0,40.77,2.8c1.66,0,3.32,0,5,0l-.81-.88A296.5,296.5,0,0,1,32.08,236.63Z"/><path class="cls-6" d="M74.92,248.38a222.49,222.49,0,0,1-45,5c0,.29,0,.59-.05.89a222.39,222.39,0,0,0,44.66-4.92C74.69,249,74.8,248.71,74.92,248.38Z"/><path class="cls-6" d="M70.44,267.08a57,57,0,0,1-35.55,13.71c.19.3.38.58.59.87A57.76,57.76,0,0,0,71,267.75Z"/><path class="cls-6" d="M72.21,257.9c0,.12,0,.25-.08.37s-.07.29-.11.44l0,.12a22.94,22.94,0,0,1,10.31,18.92l.86-.77A23.86,23.86,0,0,0,72.21,257.9Z"/><path class="cls-6" d="M84.39,247.05c-.19-.26-.39-.51-.59-.77q-2.25-3-5-6c-.26-.3-.51-.59-.78-.88-.11-.13-.24-.26-.35-.38a6.47,6.47,0,0,1-.39.89c.12.13.24.25.35.38,1.91,2.11,3.63,4.19,5.2,6.25l.59.77c4.79,6.43,7.92,12.6,9.44,18.59.21-.38.41-.78.6-1.18A55.07,55.07,0,0,0,84.39,247.05Z"/><path class="cls-6" d="M269.88,167.94c0,.31.05.64.06,1a186.41,186.41,0,0,1-46.05,16.63c-.07-.29-.15-.58-.22-.86A185,185,0,0,0,269.88,167.94Z"/><path class="cls-6" d="M270.84,184.08c.06.29.13.59.2.89a257.42,257.42,0,0,1-42.74,16.26c-.08-.29-.16-.57-.25-.85A256.89,256.89,0,0,0,270.84,184.08Z"/><path class="cls-6" d="M273.52,194.63l.24.87C260.05,202,245.11,206,230.59,209c-.09-.28-.17-.57-.25-.85C244.87,205.1,259.83,201.18,273.52,194.63Z"/><path class="cls-6" d="M277.33,208.11c.08.29.16.58.25.87-13.85,6.07-28.89,9.36-43.47,11.79-.08-.28-.17-.56-.26-.86C248.45,217.48,263.5,214.19,277.33,208.11Z"/><path class="cls-6" d="M281.46,223a183,183,0,0,1-50.68,9.82l.46-.91a182.21,182.21,0,0,0,50-9.77C281.31,222.44,281.39,222.73,281.46,223Z"/><path class="cls-6" d="M284.58,236.63c.06.3.12.59.17.89a298.8,298.8,0,0,1-40.77,2.8c-1.66,0-3.33,0-5,0l.81-.88A296.5,296.5,0,0,0,284.58,236.63Z"/><path class="cls-6" d="M241.74,248.38a222.41,222.41,0,0,0,45,5c0,.29,0,.59.05.89a222.39,222.39,0,0,1-44.66-4.92C242,249,241.86,248.71,241.74,248.38Z"/><path class="cls-6" d="M246.22,267.08a57,57,0,0,0,35.55,13.71c-.19.3-.38.58-.59.87a57.76,57.76,0,0,1-35.54-13.91Z"/><path class="cls-6" d="M244.45,257.9c0,.12.05.25.08.37s.07.29.11.44l0,.12a22.94,22.94,0,0,0-10.31,18.92l-.86-.77A23.86,23.86,0,0,1,244.45,257.9Z"/><path class="cls-6" d="M232.27,247.05c.19-.26.39-.51.59-.77q2.25-3,5-6c.26-.3.51-.59.78-.88.11-.13.24-.26.35-.38a6.47,6.47,0,0,0,.39.89c-.12.13-.24.25-.35.38-1.91,2.11-3.63,4.19-5.2,6.25l-.59.77c-4.79,6.43-7.92,12.6-9.44,18.59-.21-.38-.41-.78-.6-1.18A55.07,55.07,0,0,1,232.27,247.05Z"/><path class="cls-32" d="M199.53,131.25H114a5.07,5.07,0,0,1-5-5h0a5.06,5.06,0,0,1,5-5h85.51a5.06,5.06,0,0,1,5.05,5h0A5.07,5.07,0,0,1,199.53,131.25Z"/><path class="cls-33" d="M66.83,150.68s11.67-27.94,13.76-29.19,19.17-10,22.51-10.84-3.75,9.59-12.51,14.59l-3.33,4.59s1.25,11.67,2.92,17.09,4.16,13.35,0,15.43Z"/><path class="cls-34" d="M249.86,150.68s-11.67-27.94-13.75-29.19-19.18-10-22.52-10.84,3.75,9.59,12.51,14.59l3.33,4.59s-1.25,11.67-2.91,17.09-4.17,13.35,0,15.43Z"/><g class="cls-35"><g class="cls-9"><path class="cls-36" d="M219,82.45c-3.86-19.74-17.85-41.85-61.25-41.85C117,40.6,102,60.33,97.07,79.27a53.08,53.08,0,0,1,11.05-13.76,75.57,75.57,0,0,0-7.8,13.83,33.31,33.31,0,0,1,12.82-14.6,48.4,48.4,0,0,0-12.77,31.47c4.14-19.93,20.28-36.85,40-41.93a15.53,15.53,0,0,0-9,15.77L146,52.28a67.57,67.57,0,0,0-.47,12.64A101.25,101.25,0,0,0,150,51.66a111.52,111.52,0,0,1,.55,25A99.21,99.21,0,0,0,160,49.88a115.2,115.2,0,0,1,.75,20.92,69.35,69.35,0,0,0,5.57-15.88l2.37,11.37a19.76,19.76,0,0,0,3.12-12.56,44.82,44.82,0,0,1,11,17.88,30.29,30.29,0,0,0-1.85-19.85,102.23,102.23,0,0,1,19.12,18.63,50.91,50.91,0,0,0-6.17-14.78A152.07,152.07,0,0,1,215,86.39a47.61,47.61,0,0,0-12.74-29.76C211.68,61.42,216.39,72,219,82.45Z"/></g><g class="cls-9"><path class="cls-37" d="M100.32,79.34q-.33.73-.63,1.47Z"/></g></g><g class="cls-9"><path class="cls-6" d="M86.78,242.12l3.16,1.33A4.33,4.33,0,0,0,86.78,242.12Z"/></g><g class="cls-9"><path class="cls-6" d="M89.94,243.45l.31.32a1.09,1.09,0,0,1,0-.17Z"/></g><g class="cls-7"><path class="cls-38" d="M94.34,252c-4.16-12.09-12.92-27.51-12.92-27.51S95.6,178.2,94.76,176.11s-6.25-4.17-6.25-4.17,4.17-7.92,1.67-9.59c-1.39-.92-9.9-5.28-17.24-9a35.42,35.42,0,0,0-.42,8.9l-10.55-1,14.56,6.07a197,197,0,0,1-14.86,54c-3.54,8.12-7.67,16.12-9.33,24.83a46.3,46.3,0,0,0,7.6,34.93,27.44,27.44,0,0,0,6.52,6.69c12.07-4.71,20.38-14.48,20.38-14.48S98.51,264.09,94.34,252Z"/></g><g class="cls-7"><path class="cls-38" d="M222.14,252c4.17-12.09,12.93-27.51,12.93-27.51s-14.18-46.28-13.35-48.37,6.26-4.17,6.26-4.17-4.17-7.92-1.67-9.59c1.38-.92,9.9-5.28,17.24-9a36.38,36.38,0,0,1,.42,8.9l10.55-1L240,167.32a197.31,197.31,0,0,0,14.85,54c3.55,8.12,7.68,16.12,9.33,24.83a46.26,46.26,0,0,1-7.59,34.93,27.63,27.63,0,0,1-6.52,6.69C238,283,229.65,273.26,229.65,273.26S218,264.09,222.14,252Z"/></g><ellipse class="cls-39" cx="155.82" cy="126.47" rx="155.82" ry="42.15"/><path class="cls-40" d="M198.52,141.35h-29a2,2,0,0,1-2-2h0a2,2,0,0,1,2-2h29a2,2,0,0,1,2,2h0A2,2,0,0,1,198.52,141.35Z"/><path class="cls-22" d="M133.24,138.65H114.33a1.32,1.32,0,0,1-1.32-1.32h0a1.33,1.33,0,0,1,1.32-1.32h18.91a1.32,1.32,0,0,1,1.31,1.32h0A1.32,1.32,0,0,1,133.24,138.65Z"/><path class="cls-6" d="M199.53,131.25H114a5.07,5.07,0,0,1-5-5h0a5.06,5.06,0,0,1,5-5h85.51a5.06,5.06,0,0,1,5.05,5h0A5.07,5.07,0,0,1,199.53,131.25Z"/><g class="cls-7"><path class="cls-38" d="M52.12,187.52c1.69-2.44,3.36-5.22,3-8.17a13.05,13.05,0,0,0-2.2-5.15q-2.86-4.72-5.75-9.45a48,48,0,0,0-.38,11.36c.27,4.32-2.08,13-5.47,24.94A127.64,127.64,0,0,0,52.12,187.52Z"/></g><g class="cls-7"><path class="cls-38" d="M278.2,211.07c-4.83-17.1-8.66-29.51-8.32-35a61.21,61.21,0,0,0,0-8.92q-4.67,8-9.26,16.14A9.15,9.15,0,0,0,259,188a8.81,8.81,0,0,0,1.8,4.36,175.73,175.73,0,0,0,16.06,21.08C277.32,212.66,277.77,211.87,278.2,211.07Z"/></g><path class="cls-41" d="M63.08,288.88a7.12,7.12,0,0,0-1.53-2.18c-3.86-4.11-8.63-7.36-12.08-11.82s-5.38-10-6.95-15.41c-6.05-21-7.35-44.35,2-64.09l-1.48-.44c-2.15,7.77-5,17.34-7.92,28.29C28.88,246.57,23.88,282.85,46,289.1A30.66,30.66,0,0,0,63.08,288.88Z"/><path class="cls-42" d="M253.64,288.88a7.15,7.15,0,0,1,1.54-2.18c3.86-4.11,8.63-7.36,12.07-11.82s5.39-10,7-15.41c6.05-21,7.34-44.35-2-64.09l1.48-.44c2.14,7.77,5,17.34,7.92,28.29,6.25,23.34,11.25,59.62-10.84,65.87A30.69,30.69,0,0,1,253.64,288.88Z"/></g></g></g></svg>