<svg width="475" height="475" viewBox="0 0 475 475" fill="none" xmlns="http://www.w3.org/2000/svg">
<g opacity="0.8">
<g filter="url(#filter0_bdi)">
<rect x="50" y="46" width="375" height="375" rx="90" fill="#C4C4C4" fill-opacity="0.2"/>
</g>
<rect x="62.6816" y="58.5" width="350" height="350" rx="100" fill="#06001E"/>
<path d="M237.683 105.094C217.303 105.094 200.781 121.615 200.781 141.995C200.781 162.375 217.303 178.897 237.683 178.897C258.063 178.897 274.585 162.375 274.585 141.995C274.562 121.625 258.053 105.117 237.683 105.094ZM237.683 176.437C218.662 176.437 203.241 161.017 203.241 141.995C203.241 122.974 218.662 107.554 237.683 107.554C256.704 107.554 272.125 122.974 272.125 141.995C272.103 161.008 256.695 176.415 237.683 176.437Z" fill="#F6E8FF"/>
<path d="M254.904 127.234H220.462C219.783 127.234 219.232 127.785 219.232 128.464V155.526C219.232 156.205 219.783 156.756 220.462 156.756H254.904C255.583 156.756 256.134 156.205 256.134 155.526V128.464C256.134 127.785 255.583 127.234 254.904 127.234ZM251.583 129.694L237.683 141.605L223.784 129.694H251.583ZM221.693 154.296V131.138L236.883 144.158C237.343 144.552 238.021 144.552 238.481 144.158L253.674 131.138V154.296H221.693Z" fill="#F6E8FF"/>
<path d="M237.683 288.104C217.303 288.104 200.781 304.625 200.781 325.005C200.781 345.385 217.303 361.907 237.683 361.907C258.063 361.907 274.585 345.385 274.585 325.005C274.562 304.635 258.053 288.126 237.683 288.104ZM237.683 359.447C218.662 359.447 203.241 344.027 203.241 325.005C203.241 305.984 218.662 290.564 237.683 290.564C256.704 290.564 272.125 305.984 272.125 325.005C272.103 344.018 256.695 359.425 237.683 359.447Z" fill="#F6E8FF"/>
<path d="M256.895 340.014V340.012H256.904V327.324C256.904 321.117 255.567 316.336 248.311 316.336C244.823 316.336 242.482 318.25 241.526 320.065H241.425V316.915H234.545V340.012H241.709V328.575C241.709 325.564 242.28 322.652 246.009 322.652C249.683 322.652 249.738 326.089 249.738 328.769V340.014H256.895Z" fill="#F6E8FF"/>
<path d="M222.879 316.916H230.052V340.013H222.879V316.916Z" fill="#F6E8FF"/>
<path d="M226.463 305.418C224.17 305.418 222.309 307.279 222.309 309.572C222.309 311.866 224.17 313.766 226.463 313.766C228.756 313.766 230.617 311.866 230.617 309.572C230.616 307.279 228.755 305.418 226.463 305.418V305.418Z" fill="#F6E8FF"/>
<path d="M237.683 196.598C217.303 196.598 200.781 213.119 200.781 233.499C200.781 253.879 217.303 270.401 237.683 270.401C258.063 270.401 274.585 253.879 274.585 233.499C274.562 213.129 258.053 196.62 237.683 196.598ZM237.683 267.941C218.662 267.941 203.241 252.521 203.241 233.499C203.241 214.478 218.662 199.058 237.683 199.058C256.704 199.058 272.125 214.478 272.125 233.499C272.103 252.512 256.695 267.919 237.683 267.941Z" fill="#F6E8FF"/>
<path d="M254.309 230.088C254.466 229.095 254.564 228.006 254.588 226.786C254.579 221.552 252.073 219.7 251.591 218.831C252.301 214.866 251.474 213.062 251.089 212.444C249.669 211.94 246.149 213.745 244.226 215.015C241.091 214.097 234.465 214.187 231.98 215.253C227.395 211.97 224.97 212.47 224.97 212.47C224.97 212.47 223.402 215.281 224.556 219.394C223.047 221.316 221.923 222.675 221.923 226.28C221.923 227.144 221.976 227.96 222.067 228.745C223.367 235.575 228.779 238.522 234.096 239.03C233.296 239.638 232.335 240.789 232.202 242.122C231.197 242.772 229.175 242.986 227.602 242.492C225.399 241.796 224.556 237.433 221.256 238.055C220.542 238.189 220.684 238.66 221.302 239.061C222.308 239.713 223.254 240.524 223.984 242.258C224.545 243.589 225.723 245.967 229.45 245.967C230.93 245.967 231.966 245.792 231.966 245.792C231.966 245.792 231.994 249.185 231.994 250.508C231.994 252.031 229.939 252.459 229.939 253.189C229.939 253.48 230.619 253.508 231.166 253.508C232.246 253.508 234.494 252.608 234.494 251.025C234.494 249.767 234.514 245.54 234.514 244.8C234.514 243.183 235.381 242.668 235.381 242.668C235.381 242.668 235.487 251.301 235.172 252.459C234.803 253.82 234.135 253.627 234.135 254.233C234.135 255.137 236.837 254.454 237.734 252.475C238.427 250.929 238.117 242.462 238.117 242.462L238.839 242.447C238.839 242.447 238.848 246.324 238.823 248.096C238.797 249.931 238.607 252.25 239.697 253.345C240.413 254.065 242.604 255.329 242.604 254.174C242.604 253.505 241.069 252.952 241.069 251.139V242.788C242.002 242.788 242.194 245.533 242.194 245.533L242.531 250.633C242.531 250.633 242.307 252.494 244.541 253.271C245.329 253.547 247.016 253.622 247.095 253.158C247.174 252.694 245.064 252.006 245.044 250.566C245.033 249.689 245.083 249.175 245.083 245.359C245.083 241.546 244.571 240.135 242.786 239.011C247.963 238.479 253.34 236.167 254.309 230.088Z" fill="#F6E8FF"/>
</g>
<defs>
<filter id="filter0_bdi" x="0" y="0" width="675" height="475" filterUnits="userSpaceOnUse" color-interpolation-filters="sRGB">
<feFlood flood-opacity="0" result="BackgroundImageFix"/>
<feGaussianBlur in="BackgroundImage" stdDeviation="2"/>
<feComposite in2="SourceAlpha" operator="in" result="effect1_backgroundBlur"/>
<feColorMatrix in="SourceAlpha" type="matrix" values="0 0 0 0 0 0 0 0 0 0 0 0 0 0 0 0 0 0 127 0"/>
<feOffset dy="4"/>
<feGaussianBlur stdDeviation="25"/>
<feColorMatrix type="matrix" values="0 0 0 0 0 0 0 0 0 0 0 0 0 0 0 0 0 0 0.25 0"/>
<feBlend mode="normal" in2="effect1_backgroundBlur" result="effect2_dropShadow"/>
<feBlend mode="normal" in="SourceGraphic" in2="effect2_dropShadow" result="shape"/>
<feColorMatrix in="SourceAlpha" type="matrix" values="0 0 0 0 0 0 0 0 0 0 0 0 0 0 0 0 0 0 127 0" result="hardAlpha"/>
<feOffset dx="349" dy="4"/>
<feGaussianBlur stdDeviation="125"/>
<feComposite in2="hardAlpha" operator="arithmetic" k2="-1" k3="1"/>
<feColorMatrix type="matrix" values="0 0 0 0 1 0 0 0 0 0.9475 0 0 0 0 0.98215 0 0 0 0.1 0"/>
<feBlend mode="normal" in2="shape" result="effect3_innerShadow"/>
</filter>
</defs>
</svg>
