<svg width="539" height="758" viewBox="0 0 539 758" fill="none" xmlns="http://www.w3.org/2000/svg">
<g opacity="0.4">
<g clip-path="url(#clip0)">
<path style="mix-blend-mode:overlay" d="M538.398 0.971939H0.0615234V757.028H538.398V0.971939Z" fill="url(#paint0_linear)"/>
</g>
<g clip-path="url(#clip1)">
<path style="mix-blend-mode:overlay" d="M538.398 0.971939H0.0615234V757.028H538.398V0.971939Z" fill="url(#paint1_linear)"/>
</g>
<g clip-path="url(#clip2)">
<path style="mix-blend-mode:overlay" d="M538.398 0.971939H0.0615234V757.028H538.398V0.971939Z" fill="url(#paint2_linear)"/>
</g>
<g clip-path="url(#clip3)">
<path style="mix-blend-mode:overlay" d="M538.397 757.028L538.397 0.971527L0.060791 0.971486L0.060772 757.028L538.397 757.028Z" fill="url(#paint3_linear)"/>
</g>
</g>
<defs>
<linearGradient id="paint0_linear" x1="269.245" y1="-548.771" x2="269.245" y2="2698.01" gradientUnits="userSpaceOnUse">
<stop stop-color="white"/>
<stop offset="1" stop-color="#2A2344" stop-opacity="0"/>
</linearGradient>
<linearGradient id="paint1_linear" x1="269.245" y1="-548.771" x2="269.245" y2="2698.01" gradientUnits="userSpaceOnUse">
<stop stop-color="white"/>
<stop offset="1" stop-color="#2A2344" stop-opacity="0"/>
</linearGradient>
<linearGradient id="paint2_linear" x1="269.245" y1="-548.771" x2="269.245" y2="2698.01" gradientUnits="userSpaceOnUse">
<stop stop-color="white"/>
<stop offset="1" stop-color="#2A2344" stop-opacity="0"/>
</linearGradient>
<linearGradient id="paint3_linear" x1="929.832" y1="379.021" x2="-1381.98" y2="379.021" gradientUnits="userSpaceOnUse">
<stop stop-color="white"/>
<stop offset="1" stop-color="#2A2344" stop-opacity="0"/>
</linearGradient>
<clipPath id="clip0">
<rect x="0.0615234" y="0.971939" width="538.337" height="756.056" rx="15" fill="white"/>
</clipPath>
<clipPath id="clip1">
<rect x="0.0615234" y="0.971939" width="538.337" height="756.056" rx="15" fill="white"/>
</clipPath>
<clipPath id="clip2">
<rect x="0.0615234" y="0.971939" width="538.337" height="756.056" rx="15" fill="white"/>
</clipPath>
<clipPath id="clip3">
<rect x="538.397" y="0.971527" width="756.056" height="538.337" rx="15" transform="rotate(90 538.397 0.971527)" fill="white"/>
</clipPath>
</defs>
</svg>
