<svg width="539" height="758" viewBox="0 0 539 758" fill="none" xmlns="http://www.w3.org/2000/svg">
<g opacity="0.4" filter="url(#filter0_i)">
<g clip-path="url(#clip0)">
<path style="mix-blend-mode:overlay" d="M538.398 0.971939H0.0615234V757.028H538.398V0.971939Z" fill="url(#paint0_linear)"/>
</g>
<g clip-path="url(#clip1)">
<path style="mix-blend-mode:overlay" d="M538.398 0.971939H0.0615234V757.028H538.398V0.971939Z" fill="url(#paint1_linear)"/>
</g>
<g clip-path="url(#clip2)">
<path style="mix-blend-mode:overlay" d="M538.398 0.971939H0.0615234V757.028H538.398V0.971939Z" fill="url(#paint2_linear)"/>
</g>
<g clip-path="url(#clip3)">
<path style="mix-blend-mode:overlay" d="M538.397 757.028L538.397 0.971527L0.060791 0.971486L0.060772 757.028L538.397 757.028Z" fill="url(#paint3_linear)"/>
</g>
</g>
<rect opacity="0.6" x="53.7039" y="156.502" width="431.052" height="54.6257" rx="4.5" stroke="#020B60"/>
<rect opacity="0.6" x="53.7039" y="242.983" width="431.052" height="54.6257" rx="4.5" stroke="#020B60"/>
<rect opacity="0.6" x="53.7039" y="415.944" width="431.052" height="54.6257" rx="4.5" stroke="#020B60"/>
<g filter="url(#filter1_d)">
<rect x="184.337" y="620.015" width="169.784" height="56.5948" rx="6" fill="url(#paint4_linear)"/>
</g>
<rect opacity="0.6" x="53.7039" y="329.463" width="431.052" height="54.6257" rx="4.5" stroke="#020B60"/>
<rect opacity="0.6" x="53.7039" y="502.425" width="431.052" height="54.6257" rx="4.5" stroke="#020B60"/>
<path d="M195.062 98.2499C200.662 98.2499 205.412 94.9499 205.412 89.3499C205.412 78.2499 191.612 80.9999 191.612 75.7999C191.612 74.0999 192.912 73.2999 194.512 73.2999C196.212 73.2999 197.912 74.2499 199.412 75.8999L203.812 71.6999C201.612 69.1499 198.262 67.4499 194.562 67.4499C189.812 67.4499 184.962 70.2999 184.962 76.2999C184.962 86.4999 198.812 84.0499 198.812 89.2999C198.812 90.9499 197.412 92.0499 195.112 92.0499C192.362 92.0499 190.212 90.4999 189.112 88.1499L183.662 91.5499C185.612 95.2999 189.812 98.2499 195.062 98.2499ZM209.773 97.8499H216.373V67.8499H209.773V97.8499ZM236.792 81.3999V86.5499H245.042C243.642 89.6999 240.542 91.7999 236.842 91.7999C231.792 91.7999 227.892 87.8999 227.892 82.8499C227.892 77.7999 231.792 73.8999 236.842 73.8999C240.392 73.8999 243.292 75.7999 244.792 78.6499L250.492 75.6999C247.892 70.7999 242.742 67.4499 236.842 67.4499C228.292 67.4499 221.442 74.3499 221.442 82.8499C221.442 91.3499 228.292 98.2499 236.842 98.2499C245.342 98.2499 252.242 91.3499 252.242 82.8499V81.3999H236.792ZM278.651 67.8499V87.6999L263.901 67.8499H257.101V97.8499H263.701V77.9499L278.401 97.8499H285.201V67.8499H278.651ZM315.456 98.2499C322.556 98.2499 327.956 93.8999 327.956 88.2499V67.8499H321.356V86.9999C321.356 90.0499 318.806 92.3999 315.456 92.3999C312.156 92.3999 309.606 90.0499 309.606 86.9999V67.8499H303.006V88.2499C303.006 93.8999 308.456 98.2499 315.456 98.2499ZM346.453 67.8499H333.703V97.8499H340.303V85.6999H346.453C351.503 85.6999 355.403 81.9499 355.403 76.8999C355.403 71.8999 351.503 67.8499 346.453 67.8499ZM345.403 80.2499H340.303V73.6499H345.403C347.503 73.6499 349.103 74.9999 349.103 76.9499C349.103 78.9499 347.503 80.2499 345.403 80.2499Z" fill="url(#paint5_linear)"/>
<path d="M221.307 654.492C223.985 654.492 226.302 652.985 227.45 650.78L224.885 649.452C224.232 650.735 222.905 651.59 221.307 651.59C219.035 651.59 217.302 649.835 217.302 647.562C217.302 645.29 219.035 643.535 221.307 643.535C222.905 643.535 224.232 644.39 224.885 645.672L227.45 644.345C226.302 642.14 223.985 640.632 221.307 640.632C217.482 640.632 214.377 643.737 214.377 647.562C214.377 651.387 217.482 654.492 221.307 654.492ZM235.792 654.492C239.639 654.492 242.722 651.387 242.722 647.562C242.722 643.737 239.639 640.632 235.792 640.632C231.967 640.632 228.862 643.737 228.862 647.562C228.862 651.387 231.967 654.492 235.792 654.492ZM235.792 651.59C233.519 651.59 231.787 649.835 231.787 647.562C231.787 645.29 233.519 643.535 235.792 643.535C238.087 643.535 239.819 645.29 239.819 647.562C239.819 649.835 238.087 651.59 235.792 651.59ZM254.593 640.812V649.745L247.956 640.812H244.896V654.312H247.866V645.357L254.481 654.312H257.541V640.812H254.593ZM268.549 640.812H258.784V643.445H262.204V654.312H265.151V643.445H268.549V640.812ZM269.881 654.312H272.851V640.812H269.881V654.312ZM285.302 640.812V649.745L278.665 640.812H275.605V654.312H278.575V645.357L285.19 654.312H288.25V640.812H285.302ZM296.468 654.492C299.663 654.492 302.093 652.535 302.093 649.992V640.812H299.123V649.43C299.123 650.802 297.975 651.86 296.468 651.86C294.983 651.86 293.835 650.802 293.835 649.43V640.812H290.865V649.992C290.865 652.535 293.318 654.492 296.468 654.492ZM312.914 643.422V640.812H304.791V654.312H312.914V651.702H307.761V648.867H312.171V646.257H307.761V643.422H312.914Z" fill="#BDDBF8"/>
<path d="M126.717 724.465H129.361L125.311 713.215H122.536L118.486 724.465H121.129L121.823 722.346H126.023L126.717 724.465ZM122.479 720.284L123.923 715.821L125.367 720.284H122.479ZM132.696 722.271V713.215H130.221V724.465H136.428V722.271H132.696ZM143.444 719.834C144.775 719.44 145.712 718.202 145.712 716.665C145.712 714.752 144.288 713.215 142.356 713.215H137.575V724.465H140.05V720.115H141.044L143.819 724.465H146.594L143.444 719.834ZM141.981 718.071H140.05V715.409H141.981C142.769 715.409 143.35 715.971 143.35 716.74C143.35 717.527 142.769 718.071 141.981 718.071ZM154.472 715.39V713.215H147.703V724.465H154.472V722.29H150.178V719.927H153.853V717.752H150.178V715.39H154.472ZM163.221 724.465H165.865L161.815 713.215H159.04L154.99 724.465H157.633L158.327 722.346H162.527L163.221 724.465ZM158.983 720.284L160.427 715.821L161.871 720.284H158.983ZM166.725 724.465H170.438C173.532 724.465 176.063 721.952 176.063 718.84C176.063 715.727 173.532 713.215 170.438 713.215H166.725V724.465ZM169.2 722.271V715.409H170.419C172.2 715.409 173.588 716.89 173.588 718.84C173.588 720.79 172.2 722.271 170.419 722.271H169.2ZM186.565 713.215H183.809L181.409 717.021L179.009 713.215H176.215L180.171 719.177V724.465H182.646V719.159L186.565 713.215ZM199 713.215V717.734H194.425V713.215H191.95V724.465H194.425V719.927H199V724.465H201.456V713.215H199ZM210.565 724.465H213.208L209.158 713.215H206.383L202.333 724.465H204.977L205.671 722.346H209.871L210.565 724.465ZM206.327 720.284L207.771 715.821L209.215 720.284H206.327ZM220.545 713.215L217.864 721.259L215.182 713.215H212.426L216.476 724.465H219.251L223.301 713.215H220.545ZM231.024 715.39V713.215H224.256V724.465H231.024V722.29H226.731V719.927H230.406V717.752H226.731V715.39H231.024ZM244.271 724.465H246.914L242.864 713.215H240.089L236.039 724.465H238.683L239.377 722.346H243.577L244.271 724.465ZM240.033 720.284L241.477 715.821L242.921 720.284H240.033ZM255.856 713.215V720.659L250.325 713.215H247.775V724.465H250.25V717.002L255.763 724.465H258.313V713.215H255.856ZM271.927 724.465H274.571L270.521 713.215H267.746L263.696 724.465H266.339L267.033 722.346H271.233L271.927 724.465ZM267.689 720.284L269.133 715.821L270.577 720.284H267.689ZM280.501 724.615C282.732 724.615 284.663 723.359 285.62 721.521L283.482 720.415C282.938 721.484 281.832 722.196 280.501 722.196C278.607 722.196 277.163 720.734 277.163 718.84C277.163 716.946 278.607 715.484 280.501 715.484C281.832 715.484 282.938 716.196 283.482 717.265L285.62 716.159C284.663 714.321 282.732 713.065 280.501 713.065C277.313 713.065 274.726 715.652 274.726 718.84C274.726 722.027 277.313 724.615 280.501 724.615ZM292.571 724.615C294.803 724.615 296.734 723.359 297.69 721.521L295.553 720.415C295.009 721.484 293.903 722.196 292.571 722.196C290.678 722.196 289.234 720.734 289.234 718.84C289.234 716.946 290.678 715.484 292.571 715.484C293.903 715.484 295.009 716.196 295.553 717.265L297.69 716.159C296.734 714.321 294.803 713.065 292.571 713.065C289.384 713.065 286.796 715.652 286.796 718.84C286.796 722.027 289.384 724.615 292.571 724.615ZM304.642 724.615C307.848 724.615 310.417 722.027 310.417 718.84C310.417 715.652 307.848 713.065 304.642 713.065C301.454 713.065 298.867 715.652 298.867 718.84C298.867 722.027 301.454 724.615 304.642 724.615ZM304.642 722.196C302.748 722.196 301.304 720.734 301.304 718.84C301.304 716.946 302.748 715.484 304.642 715.484C306.554 715.484 307.998 716.946 307.998 718.84C307.998 720.734 306.554 722.196 304.642 722.196ZM316.841 724.615C319.503 724.615 321.528 722.984 321.528 720.865V713.215H319.053V720.396C319.053 721.54 318.097 722.421 316.841 722.421C315.603 722.421 314.647 721.54 314.647 720.396V713.215H312.172V720.865C312.172 722.984 314.216 724.615 316.841 724.615ZM331.765 713.215V720.659L326.233 713.215H323.683V724.465H326.158V717.002L331.671 724.465H334.221V713.215H331.765ZM343.394 713.215H335.257V715.409H338.107V724.465H340.563V715.409H343.394V713.215ZM347.392 721.071H349.53V720.002C349.53 718.615 352.192 719.402 352.192 716.252C352.192 714.302 350.561 712.765 348.461 712.765C346.136 712.765 344.486 714.509 344.711 716.759H346.811C346.623 715.69 347.336 714.827 348.461 714.827C349.38 714.827 350.111 715.465 350.111 716.252C350.111 718.521 347.392 716.965 347.392 720.134V721.071ZM348.517 724.615C349.248 724.615 349.83 724.034 349.83 723.302C349.83 722.571 349.248 721.971 348.517 721.971C347.786 721.971 347.186 722.571 347.186 723.302C347.186 724.034 347.786 724.615 348.517 724.615Z" fill="white" fill-opacity="0.8"/>
<path d="M362.162 724.615C364.262 724.615 366.043 723.377 366.043 721.277C366.043 717.115 360.868 718.146 360.868 716.196C360.868 715.559 361.356 715.259 361.956 715.259C362.593 715.259 363.231 715.615 363.793 716.234L365.443 714.659C364.618 713.702 363.362 713.065 361.974 713.065C360.193 713.065 358.374 714.134 358.374 716.384C358.374 720.209 363.568 719.29 363.568 721.259C363.568 721.877 363.043 722.29 362.181 722.29C361.149 722.29 360.343 721.709 359.931 720.827L357.887 722.102C358.618 723.509 360.193 724.615 362.162 724.615ZM367.679 724.465H370.154V713.215H367.679V724.465ZM377.811 718.296V720.227H380.904C380.379 721.409 379.217 722.196 377.829 722.196C375.936 722.196 374.473 720.734 374.473 718.84C374.473 716.946 375.936 715.484 377.829 715.484C379.161 715.484 380.248 716.196 380.811 717.265L382.948 716.159C381.973 714.321 380.042 713.065 377.829 713.065C374.623 713.065 372.054 715.652 372.054 718.84C372.054 722.027 374.623 724.615 377.829 724.615C381.017 724.615 383.604 722.027 383.604 718.84V718.296H377.811ZM393.508 713.215V720.659L387.977 713.215H385.427V724.465H387.902V717.002L393.414 724.465H395.964V713.215H393.508ZM402.791 724.465H405.266V713.215H402.791V724.465ZM415.642 713.215V720.659L410.11 713.215H407.56V724.465H410.035V717.002L415.548 724.465H418.098V713.215H415.642Z" fill="url(#paint6_linear)"/>
<path opacity="0.7" d="M104.905 262.796V276.146L94.9149 262.796H91.9749V280.796H94.9149V267.416L104.875 280.796H107.815V262.796H104.905ZM122.7 280.796H125.88L119.37 262.796H116.1L109.59 280.796H112.77L114.06 276.986H121.41L122.7 280.796ZM114.93 274.406L117.75 266.006L120.57 274.406H114.93ZM143.427 262.796L137.097 276.896L130.797 262.796H127.647V280.796H130.587V268.406L136.107 280.796H138.057L143.637 268.376V280.796H146.547V262.796H143.427ZM160.968 265.466V262.796H150.648V280.796H160.968V278.126H153.588V273.146H159.978V270.446H153.588V265.466H160.968Z" fill="#BDDBF8"/>
<path opacity="0.7" d="M99.0249 435.757H91.9749V453.757H94.9149V446.107H99.0249C101.935 446.107 104.215 443.887 104.215 440.977C104.215 438.097 101.935 435.757 99.0249 435.757ZM98.6049 443.557H94.9149V438.427H98.6049C100.165 438.427 101.335 439.447 101.335 441.007C101.335 442.597 100.165 443.557 98.6049 443.557ZM116.465 453.757H119.645L113.135 435.757H109.865L103.355 453.757H106.535L107.825 449.947H115.175L116.465 453.757ZM108.695 447.367L111.515 438.967L114.335 447.367H108.695ZM126.422 453.997C129.662 453.997 132.302 452.077 132.302 448.837C132.302 442.447 123.782 444.007 123.782 440.317C123.782 438.907 124.892 438.247 126.212 438.247C127.412 438.247 128.492 438.787 129.302 439.807L131.372 437.917C130.232 436.507 128.342 435.517 126.212 435.517C123.392 435.517 120.842 437.287 120.842 440.527C120.842 446.497 129.362 445.027 129.362 448.837C129.362 450.307 128.132 451.177 126.452 451.177C124.622 451.177 123.242 450.157 122.612 448.627L120.092 450.157C121.142 452.407 123.542 453.997 126.422 453.997ZM140.04 453.997C143.28 453.997 145.92 452.077 145.92 448.837C145.92 442.447 137.4 444.007 137.4 440.317C137.4 438.907 138.51 438.247 139.83 438.247C141.03 438.247 142.11 438.787 142.92 439.807L144.99 437.917C143.85 436.507 141.96 435.517 139.83 435.517C137.01 435.517 134.46 437.287 134.46 440.527C134.46 446.497 142.98 445.027 142.98 448.837C142.98 450.307 141.75 451.177 140.07 451.177C138.24 451.177 136.86 450.157 136.23 448.627L133.71 450.157C134.76 452.407 137.16 453.997 140.04 453.997ZM167.6 435.757L163.67 449.377L159.8 435.757H159.11H156.47L152.63 449.317L148.73 435.757H145.61L150.92 453.757H154.19L158.12 439.357L162.11 453.757H165.41L170.66 435.757H167.6ZM180.869 453.997C185.969 453.997 190.109 449.857 190.109 444.757C190.109 439.657 185.969 435.517 180.869 435.517C175.769 435.517 171.629 439.657 171.629 444.757C171.629 449.857 175.769 453.997 180.869 453.997ZM180.869 451.087C177.329 451.087 174.539 448.327 174.539 444.757C174.539 441.187 177.329 438.427 180.869 438.427C184.439 438.427 187.199 441.187 187.199 444.757C187.199 448.327 184.439 451.087 180.869 451.087ZM201.729 445.927C203.979 445.447 205.629 443.467 205.629 441.037C205.629 438.097 203.349 435.757 200.439 435.757H193.389V453.757H196.329V446.197H198.819L203.589 453.757H206.889L201.729 445.927ZM196.329 443.647V438.487H200.079C201.609 438.487 202.749 439.537 202.749 441.067C202.749 442.597 201.609 443.647 200.079 443.647H196.329ZM208.928 453.757H214.328C219.308 453.757 223.328 449.737 223.328 444.757C223.328 439.777 219.308 435.757 214.328 435.757H208.928V453.757ZM211.838 451.027V438.487H214.328C217.748 438.487 220.418 441.157 220.418 444.757C220.418 448.357 217.748 451.027 214.328 451.027H211.838Z" fill="#BDDBF8"/>
<path opacity="0.7" d="M107.755 349.276L101.425 363.376L95.1249 349.276H91.9749V367.276H94.9149V354.886L100.435 367.276H102.385L107.965 354.856V367.276H110.875V349.276H107.755ZM123.376 367.516C128.476 367.516 132.616 363.376 132.616 358.276C132.616 353.176 128.476 349.036 123.376 349.036C118.276 349.036 114.136 353.176 114.136 358.276C114.136 363.376 118.276 367.516 123.376 367.516ZM123.376 364.606C119.836 364.606 117.046 361.846 117.046 358.276C117.046 354.706 119.836 351.946 123.376 351.946C126.946 351.946 129.706 354.706 129.706 358.276C129.706 361.846 126.946 364.606 123.376 364.606ZM145.767 358.156C147.237 357.436 148.167 356.086 148.167 354.166C148.167 351.196 145.857 349.276 142.977 349.276H135.897V367.276H143.637C146.487 367.276 148.767 365.416 148.767 362.446C148.767 360.256 147.537 358.816 145.767 358.156ZM145.227 354.466C145.227 355.876 144.057 356.986 142.647 356.986H138.807V352.006H142.647C144.057 352.006 145.227 353.026 145.227 354.466ZM143.217 364.546H138.807V359.566H143.217C144.657 359.566 145.827 360.676 145.827 362.086C145.827 363.496 144.657 364.546 143.217 364.546ZM152.031 367.276H154.971V349.276H152.031V367.276ZM161.993 364.546V349.276H159.053V367.276H168.323V364.546H161.993ZM180.914 351.946V349.276H170.594V367.276H180.914V364.606H173.534V359.626H179.924V356.926H173.534V351.946H180.914ZM204.538 349.276V362.626L194.548 349.276H191.608V367.276H194.548V353.896L204.508 367.276H207.448V349.276H204.538ZM218.432 367.516C222.512 367.516 225.572 364.906 225.572 361.426V349.276H222.632V360.916C222.632 363.136 220.832 364.786 218.432 364.786C216.032 364.786 214.262 363.136 214.262 360.916V349.276H211.322V361.426C211.322 364.906 214.352 367.516 218.432 367.516ZM245.216 349.276L238.886 363.376L232.586 349.276H229.436V367.276H232.376V354.886L237.896 367.276H239.846L245.426 354.856V367.276H248.336V349.276H245.216ZM262.157 358.156C263.627 357.436 264.557 356.086 264.557 354.166C264.557 351.196 262.247 349.276 259.367 349.276H252.287V367.276H260.027C262.877 367.276 265.157 365.416 265.157 362.446C265.157 360.256 263.927 358.816 262.157 358.156ZM261.617 354.466C261.617 355.876 260.447 356.986 259.037 356.986H255.197V352.006H259.037C260.447 352.006 261.617 353.026 261.617 354.466ZM259.607 364.546H255.197V359.566H259.607C261.047 359.566 262.217 360.676 262.217 362.086C262.217 363.496 261.047 364.546 259.607 364.546ZM278.742 351.946V349.276H268.422V367.276H278.742V364.606H271.362V359.626H277.752V356.926H271.362V351.946H278.742ZM290.58 359.446C292.83 358.966 294.48 356.986 294.48 354.556C294.48 351.616 292.2 349.276 289.29 349.276H282.24V367.276H285.18V359.716H287.67L292.44 367.276H295.74L290.58 359.446ZM285.18 357.166V352.006H288.93C290.46 352.006 291.6 353.056 291.6 354.586C291.6 356.116 290.46 357.166 288.93 357.166H285.18Z" fill="#BDDBF8"/>
<path opacity="0.7" d="M100.525 540.478C104.035 540.478 107.065 538.528 108.625 535.648L106.105 534.298C105.055 536.278 102.955 537.568 100.525 537.568C96.9849 537.568 94.1949 534.808 94.1949 531.238C94.1949 527.668 96.9849 524.908 100.525 524.908C102.955 524.908 105.055 526.198 106.105 528.178L108.625 526.828C107.065 523.948 104.035 521.998 100.525 521.998C95.4249 521.998 91.2849 526.138 91.2849 531.238C91.2849 536.338 95.4249 540.478 100.525 540.478ZM120.025 540.478C125.125 540.478 129.265 536.338 129.265 531.238C129.265 526.138 125.125 521.998 120.025 521.998C114.925 521.998 110.785 526.138 110.785 531.238C110.785 536.338 114.925 540.478 120.025 540.478ZM120.025 537.568C116.485 537.568 113.695 534.808 113.695 531.238C113.695 527.668 116.485 524.908 120.025 524.908C123.595 524.908 126.355 527.668 126.355 531.238C126.355 534.808 123.595 537.568 120.025 537.568ZM145.475 522.238V535.588L135.485 522.238H132.545V540.238H135.485V526.858L145.445 540.238H148.385V522.238H145.475ZM162.82 524.908V522.238H152.5V540.238H155.44V532.588H161.83V529.888H155.44V524.908H162.82ZM165.344 540.238H168.284V522.238H165.344V540.238ZM180.705 532.408C182.955 531.928 184.605 529.948 184.605 527.518C184.605 524.578 182.325 522.238 179.415 522.238H172.365V540.238H175.305V532.678H177.795L182.565 540.238H185.865L180.705 532.408ZM175.305 530.128V524.968H179.055C180.585 524.968 181.725 526.018 181.725 527.548C181.725 529.078 180.585 530.128 179.055 530.128H175.305ZM203.685 522.238L197.355 536.338L191.055 522.238H187.905V540.238H190.845V527.848L196.365 540.238H198.315L203.895 527.818V540.238H206.805V522.238H203.685ZM225.001 522.238H217.951V540.238H220.891V532.588H225.001C227.911 532.588 230.191 530.368 230.191 527.458C230.191 524.578 227.911 522.238 225.001 522.238ZM224.581 530.038H220.891V524.908H224.581C226.141 524.908 227.311 525.928 227.311 527.488C227.311 529.078 226.141 530.038 224.581 530.038ZM242.442 540.238H245.622L239.112 522.238H235.842L229.332 540.238H232.512L233.802 536.428H241.152L242.442 540.238ZM234.672 533.848L237.492 525.448L240.312 533.848H234.672ZM252.399 540.478C255.639 540.478 258.279 538.558 258.279 535.318C258.279 528.928 249.759 530.488 249.759 526.798C249.759 525.388 250.869 524.728 252.189 524.728C253.389 524.728 254.469 525.268 255.279 526.288L257.349 524.398C256.209 522.988 254.319 521.998 252.189 521.998C249.369 521.998 246.819 523.768 246.819 527.008C246.819 532.978 255.339 531.508 255.339 535.318C255.339 536.788 254.109 537.658 252.429 537.658C250.599 537.658 249.219 536.638 248.589 535.108L246.069 536.638C247.119 538.888 249.519 540.478 252.399 540.478ZM266.016 540.478C269.256 540.478 271.896 538.558 271.896 535.318C271.896 528.928 263.376 530.488 263.376 526.798C263.376 525.388 264.486 524.728 265.806 524.728C267.006 524.728 268.086 525.268 268.896 526.288L270.966 524.398C269.826 522.988 267.936 521.998 265.806 521.998C262.986 521.998 260.436 523.768 260.436 527.008C260.436 532.978 268.956 531.508 268.956 535.318C268.956 536.788 267.726 537.658 266.046 537.658C264.216 537.658 262.836 536.638 262.206 535.108L259.686 536.638C260.736 538.888 263.136 540.478 266.016 540.478ZM293.577 522.238L289.647 535.858L285.777 522.238H285.087H282.447L278.607 535.798L274.707 522.238H271.587L276.897 540.238H280.167L284.097 525.838L288.087 540.238H291.387L296.637 522.238H293.577ZM306.845 540.478C311.945 540.478 316.085 536.338 316.085 531.238C316.085 526.138 311.945 521.998 306.845 521.998C301.745 521.998 297.605 526.138 297.605 531.238C297.605 536.338 301.745 540.478 306.845 540.478ZM306.845 537.568C303.305 537.568 300.515 534.808 300.515 531.238C300.515 527.668 303.305 524.908 306.845 524.908C310.415 524.908 313.175 527.668 313.175 531.238C313.175 534.808 310.415 537.568 306.845 537.568ZM327.705 532.408C329.955 531.928 331.605 529.948 331.605 527.518C331.605 524.578 329.325 522.238 326.415 522.238H319.365V540.238H322.305V532.678H324.795L329.565 540.238H332.865L327.705 532.408ZM322.305 530.128V524.968H326.055C327.585 524.968 328.725 526.018 328.725 527.548C328.725 529.078 327.585 530.128 326.055 530.128H322.305ZM334.905 540.238H340.305C345.285 540.238 349.305 536.218 349.305 531.238C349.305 526.258 345.285 522.238 340.305 522.238H334.905V540.238ZM337.815 537.508V524.968H340.305C343.725 524.968 346.395 527.638 346.395 531.238C346.395 534.838 343.725 537.508 340.305 537.508H337.815Z" fill="#BDDBF8"/>
<path d="M329.578 648.737C329.812 648.502 329.812 648.123 329.578 647.888L325.759 644.07C325.525 643.836 325.145 643.836 324.911 644.07C324.676 644.304 324.676 644.684 324.911 644.918L328.305 648.312L324.911 651.707C324.676 651.941 324.676 652.321 324.911 652.555C325.145 652.789 325.525 652.789 325.759 652.555L329.578 648.737ZM316.813 648.912L329.153 648.912L329.153 647.712L316.813 647.712L316.813 648.912Z" fill="#BDDBF8"/>
<path opacity="0.7" d="M102.445 178.985V176.315H92.1249V194.315H102.445V191.645H95.0649V186.665H101.455V183.965H95.0649V178.985H102.445ZM105.404 189.215H113.804V186.935H105.404V189.215ZM133.044 176.315L126.714 190.415L120.414 176.315H117.264V194.315H120.204V181.925L125.724 194.315H127.674L133.254 181.895V194.315H136.164V176.315H133.044ZM151.035 194.315H154.215L147.705 176.315H144.435L137.925 194.315H141.105L142.395 190.505H149.745L151.035 194.315ZM143.265 187.925L146.085 179.525L148.905 187.925H143.265ZM156.133 194.315H159.073V176.315H156.133V194.315ZM166.095 191.585V176.315H163.155V194.315H172.425V191.585H166.095Z" fill="#BDDBF8"/>
<defs>
<filter id="filter0_i" x="0.060791" y="0.971481" width="538.337" height="760.057" filterUnits="userSpaceOnUse" color-interpolation-filters="sRGB">
<feFlood flood-opacity="0" result="BackgroundImageFix"/>
<feBlend mode="normal" in="SourceGraphic" in2="BackgroundImageFix" result="shape"/>
<feColorMatrix in="SourceAlpha" type="matrix" values="0 0 0 0 0 0 0 0 0 0 0 0 0 0 0 0 0 0 127 0" result="hardAlpha"/>
<feOffset dy="4"/>
<feGaussianBlur stdDeviation="28.5"/>
<feComposite in2="hardAlpha" operator="arithmetic" k2="-1" k3="1"/>
<feColorMatrix type="matrix" values="0 0 0 0 0.968333 0 0 0 0 0.9753 0 0 0 0 1 0 0 0 0.5 0"/>
<feBlend mode="normal" in2="shape" result="effect1_innerShadow"/>
</filter>
<filter id="filter1_d" x="180.337" y="616.015" width="177.784" height="64.5948" filterUnits="userSpaceOnUse" color-interpolation-filters="sRGB">
<feFlood flood-opacity="0" result="BackgroundImageFix"/>
<feColorMatrix in="SourceAlpha" type="matrix" values="0 0 0 0 0 0 0 0 0 0 0 0 0 0 0 0 0 0 127 0"/>
<feMorphology radius="4" operator="dilate" in="SourceAlpha" result="effect1_dropShadow"/>
<feOffset/>
<feColorMatrix type="matrix" values="0 0 0 0 1 0 0 0 0 1 0 0 0 0 1 0 0 0 0.5 0"/>
<feBlend mode="normal" in2="BackgroundImageFix" result="effect1_dropShadow"/>
<feBlend mode="normal" in="SourceGraphic" in2="effect1_dropShadow" result="shape"/>
</filter>
<linearGradient id="paint0_linear" x1="269.245" y1="-548.771" x2="269.245" y2="2698.01" gradientUnits="userSpaceOnUse">
<stop stop-color="white"/>
<stop offset="1" stop-color="#2A2344" stop-opacity="0"/>
</linearGradient>
<linearGradient id="paint1_linear" x1="269.245" y1="-548.771" x2="269.245" y2="2698.01" gradientUnits="userSpaceOnUse">
<stop stop-color="white"/>
<stop offset="1" stop-color="#2A2344" stop-opacity="0"/>
</linearGradient>
<linearGradient id="paint2_linear" x1="269.245" y1="-548.771" x2="269.245" y2="2698.01" gradientUnits="userSpaceOnUse">
<stop stop-color="white"/>
<stop offset="1" stop-color="#2A2344" stop-opacity="0"/>
</linearGradient>
<linearGradient id="paint3_linear" x1="929.832" y1="379.021" x2="-1381.98" y2="379.021" gradientUnits="userSpaceOnUse">
<stop stop-color="white"/>
<stop offset="1" stop-color="#2A2344" stop-opacity="0"/>
</linearGradient>
<linearGradient id="paint4_linear" x1="221.616" y1="724.753" x2="289.788" y2="563.058" gradientUnits="userSpaceOnUse">
<stop stop-color="#020B61"/>
<stop offset="1" stop-color="#2A3CAE"/>
</linearGradient>
<linearGradient id="paint5_linear" x1="222.911" y1="120.146" x2="222.911" y2="56.5755" gradientUnits="userSpaceOnUse">
<stop stop-color="#66ACE7"/>
<stop offset="1" stop-color="#F4F9FF"/>
</linearGradient>
<linearGradient id="paint6_linear" x1="184.819" y1="743.777" x2="189.374" y2="683.553" gradientUnits="userSpaceOnUse">
<stop stop-color="#020B61"/>
<stop offset="1" stop-color="#2A3CAE"/>
</linearGradient>
<clipPath id="clip0">
<rect width="538.337" height="756.056" fill="white" transform="translate(0.0615234 0.971939)"/>
</clipPath>
<clipPath id="clip1">
<rect width="538.337" height="756.056" fill="white" transform="translate(0.0615234 0.971939)"/>
</clipPath>
<clipPath id="clip2">
<rect width="538.337" height="756.056" fill="white" transform="translate(0.0615234 0.971939)"/>
</clipPath>
<clipPath id="clip3">
<rect width="756.056" height="538.337" fill="white" transform="translate(538.397 0.971527) rotate(90)"/>
</clipPath>
</defs>
</svg>
