<svg width="121" height="133" viewBox="0 0 121 133" fill="none" xmlns="http://www.w3.org/2000/svg">
<g filter="url(#filter0_dd)">
<path d="M78.457 66.1411C78.457 52.8849 67.7133 42.1411 54.457 42.1411C41.2008 42.1411 30.457 52.8849 30.457 66.1411C30.457 79.3974 41.2008 90.1411 54.457 90.1411C54.5977 90.1411 54.7383 90.1411 54.8789 90.1317V71.4567H49.7227V65.4474H54.8789V61.0224C54.8789 55.8942 58.0102 53.1005 62.5852 53.1005C64.7789 53.1005 66.6633 53.2599 67.207 53.3349V58.6974H64.057C61.5727 58.6974 61.0852 59.8786 61.0852 61.613V65.438H67.0383L66.2602 71.4474H61.0852V89.213C71.1164 86.3349 78.457 77.1005 78.457 66.1411Z" fill="url(#paint0_linear)" style="mix-blend-mode:overlay"/>
</g>
<defs>
<filter id="filter0_dd" x="-11.543" y="0.141113" width="132" height="132" filterUnits="userSpaceOnUse" color-interpolation-filters="sRGB">
<feFlood flood-opacity="0" result="BackgroundImageFix"/>
<feColorMatrix in="SourceAlpha" type="matrix" values="0 0 0 0 0 0 0 0 0 0 0 0 0 0 0 0 0 0 127 0"/>
<feOffset/>
<feColorMatrix type="matrix" values="0 0 0 0 0.926667 0 0 0 0 0.9736 0 0 0 0 1 0 0 0 0.39 0"/>
<feBlend mode="normal" in2="BackgroundImageFix" result="effect1_dropShadow"/>
<feColorMatrix in="SourceAlpha" type="matrix" values="0 0 0 0 0 0 0 0 0 0 0 0 0 0 0 0 0 0 127 0"/>
<feOffset/>
<feGaussianBlur stdDeviation="21"/>
<feColorMatrix type="matrix" values="0 0 0 0 0.958183 0 0 0 0 0.839167 0 0 0 0 1 0 0 0 0.25 0"/>
<feBlend mode="normal" in2="effect1_dropShadow" result="effect2_dropShadow"/>
<feBlend mode="normal" in="SourceGraphic" in2="effect2_dropShadow" result="shape"/>
</filter>
<linearGradient id="paint0_linear" x1="-29.6854" y1="49.7393" x2="98.2816" y2="2.22389" gradientUnits="userSpaceOnUse">
<stop offset="0.430208" stop-color="#3C4174"/>
<stop offset="0.951042" stop-color="#828EDF"/>
</linearGradient>
</defs>
</svg>
