<svg xmlns="http://www.w3.org/2000/svg" xmlns:xlink="http://www.w3.org/1999/xlink" viewBox="0 0 729.83 885.26"><defs><style>.cls-1{fill:none;}.cls-2{isolation:isolate;}.cls-3{fill:#5a245f;}.cls-10,.cls-12,.cls-14,.cls-16,.cls-21,.cls-26,.cls-27,.cls-29,.cls-30,.cls-33,.cls-35,.cls-36,.cls-38,.cls-39,.cls-4,.cls-40,.cls-41,.cls-45,.cls-46,.cls-48,.cls-51,.cls-52,.cls-6,.cls-8{mix-blend-mode:multiply;}.cls-4{fill:url(#linear-gradient);}.cls-5{fill:#c34d99;}.cls-6{fill:url(#linear-gradient-2);}.cls-7{fill:#841c8b;}.cls-8{fill:url(#linear-gradient-3);}.cls-9{fill:#702a77;}.cls-10{fill:url(#linear-gradient-4);}.cls-11{fill:#7a2979;}.cls-12{fill:url(#linear-gradient-5);}.cls-13{fill:#6dff8e;}.cls-14{fill:url(#linear-gradient-6);}.cls-15{clip-path:url(#clip-path);}.cls-16{fill:url(#linear-gradient-7);}.cls-17,.cls-31,.cls-47,.cls-49,.cls-50{mix-blend-mode:overlay;}.cls-18{fill:url(#linear-gradient-8);}.cls-19{fill:#9f457e;}.cls-20{fill:#54af68;}.cls-21{fill:url(#linear-gradient-9);}.cls-22{fill:#80b15b;}.cls-23{fill:url(#linear-gradient-10);}.cls-24{fill:url(#linear-gradient-11);}.cls-25{fill:#3f287c;}.cls-26{fill:url(#linear-gradient-12);}.cls-27{fill:url(#linear-gradient-13);}.cls-28{fill:#8b277a;}.cls-29{fill:url(#linear-gradient-14);}.cls-30{fill:url(#linear-gradient-15);}.cls-31{opacity:0.64;}.cls-32{fill:#fff;}.cls-33{fill:url(#linear-gradient-16);}.cls-34{fill:#3b0d56;}.cls-35{fill:url(#linear-gradient-17);}.cls-36{fill:url(#linear-gradient-18);}.cls-37{fill:#9c457c;}.cls-38{fill:url(#linear-gradient-19);}.cls-39{fill:url(#linear-gradient-20);}.cls-40{fill:url(#linear-gradient-21);}.cls-42{fill:url(#linear-gradient-22);}.cls-43{fill:url(#linear-gradient-23);}.cls-44{fill:#90298f;}.cls-45{fill:url(#linear-gradient-24);}.cls-46{fill:url(#linear-gradient-25);}.cls-47{fill:url(#linear-gradient-26);}.cls-48{fill:url(#linear-gradient-27);}.cls-49{fill:url(#linear-gradient-28);}.cls-50{fill:url(#linear-gradient-29);}.cls-51{fill:url(#linear-gradient-30);}.cls-52{fill:url(#linear-gradient-31);}</style><linearGradient id="linear-gradient" x1="381.42" y1="821.34" x2="438.42" y2="840.96" gradientUnits="userSpaceOnUse"><stop offset="0" stop-color="#fff"/><stop offset="1" stop-color="#3c3263"/></linearGradient><linearGradient id="linear-gradient-2" x1="352.73" y1="566.24" x2="443.83" y2="619.5" xlink:href="#linear-gradient"/><linearGradient id="linear-gradient-3" x1="375.81" y1="718.35" x2="434.68" y2="698.73" xlink:href="#linear-gradient"/><linearGradient id="linear-gradient-4" x1="455" y1="540.47" x2="480.23" y2="470.39" gradientUnits="userSpaceOnUse"><stop offset="0.13" stop-color="#fff"/><stop offset="1" stop-color="#3c3263"/></linearGradient><linearGradient id="linear-gradient-5" x1="433.95" y1="513.16" x2="490.01" y2="490.73" gradientUnits="userSpaceOnUse"><stop offset="0" stop-color="#fff"/><stop offset="1" stop-color="#3c3263"/></linearGradient><linearGradient id="linear-gradient-6" x1="364.38" y1="657.24" x2="434.45" y2="632.01" xlink:href="#linear-gradient"/><clipPath id="clip-path"><path class="cls-1" d="M418.32,771.06s8.41-2.34,10.75,0S452,809.37,452,809.37s-65.4,73.81-67.27,75.68-43.92-9.34-43.45-11.21,4.67-12.15,4.67-12.15l8.88-2.8L387,772.46Z"/></clipPath><linearGradient id="linear-gradient-7" x1="421.23" y1="811.7" x2="470.53" y2="811.7" xlink:href="#linear-gradient"/><linearGradient id="linear-gradient-8" x1="383.17" y1="620.14" x2="49.61" y2="594.91" gradientUnits="userSpaceOnUse"><stop offset="0" stop-color="#fff"/><stop offset="1" stop-color="#3c3263" stop-opacity="0"/></linearGradient><linearGradient id="linear-gradient-9" x1="391.28" y1="139.8" x2="486.24" y2="339.21" xlink:href="#linear-gradient"/><linearGradient id="linear-gradient-10" x1="554.01" y1="122.93" x2="162.99" y2="184.6" xlink:href="#linear-gradient-8"/><linearGradient id="linear-gradient-11" x1="561.5" y1="170.4" x2="170.47" y2="232.07" xlink:href="#linear-gradient-8"/><linearGradient id="linear-gradient-12" x1="337.26" y1="227.47" x2="541.88" y2="283.53" xlink:href="#linear-gradient"/><linearGradient id="linear-gradient-13" x1="361.34" y1="228.74" x2="444.5" y2="255.83" xlink:href="#linear-gradient"/><linearGradient id="linear-gradient-14" x1="387.89" y1="204.35" x2="314.07" y2="245.46" xlink:href="#linear-gradient"/><linearGradient id="linear-gradient-15" x1="331.69" y1="190.73" x2="374.67" y2="242.58" xlink:href="#linear-gradient"/><linearGradient id="linear-gradient-16" x1="284.15" y1="190.82" x2="386.54" y2="190.82" xlink:href="#linear-gradient"/><linearGradient id="linear-gradient-17" x1="640.23" y1="80.51" x2="677.6" y2="136.57" xlink:href="#linear-gradient"/><linearGradient id="linear-gradient-18" x1="99.28" y1="268.02" x2="103.01" y2="319.41" xlink:href="#linear-gradient"/><linearGradient id="linear-gradient-19" x1="416.53" y1="420.17" x2="389.9" y2="504.26" xlink:href="#linear-gradient"/><linearGradient id="linear-gradient-20" x1="259.03" y1="509.98" x2="300.14" y2="554.83" xlink:href="#linear-gradient"/><linearGradient id="linear-gradient-21" x1="461.5" y1="410.47" x2="591.84" y2="490.35" xlink:href="#linear-gradient"/><linearGradient id="linear-gradient-22" x1="450.38" y1="396.15" x2="448.7" y2="396.43" xlink:href="#linear-gradient"/><linearGradient id="linear-gradient-23" x1="545.19" y1="378.46" x2="453.89" y2="393.98" xlink:href="#linear-gradient"/><linearGradient id="linear-gradient-24" x1="424.75" y1="438.43" x2="492.02" y2="453.84" xlink:href="#linear-gradient"/><linearGradient id="linear-gradient-25" x1="305.01" y1="457.09" x2="342.38" y2="506.61" xlink:href="#linear-gradient"/><linearGradient id="linear-gradient-26" x1="384.04" y1="469.47" x2="532.6" y2="713.33" xlink:href="#linear-gradient-8"/><linearGradient id="linear-gradient-27" x1="447.1" y1="395.37" x2="451.05" y2="397.79" xlink:href="#linear-gradient"/><linearGradient id="linear-gradient-28" x1="492.79" y1="319.55" x2="614.26" y2="152.3" xlink:href="#linear-gradient-8"/><linearGradient id="linear-gradient-29" x1="528.5" y1="224.02" x2="1222.07" y2="-730.96" xlink:href="#linear-gradient-8"/><linearGradient id="linear-gradient-30" x1="177.34" y1="594.86" x2="187.62" y2="648.12" xlink:href="#linear-gradient"/><linearGradient id="linear-gradient-31" x1="220.88" y1="604.72" x2="253.58" y2="652.37" xlink:href="#linear-gradient"/></defs><g class="cls-2"><g id="Layer_2" data-name="Layer 2"><g id="Layer_3" data-name="Layer 3"><path class="cls-3" d="M418.32,771.06s8.41-2.34,10.75,0S452,809.37,452,809.37s-65.4,73.81-67.27,75.68-43.92-9.34-43.45-11.21,4.67-12.15,4.67-12.15l8.88-2.8L387,772.46Z"/><path class="cls-4" d="M418.32,771.06s8.41-2.34,10.75,0S452,809.37,452,809.37s-65.4,73.81-67.27,75.68-43.92-9.34-43.45-11.21,4.67-12.15,4.67-12.15l8.88-2.8L387,772.46Z"/><path class="cls-5" d="M403.23,474.86s-69.83,53.77-85.91,107l80.4,209s18.09,2,24.62-18.09L404.69,668.16s25.95-53.43-13.46-80.57c0,0,116.08-61.45,152.74-107.94Z"/><path class="cls-6" d="M403.23,474.86s-69.83,53.77-85.91,107l80.4,209s18.09,2,24.62-18.09L404.69,668.16s25.95-53.43-13.46-80.57c0,0,116.08-61.45,152.74-107.94Z"/><path class="cls-7" d="M411.28,647.73H342.64l55.08,143.21s18.09,2,24.62-18.09L404.69,668.16A96.49,96.49,0,0,0,411.28,647.73Z"/><path class="cls-8" d="M411.28,647.73H342.64l55.08,143.21s18.09,2,24.62-18.09L404.69,668.16A96.49,96.49,0,0,0,411.28,647.73Z"/><path class="cls-9" d="M411.45,475.14c17.4,6.33,30.17,23.5,38.87,39.42a185.58,185.58,0,0,1,13.55,30.09c30.9-20,63.57-44,80.1-65Z"/><path class="cls-10" d="M411.45,475.14c17.4,6.33,30.17,23.5,38.87,39.42a185.58,185.58,0,0,1,13.55,30.09c30.9-20,63.57-44,80.1-65Z"/><path class="cls-11" d="M400.07,477.38s47.86,20.5,54.75,73.06l-8.51,5.32,14.05,9,17.42-12.06s0-35.8-31.47-61.12L414.8,467.76l-23.37.18-5.77,6.92,5.77,9.78Z"/><path class="cls-12" d="M400.07,477.38s47.86,20.5,54.75,73.06l-8.51,5.32,14.05,9,17.42-12.06s0-35.8-31.47-61.12L414.8,467.76l-23.37.18-5.77,6.92,5.77,9.78Z"/><path class="cls-13" d="M340.54,642.26h0l14.59,38c13.15-1.43,31.39-4.65,49.6-11.83l0-.22s13.48-27.77,6.24-53.43h0S400.44,645.2,340.54,642.26Z"/><path class="cls-14" d="M340.54,642.26h0l14.59,38c13.15-1.43,31.39-4.65,49.6-11.83l0-.22s13.48-27.77,6.24-53.43h0S400.44,645.2,340.54,642.26Z"/><g class="cls-15"><path class="cls-5" d="M444.82,779.47s-42.81,19.62-13.1,64.47l38.81-25.23Z"/><path class="cls-16" d="M444.82,779.47s-42.81,19.62-13.1,64.47l38.81-25.23Z"/></g><polygon class="cls-5" points="369.23 814.33 391.62 821.22 395.75 807.68 372.4 800.52 369.23 814.33"/><polygon class="cls-5" points="363.54 835.03 385.94 841.92 390.07 828.38 366.71 821.22 363.54 835.03"/><g class="cls-17"><path class="cls-18" d="M540.92,483.33c1.06-1.24,2.09-2.47,3.05-3.68l-29-1c-11,10-21.11,23.53-30.94,34.06C471.63,526,457.73,534.85,443,545.39c-12.17,8.71-24.73,16.44-37.56,24.06-10.4,6.18-26.44,12.4-34.36,21.75,13,12.3,21.24,25.13,23,43.28.77,7.84,2.19,17,1,25.08-1,7.07-6.13,14.13-5.46,21.29.75,8.09,8.75,17.88,11.72,25.51,2.86,7.32,5,14.79,7.45,22.19,5.07,15.21,7.79,31.18,12.3,46.72,0,.13.07.26.11.4.38-.9.75-1.82,1.08-2.82L404.69,668.16s25.95-53.43-13.46-80.57c0,0,24.87-13.17,55.22-31.92l-.14.09,14.05,9,17.42-12.06A70.15,70.15,0,0,0,475.4,537l.24-.16,5.34-3.63.62-.43c1.75-1.21,3.5-2.42,5.24-3.65l.58-.41q2.65-1.87,5.28-3.76l.33-.24q5.37-3.88,10.56-7.83l.53-.4c1.62-1.24,3.21-2.48,4.79-3.72l.71-.56c1.55-1.23,3.08-2.45,4.58-3.68l.68-.55q2.28-1.87,4.48-3.74l.44-.38c1.51-1.3,3-2.59,4.45-3.88l0-.05c1.43-1.27,2.82-2.55,4.18-3.82l.51-.47q1.92-1.82,3.74-3.62l.61-.6q1.78-1.79,3.44-3.54l.57-.61c1.11-1.18,2.18-2.37,3.2-3.54Z"/></g><path class="cls-13" d="M460.36,564.81a57.09,57.09,0,0,0,8.11-4.6c2.58-1.7,5.08-3.52,7.56-5.38l2-1.52.32-.26a1.34,1.34,0,0,0,0-.4c0-.26,0-.6-.05-.78l-.12-1.16c-.18-1.56-.43-3.09-.72-4.62-.57-3.06-1.32-6.06-2.08-9.06a60.13,60.13,0,0,1,1.53,9.14c.14,1.53.23,3.07.26,4.61v1.53c0,.05,0,.11,0,.16l-.14.09a2.64,2.64,0,0,0-.34.17l-.49.31-1,.62c-2.61,1.67-5.2,3.37-7.7,5.18A58.71,58.71,0,0,0,460.36,564.81Z"/><path class="cls-13" d="M475.4,537c5.9-4.62,11.87-9.12,17.8-13.65s11.84-9.09,17.63-13.77c2.93-2.31,5.8-4.68,8.65-7.08s5.67-4.82,8.46-7.28c5.56-5,10.94-10.1,16-15.6a119,119,0,0,1-14.64,17.07,224.69,224.69,0,0,1-16.87,14.91c-5.87,4.67-11.89,9.15-18.08,13.38S481.9,533.3,475.4,537Z"/><path class="cls-19" d="M697.81,27.17l-8.4,11.53V56.37l2.94.91,12.78-23.63c15.45-4.69,16.18-16.72,16.18-16.72Z"/><path class="cls-20" d="M311.79,156.28l-24.62-7.54-5.49,30.65-7.07,6.05-3.84-15.57a47.66,47.66,0,0,1,7.35-38.9h0a122,122,0,0,1,94.53-51.6c42.74-1.75,98.56,6.49,143.16,49.24C600.23,209.54,489.68,300,489.68,300l-69.85-7-50.75-45.23Z"/><path class="cls-21" d="M311.79,156.28l-24.62-7.54-5.49,30.65-7.07,6.05-3.84-15.57a47.66,47.66,0,0,1,7.35-38.9h0a122,122,0,0,1,94.53-51.6c42.74-1.75,98.56,6.49,143.16,49.24C600.23,209.54,489.68,300,489.68,300l-69.85-7-50.75-45.23Z"/><path class="cls-22" d="M515.81,128.61c-44.6-42.75-100.42-51-143.16-49.24A122,122,0,0,0,278.12,131h0c-2.48,8.82-2.68,17.91-.52,28.19a111.64,111.64,0,0,0,4.78,16.36l4.79-26.78,24.62,7.54,19.69,31.43c5.47-6,8.24,6.23,11.16-2,5.07-14.29,22.09-41.75,34.16-50.56,22.63-16.51,41.5-22.81,66.91-9.07,23.33,12.62,49,47,47.62,74.1-.69,13.94-2.64,27-9.8,39.21-6.78,11.6-19.28,21.55-24.12,34.11a22.66,22.66,0,0,0,4.13,23.64L489.68,300S600.23,209.54,515.81,128.61Z"/><path class="cls-23" d="M270.31,149.23a47.49,47.49,0,0,0,.46,20.64l3.84,15.57,7.07-6.05,4.53-25.29Z"/><path class="cls-24" d="M515.81,128.61C476.89,91.3,429.43,80.28,389.57,79.24c33.72,4.59,70.2,17.61,101.24,47.37,81,77.62-17.39,164-25.58,170.92L489.68,300S600.23,209.54,515.81,128.61Z"/><path class="cls-25" d="M322.7,247.34,195,268v35.51L322.7,294.8l32.47,63L441.6,410l109.21-31.49V359.12l-23.45-6.7L461,253.93l110.55-85.59s4.69-23.62-20.77-36.35L422.34,197Z"/><path class="cls-13" d="M228.78,289.31c-.19-6.6-.25-16.93-1.79-26.48L195,268v35.51l34.21-2.33C229.07,297.2,228.89,293.24,228.78,289.31Z"/><path class="cls-13" d="M263.12,278.92c1.29,6.53,2.49,13.13,3.74,19.69l26.51-1.81c-.1-14.6-3.3-29.27-7.7-43.47l-28.35,4.59C259,264.87,261.77,272.1,263.12,278.92Z"/><path class="cls-13" d="M445.42,185.31c5.76,11.62,14.52,23.44,19.43,33.18,3.81,7.56,7.4,15.77,11.28,23.75l20.28-15.7c-7.28-18.44-16.74-36.61-24.8-54.47Z"/><path class="cls-13" d="M550.81,132l-32.93,16.67C526.38,163,531,179.27,538.41,194l33.17-25.69S576.27,144.72,550.81,132Z"/><path class="cls-26" d="M322.7,247.34,195,268v35.51L322.7,294.8l32.47,63L441.6,410l109.21-31.49V359.12l-23.45-6.7L461,253.93l110.55-85.59s4.69-23.62-20.77-36.35L422.34,197Z"/><path class="cls-5" d="M378.62,201.15l12.61,10.17L422.34,197s0,60.79-43.72,87.93c0,0-37.47-4.3-55.92-37.58h0L370.58,197l8,4.16"/><path class="cls-27" d="M378.62,201.15l12.61,10.17L422.34,197s0,60.79-43.72,87.93c0,0-37.47-4.3-55.92-37.58h0L370.58,197l8,4.16"/><path class="cls-28" d="M346.5,233.06l-1.86,2.44a67.71,67.71,0,0,1,14.7,13.83c4.08,5.35,7.21,11.69,7.72,18.58,0-6.91-2.68-13.66-6.47-19.46A69.61,69.61,0,0,0,346.5,233.06Z"/><path class="cls-29" d="M391.23,211.32l-12.61-10.17-8-4.16-46.67,49.08c6.48,5,25.07-4.18,31.25-7a116.15,116.15,0,0,0,29.16-18.84,112.61,112.61,0,0,0,10.56-10.62Z"/><path class="cls-5" d="M391.23,182.43c-2.18-17.74-18.75-14.09-18.75-14.09s-17.31,20.1-15.46,6-3.29-39.2-3.29-39.2l-41.94,21.11-24.32-8a4.8,4.8,0,0,0-.3.42s-23.62,66.83,27.13,101.51c0,0,29.11-8.55,52.25-27.14l5.54-21.1S393.7,202.51,391.23,182.43Z"/><path class="cls-30" d="M391.23,182.43c-2.18-17.74-18.75-14.09-18.75-14.09s-17.31,20.1-15.46,6-3.29-39.2-3.29-39.2l-41.94,21.11-24.32-8a4.8,4.8,0,0,0-.3.42s-23.62,66.83,27.13,101.51c0,0,29.11-8.55,52.25-27.14l5.54-21.1S393.7,202.51,391.23,182.43Z"/><g class="cls-31"><path class="cls-32" d="M312.38,248.83c-2.43-3.71-5.38-7.35-7.22-11.31a137.14,137.14,0,0,1-11.91-41.12c-1-8.44-.45-17.43-.35-26a124.8,124.8,0,0,1,2-18.59c.05-.33.09-.69.14-1l-7.6-2.48a4.8,4.8,0,0,0-.3.42S264.22,213.8,312.38,248.83Z"/></g><polygon class="cls-33" points="284.15 206.26 359.4 211.32 359.4 187.58 386.54 170.32 284.15 206.26"/><path class="cls-13" d="M314.3,250.25q7-2.38,13.79-5.34c4.51-2,9-4.06,13.33-6.35s8.6-4.76,12.76-7.38a134.84,134.84,0,0,0,12-8.55L366,223l2.74-10.56,2.81-10.54.12-.46h.49a26.36,26.36,0,0,0,7-1,18.74,18.74,0,0,0,6.35-3.08,13.44,13.44,0,0,0,4.26-5.49,17.06,17.06,0,0,0,1.2-7,23.94,23.94,0,0,0-1.15-7.07,14.44,14.44,0,0,0-3.75-6,13.45,13.45,0,0,0-6.34-3.24,19.58,19.58,0,0,0-7.24-.22,18.87,18.87,0,0,1,7.3-.07,14,14,0,0,1,6.64,3.12,14.5,14.5,0,0,1,4.08,6.17,24.84,24.84,0,0,1,1.34,7.29,17.75,17.75,0,0,1-1.13,7.37,13.88,13.88,0,0,1-4.52,6,19.72,19.72,0,0,1-6.72,3.31,27.82,27.82,0,0,1-7.39,1.1l.6-.46L370,212.72l-2.81,10.55-.06.2-.15.12a138.17,138.17,0,0,1-12.15,8.54,144,144,0,0,1-13,7.22c-4.43,2.2-8.92,4.26-13.52,6.07S319.05,248.9,314.3,250.25Z"/><polygon class="cls-34" points="311.79 226.88 319.08 230.15 317.32 237.43 354.25 220.35 354.25 209.54 311.79 226.88"/><polygon class="cls-32" points="349.89 211.32 346.21 218.59 354.25 220.35 317.32 237.43 324.1 227.88 317.32 224.62 349.89 211.32"/><path class="cls-34" d="M385.66,179.37s-14.63-1.32-13.18,16.44c0,0,2.63-10.1,13.18-8.23a8.31,8.31,0,0,0-10.65,0S377.16,181.68,385.66,179.37Z"/><path class="cls-5" d="M550.81,132s17.42-39.53,67-29.48L676.1,70.35l18.25-53.6L713.76,0s2.87,11.7-10.5,20.77L694.35,66l8.91,13.17s22-14.64,26.57,0L700.22,96.48H674.09L571.58,168.34Z"/><path class="cls-35" d="M550.81,132s17.42-39.53,67-29.48L676.1,70.35l18.25-53.6L713.76,0s2.87,11.7-10.5,20.77L694.35,66l8.91,13.17s22-14.64,26.57,0L700.22,96.48H674.09L571.58,168.34Z"/><path class="cls-13" d="M694.35,66c.82,1.05,1.61,2.11,2.41,3.17s1.59,2.12,2.36,3.2c1.55,2.15,3.12,4.29,4.62,6.47l-.81-.16a48.91,48.91,0,0,1,6.87-3.78,33,33,0,0,1,7.49-2.43,13.3,13.3,0,0,1,7.88.61,7.58,7.58,0,0,1,3.08,2.52,11.18,11.18,0,0,1,1.58,3.57,12.33,12.33,0,0,0-1.93-3.3,7.93,7.93,0,0,0-3-2.1,13.23,13.23,0,0,0-7.36-.16,35.87,35.87,0,0,0-7.18,2.47,58.82,58.82,0,0,0-6.75,3.58l-.5.3-.31-.46c-1.46-2.21-2.86-4.46-4.28-6.7-.72-1.11-1.42-2.24-2.1-3.38S695,67.15,694.35,66Z"/><path class="cls-5" d="M195,268s-40.07-30.57-65,0l-67.67,3s-34.15-22.45-48.91-67.34c0,0-6.7,2-6,13.4S28.21,271,28.21,271l-2,8.37S-1.36,288.1,7.4,303.51c0,0,18.13-12.73,31.53-13.4S195,303.51,195,303.51Z"/><path class="cls-36" d="M195,268s-40.07-30.57-65,0l-67.67,3s-34.15-22.45-48.91-67.34c0,0-6.7,2-6,13.4S28.21,271,28.21,271l-2,8.37S-1.36,288.1,7.4,303.51c0,0,18.13-12.73,31.53-13.4S195,303.51,195,303.51Z"/><path class="cls-37" d="M2.08,223.49s-4.69,7.49,0,13.94S25.71,265.6,25.71,265.6l-14.2-33.8Z"/><path class="cls-5" d="M540.43,367.83,461,398l-88.55-13.06s-23.73-6.37-35.93,10.38S207.1,566.82,207.1,566.82l28.14,20.77,72.36-71s67.37-9.38,60.82-65.32c96.33,79.39,197.13,38.19,203.5-9S540.43,367.83,540.43,367.83Z"/><path class="cls-38" d="M540.43,367.83,461,398l-88.55-13.06s-23.73-6.37-35.93,10.38S207.1,566.82,207.1,566.82l28.14,20.77,72.36-71s67.37-9.38,60.82-65.32c96.33,79.39,197.13,38.19,203.5-9S540.43,367.83,540.43,367.83Z"/><path class="cls-7" d="M346.94,492.4C336.4,485.24,327,475.81,318.73,467c-6.62-7-13.3-14.29-19.57-21.93-38.49,51-92.06,121.71-92.06,121.71l28.14,20.77,72.36-71s25-3.51,43.11-18.92Z"/><path class="cls-39" d="M346.94,492.4C336.4,485.24,327,475.81,318.73,467c-6.62-7-13.3-14.29-19.57-21.93-38.49,51-92.06,121.71-92.06,121.71l28.14,20.77,72.36-71s25-3.51,43.11-18.92Z"/><path class="cls-7" d="M540.43,367.83l-52.81,20.05c.07.17.16.32.22.49,17.6,32.08-6.42,75.92-22,106.71,57.3,6.34,101.88-21.95,106-52.79C578.29,395.15,540.43,367.83,540.43,367.83Z"/><path class="cls-7" d="M540.43,367.83,461,398l-19.6-2.89c.06.12,9.12,1.22,9.18,1.35,10.34,22.2,1.94,52,.42,76-.4,6.33-4.88,12.17-6.19,18.85,65.42,14.81,119.37,7.54,127.08-49C578.36,395.16,540.43,367.83,540.43,367.83Z"/><path class="cls-40" d="M540.43,367.83,461,398l-19.6-2.89c.06.12,9.12,1.22,9.18,1.35,10.34,22.2,1.94,52,.42,76-.4,6.33-4.88,12.17-6.19,18.85,65.42,14.81,119.37,7.54,127.08-49C578.36,395.16,540.43,367.83,540.43,367.83Z"/><g class="cls-41"><path class="cls-42" d="M448.59,396.14l2,.3a19.28,19.28,0,0,0-2-.32Z"/></g><g class="cls-41"><path class="cls-43" d="M556,383.74a82.92,82.92,0,0,0-15.53-15.91L461,398l-10.42-1.54h0c.3.65.54,1.33.81,2,10.37,3,38.73-1.67,46.85-2.51,14.26-1.47,28.68-2.74,42.63-5.4,4.91-.94,13.25-1,14.92-5.77A3.51,3.51,0,0,0,556,383.74Z"/></g><g class="cls-41"><polygon class="cls-3" points="455.84 396.01 519.36 405.26 455.52 398.59 455.84 396.01"/></g><path class="cls-44" d="M437.06,394.44l2.08-5.72a3.73,3.73,0,0,1,4-2.42l23.4,3.31s12,24.66,2.06,60.28-28.47,50.47-28.47,50.47S419,489.81,417.87,488.57s-.7-7.22-.7-7.22l7.31,3.41s28.42-37.87,23.87-88.37Z"/><path class="cls-45" d="M437.06,394.44l2.08-5.72a3.73,3.73,0,0,1,4-2.42l23.4,3.31s12,24.66,2.06,60.28-28.47,50.47-28.47,50.47S419,489.81,417.87,488.57s-.7-7.22-.7-7.22l7.31,3.41s28.42-37.87,23.87-88.37Z"/><polygon class="cls-13" points="354.25 494.38 354.25 494.38 354.25 494.38 354.25 494.38"/><path class="cls-13" d="M307,434.69h0c-8.16,10.83-17.33,23-26.74,35.43,25.23,9,36.09,29.8,40.6,43.26,9.84-3.07,23.23-8.8,33.38-19h0C349.39,446.16,307,434.69,307,434.69Z"/><path class="cls-46" d="M307,434.69h0c-8.16,10.83-17.33,23-26.74,35.43,25.23,9,36.09,29.8,40.6,43.26,9.84-3.07,23.23-8.8,33.38-19h0C349.39,446.16,307,434.69,307,434.69Z"/><polyline class="cls-13" points="265.56 207.03 263.12 168.34 355.18 168.34 351.99 206.03 351.99 206.03 265.56 207.03"/><path class="cls-34" d="M269.09,173.94l1.73,27.42,76-.88,2.25-26.54Z"/><path class="cls-13" d="M355.17,168.34,385,158.92s6.42,3.71,1.53,11.4h0l-32.81,15.12Z"/><path class="cls-13" d="M357.4,316.79,352,318.67l1.57,4.54a.91.91,0,0,1,0,.74.95.95,0,0,1-1.28.44.89.89,0,0,1-.49-.55l-4.39-12.72a1,1,0,0,1,.6-1.22l6.36-2.19a3.84,3.84,0,0,1,4.88,2.38l.63,1.81a3.67,3.67,0,0,1-.18,2.94A3.72,3.72,0,0,1,357.4,316.79Zm-.06-6.08a1.9,1.9,0,0,0-1-1.1,1.84,1.84,0,0,0-1.47-.08l-5.44,1.88,1.88,5.44,5.44-1.88a1.9,1.9,0,0,0,1.19-2.44Z"/><path class="cls-13" d="M376.54,316.28l-9.08,3.14a.93.93,0,0,1-.73-.05.91.91,0,0,1-.5-.55l-4.39-12.71a1,1,0,0,1,.05-.73.93.93,0,0,1,.56-.49.89.89,0,0,1,.73,0,.94.94,0,0,1,.48.55l3.92,11.35a.43.43,0,0,0,.25.28.45.45,0,0,0,.36,0l7.72-2.66a.91.91,0,0,1,.74,0,.92.92,0,0,1,.48.56.89.89,0,0,1,0,.73A.94.94,0,0,1,376.54,316.28Z"/><path class="cls-13" d="M391.61,310.78a1,1,0,0,1-.55.49,1,1,0,0,1-.73,0,.94.94,0,0,1-.49-.56l-1.41-4.09a.46.46,0,0,0-.24-.27.48.48,0,0,0-.37,0l-6.35,2.2a.46.46,0,0,0-.28.25.42.42,0,0,0,0,.36l1.41,4.09a.91.91,0,0,1-.05.74,1,1,0,0,1-1.28.44,1,1,0,0,1-.49-.55l-3.45-10a3.85,3.85,0,0,1,2.38-4.89l3.64-1.25a3.69,3.69,0,0,1,2.93.17,3.75,3.75,0,0,1,1.95,2.2l3.45,10A.91.91,0,0,1,391.61,310.78Zm-5.21-10.1a1.93,1.93,0,0,0-2.45-1.19l-3.63,1.26a1.85,1.85,0,0,0-1.1,1,1.88,1.88,0,0,0-.09,1.47l1.1,3.18a.46.46,0,0,0,.24.27.44.44,0,0,0,.37,0l6.35-2.19a.45.45,0,0,0,.28-.24.48.48,0,0,0,0-.37Z"/><path class="cls-13" d="M405.25,302.3a3.85,3.85,0,0,1-2.38,4.89l-4.54,1.57a1,1,0,0,1-1.22-.6.93.93,0,0,1,0-.73.92.92,0,0,1,.55-.49l4.54-1.57a1.82,1.82,0,0,0,1.1-1,1.8,1.8,0,0,0,.09-1.47l-.8-2.31a3.77,3.77,0,0,1-1.64,1.12L397.36,303a3.83,3.83,0,0,1-4.89-2.37l-1.57-4.54a.93.93,0,0,1,.05-.73.87.87,0,0,1,.54-.49,1,1,0,0,1,1.23.59l1.57,4.54a1.85,1.85,0,0,0,1,1.1,1.88,1.88,0,0,0,1.47.09l3.63-1.26a1.82,1.82,0,0,0,1.1-1,1.8,1.8,0,0,0,.09-1.47L400,292.94a.93.93,0,0,1,0-.73.9.9,0,0,1,.54-.49,1,1,0,0,1,.74,0,.93.93,0,0,1,.49.54v.05Z"/><path class="cls-13" d="M415.74,288.52,408,291.18a.53.53,0,0,0-.28.25.5.5,0,0,0,0,.36l1.25,3.64a.51.51,0,0,0,.25.27.42.42,0,0,0,.36,0l5.91-2a.89.89,0,0,1,.73.05.92.92,0,0,1,.49.55.89.89,0,0,1,0,.73.9.9,0,0,1-.55.48l-5.9,2a.44.44,0,0,0-.27.25.46.46,0,0,0,0,.36l1.26,3.63a.45.45,0,0,0,.24.28.48.48,0,0,0,.37,0l7.72-2.66a.93.93,0,0,1,.73,0,1,1,0,0,1,.49.56.89.89,0,0,1-.05.73.9.9,0,0,1-.55.48L411,304.37a.92.92,0,0,1-.73,0,.94.94,0,0,1-.49-.56l-4.39-12.71a.93.93,0,0,1,.05-.73.89.89,0,0,1,.55-.49l9.08-3.14a.93.93,0,0,1,.73.05,1,1,0,0,1,.49.55.88.88,0,0,1-.05.73A1,1,0,0,1,415.74,288.52Z"/><path class="cls-13" d="M432.13,290a3.8,3.8,0,0,1,1.33.91,3.76,3.76,0,0,1,.85,1.39l.94,2.73a.94.94,0,0,1-.59,1.21.91.91,0,0,1-.74,0,.92.92,0,0,1-.49-.55l-.94-2.73a1.83,1.83,0,0,0-1-1.09,1.8,1.8,0,0,0-1.47-.09l-5.45,1.88,1.57,4.54a.91.91,0,0,1-.05.74.93.93,0,0,1-.55.48.88.88,0,0,1-.73,0,.92.92,0,0,1-.49-.55L420,286a1,1,0,0,1,0-.73.94.94,0,0,1,.56-.49l6.35-2.19A3.83,3.83,0,0,1,431.8,285l.63,1.81a3.89,3.89,0,0,1,.19,1.62A3.72,3.72,0,0,1,432.13,290ZM430,285.63a1.82,1.82,0,0,0-1-1.1,1.88,1.88,0,0,0-1.47-.09l-5.45,1.88,1.88,5.45,5.45-1.88a1.85,1.85,0,0,0,1.1-1,1.88,1.88,0,0,0,.09-1.47Z"/><path class="cls-13" d="M382.77,349.66,376,352a7.2,7.2,0,0,1-9.16-4.46l-4.71-13.63a7.23,7.23,0,0,1,4.46-9.17l6.82-2.35a7.19,7.19,0,0,1,9.16,4.46l4.71,13.63a7.21,7.21,0,0,1-4.46,9.17ZM379.12,328a3.53,3.53,0,0,0-1.83-2.07,3.49,3.49,0,0,0-2.76-.16l-6.81,2.35a3.61,3.61,0,0,0-2.23,4.58l4.71,13.63a3.47,3.47,0,0,0,1.83,2.07,3.51,3.51,0,0,0,2.75.16l6.81-2.35a3.53,3.53,0,0,0,2.07-1.83,3.47,3.47,0,0,0,.16-2.75Z"/><path class="cls-13" d="M415.13,338.48a2,2,0,0,1-1.78-.34l-20.54-14.62,6.4,18.55a1.72,1.72,0,0,1-.08,1.37,1.79,1.79,0,0,1-2.42.83,1.74,1.74,0,0,1-.9-1l-8.23-23.82a1.83,1.83,0,0,1,.07-1.4,1.7,1.7,0,0,1,1-.92,1.73,1.73,0,0,1,1.76.35L411,332.1l-6.41-18.58a1.8,1.8,0,0,1,2.5-2.21,1.79,1.79,0,0,1,.9,1l8.24,23.85a1.82,1.82,0,0,1-1.12,2.29Z"/><path class="cls-13" d="M434.15,305.22l-14.48,5a.89.89,0,0,0-.51.46.87.87,0,0,0,0,.69l2.35,6.81a.86.86,0,0,0,.46.51.87.87,0,0,0,.69.05l11.07-3.82a1.73,1.73,0,0,1,1.37.09,1.75,1.75,0,0,1,.92,1,1.64,1.64,0,0,1-.09,1.37,1.73,1.73,0,0,1-1,.9l-11.07,3.83a.9.9,0,0,0-.55,1.14l2.35,6.82a.9.9,0,0,0,1.14.55l14.48-5a1.8,1.8,0,0,1,2.21,2.5,1.77,1.77,0,0,1-1,.91l-17,5.88a1.74,1.74,0,0,1-1.38-.07,1.77,1.77,0,0,1-.91-1L414.83,310a1.77,1.77,0,0,1,.08-1.37,1.68,1.68,0,0,1,1-.92l17-5.88a1.73,1.73,0,0,1,1.37.09,1.75,1.75,0,0,1,.92,1,1.64,1.64,0,0,1-.09,1.37A1.76,1.76,0,0,1,434.15,305.22Z"/><path class="cls-47" d="M540.43,475.14c-56.57,30.1-176.89-33.65-176.89-33.65s.39,52.54-53.17,64.68l-82.28,76.14h0l7.15,5.28,72.36-71s67.37-9.38,60.82-65.32c25.79,21.25,51.89,33.85,76.42,40h0l.17,0q7.28,1.81,14.33,2.9c58.74,10.5,105.45.37,112.58-51.92,6.44-47.13-31.49-74.46-31.49-74.46S597,445,540.43,475.14Z"/><path class="cls-13" d="M459.34,494.21A258.17,258.17,0,0,0,487.45,497a142.84,142.84,0,0,0,28.05-1.29,80.48,80.48,0,0,0,26.42-8.46,52.21,52.21,0,0,0,19.83-18.77,59.74,59.74,0,0,0,5.8-12.54,86.73,86.73,0,0,0,3.12-13.55,77.77,77.77,0,0,0-1-27.71A79.69,79.69,0,0,0,558.88,389a89.32,89.32,0,0,0-18.45-21.16c15.06,11.31,26.59,27.79,31.21,46.38a76.58,76.58,0,0,1,1.46,28.5,85.53,85.53,0,0,1-3.14,14,61.79,61.79,0,0,1-6,13.1,54.37,54.37,0,0,1-20.87,19.57,71.89,71.89,0,0,1-13.31,5.38,85.33,85.33,0,0,1-14,2.9,143.47,143.47,0,0,1-28.4.59q-7.08-.56-14.09-1.59C468.61,496,464,495.14,459.34,494.21Z"/><path class="cls-48" d="M446,395.76l4.64.68C450.58,396.38,448.26,396.07,446,395.76Z"/><polygon class="cls-49" points="461.04 253.93 448.29 261.37 519.36 355.6 550.82 359.12 527.37 352.42 461.04 253.93"/><path class="cls-13" d="M527.36,352.42c-6-7.91-11.73-16-17.41-24.06s-11.28-16.27-16.83-24.46l-8.23-12.35c-2.7-4.14-5.45-8.26-8.11-12.43-5.37-8.32-10.67-16.68-15.75-25.19,6,7.91,11.74,16,17.43,24.06,2.86,4,5.64,8.12,8.47,12.19l8.35,12.27c5.5,8.22,11,16.46,16.34,24.78S522.28,343.91,527.36,352.42Z"/><path class="cls-50" d="M657.64,96.48S485.93,216.22,449.27,260.19c4-2.05,8-3.89,12.12-5.73l-.36-.53,110.55-85.59L674.09,96.48Z"/><path class="cls-3" d="M203.57,563.21,247,586v45.33s-14.47,2.43-37.86,1.11a278.2,278.2,0,0,1-100.89-25.55L119.48,586,134,593.33Z"/><path class="cls-51" d="M203.57,563.21,247,586v45.33s-14.47,2.43-37.86,1.11a278.2,278.2,0,0,1-100.89-25.55L119.48,586,134,593.33Z"/><path class="cls-5" d="M209.16,632.43S209.64,587.75,247,598v33.3S227.37,634.11,209.16,632.43Z"/><path class="cls-52" d="M209.16,632.43S209.64,587.75,247,598v33.3S227.37,634.11,209.16,632.43Z"/><path class="cls-5" d="M148.91,581.29c.47,3.16,7,22.32,7,22.32L167.6,598l-7-21.51Z"/><polygon class="cls-5" points="167.6 573.71 175.07 596.48 187.69 590.06 179.75 566.41 167.6 573.71"/><path class="cls-13" d="M404.69,668.16c1.3-3.48,2.41-7,3.36-10.59s1.76-7.16,2.39-10.78A85.14,85.14,0,0,0,411.5,625a57.62,57.62,0,0,0-2-10.68,47.93,47.93,0,0,0-4.08-10c-.46-.79-.83-1.63-1.35-2.37l-1.49-2.29c-.52-.75-1.09-1.46-1.64-2.2l-.83-1.09-.91-1a63.69,63.69,0,0,0-8-7.67,48.3,48.3,0,0,1,8.9,6.79l1,1,.94,1c.62.71,1.27,1.4,1.86,2.14a44.07,44.07,0,0,1,3.23,4.67,50.09,50.09,0,0,1,6.9,21.5,73.58,73.58,0,0,1-1.66,22.46A88.83,88.83,0,0,1,409.26,658,71.18,71.18,0,0,1,404.69,668.16Z"/></g></g></g></svg>