<svg xmlns="http://www.w3.org/2000/svg" xmlns:xlink="http://www.w3.org/1999/xlink" viewBox="0 0 1687.91 470.04"><defs><style>.cls-1{fill:none;}.cls-2{isolation:isolate;}.cls-3{clip-path:url(#clip-path);}.cls-4{fill:url(#radial-gradient);}.cls-5,.cls-6,.cls-78,.cls-8{opacity:0.15;}.cls-11,.cls-14,.cls-17,.cls-21,.cls-22,.cls-23,.cls-25,.cls-34,.cls-35,.cls-43,.cls-5,.cls-59,.cls-60,.cls-62,.cls-67,.cls-68,.cls-69,.cls-71,.cls-73,.cls-74,.cls-75,.cls-8,.cls-80,.cls-81,.cls-82{mix-blend-mode:screen;}.cls-5{fill:url(#linear-gradient);}.cls-6,.cls-7{fill:#2c2082;}.cls-16,.cls-32,.cls-44,.cls-45,.cls-56,.cls-6,.cls-7,.cls-83,.cls-85{mix-blend-mode:multiply;}.cls-7,.cls-79{opacity:0.1;}.cls-8{fill:url(#linear-gradient-2);}.cls-10,.cls-12,.cls-13,.cls-9{fill:#aff1ff;}.cls-17,.cls-20,.cls-74,.cls-75,.cls-9{opacity:0.25;}.cls-10,.cls-16,.cls-34,.cls-44,.cls-45,.cls-56,.cls-66,.cls-67,.cls-77,.cls-83,.cls-85{opacity:0.5;}.cls-11,.cls-21{opacity:0.81;}.cls-11{fill:url(#radial-gradient-2);}.cls-12,.cls-25,.cls-71{opacity:0.85;}.cls-13,.cls-18{opacity:0.2;}.cls-14{fill:url(#radial-gradient-3);}.cls-15{fill:url(#linear-gradient-3);}.cls-16{fill:#d61bdb;}.cls-17{fill:#45ede8;}.cls-18,.cls-19,.cls-76,.cls-78,.cls-79{fill:#fff;}.cls-18,.cls-20,.cls-70,.cls-72,.cls-76,.cls-77,.cls-78,.cls-79{mix-blend-mode:lighten;}.cls-20{fill:#76ffff;}.cls-21{fill:url(#radial-gradient-4);}.cls-22{fill:url(#radial-gradient-5);}.cls-23{fill:url(#radial-gradient-6);}.cls-24{fill:url(#linear-gradient-4);}.cls-26{fill:url(#radial-gradient-7);}.cls-27{fill:url(#linear-gradient-5);}.cls-28{fill:url(#linear-gradient-6);}.cls-29{fill:url(#linear-gradient-7);}.cls-30{fill:url(#linear-gradient-8);}.cls-31{fill:url(#linear-gradient-9);}.cls-32{fill:url(#linear-gradient-10);}.cls-33{opacity:0.61;fill:url(#linear-gradient-11);}.cls-34{fill:url(#radial-gradient-8);}.cls-35{fill:url(#radial-gradient-9);}.cls-36{fill:url(#linear-gradient-12);}.cls-37{fill:#4a4aba;}.cls-38{fill:#3c3ca6;}.cls-39{fill:url(#linear-gradient-13);}.cls-40{fill:#4a6abb;}.cls-41{fill:#3e3eb5;}.cls-42{fill:#3636ad;}.cls-43{fill:url(#radial-gradient-10);}.cls-44{fill:url(#linear-gradient-14);}.cls-45{fill:url(#linear-gradient-15);}.cls-46{fill:url(#linear-gradient-16);}.cls-47{fill:url(#linear-gradient-17);}.cls-48{fill:url(#linear-gradient-18);}.cls-49{fill:#5a67e3;}.cls-50{fill:#2540bb;}.cls-51{fill:#2e4ab8;}.cls-52{fill:#354ec2;}.cls-53{fill:url(#linear-gradient-19);}.cls-54{fill:#495bd7;}.cls-55{fill:url(#linear-gradient-20);}.cls-56{fill:url(#linear-gradient-21);}.cls-57{fill:url(#linear-gradient-22);}.cls-58{fill:url(#linear-gradient-23);}.cls-59{opacity:0.9;fill:url(#radial-gradient-11);}.cls-60{opacity:0.54;fill:url(#radial-gradient-12);}.cls-61{fill:url(#linear-gradient-24);}.cls-62,.cls-76{opacity:0.35;}.cls-62{fill:url(#linear-gradient-25);}.cls-63{fill:url(#linear-gradient-26);}.cls-64{fill:#351775;}.cls-65{fill:#422987;}.cls-66{mix-blend-mode:overlay;}.cls-67{fill:url(#linear-gradient-27);}.cls-68{fill:url(#linear-gradient-28);}.cls-69{fill:url(#linear-gradient-29);}.cls-70{fill:#cd4fce;}.cls-70,.cls-72{opacity:0.8;}.cls-71{fill:#ffcfff;}.cls-72,.cls-77{fill:#f687f9;}.cls-73{fill:url(#linear-gradient-30);}.cls-74{fill:url(#linear-gradient-31);}.cls-75{fill:url(#linear-gradient-32);}.cls-80{fill:url(#radial-gradient-13);}.cls-81{fill:url(#radial-gradient-14);}.cls-82{fill:url(#radial-gradient-15);}.cls-83{fill:url(#linear-gradient-33);}.cls-84{fill:url(#linear-gradient-34);}.cls-85{fill:url(#linear-gradient-35);}.cls-86{fill:url(#linear-gradient-36);}</style><clipPath id="clip-path" transform="translate(239.49 0.04)"><rect class="cls-1" width="860" height="400"/></clipPath><radialGradient id="radial-gradient" cx="611.62" cy="206.88" r="428.56" gradientTransform="translate(239.49 0.12)" gradientUnits="userSpaceOnUse"><stop offset="0" stop-color="#6a00d0"/><stop offset="0.18" stop-color="#6201c5"/><stop offset="0.49" stop-color="#4c05a9"/><stop offset="0.9" stop-color="#280b7b"/><stop offset="0.99" stop-color="#1f0c70"/></radialGradient><linearGradient id="linear-gradient" x1="419.56" y1="188.93" x2="664.5" y2="188.93" gradientUnits="userSpaceOnUse"><stop offset="0"/><stop offset="0.04" stop-color="#101010"/><stop offset="0.19" stop-color="#4f4f4f"/><stop offset="0.35" stop-color="#848484"/><stop offset="0.5" stop-color="#b0b0b0"/><stop offset="0.64" stop-color="#d3d3d3"/><stop offset="0.77" stop-color="#ebebeb"/><stop offset="0.9" stop-color="#fafafa"/><stop offset="1" stop-color="#fff"/></linearGradient><linearGradient id="linear-gradient-2" x1="513.36" y1="197.67" x2="860" y2="197.67" xlink:href="#linear-gradient"/><radialGradient id="radial-gradient-2" cx="122" cy="93.14" r="3.83" gradientTransform="translate(-2.88 -1.82) scale(1.01 1.01)" gradientUnits="userSpaceOnUse"><stop offset="0" stop-color="#45ede8"/><stop offset="0.99"/></radialGradient><radialGradient id="radial-gradient-3" cx="110.48" cy="116.66" r="70.51" gradientTransform="translate(197.65 -18.32) rotate(76.3)" gradientUnits="userSpaceOnUse"><stop offset="0" stop-color="#36faff"/><stop offset="0.12" stop-color="#2ed5d9"/><stop offset="0.36" stop-color="#1e8a8d"/><stop offset="0.58" stop-color="#114f50"/><stop offset="0.77" stop-color="#082425"/><stop offset="0.91" stop-color="#020a0a"/><stop offset="1"/></radialGradient><linearGradient id="linear-gradient-3" x1="281.6" y1="159.21" x2="381.64" y2="107.34" gradientTransform="matrix(0.6, 0.8, -0.8, 0.6, 20.21, -228.42)" gradientUnits="userSpaceOnUse"><stop offset="0" stop-color="#4300db"/><stop offset="0.08" stop-color="#450adc"/><stop offset="0.23" stop-color="#4a25e0"/><stop offset="0.41" stop-color="#5351e6"/><stop offset="0.63" stop-color="#5f8def"/><stop offset="0.87" stop-color="#6ed9fa"/><stop offset="0.98" stop-color="#76ffff"/></linearGradient><radialGradient id="radial-gradient-4" cx="146.43" cy="158.41" r="12.83" gradientTransform="translate(236.61 -1.79) scale(1.01 1.01)" xlink:href="#radial-gradient-2"/><radialGradient id="radial-gradient-5" cx="146.1" cy="160.89" r="4.08" xlink:href="#radial-gradient-2"/><radialGradient id="radial-gradient-6" cx="409.99" cy="200.54" r="30.5" gradientUnits="userSpaceOnUse"><stop offset="0" stop-color="#36faff"/><stop offset="0.15" stop-color="#2ac2c6"/><stop offset="0.32" stop-color="#1d888a"/><stop offset="0.48" stop-color="#135759"/><stop offset="0.64" stop-color="#0b3132"/><stop offset="0.78" stop-color="#051617"/><stop offset="0.91" stop-color="#010606"/><stop offset="1"/></radialGradient><linearGradient id="linear-gradient-4" x1="390.73" y1="199.74" x2="429.26" y2="199.74" gradientUnits="userSpaceOnUse"><stop offset="0.02" stop-color="#6bb5ff"/><stop offset="0.1" stop-color="#72c2ff"/><stop offset="0.32" stop-color="#81ddff"/><stop offset="0.54" stop-color="#8cf0ff"/><stop offset="0.76" stop-color="#92fbff"/><stop offset="0.99" stop-color="#94ffff"/></linearGradient><radialGradient id="radial-gradient-7" cx="709.69" cy="195.15" r="165.33" gradientTransform="translate(-2.88 -1.82) scale(1.01 1.01)" gradientUnits="userSpaceOnUse"><stop offset="0" stop-color="#fff"/><stop offset="1"/></radialGradient><linearGradient id="linear-gradient-5" x1="608.79" y1="149.25" x2="848.18" y2="229.04" gradientTransform="matrix(0.83, 0.55, -0.55, 0.83, 197.33, -378.71)" gradientUnits="userSpaceOnUse"><stop offset="0.01" stop-color="#94ffff"/><stop offset="0.24" stop-color="#92fbff"/><stop offset="0.47" stop-color="#8cf0ff"/><stop offset="0.68" stop-color="#81ddff"/><stop offset="0.9" stop-color="#72c2ff"/><stop offset="0.98" stop-color="#6bb5ff"/></linearGradient><linearGradient id="linear-gradient-6" x1="642.56" y1="139.26" x2="831.27" y2="139.26" gradientTransform="matrix(0.83, 0.55, -0.55, 0.83, 197.33, -378.71)" gradientUnits="userSpaceOnUse"><stop offset="0" stop-color="#d9ffff"/><stop offset="0.16" stop-color="#fff"/><stop offset="0.21" stop-color="#f4ffff"/><stop offset="0.36" stop-color="#d1ffff"/><stop offset="0.51" stop-color="#b6ffff"/><stop offset="0.67" stop-color="#a3ffff"/><stop offset="0.83" stop-color="#98ffff"/><stop offset="0.99" stop-color="#94ffff"/></linearGradient><linearGradient id="linear-gradient-7" x1="640.27" y1="180.74" x2="864.63" y2="180.74" xlink:href="#linear-gradient-6"/><linearGradient id="linear-gradient-8" x1="689.67" y1="120.11" x2="814.54" y2="120.11" gradientTransform="matrix(0.83, 0.55, -0.55, 0.83, 197.33, -378.71)" gradientUnits="userSpaceOnUse"><stop offset="0" stop-color="#fff"/><stop offset="0.05" stop-color="#f4ffff"/><stop offset="0.23" stop-color="#d1ffff"/><stop offset="0.42" stop-color="#b6ffff"/><stop offset="0.6" stop-color="#a3ffff"/><stop offset="0.79" stop-color="#98ffff"/><stop offset="0.99" stop-color="#94ffff"/></linearGradient><linearGradient id="linear-gradient-9" x1="674.37" y1="275.54" x2="800.3" y2="308.85" xlink:href="#linear-gradient-6"/><linearGradient id="linear-gradient-10" x1="673.61" y1="177.35" x2="820.9" y2="226.44" gradientUnits="userSpaceOnUse"><stop offset="0.01" stop-color="#94ffff"/><stop offset="0.24" stop-color="#92fbff"/><stop offset="0.46" stop-color="#8cf0ff"/><stop offset="0.68" stop-color="#81ddff"/><stop offset="0.9" stop-color="#72c2ff"/><stop offset="0.98" stop-color="#6bb5ff"/></linearGradient><linearGradient id="linear-gradient-11" x1="672.48" y1="180.72" x2="819.78" y2="229.81" gradientTransform="matrix(1, 0, 0, 1, 0, 0)" xlink:href="#linear-gradient-8"/><radialGradient id="radial-gradient-8" cx="1233.04" cy="226.34" r="181" gradientTransform="translate(-4905.34 0.04) scale(4.66 1)" gradientUnits="userSpaceOnUse"><stop offset="0" stop-color="#fff"/><stop offset="0.12" stop-color="#d0d0d0"/><stop offset="0.3" stop-color="#929292"/><stop offset="0.48" stop-color="#5e5e5e"/><stop offset="0.64" stop-color="#353535"/><stop offset="0.78" stop-color="#181818"/><stop offset="0.91" stop-color="#060606"/><stop offset="1"/></radialGradient><radialGradient id="radial-gradient-9" cx="840.59" cy="222.25" r="72" gradientTransform="translate(-3051.6 167.61) scale(4.67 1.03)" gradientUnits="userSpaceOnUse"><stop offset="0.01" stop-color="#cd4fce"/><stop offset="0.1" stop-color="#c34bc4"/><stop offset="0.27" stop-color="#a941aa"/><stop offset="0.49" stop-color="#7f3180"/><stop offset="0.74" stop-color="#441a45"/><stop offset="1"/></radialGradient><linearGradient id="linear-gradient-12" x1="620" y1="399.92" x2="620" y2="294" gradientUnits="userSpaceOnUse"><stop offset="0" stop-color="#7171c6"/><stop offset="0.36" stop-color="#6767c3"/><stop offset="0.98" stop-color="#4b4bba"/><stop offset="1" stop-color="#4a4aba"/></linearGradient><linearGradient id="linear-gradient-13" x1="237.5" y1="309.59" x2="1097.5" y2="309.59" gradientUnits="userSpaceOnUse"><stop offset="0.01" stop-color="#2540bb"/><stop offset="0.07" stop-color="#2545bd"/><stop offset="0.15" stop-color="#2754c3"/><stop offset="0.23" stop-color="#296ccc"/><stop offset="0.32" stop-color="#2d8fd9"/><stop offset="0.41" stop-color="#31baea"/><stop offset="0.49" stop-color="#35e7fb"/><stop offset="0.5" stop-color="#48eafc"/><stop offset="0.52" stop-color="#6beffd"/><stop offset="0.54" stop-color="#87f4fe"/><stop offset="0.55" stop-color="#9af7fe"/><stop offset="0.57" stop-color="#a6f8ff"/><stop offset="0.59" stop-color="#aaf9ff"/><stop offset="0.75" stop-color="#35e7fb"/><stop offset="0.86" stop-color="#2d97dc"/><stop offset="0.96" stop-color="#2758c4"/><stop offset="1" stop-color="#2540bb"/></linearGradient><radialGradient id="radial-gradient-10" cx="839.52" cy="490.83" r="55.46" gradientTransform="translate(-3051.6 26.47) scale(4.67 0.7)" xlink:href="#radial-gradient-9"/><linearGradient id="linear-gradient-14" x1="860.91" y1="293.54" x2="1113.53" y2="293.54" gradientUnits="userSpaceOnUse"><stop offset="0" stop-color="#2540bb"/><stop offset="0.1" stop-color="#2c46bd"/><stop offset="0.24" stop-color="#3e56c3"/><stop offset="0.4" stop-color="#5c70cc"/><stop offset="0.58" stop-color="#8695d9"/><stop offset="0.78" stop-color="#bbc4ea"/><stop offset="0.99" stop-color="#fcfcfe"/><stop offset="1" stop-color="#fff"/></linearGradient><linearGradient id="linear-gradient-15" x1="209.03" y1="291.21" x2="553.03" y2="291.21" gradientUnits="userSpaceOnUse"><stop offset="0" stop-color="#fff"/><stop offset="0.01" stop-color="#fcfcfe"/><stop offset="0.22" stop-color="#bbc4ea"/><stop offset="0.42" stop-color="#8695d9"/><stop offset="0.6" stop-color="#5c70cc"/><stop offset="0.76" stop-color="#3e56c3"/><stop offset="0.9" stop-color="#2c46bd"/><stop offset="1" stop-color="#2540bb"/></linearGradient><linearGradient id="linear-gradient-16" x1="860.49" y1="236.04" x2="1118.49" y2="236.04" gradientUnits="userSpaceOnUse"><stop offset="0" stop-color="#5f7ce4"/><stop offset="0.06" stop-color="#5a77e0"/><stop offset="0.44" stop-color="#3d59cc"/><stop offset="0.77" stop-color="#2b47bf"/><stop offset="1" stop-color="#2540bb"/></linearGradient><linearGradient id="linear-gradient-17" x1="861.47" y1="247.54" x2="1015.3" y2="247.54" gradientUnits="userSpaceOnUse"><stop offset="0" stop-color="#7a7df3"/><stop offset="0.19" stop-color="#807ff4"/><stop offset="0.44" stop-color="#9283f6"/><stop offset="0.74" stop-color="#af8afa"/><stop offset="1" stop-color="#cf92ff"/></linearGradient><linearGradient id="linear-gradient-18" x1="1112.53" y1="233.16" x2="1022.19" y2="205.01" xlink:href="#linear-gradient-17"/><linearGradient id="linear-gradient-19" x1="298.49" y1="250.04" x2="556.49" y2="250.04" gradientUnits="userSpaceOnUse"><stop offset="0" stop-color="#2540bb"/><stop offset="0.23" stop-color="#2b47bf"/><stop offset="0.56" stop-color="#3d59cc"/><stop offset="0.94" stop-color="#5a77e0"/><stop offset="1" stop-color="#5f7ce4"/></linearGradient><linearGradient id="linear-gradient-20" x1="498.38" y1="286.24" x2="530.29" y2="262.12" xlink:href="#linear-gradient-17"/><linearGradient id="linear-gradient-21" x1="330.97" y1="309.4" x2="330.97" y2="301.92" xlink:href="#linear-gradient-15"/><linearGradient id="linear-gradient-22" x1="302.54" y1="294.91" x2="372.54" y2="294.91" xlink:href="#linear-gradient-17"/><linearGradient id="linear-gradient-23" x1="162.54" y1="307.75" x2="162.54" y2="294.7" xlink:href="#linear-gradient-19"/><radialGradient id="radial-gradient-11" cx="1180.99" cy="333.23" r="123" gradientTransform="translate(-5434.61 19.78) scale(5.17 0.72)" gradientUnits="userSpaceOnUse"><stop offset="0" stop-color="#6500b3"/><stop offset="0.15" stop-color="#4e008a"/><stop offset="0.36" stop-color="#320059"/><stop offset="0.55" stop-color="#1c0032"/><stop offset="0.73" stop-color="#0d0017"/><stop offset="0.88" stop-color="#030006"/><stop offset="1"/></radialGradient><radialGradient id="radial-gradient-12" cx="1180.79" cy="-256.17" r="123.01" gradientTransform="translate(-5434.61 333.81) scale(5.17 0.27)" gradientUnits="userSpaceOnUse"><stop offset="0" stop-color="#6500b3"/><stop offset="0.11" stop-color="#5f00a9"/><stop offset="0.3" stop-color="#50008e"/><stop offset="0.54" stop-color="#380063"/><stop offset="0.83" stop-color="#160027"/><stop offset="1"/></radialGradient><linearGradient id="linear-gradient-24" x1="80.81" y1="407.78" x2="699.16" y2="312.04" gradientUnits="userSpaceOnUse"><stop offset="0" stop-color="#4a0e99"/><stop offset="0.25" stop-color="#4549b4"/><stop offset="0.77" stop-color="#3abdea"/><stop offset="1" stop-color="#36ebff"/></linearGradient><linearGradient id="linear-gradient-25" x1="258.09" y1="333.08" x2="332.66" y2="312.81" xlink:href="#linear-gradient"/><linearGradient id="linear-gradient-26" y1="362.02" x2="313.28" y2="362.02" gradientUnits="userSpaceOnUse"><stop offset="0" stop-color="#640095"/><stop offset="0.05" stop-color="#630699"/><stop offset="0.48" stop-color="#5f34b5"/><stop offset="0.81" stop-color="#5c50c7"/><stop offset="1" stop-color="#5b5bce"/></linearGradient><linearGradient id="linear-gradient-27" x1="387.72" y1="342.95" x2="572.87" y2="342.95" xlink:href="#linear-gradient"/><linearGradient id="linear-gradient-28" x1="91.44" y1="373.22" x2="233.86" y2="373.22" gradientUnits="userSpaceOnUse"><stop offset="0"/><stop offset="0.26" stop-color="#441a45"/><stop offset="0.51" stop-color="#7f3180"/><stop offset="0.73" stop-color="#a941aa"/><stop offset="0.9" stop-color="#c34bc4"/><stop offset="0.99" stop-color="#cd4fce"/></linearGradient><linearGradient id="linear-gradient-29" x1="314.2" y1="393.01" x2="314.2" y2="376.48" gradientUnits="userSpaceOnUse"><stop offset="0" stop-color="#cd4fce"/><stop offset="0.1" stop-color="#c34bc4"/><stop offset="0.27" stop-color="#a941aa"/><stop offset="0.48" stop-color="#7f3180"/><stop offset="0.74" stop-color="#441a45"/><stop offset="1"/></linearGradient><linearGradient id="linear-gradient-30" x1="43.41" y1="396.17" x2="90.01" y2="359.04" xlink:href="#linear-gradient-29"/><linearGradient id="linear-gradient-31" x1="35.67" y1="357.62" x2="100.75" y2="357.62" xlink:href="#linear-gradient-28"/><linearGradient id="linear-gradient-32" x1="341.55" y1="352.49" x2="383.29" y2="352.49" xlink:href="#linear-gradient-28"/><radialGradient id="radial-gradient-13" cx="1224.6" cy="-848.02" r="123" gradientTransform="translate(-4046.71 441.92) scale(4.03 0.3)" gradientUnits="userSpaceOnUse"><stop offset="0" stop-color="#36faff"/><stop offset="0.12" stop-color="#2cccd0"/><stop offset="0.3" stop-color="#1f8f92"/><stop offset="0.48" stop-color="#145c5e"/><stop offset="0.64" stop-color="#0b3435"/><stop offset="0.78" stop-color="#051818"/><stop offset="0.91" stop-color="#010606"/><stop offset="1"/></radialGradient><radialGradient id="radial-gradient-14" cx="1224.42" cy="-791.91" r="122.99" gradientTransform="translate(-1767.1 440.18) scale(2.17 0.31)" xlink:href="#radial-gradient-13"/><radialGradient id="radial-gradient-15" cx="1174.91" cy="-2275.72" r="123.01" gradientTransform="translate(-1280.44 472.36) scale(1.78 0.12)" gradientUnits="userSpaceOnUse"><stop offset="0" stop-color="#fff17f"/><stop offset="0.12" stop-color="#d0c568"/><stop offset="0.3" stop-color="#928a49"/><stop offset="0.48" stop-color="#5e592f"/><stop offset="0.64" stop-color="#35321a"/><stop offset="0.78" stop-color="#18170c"/><stop offset="0.91" stop-color="#060603"/><stop offset="1"/></radialGradient><linearGradient id="linear-gradient-33" x1="630.15" y1="297.81" x2="630.15" y2="290.61" xlink:href="#linear-gradient-15"/><linearGradient id="linear-gradient-34" x1="630.08" y1="293.9" x2="630.08" y2="284.3" xlink:href="#linear-gradient-17"/><linearGradient id="linear-gradient-35" x1="599.87" y1="301.81" x2="599.87" y2="295.28" xlink:href="#linear-gradient-15"/><linearGradient id="linear-gradient-36" x1="599.87" y1="298.09" x2="599.87" y2="284.93" xlink:href="#linear-gradient-17"/></defs><g class="cls-2"><g id="Layer_1" data-name="Layer 1"><g class="cls-3"><rect class="cls-4" x="239.49" width="860" height="400"/><path class="cls-5" d="M520.27,0c-6.21,13.26-9,28.89-10.31,42.61-2.26,23.92-1.7,48.84-11.52,70.74-6,13.36-15.61,24.89-21,38.51-8.33,21-5.8,44.63-9.18,67-8.32,55.28-52.55,103.22-48.43,159,1.33-4.72,8.42-6.4,11.72-2.79,5.56-11.31,12.19-22.05,18.82-32.77l50.91-82.39,50.1-81.09c14.38-23.28,28.78-46.57,44.67-68.82,12.42-17.39,25.76-34.15,37.3-52.14C645.17,39.4,655,19.78,664.5,0Z" transform="translate(239.49 0.04)"/><path class="cls-6" d="M298.29,262.86c-18.63-27.9-41.19-53.4-55.82-83.62C225,143.19,219.83,102.39,205.09,65.13,192.9,34.31,174.3,17.43,151.92,0H0V96.52c22.73,7.26,46.54,11.41,68.23,21.4,27,12.43,49.08,33.19,70.69,53.59L237,264.1c17.32,16.35,34.65,32.71,50.92,50.12C313.3,341.35,336,370.85,359,400H371.4q-14.83-29.5-29.69-59C328.3,314.37,314.84,287.65,298.29,262.86Z" transform="translate(239.49 0.04)"/><path class="cls-7" d="M408.49,0H250.26a2.26,2.26,0,0,0,0,.26c.26,24.63,36.23,34.76,48,54.48,17,28.4-.89,59.05,5,89.16,4.7,23.78,24.28,41.39,35.35,62.94,10.82,21,13.24,45.26,15.48,68.83,3.91,41.3,7.8,83.1,5.07,124.33h16.69c4.25-10.32,7.13-21,7.57-32.22.81-20.79-7-41-7.7-61.82-.87-24.86,8.36-49.18,8.26-74.06-.12-30.58-14.27-59.68-15.19-90.24C367.41,94.21,397.44,51.91,407.5,5.54,407.89,3.74,408.21,1.88,408.49,0Z" transform="translate(239.49 0.04)"/><path class="cls-8" d="M772.68,0c-3.56,16.16-3.81,34.89-14.2,46.07C748.44,56.89,731,57.78,720.6,68.2c-18.07,18-5.07,51.89-20.2,72.5-11.76,16-36.49,18.22-47.48,34.76-7.53,11.33-6.44,26.12-9.77,39.33-5.55,22-23,38.57-38.47,55.15-35.28,37.86-63.4,81.76-91.32,125.39,12,0,21.83-9.39,28.64-19.26s12.21-21.13,21.6-28.57c14.29-11.31,35.07-11.56,49.09-23.2,15.47-12.83,19.15-36.58,35.54-48.21,12.85-9.1,31.11-8.85,42.47-19.77,12.14-11.66,11.91-31.7,22.43-44.86,12.9-16.15,37.46-17.07,53.25-30.36,16.82-14.16,22-40.88,42-49.82,13.34-6,29.47-1.9,42.86-7.75A35.37,35.37,0,0,0,860,118V0Z" transform="translate(239.49 0.04)"/><path class="cls-6" d="M860,400V246.62c-16.08,14.75-33.23,30.54-47.19,43.53l-2.71,2.53c-13.77,12.83-24,22.5-26,24.9-2.93,3.46-15.42,12.45-31.33,21.73l-2.56,1.46c-3.77,2.16-7.72,4.32-11.76,6.4l-.18.1c-7,3.64-14.37,7.07-21.55,9.94-16.1,6.45-31.51,10.08-41.63,6.94-5.28-1.63-11.86-.39-19.11,2.73a113,113,0,0,0-20.68,12.27,270.84,270.84,0,0,0-21.81,17.75c-1.15,1-2.29,2.07-3.42,3.1Z" transform="translate(239.49 0.04)"/><path class="cls-9" d="M219.74,37.2a1.26,1.26,0,1,1-1.26-1.26A1.26,1.26,0,0,1,219.74,37.2Z" transform="translate(239.49 0.04)"/><path class="cls-9" d="M223.26,20A1.26,1.26,0,1,1,222,18.77,1.26,1.26,0,0,1,223.26,20Z" transform="translate(239.49 0.04)"/><path class="cls-9" d="M201.38,12a1.26,1.26,0,1,1-1.26-1.26A1.25,1.25,0,0,1,201.38,12Z" transform="translate(239.49 0.04)"/><path class="cls-10" d="M638.51,14.48a2,2,0,1,1-2-2A2,2,0,0,1,638.51,14.48Z" transform="translate(239.49 0.04)"/><path class="cls-10" d="M599.61,13.13a2,2,0,1,1-2-2A2,2,0,0,1,599.61,13.13Z" transform="translate(239.49 0.04)"/><path class="cls-11" d="M123.68,92.25a3.86,3.86,0,1,1-3.86-3.87A3.87,3.87,0,0,1,123.68,92.25Z" transform="translate(239.49 0.04)"/><path class="cls-10" d="M86,81.14a1.34,1.34,0,1,1-1.34-1.34A1.34,1.34,0,0,1,86,81.14Z" transform="translate(239.49 0.04)"/><path class="cls-10" d="M90,29.29a3.35,3.35,0,1,1-3.35-3.37A3.36,3.36,0,0,1,90,29.29Z" transform="translate(239.49 0.04)"/><path class="cls-10" d="M81.94,49.49a1.68,1.68,0,1,1-1.68-1.68A1.69,1.69,0,0,1,81.94,49.49Z" transform="translate(239.49 0.04)"/><path class="cls-10" d="M37,19.86a1.68,1.68,0,1,1-1.68-1.68A1.69,1.69,0,0,1,37,19.86Z" transform="translate(239.49 0.04)"/><path class="cls-12" d="M64.84,40.74a1.68,1.68,0,1,1-1.68-1.68A1.68,1.68,0,0,1,64.84,40.74Z" transform="translate(239.49 0.04)"/><path class="cls-13" d="M37.68,50.17a1.34,1.34,0,1,1-1.34-1.35A1.34,1.34,0,0,1,37.68,50.17Z" transform="translate(239.49 0.04)"/><path class="cls-13" d="M74.9,31.65a1,1,0,1,1-1-1A1,1,0,0,1,74.9,31.65Z" transform="translate(239.49 0.04)"/><path class="cls-13" d="M69.2,40.07a1,1,0,1,1-1-1A1,1,0,0,1,69.2,40.07Z" transform="translate(239.49 0.04)"/><path class="cls-13" d="M64.17,28.62a1,1,0,1,1-1-1A1,1,0,0,1,64.17,28.62Z" transform="translate(239.49 0.04)"/><path class="cls-10" d="M14.55,82.15a1.68,1.68,0,1,1-1.68-1.68A1.69,1.69,0,0,1,14.55,82.15Z" transform="translate(239.49 0.04)"/><path class="cls-13" d="M20.92,42.59a1,1,0,1,1-1-1A1,1,0,0,1,20.92,42.59Z" transform="translate(239.49 0.04)"/><path class="cls-13" d="M15.72,60.44a1,1,0,1,1-1-1A1,1,0,0,1,15.72,60.44Z" transform="translate(239.49 0.04)"/><path class="cls-13" d="M22.09,55.39a1,1,0,1,1-1-1A1,1,0,0,1,22.09,55.39Z" transform="translate(239.49 0.04)"/><path class="cls-10" d="M15.89,13.13a1.35,1.35,0,1,1-1.34-1.35A1.35,1.35,0,0,1,15.89,13.13Z" transform="translate(239.49 0.04)"/><path class="cls-13" d="M27,27.27a1.34,1.34,0,1,1-1.34-1.35A1.34,1.34,0,0,1,27,27.27Z" transform="translate(239.49 0.04)"/><path class="cls-12" d="M228.46,213.46a1.68,1.68,0,1,1-1.68-1.68A1.69,1.69,0,0,1,228.46,213.46Z" transform="translate(239.49 0.04)"/><path class="cls-12" d="M361.23,24.91a1.68,1.68,0,1,1-1.68-1.68A1.69,1.69,0,0,1,361.23,24.91Z" transform="translate(239.49 0.04)"/><path class="cls-12" d="M310.26,18.18a1.68,1.68,0,1,1-1.67-1.68A1.68,1.68,0,0,1,310.26,18.18Z" transform="translate(239.49 0.04)"/><path class="cls-12" d="M262.32,118.18a1.68,1.68,0,1,1-1.68-1.69A1.68,1.68,0,0,1,262.32,118.18Z" transform="translate(239.49 0.04)"/><ellipse class="cls-9" cx="498.71" cy="33.2" rx="1.26" ry="1.26"/><ellipse class="cls-9" cx="504.91" cy="247.84" rx="1.26" ry="1.26"/><ellipse class="cls-9" cx="477.67" cy="188.33" rx="1.26" ry="1.26"/><ellipse class="cls-9" cx="464.93" cy="218.3" rx="1.26" ry="1.26"/><ellipse class="cls-9" cx="460.15" cy="214.51" rx="1.26" ry="1.26"/><path class="cls-10" d="M200,132.32a1.68,1.68,0,1,1-1.68-1.68A1.68,1.68,0,0,1,200,132.32Z" transform="translate(239.49 0.04)"/><path class="cls-12" d="M214,134a1.68,1.68,0,1,1-1.68-1.68A1.69,1.69,0,0,1,214,134Z" transform="translate(239.49 0.04)"/><ellipse class="cls-10" cx="424.03" cy="148.18" rx="1.68" ry="1.68"/><path class="cls-12" d="M224.77,166.66a1.68,1.68,0,1,1-1.68-1.68A1.69,1.69,0,0,1,224.77,166.66Z" transform="translate(239.49 0.04)"/><ellipse class="cls-9" cx="435.09" cy="149.7" rx="1.26" ry="1.26"/><path class="cls-9" d="M212.19,162.71a1.26,1.26,0,1,1-1.25-1.27A1.26,1.26,0,0,1,212.19,162.71Z" transform="translate(239.49 0.04)"/><ellipse class="cls-9" cx="453.28" cy="145.15" rx="1.26" ry="1.26"/><path class="cls-10" d="M490,158.74a1.67,1.67,0,1,1,1.55,1.81A1.67,1.67,0,0,1,490,158.74Z" transform="translate(239.49 0.04)"/><path class="cls-12" d="M476.06,156a1.68,1.68,0,1,1,1.55,1.81A1.68,1.68,0,0,1,476.06,156Z" transform="translate(239.49 0.04)"/><path class="cls-10" d="M504.86,144a1.67,1.67,0,1,1,1.54,1.81A1.68,1.68,0,0,1,504.86,144Z" transform="translate(239.49 0.04)"/><path class="cls-12" d="M467.77,122.65a1.68,1.68,0,1,1,1.55,1.8A1.68,1.68,0,0,1,467.77,122.65Z" transform="translate(239.49 0.04)"/><path class="cls-9" d="M494.35,141.68a1.26,1.26,0,1,1,2.51.19,1.26,1.26,0,0,1-2.51-.19Z" transform="translate(239.49 0.04)"/><path class="cls-9" d="M480,127.53a1.26,1.26,0,1,1,1.16,1.35A1.26,1.26,0,0,1,480,127.53Z" transform="translate(239.49 0.04)"/><path class="cls-9" d="M475.88,144.86a1.26,1.26,0,0,1,1.35-1.17,1.26,1.26,0,0,1-.19,2.52A1.26,1.26,0,0,1,475.88,144.86Z" transform="translate(239.49 0.04)"/><path class="cls-10" d="M655.47,330.2A1.67,1.67,0,1,1,657,332,1.67,1.67,0,0,1,655.47,330.2Z" transform="translate(239.49 0.04)"/><path class="cls-12" d="M641.55,327.48a1.67,1.67,0,1,1,1.54,1.8A1.68,1.68,0,0,1,641.55,327.48Z" transform="translate(239.49 0.04)"/><path class="cls-10" d="M670.34,315.45a1.68,1.68,0,1,1,1.55,1.8A1.69,1.69,0,0,1,670.34,315.45Z" transform="translate(239.49 0.04)"/><path class="cls-12" d="M633.26,294.11a1.67,1.67,0,1,1,1.55,1.8A1.68,1.68,0,0,1,633.26,294.11Z" transform="translate(239.49 0.04)"/><path class="cls-9" d="M659.84,313.14a1.26,1.26,0,1,1,1.16,1.35A1.25,1.25,0,0,1,659.84,313.14Z" transform="translate(239.49 0.04)"/><path class="cls-9" d="M645.5,299a1.26,1.26,0,1,1,2.51.19,1.26,1.26,0,0,1-2.51-.19Z" transform="translate(239.49 0.04)"/><path class="cls-9" d="M641.36,316.32a1.26,1.26,0,1,1,1.16,1.35A1.26,1.26,0,0,1,641.36,316.32Z" transform="translate(239.49 0.04)"/><path class="cls-10" d="M239.35,33.16a2,2,0,1,1-2-2A2,2,0,0,1,239.35,33.16Z" transform="translate(239.49 0.04)"/><path class="cls-10" d="M492.32,46.8a2,2,0,1,1-2-2A2,2,0,0,1,492.32,46.8Z" transform="translate(239.49 0.04)"/><path class="cls-10" d="M493.66,15.82a2,2,0,1,1-2-2A2,2,0,0,1,493.66,15.82Z" transform="translate(239.49 0.04)"/><path class="cls-12" d="M268.69,51A1.68,1.68,0,1,1,267,49.32,1.68,1.68,0,0,1,268.69,51Z" transform="translate(239.49 0.04)"/><path class="cls-12" d="M233.48,93.77a1.68,1.68,0,1,1-1.67-1.69A1.68,1.68,0,0,1,233.48,93.77Z" transform="translate(239.49 0.04)"/><path class="cls-12" d="M262.15,60.94a1.68,1.68,0,1,1-1.68-1.68A1.68,1.68,0,0,1,262.15,60.94Z" transform="translate(239.49 0.04)"/><path class="cls-9" d="M238.85,54.88a1.26,1.26,0,1,1-1.26-1.26A1.25,1.25,0,0,1,238.85,54.88Z" transform="translate(239.49 0.04)"/><path class="cls-10" d="M243.54,66.33a2,2,0,1,1-2-2A2,2,0,0,1,243.54,66.33Z" transform="translate(239.49 0.04)"/><path class="cls-10" d="M274.05,75.59a2,2,0,1,1-2-2A2,2,0,0,1,274.05,75.59Z" transform="translate(239.49 0.04)"/><path class="cls-12" d="M451.75,16.16a1.68,1.68,0,1,1-1.67-1.68A1.68,1.68,0,0,1,451.75,16.16Z" transform="translate(239.49 0.04)"/><path class="cls-12" d="M416.55,58.92a1.68,1.68,0,1,1-1.68-1.68A1.68,1.68,0,0,1,416.55,58.92Z" transform="translate(239.49 0.04)"/><ellipse class="cls-12" cx="683.03" cy="26.13" rx="1.68" ry="1.68"/><path class="cls-9" d="M421.91,20a1.26,1.26,0,1,1-1.25-1.26A1.26,1.26,0,0,1,421.91,20Z" transform="translate(239.49 0.04)"/><path class="cls-10" d="M426.61,31.48a2,2,0,1,1-2-2A2,2,0,0,1,426.61,31.48Z" transform="translate(239.49 0.04)"/><ellipse class="cls-10" cx="694.6" cy="40.78" rx="2.01" ry="2.02"/><path class="cls-10" d="M316.31,86.53a3.35,3.35,0,1,1,2.22,4.21A3.35,3.35,0,0,1,316.31,86.53Z" transform="translate(239.49 0.04)"/><path class="cls-10" d="M329.91,69.6A1.68,1.68,0,1,1,331,71.71,1.7,1.7,0,0,1,329.91,69.6Z" transform="translate(239.49 0.04)"/><path class="cls-10" d="M364.18,111.19a1.67,1.67,0,1,1,1.11,2.1A1.68,1.68,0,0,1,364.18,111.19Z" transform="translate(239.49 0.04)"/><path class="cls-12" d="M343.69,83a1.68,1.68,0,1,1,3.21,1,1.68,1.68,0,1,1-3.21-1Z" transform="translate(239.49 0.04)"/><path class="cls-13" d="M372.41,82a1.34,1.34,0,1,1,2.56.79,1.33,1.33,0,0,1-1.67.89A1.34,1.34,0,0,1,372.41,82Z" transform="translate(239.49 0.04)"/><path class="cls-13" d="M331.42,88.74a1,1,0,0,1,1.25-.67,1,1,0,1,1-1.25.67Z" transform="translate(239.49 0.04)"/><path class="cls-13" d="M339.33,82.38a1,1,0,1,1,.67,1.26A1,1,0,0,1,339.33,82.38Z" transform="translate(239.49 0.04)"/><path class="cls-13" d="M340.78,94.8a1,1,0,1,1,1.93.6,1,1,0,0,1-1.93-.6Z" transform="translate(239.49 0.04)"/><ellipse class="cls-10" cx="644.99" cy="58.82" rx="1.68" ry="1.68"/><path class="cls-13" d="M386.22,94.22a1,1,0,0,1,1.25-.67,1,1,0,0,1,.67,1.26,1,1,0,1,1-1.92-.59Z" transform="translate(239.49 0.04)"/><path class="cls-13" d="M396.41,78.7a1,1,0,1,1,.66,1.26A1,1,0,0,1,396.41,78.7Z" transform="translate(239.49 0.04)"/><path class="cls-13" d="M388.84,81.64a1,1,0,1,1,.67,1.27A1,1,0,0,1,388.84,81.64Z" transform="translate(239.49 0.04)"/><path class="cls-10" d="M382.4,123.86a1.33,1.33,0,0,1,1.67-.89,1.35,1.35,0,1,1-1.67.89Z" transform="translate(239.49 0.04)"/><path class="cls-13" d="M376,107.08a1.34,1.34,0,1,1,2.56.79,1.33,1.33,0,0,1-1.67.89A1.34,1.34,0,0,1,376,107.08Z" transform="translate(239.49 0.04)"/><path class="cls-10" d="M508.42,84.17a3.36,3.36,0,1,1-3.36-3.36A3.36,3.36,0,0,1,508.42,84.17Z" transform="translate(239.49 0.04)"/><path class="cls-10" d="M500.37,104.37a1.68,1.68,0,1,1-1.68-1.68A1.69,1.69,0,0,1,500.37,104.37Z" transform="translate(239.49 0.04)"/><path class="cls-10" d="M455.44,74.75a1.68,1.68,0,1,1-1.67-1.69A1.68,1.68,0,0,1,455.44,74.75Z" transform="translate(239.49 0.04)"/><path class="cls-12" d="M483.27,95.62a1.68,1.68,0,1,1-1.68-1.68A1.68,1.68,0,0,1,483.27,95.62Z" transform="translate(239.49 0.04)"/><path class="cls-13" d="M456.11,105.05a1.34,1.34,0,1,1-1.34-1.35A1.34,1.34,0,0,1,456.11,105.05Z" transform="translate(239.49 0.04)"/><ellipse class="cls-13" cx="731.82" cy="86.57" rx="1.01" ry="1.01"/><ellipse class="cls-13" cx="726.12" cy="94.98" rx="1.01" ry="1.01"/><path class="cls-13" d="M482.6,83.5a1,1,0,1,1-1-1A1,1,0,0,1,482.6,83.5Z" transform="translate(239.49 0.04)"/><path class="cls-10" d="M433,137a1.68,1.68,0,1,1-1.68-1.68A1.69,1.69,0,0,1,433,137Z" transform="translate(239.49 0.04)"/><path class="cls-13" d="M439.35,97.47a1,1,0,1,1-1-1A1,1,0,0,1,439.35,97.47Z" transform="translate(239.49 0.04)"/><path class="cls-13" d="M434.15,115.32a1,1,0,1,1-1-1A1,1,0,0,1,434.15,115.32Z" transform="translate(239.49 0.04)"/><path class="cls-13" d="M440.52,110.27a1,1,0,1,1-1-1A1,1,0,0,1,440.52,110.27Z" transform="translate(239.49 0.04)"/><path class="cls-10" d="M434.32,68A1.34,1.34,0,1,1,433,66.66,1.34,1.34,0,0,1,434.32,68Z" transform="translate(239.49 0.04)"/><path class="cls-13" d="M445.38,82.15A1.34,1.34,0,1,1,444,80.81,1.34,1.34,0,0,1,445.38,82.15Z" transform="translate(239.49 0.04)"/><path class="cls-10" d="M706.9,268a1.68,1.68,0,1,1-1.67-1.69A1.68,1.68,0,0,1,706.9,268Z" transform="translate(239.49 0.04)"/><path class="cls-12" d="M721,269.69a1.68,1.68,0,1,1-1.68-1.68A1.68,1.68,0,0,1,721,269.69Z" transform="translate(239.49 0.04)"/><path class="cls-10" d="M693.16,283.83a1.68,1.68,0,1,1-1.68-1.68A1.68,1.68,0,0,1,693.16,283.83Z" transform="translate(239.49 0.04)"/><path class="cls-12" d="M731.71,302.35a1.68,1.68,0,1,1-1.67-1.68A1.68,1.68,0,0,1,731.71,302.35Z" transform="translate(239.49 0.04)"/><ellipse class="cls-9" cx="942.04" cy="285.38" rx="1.26" ry="1.26"/><path class="cls-9" d="M719.14,298.39a1.26,1.26,0,1,1-1.26-1.26A1.26,1.26,0,0,1,719.14,298.39Z" transform="translate(239.49 0.04)"/><path class="cls-9" d="M722,280.8a1.26,1.26,0,1,1-1.26-1.26A1.25,1.25,0,0,1,722,280.8Z" transform="translate(239.49 0.04)"/><path class="cls-10" d="M807.07,19.61a2.59,2.59,0,1,1-2.59-2.6A2.59,2.59,0,0,1,807.07,19.61Z" transform="translate(239.49 0.04)"/><path class="cls-12" d="M828.81,22.21a2.59,2.59,0,1,1-2.59-2.6A2.59,2.59,0,0,1,828.81,22.21Z" transform="translate(239.49 0.04)"/><path class="cls-10" d="M785.84,44.05a2.59,2.59,0,1,1-2.59-2.6A2.6,2.6,0,0,1,785.84,44.05Z" transform="translate(239.49 0.04)"/><path class="cls-12" d="M845.38,72.64a2.59,2.59,0,1,1-2.59-2.6A2.6,2.6,0,0,1,845.38,72.64Z" transform="translate(239.49 0.04)"/><path class="cls-9" d="M802.28,46.39a1.94,1.94,0,1,1-1.94-2A2,2,0,0,1,802.28,46.39Z" transform="translate(239.49 0.04)"/><path class="cls-9" d="M826,66.53a1.94,1.94,0,1,1-1.94-2A1.94,1.94,0,0,1,826,66.53Z" transform="translate(239.49 0.04)"/><path class="cls-9" d="M830.36,39.37a1.94,1.94,0,1,1-1.94-1.95A2,2,0,0,1,830.36,39.37Z" transform="translate(239.49 0.04)"/><path class="cls-10" d="M727,13.13a2,2,0,1,1-2-2A2,2,0,0,1,727,13.13Z" transform="translate(239.49 0.04)"/><path class="cls-10" d="M817,248.34a4,4,0,1,1-4-4A4,4,0,0,1,817,248.34Z" transform="translate(239.49 0.04)"/><path class="cls-10" d="M834.29,302.37a2,2,0,1,1-2-2A2,2,0,0,1,834.29,302.37Z" transform="translate(239.49 0.04)"/><ellipse class="cls-10" cx="1018.36" cy="267.17" rx="1.99" ry="2"/><path class="cls-12" d="M814,292a2,2,0,1,1-2-2A2,2,0,0,1,814,292Z" transform="translate(239.49 0.04)"/><path class="cls-13" d="M781.66,303.17a1.6,1.6,0,1,1-1.6-1.6A1.6,1.6,0,0,1,781.66,303.17Z" transform="translate(239.49 0.04)"/><path class="cls-13" d="M825.92,281.14a1.2,1.2,0,1,1-1.2-1.2A1.2,1.2,0,0,1,825.92,281.14Z" transform="translate(239.49 0.04)"/><path class="cls-13" d="M819.14,291.15a1.2,1.2,0,1,1-1.2-1.2A1.21,1.21,0,0,1,819.14,291.15Z" transform="translate(239.49 0.04)"/><ellipse class="cls-13" cx="1051.46" cy="277.58" rx="1.2" ry="1.2"/><ellipse class="cls-10" cx="991.64" cy="341.25" rx="1.99" ry="2"/><ellipse class="cls-13" cx="1000.02" cy="294.2" rx="1.2" ry="1.2"/><ellipse class="cls-13" cx="993.84" cy="315.42" rx="1.2" ry="1.2"/><ellipse class="cls-13" cx="1001.41" cy="309.41" rx="1.2" ry="1.2"/><path class="cls-10" d="M755.74,259.12a1.6,1.6,0,1,1-1.6-1.6A1.6,1.6,0,0,1,755.74,259.12Z" transform="translate(239.49 0.04)"/><path class="cls-13" d="M768.9,275.94a1.6,1.6,0,1,1-1.6-1.6A1.6,1.6,0,0,1,768.9,275.94Z" transform="translate(239.49 0.04)"/><circle class="cls-14" cx="110.48" cy="116.66" r="70.51" transform="translate(210.47 196.4) rotate(-76.3)"/><path class="cls-15" d="M144.12,161.79q-1,.74-2,1.41a56.53,56.53,0,0,1-54.43,5.12c-.81-.35-1.62-.72-2.43-1.13a56.16,56.16,0,0,1-31-45.39c-.1-1.31-.17-2.63-.19-3.94a56.3,56.3,0,0,1,3.12-19.49c.34-1,.74-2.05,1.15-3.07A57,57,0,0,1,90.1,64.16c.68-.26,1.37-.52,2.06-.74a56.16,56.16,0,0,1,74.75,52.78c0,1.47,0,3-.14,4.43A56.78,56.78,0,0,1,161.28,141a53.48,53.48,0,0,1-3.42,6.07,55.18,55.18,0,0,1-8.16,9.94A56.91,56.91,0,0,1,144.12,161.79Z" transform="translate(239.49 0.04)"/><path class="cls-16" d="M88.29,149.34A54.25,54.25,0,0,1,128,63a56.42,56.42,0,1,0-1.83,107.72A53.74,53.74,0,0,1,88.29,149.34Z" transform="translate(239.49 0.04)"/><path class="cls-17" d="M68.73,151.14a59.87,59.87,0,0,1,4-76.22,56.19,56.19,0,0,0,20.52,95.47A59.3,59.3,0,0,1,68.73,151.14Z" transform="translate(239.49 0.04)"/><ellipse class="cls-18" cx="136.82" cy="116.42" rx="35.14" ry="26.7" transform="matrix(0.07, -1, 1, 0.07, 250.11, 244.31)"/><ellipse class="cls-19" cx="150.01" cy="99.33" rx="7.44" ry="5.65" transform="translate(279.37 241.63) rotate(-85.76)"/><path class="cls-19" d="M159.26,116.42c-.18,2.7-2,4.78-4,4.65s-3.56-2.43-3.38-5.13,2-4.78,4-4.65S159.45,113.72,159.26,116.42Z" transform="translate(239.49 0.04)"/><path class="cls-20" d="M157.86,147.11c-8-7.72-15.25-16.4-24.35-23.14A135,135,0,0,0,95,103.71a109.33,109.33,0,0,0-37.81-5.34c.34-1,.74-2.05,1.15-3.07L61.22,95c11-1.27,22.12-2.54,32.89-.29,12.48,2.61,23.44,9.73,34.07,16.71s26.16,17,33.1,29.66A53.48,53.48,0,0,1,157.86,147.11Z" transform="translate(239.49 0.04)"/><path class="cls-20" d="M144.12,161.79q-1,.74-2,1.41c-4.45-9.19-11.79-16.84-21.48-19.7-4.63-1.36-9.51-1.59-14.34-1.81a11.2,11.2,0,0,0-5.4.67c-3.27,1.61-4.07,5.78-5,9.31a47.89,47.89,0,0,1-8.23,16.65c-.81-.35-1.62-.72-2.43-1.13a37.75,37.75,0,0,0,6.62-10.43c3.32-8.07,2.64-18.33-3.7-24.27-3.39-3.18-7.93-4.79-12.32-6.31-7-2.43-14.41-4.85-21.62-4.38-.1-1.31-.17-2.63-.19-3.94a29.42,29.42,0,0,1,14.53.22c12,3.45,20.4,14.9,32.37,18.48,5.91,1.78,12.25,1.48,18.37,2.38a46.93,46.93,0,0,1,27.34,14.76c.74.82,1.87,2,3,3.35A56.91,56.91,0,0,1,144.12,161.79Z" transform="translate(239.49 0.04)"/><path class="cls-20" d="M95.58,72.15c-.64-1-1.25-1.93-1.85-2.9C93,68,91.44,66.16,90.1,64.16c.68-.26,1.37-.52,2.06-.74C93.2,66.37,94,69.55,95.58,72.15Z" transform="translate(239.49 0.04)"/><path class="cls-20" d="M166.77,120.63c-10.84-19-30-33.16-51.57-37.33-4.23-.82-8.65-1.32-12.34-3.52a22,22,0,0,1-6.48-6.45,7,7,0,0,0,.56.66c3.17,3.5,8,5,12.72,5.51s9.48.38,14.12,1.31C134.37,83,142.83,90.62,150.73,98c5.87,5.47,12,11.47,16.18,18.22C166.93,117.67,166.88,119.16,166.77,120.63Z" transform="translate(239.49 0.04)"/><ellipse class="cls-21" cx="383.89" cy="158.22" rx="12.91" ry="12.96"/><path class="cls-22" d="M148.17,160.69a4.1,4.1,0,1,1-4.1-4.12A4.11,4.11,0,0,1,148.17,160.69Z" transform="translate(239.49 0.04)"/><circle class="cls-23" cx="409.99" cy="200.54" r="30.5"/><circle class="cls-24" cx="409.99" cy="199.74" r="19.26"/><path class="cls-10" d="M101.79,158.23a3.36,3.36,0,1,1-3.36-3.37A3.35,3.35,0,0,1,101.79,158.23Z" transform="translate(239.49 0.04)"/><ellipse class="cls-10" cx="331.56" cy="178.47" rx="1.68" ry="1.68"/><path class="cls-10" d="M48.81,148.8a1.68,1.68,0,1,1-1.67-1.68A1.68,1.68,0,0,1,48.81,148.8Z" transform="translate(239.49 0.04)"/><path class="cls-12" d="M76.64,169.68A1.68,1.68,0,1,1,75,168,1.68,1.68,0,0,1,76.64,169.68Z" transform="translate(239.49 0.04)"/><path class="cls-13" d="M49.48,179.1a1.34,1.34,0,1,1-1.34-1.34A1.34,1.34,0,0,1,49.48,179.1Z" transform="translate(239.49 0.04)"/><path class="cls-13" d="M86.7,160.58a1,1,0,1,1-1-1A1,1,0,0,1,86.7,160.58Z" transform="translate(239.49 0.04)"/><path class="cls-13" d="M81,169a1,1,0,1,1-1-1A1,1,0,0,1,81,169Z" transform="translate(239.49 0.04)"/><path class="cls-13" d="M76,157.55a1,1,0,1,1-1-1A1,1,0,0,1,76,157.55Z" transform="translate(239.49 0.04)"/><path class="cls-10" d="M26.35,211.09a1.68,1.68,0,1,1-1.68-1.69A1.68,1.68,0,0,1,26.35,211.09Z" transform="translate(239.49 0.04)"/><path class="cls-13" d="M32.72,171.53a1,1,0,1,1-1-1A1,1,0,0,1,32.72,171.53Z" transform="translate(239.49 0.04)"/><path class="cls-13" d="M27.52,189.37a1,1,0,1,1-1-1A1,1,0,0,1,27.52,189.37Z" transform="translate(239.49 0.04)"/><path class="cls-13" d="M33.89,184.32a1,1,0,1,1-1-1A1,1,0,0,1,33.89,184.32Z" transform="translate(239.49 0.04)"/><ellipse class="cls-10" cx="265.84" cy="142.1" rx="1.34" ry="1.35"/><path class="cls-13" d="M38.75,156.21a1.34,1.34,0,1,1-1.34-1.35A1.34,1.34,0,0,1,38.75,156.21Z" transform="translate(239.49 0.04)"/><path class="cls-10" d="M69.54,204.66A1.68,1.68,0,1,1,67.86,203,1.68,1.68,0,0,1,69.54,204.66Z" transform="translate(239.49 0.04)"/><path class="cls-12" d="M83.62,206.34A1.68,1.68,0,1,1,82,204.66,1.68,1.68,0,0,1,83.62,206.34Z" transform="translate(239.49 0.04)"/><path class="cls-10" d="M55.79,220.48a1.68,1.68,0,1,1-1.67-1.68A1.68,1.68,0,0,1,55.79,220.48Z" transform="translate(239.49 0.04)"/><path class="cls-12" d="M94.35,239a1.68,1.68,0,1,1-1.67-1.68A1.68,1.68,0,0,1,94.35,239Z" transform="translate(239.49 0.04)"/><path class="cls-9" d="M66.44,222a1.26,1.26,0,1,1-1.26-1.26A1.25,1.25,0,0,1,66.44,222Z" transform="translate(239.49 0.04)"/><ellipse class="cls-9" cx="320.02" cy="235.08" rx="1.26" ry="1.26"/><path class="cls-9" d="M84.63,217.45a1.26,1.26,0,1,1-1.26-1.26A1.26,1.26,0,0,1,84.63,217.45Z" transform="translate(239.49 0.04)"/><path class="cls-10" d="M120.59,77a3.35,3.35,0,1,1,2.22,4.21A3.35,3.35,0,0,1,120.59,77Z" transform="translate(239.49 0.04)"/><path class="cls-10" d="M134.2,60.09a1.67,1.67,0,1,1,1.11,2.1A1.66,1.66,0,0,1,134.2,60.09Z" transform="translate(239.49 0.04)"/><path class="cls-10" d="M168.46,101.68a1.68,1.68,0,1,1,1.11,2.1A1.68,1.68,0,0,1,168.46,101.68Z" transform="translate(239.49 0.04)"/><path class="cls-12" d="M148,73.51a1.67,1.67,0,1,1,1.11,2.1A1.68,1.68,0,0,1,148,73.51Z" transform="translate(239.49 0.04)"/><path class="cls-13" d="M176.69,72.51a1.35,1.35,0,1,1,.89,1.69A1.35,1.35,0,0,1,176.69,72.51Z" transform="translate(239.49 0.04)"/><path class="cls-13" d="M135.7,79.22a1,1,0,1,1,.67,1.27A1,1,0,0,1,135.7,79.22Z" transform="translate(239.49 0.04)"/><path class="cls-13" d="M143.61,72.86a1,1,0,1,1,1.93.6,1,1,0,0,1-1.93-.6Z" transform="translate(239.49 0.04)"/><path class="cls-13" d="M145.07,85.29a1,1,0,1,1,1.92.59,1,1,0,1,1-1.92-.59Z" transform="translate(239.49 0.04)"/><path class="cls-10" d="M208.17,48.78a1.68,1.68,0,1,1,1.11,2.1A1.68,1.68,0,0,1,208.17,48.78Z" transform="translate(239.49 0.04)"/><path class="cls-13" d="M190.5,84.71a1,1,0,1,1,1.92.59,1,1,0,1,1-1.92-.59Z" transform="translate(239.49 0.04)"/><path class="cls-13" d="M200.69,69.18a1,1,0,1,1,.67,1.27A1,1,0,0,1,200.69,69.18Z" transform="translate(239.49 0.04)"/><path class="cls-13" d="M193.12,72.13a1,1,0,1,1,1.93.59,1,1,0,0,1-1.26.67A1,1,0,0,1,193.12,72.13Z" transform="translate(239.49 0.04)"/><path class="cls-10" d="M186.68,114.35a1.34,1.34,0,1,1,.89,1.68A1.34,1.34,0,0,1,186.68,114.35Z" transform="translate(239.49 0.04)"/><path class="cls-13" d="M180.24,97.57a1.34,1.34,0,1,1,2.57.79,1.34,1.34,0,0,1-2.57-.79Z" transform="translate(239.49 0.04)"/><path class="cls-12" d="M151.54,19.07a1.68,1.68,0,1,1-1.68-1.68A1.68,1.68,0,0,1,151.54,19.07Z" transform="translate(239.49 0.04)"/><path class="cls-12" d="M116.33,61.83a1.68,1.68,0,1,1-1.67-1.68A1.68,1.68,0,0,1,116.33,61.83Z" transform="translate(239.49 0.04)"/><path class="cls-12" d="M145,29a1.68,1.68,0,1,1-1.68-1.68A1.69,1.69,0,0,1,145,29Z" transform="translate(239.49 0.04)"/><ellipse class="cls-9" cx="359.93" cy="22.98" rx="1.26" ry="1.26"/><path class="cls-10" d="M126.39,34.39a2,2,0,1,1-2-2A2,2,0,0,1,126.39,34.39Z" transform="translate(239.49 0.04)"/><path class="cls-10" d="M156.9,43.65a2,2,0,1,1-2-2A2,2,0,0,1,156.9,43.65Z" transform="translate(239.49 0.04)"/><path class="cls-12" d="M154.81,185.83a1.68,1.68,0,1,1-1.68-1.68A1.68,1.68,0,0,1,154.81,185.83Z" transform="translate(239.49 0.04)"/><path class="cls-12" d="M119.61,228.59a1.68,1.68,0,1,1-1.68-1.68A1.68,1.68,0,0,1,119.61,228.59Z" transform="translate(239.49 0.04)"/><ellipse class="cls-12" cx="386.09" cy="195.8" rx="1.68" ry="1.68"/><path class="cls-9" d="M125,189.7a1.26,1.26,0,1,1-1.26-1.26A1.26,1.26,0,0,1,125,189.7Z" transform="translate(239.49 0.04)"/><path class="cls-10" d="M129.66,201.15a2,2,0,1,1-2-2A2,2,0,0,1,129.66,201.15Z" transform="translate(239.49 0.04)"/><path class="cls-10" d="M160.17,210.41a2,2,0,1,1-2-2A2,2,0,0,1,160.17,210.41Z" transform="translate(239.49 0.04)"/><path class="cls-10" d="M617.63,71.32A3.36,3.36,0,1,1,614.28,68,3.36,3.36,0,0,1,617.63,71.32Z" transform="translate(239.49 0.04)"/><path class="cls-10" d="M609.58,91.52a1.68,1.68,0,1,1-1.67-1.68A1.68,1.68,0,0,1,609.58,91.52Z" transform="translate(239.49 0.04)"/><path class="cls-10" d="M564.65,61.9A1.68,1.68,0,1,1,563,60.21,1.68,1.68,0,0,1,564.65,61.9Z" transform="translate(239.49 0.04)"/><path class="cls-12" d="M592.48,82.77a1.68,1.68,0,1,1-1.67-1.68A1.68,1.68,0,0,1,592.48,82.77Z" transform="translate(239.49 0.04)"/><path class="cls-13" d="M565.32,92.2A1.34,1.34,0,1,1,564,90.85,1.34,1.34,0,0,1,565.32,92.2Z" transform="translate(239.49 0.04)"/><path class="cls-13" d="M602.54,73.68a1,1,0,1,1-1-1A1,1,0,0,1,602.54,73.68Z" transform="translate(239.49 0.04)"/><path class="cls-13" d="M596.84,82.1a1,1,0,1,1-1-1A1,1,0,0,1,596.84,82.1Z" transform="translate(239.49 0.04)"/><path class="cls-13" d="M591.81,70.65a1,1,0,1,1-1-1A1,1,0,0,1,591.81,70.65Z" transform="translate(239.49 0.04)"/><path class="cls-10" d="M542.19,124.18a1.68,1.68,0,1,1-1.68-1.68A1.69,1.69,0,0,1,542.19,124.18Z" transform="translate(239.49 0.04)"/><path class="cls-13" d="M548.56,84.62a1,1,0,1,1-1-1A1,1,0,0,1,548.56,84.62Z" transform="translate(239.49 0.04)"/><path class="cls-13" d="M543.36,102.47a1,1,0,1,1-1-1A1,1,0,0,1,543.36,102.47Z" transform="translate(239.49 0.04)"/><ellipse class="cls-13" cx="788.22" cy="97.45" rx="1.01" ry="1.01"/><ellipse class="cls-10" cx="781.68" cy="55.2" rx="1.34" ry="1.35"/><path class="cls-13" d="M554.6,69.3A1.35,1.35,0,1,1,553.25,68,1.34,1.34,0,0,1,554.6,69.3Z" transform="translate(239.49 0.04)"/><g class="cls-25"><path class="cls-26" d="M716.72,28.33H705.13C616,31.4,544.6,104.94,544.6,195.24c0,92.24,74.47,167,166.33,167s166.32-74.78,166.32-167C877.25,104.94,805.89,31.4,716.72,28.33Z" transform="translate(239.49 0.04)"/><path class="cls-27" d="M812.49,257.87a125.57,125.57,0,0,1-137.83,52.41c-3-.8-5.94-1.72-8.88-2.77a126.63,126.63,0,0,1-82.85-137.25q.55-3.93,1.36-7.86a126.36,126.36,0,0,1,18.16-43.68c.25-.38.5-.76.76-1.13A125.53,125.53,0,0,1,776.76,82.83c1.6,1.06,3.16,2.14,4.68,3.26a125.7,125.7,0,0,1,33,35.71c.66,1,1.29,2.09,1.89,3.17a126.92,126.92,0,0,1-3.88,132.9Z" transform="translate(239.49 0.04)"/><path class="cls-28" d="M778.58,181.93a88.27,88.27,0,0,1-80.22,8c-37-15-60.49-53.72-95.15-72.3a125.42,125.42,0,0,1,16-19.4,28.8,28.8,0,0,0,.38,7.19,46.93,46.93,0,0,0,6.41,14.51c6.93,10.82,17.07,19.1,27,27.18,24.87,20.21,52.84,41.51,84.8,40.16,19.6-.83,38.25-10.59,51.94-24.7,11.13-11.48,19.17-25.65,24.68-40.73.66,1,1.29,2.09,1.89,3.17C811.89,147.94,798.11,169.08,778.58,181.93Z" transform="translate(239.49 0.04)"/><path class="cls-29" d="M782,263.4c-16.31,14.35-38.91,22.94-60,18-17.5-4.1-31.66-16.61-45-28.68L596,179.63c-4-3.6-8.15-7.3-13-9.37q.55-3.93,1.36-7.86a82.64,82.64,0,0,1,16.57,10c23.82,18.12,43,41.71,66.23,60.59s52.95,33.26,82.33,27.78c26.19-4.88,47.61-25,60.27-48.57,8.08-15,13.09-31.49,16.74-48.12.53-2.39.84-7.42,1.51-12.22a126.71,126.71,0,0,1,4.8,24.77c-5,11-9.51,22.19-14.52,33.15C809.16,229.53,798.25,249,782,263.4Z" transform="translate(239.49 0.04)"/><path class="cls-30" d="M803.68,106.84a61.69,61.69,0,0,0-6,1.81c-24.14,9.12-30.94,43.24-54.73,53.19-14.82,6.2-31.78,1-46.5-5.41-10.61-4.63-21.15-10.07-29.11-18.5s-13-20.35-10.73-31.73S670,85.11,681.43,86.77c-9.75-.71-18.17,8.68-19,18.46s4.19,19.24,10.83,26.45c19.6,21.25,54.82,25.67,79,9.91,11.53-7.51,20-19.26,24.31-32.27,2.44-7.28,2.54-15.76,4.87-23.23A124.26,124.26,0,0,1,803.68,106.84Z" transform="translate(239.49 0.04)"/><path class="cls-31" d="M674.66,310.28c-3-.8-5.94-1.72-8.88-2.77-3.52-15-6.84-30.08-13.79-43.7a73.51,73.51,0,0,0-14.31-19.66c-13-12.53-31.8-18.14-49.7-16.34a125.16,125.16,0,0,1-4.16-16.24,79,79,0,0,1,34.61,5.74,80.13,80.13,0,0,1,43.66,44.92C668,277.71,669,294.79,674.66,310.28Z" transform="translate(239.49 0.04)"/><path class="cls-32" d="M832.74,176.59A126.65,126.65,0,0,0,816.37,125c-.6-1.08-1.23-2.14-1.89-3.17a125.7,125.7,0,0,0-33-35.71c-1.52-1.12-3.08-2.2-4.68-3.26a125.65,125.65,0,0,0-18-9.91l.52.6a131.31,131.31,0,0,1,11.57,16c.71,1.11,1.38,2.24,2,3.4A135.41,135.41,0,0,1,640.81,295.42a124.79,124.79,0,0,0,25,12.09c2.94,1.05,5.89,2,8.88,2.77A126.08,126.08,0,0,0,832.74,176.59Z" transform="translate(239.49 0.04)"/><path class="cls-33" d="M832.74,176.59A126.65,126.65,0,0,0,816.37,125c-.6-1.08-1.23-2.14-1.89-3.17a125.27,125.27,0,0,0-28.67-32.36,125.66,125.66,0,0,1,23.7,28.2c.66,1,1.29,2.09,1.89,3.17a126.92,126.92,0,0,1-3.88,132.9,125.57,125.57,0,0,1-137.83,52.41c-3-.8-5.94-1.72-8.88-2.77a123.84,123.84,0,0,1-17.35-7.67c-.88-.08-1.77-.15-2.65-.26a124.79,124.79,0,0,0,25,12.09c2.94,1.05,5.89,2,8.88,2.77A126.08,126.08,0,0,0,832.74,176.59Z" transform="translate(239.49 0.04)"/><path class="cls-18" d="M625.07,112.66a118.15,118.15,0,0,0-28.92,71.51c-.9,18.39,3.1,38,15.58,51.45s34.86,18.55,49.73,7.76c10.19-7.4,14.91-20.08,22.62-30,13.36-17.29,35.4-26.05,48.86-43.24a60.77,60.77,0,0,0,9-57.31c-7-19-29.29-40.78-51.06-38.17C666.45,77.55,641,94.57,625.07,112.66Z" transform="translate(239.49 0.04)"/><path class="cls-18" d="M638.7,108.2A68.43,68.43,0,0,0,616,146.73c-2.08,10.48-1.45,22,4.56,30.85s18.42,13.63,27.86,8.72c6.48-3.37,10.26-10.24,15.53-15.3,9.13-8.76,22.52-11.89,31.71-20.6a35.21,35.21,0,0,0,10-32.1c-2.4-11.52-13.33-25.9-26-26.27C665.42,91.62,649.35,99.19,638.7,108.2Z" transform="translate(239.49 0.04)"/><ellipse class="cls-19" cx="652.54" cy="158.23" rx="11.47" ry="8.27" transform="translate(335.93 534.55) rotate(-47.71)"/><ellipse class="cls-19" cx="651.29" cy="113.72" rx="24.94" ry="17.97" transform="translate(368.44 519.07) rotate(-47.71)"/></g><ellipse class="cls-34" cx="843.96" cy="226.37" rx="843.96" ry="181"/><ellipse class="cls-35" cx="876.99" cy="396.04" rx="336.5" ry="74"/><path class="cls-36" d="M860,295.91v104H788.93l-44.61-1.08L711,398,668.59,397l-38.33-1-69-1.79c-12-.3-23.68-.61-35-.91-82.6-2.16-146.27-3.88-146.27-3.88l17.42-74.45,1.58-6.73L466,294l129.44.63h.27Z" transform="translate(239.49 0.04)"/><path class="cls-37" d="M860,295.91v17.54l-18.33,12.88-18.12,73.59H804.8L819.67,325,793,319l-19.33-3.33-12,45.33-17.35,37.84L711,398l10-69.68-12.67-12.66L687,317,668.59,397l-38.33-1-3.93-73-42-9.33L579,357l-17.7,37.18c-12-.3-23.68-.61-35-.91L546.33,311s18-15.33,20-16c.37-.13,11.41-.25,29.11-.37h.27Z" transform="translate(239.49 0.04)"/><polygon class="cls-38" points="528.16 311.04 528.49 370.54 631.99 374.29 638.49 315.04 528.16 311.04"/><polygon class="cls-39" points="1099.49 283.81 1099.49 309.15 884.49 311.04 745.8 306.73 705.32 305.47 691.49 305.04 638.49 315.04 636.91 314.98 528.16 311.04 412.49 339.04 239.49 323.64 239.49 280.15 551.68 281.48 570.2 284.46 592.2 288.96 580.66 284.71 623.17 281.78 643.67 281.87 756.53 285.13 811.67 282.58 1099.49 283.81"/><path class="cls-40" d="M288.67,311c.66,1,.08,48,.08,48L264,358.34,255.67,314Z" transform="translate(239.49 0.04)"/><path class="cls-41" d="M452,305c3,0,92.5,1,92.5,1L656,310l218.5-2L710,316.5l-23,.5-142-8.5H456Z" transform="translate(239.49 0.04)"/><polygon class="cls-37" points="691.49 305.04 624.49 299.04 685.83 307.04 689.49 324.71 691.49 305.04"/><polygon class="cls-37" points="691.49 305.04 681.83 400.37 702.49 323.37 892.16 311.37 691.49 305.04"/><polygon class="cls-41" points="922.63 310.07 899.86 304.62 924.53 300.4 894.36 303.79 914.15 311.04 922.63 310.07"/><polygon class="cls-41" points="943.7 310.62 955.2 306.12 989.7 310.12 943.7 310.62"/><polygon class="cls-42" points="946.53 309.58 949.03 316.83 955.2 306.12 946.53 309.58"/><polygon class="cls-38" points="592.11 288.94 580.66 284.71 581.3 286.75 592.11 288.94"/><polygon class="cls-38" points="528.16 311.04 504.53 306.21 444.53 306.71 504.78 308.96 528.16 311.04"/><ellipse class="cls-43" cx="871.99" cy="371.62" rx="259.2" ry="39"/><polygon class="cls-44" points="860.91 289.96 884.53 293.46 1113.53 297.12 1111.49 290.04 860.91 289.96"/><polygon class="cls-45" points="553.03 292.96 210.03 301.96 209.03 280.46 553.03 292.96"/><polygon class="cls-46" points="1118.49 219.04 1111.49 290.04 860.49 290.04 861.47 289.46 892.49 271.04 914.49 245.04 974.49 228.04 1008.49 205.04 1015.3 211.09 1017.49 213.04 1018.17 217.99 1020.57 235.35 1021.49 242.04 1026.88 236.98 1037.49 227.04 1067.49 200.04 1098.49 182.04 1110.72 204.66 1116.49 215.34 1118.49 219.04"/><polygon class="cls-47" points="1015.3 211.09 987.82 235.71 930.49 247.04 913.16 273.71 888.49 290.04 863.29 290.04 861.47 289.46 892.49 271.04 914.49 245.04 974.49 228.04 1008.49 205.04 1015.3 211.09"/><polygon class="cls-48" points="1116.49 200.37 1116.49 229.71 1109.16 255.71 1077.82 249.04 1058.49 257.04 1039.16 257.04 1021.37 241.79 1026.88 236.98 1037.49 227.04 1067.49 200.04 1098.49 182.04 1071.16 221.04 1079.82 226.37 1090.49 219.71 1110.72 204.66 1116.49 200.37"/><polygon class="cls-49" points="1020.57 235.35 1011.82 254.37 985.82 264.37 982.49 281.71 933.16 281.04 949.82 254.37 985.16 250.37 1018.17 217.99 1020.57 235.35"/><polygon class="cls-50" points="390.49 285.04 224.49 284.04 224.49 223.04 253.24 189.49 254.49 188.04 272.12 196.86 272.49 197.04 278.49 209.04 294.49 187.04 317.49 192.04 324.02 202.17 337.49 223.04 353.49 231.04 390.49 285.04"/><polygon class="cls-51" points="285.16 272.37 269.82 228.37 254.49 192.37 253.24 189.49 254.49 188.04 272.12 196.86 284.49 222.37 285.16 272.37"/><polygon class="cls-51" points="233.16 230.37 249.16 227.71 266.49 253.04 273.16 275.04 247.83 249.04 233.16 230.37"/><polygon class="cls-52" points="334.49 246.37 320.01 233.82 315.16 209.04 294.49 187.04 317.49 192.04 324.02 202.17 324.49 211.04 334.49 246.37"/><polygon class="cls-52" points="292.49 214.37 302.49 209.04 310.49 223.71 316.49 253.04 303.83 231.71 292.49 214.37"/><polygon class="cls-53" points="556.49 293.04 298.49 293.04 324.49 247.04 338.49 249.04 361.53 210.33 363.49 207.04 388.49 236.04 428.49 234.04 465.49 252.04 465.84 252.06 497.49 254.04 530.95 274.44 538.49 279.04 556.49 293.04"/><polygon class="cls-49" points="415.49 285.04 374.49 264.04 361.49 211.04 361.53 210.33 363.49 207.04 388.49 236.04 415.49 285.04"/><polygon class="cls-54" points="324.49 247.04 344.99 275.04 359.99 282.04 338.49 249.04 324.49 247.04"/><polygon class="cls-49" points="458.49 266.04 459.99 283.04 436.49 258.54 428.49 234.04 465.49 252.04 465.84 252.06 474.49 271.04 458.49 266.04"/><polygon class="cls-55" points="537.49 289.54 504.49 278.04 497.49 254.04 530.95 274.44 530.49 279.04 537.49 289.54"/><path class="cls-56" d="M371.7,302.25s-78.5,9.33-81.16,6.67,13.5-7,13.5-7Z" transform="translate(239.49 0.04)"/><path class="cls-57" d="M372.54,302.42h-70s8-9.16,12.58-13.17c0,0,0,0,0,0a16.11,16.11,0,0,1,1.82-1.4,1.65,1.65,0,0,1,1.06-.39c2,.5,20,1,27.48,4.49h0C353,295.42,372.54,302.42,372.54,302.42Z" transform="translate(239.49 0.04)"/><path class="cls-49" d="M372.54,302.42H302.72c3.89-4.21,9.5-10.12,12.4-13.17,0,0,0,0,0,0l1.88-2s0,.21-.06.56c-.21,2.1-.67,9.4,2.89,10.11,4.17.83,19.34-4,22.34-5.67a8.17,8.17,0,0,1,3.31-.34h0C353,295.42,372.54,302.42,372.54,302.42Z" transform="translate(239.49 0.04)"/><path class="cls-49" d="M183.37,307.42l-41.66.33s9.57-10.37,14-13.05a4.3,4.3,0,0,1,1.34-.61c3.33-.67,22.67,4.66,24.33,8.33q.19.42.36.81A30.83,30.83,0,0,1,183.37,307.42Z" transform="translate(239.49 0.04)"/><path class="cls-58" d="M183.37,307.42l-41.66.33s9.57-10.37,14-13.05c0,4,.33,11.15,2,11.39,2,.29,19.65-2.23,24-2.86A30.83,30.83,0,0,1,183.37,307.42Z" transform="translate(239.49 0.04)"/><ellipse class="cls-59" cx="666.01" cy="259.54" rx="635.39" ry="88.5"/><ellipse class="cls-60" cx="665.01" cy="265" rx="635.39" ry="33.04"/><path class="cls-61" d="M860,380.76V400H0V307.43l12.77,1.26,4.54.45,6.22.63,29.87,2.91.57.06,40.22,3.86,13.67,1.28,22,2.08,6.38.59,51.3-6,30.94,3.7,1.25.15,5.31-1.32.2-.06,2-.49,10.47-2.6,1.73-.42,3.4-.84L256,313.83l20.29,4.31,8,1.27,29,4.63-.47,3.13-.47,3.13-1.06,7.1v.05l23.87-.84.87,0,22.48-.75L378,335.2l9.71-.32,41.92-1.28H430l23.51,13.85.63.37,1.89-.07,1,0,1.78-.06,80.12-2.75,11.31-.38,6-.21,16.62-.52,36.55-1.1L711.6,340l30.17,8.3-1.75,6.4-1.76,6.5-1.37,5-1.15,4.24.28,0,21.85-1.14,11.06,9-1.51,7.13,2.52.2-1,4.15,6.64-1.47.13,0-.42-4.05-.62,0s.08,0,.08,0l17.86-5.21h.06Z" transform="translate(239.49 0.04)"/><polygon class="cls-40" points="561.63 400.04 570.88 391.21 571.72 390.41 615.31 379.5 616.91 379.17 634.91 375.55 667.61 369.11 628.74 372.75 616.82 373.89 613.29 374.23 571.05 383.87 553.24 384.94 552.94 384.96 548.46 386.22 530.77 391.24 516.63 395.3 515.4 395.66 473.92 400.04 561.63 400.04"/><polygon class="cls-38" points="561.64 400.04 570.88 391.21 571.01 385.63 571.05 383.87 553.24 384.94 555.31 400.04 561.64 400.04"/><path class="cls-62" d="M313.28,324l-.47,3.13-78,22.24c34.49-16.93,41.12-26.54,41.46-31.28Z" transform="translate(239.49 0.04)"/><polygon class="cls-38" points="516.33 400.04 516.64 395.3 515.4 395.65 473.92 400.04 516.33 400.04"/><polygon class="cls-38" points="667.61 369.1 616.91 379.17 616.82 373.89 667.61 369.1"/><path class="cls-63" d="M313.28,324l-2,13.35-13.08,6.95-1,2.16-5.07,11.27-14.91,2-1.17.16-44,6-5.26.74-20.15,2.81-21.48,6.17L180.54,377,143.8,387.78,107,398.93,103.57,400H0V377.72l49.75-4.19,3.91-1.09,47.2-12.93,11.74-3.15,29.77-7.43,1.43-.38,91,.85,36.68-12.07,6.57-2.12Z" transform="translate(239.49 0.04)"/><polygon class="cls-64" points="287.03 400.04 293.27 372.62 293.16 372.48 289.24 373.57 239.49 377.76 239.49 400.04 287.03 400.04"/><polygon class="cls-64" points="474.32 349.44 471.56 365.92 446.16 369.47 424.67 375.64 427.55 364.07 420.04 376.99 383.29 387.82 383.29 348.59 474.32 349.44"/><polygon class="cls-64" points="383.29 348.59 341.55 348.77 251.53 331.47 333 342.26 414.22 348.97 383.29 348.59"/><polygon class="cls-38" points="627.21 358.26 558.16 357.07 550.76 356.94 531.65 357.81 536.72 346.54 537.69 344.38 543.67 347.61 545.87 348.8 556.13 354.34 627.21 358.26"/><polygon class="cls-64" points="343.07 400.04 346.53 398.97 352.09 356.4 340.35 359.55 342.93 400.04 343.07 400.04"/><polygon class="cls-65" points="517.57 335.13 517.57 335.25 516.75 359.78 515.57 359.94 511.29 337.41 511 337.37 452.87 330.99 517.57 335.13"/><polygon class="cls-40" points="963.15 400.04 966.93 399.17 1008.46 389.78 1009.43 385.63 968.73 393.32 934.41 400.04 963.15 400.04"/><polygon class="cls-38" points="1008.42 378.3 1006.92 385.43 985.46 384.35 1008.42 378.3"/><polygon class="cls-40" points="1030.55 384.93 1015.23 388.28 1014.8 384.23 1030.55 384.93"/><polygon class="cls-38" points="1030.55 384.93 1015.09 388.32 1014.18 384.16 1030.55 384.93"/><polygon class="cls-38" points="963.15 400.04 966.93 399.17 968.73 393.32 934.41 400.04 963.15 400.04"/><g class="cls-66"><path class="cls-19" d="M456,347.74l1,0Z" transform="translate(239.49 0.04)"/></g><g class="cls-66"><path class="cls-19" d="M741.77,348.28,740,354.69c-25.89,3.41-61.51,8.09-58.93,6.83,4-1.95,8-9.75,15.75-15.38,7.22-5.25-211.86.63-239.82,1.57L711.6,340Z" transform="translate(239.49 0.04)"/></g><path class="cls-67" d="M572.87,343.79c-44.24,2.82-116.37,7.8-121.46,8.48-5.27.7-42.74-10.68-63.69-17.38L430,333.6l24.14,14.21,1.89-.07,1,0Z" transform="translate(239.49 0.04)"/><path class="cls-68" d="M311.27,356.9l-19.11.87-14.91,2-1.17.16-44,6-5.26.74-20.15,2.81-21.48,6.17L180.54,377,143.8,387.78,107,398.93,103.57,400h-79L71,393.07l28.67-17.4s15.33-15.63,42-22c38.71-9,68.67,13.66,89.33,7.84,29-8,35.72-5.43,45.88-7.09,3.46-.56,10-3.75,15-6.38a14,14,0,0,1,5.31-1.54,14.82,14.82,0,0,1,6.95,1.07,13.85,13.85,0,0,1,1.46.69l.74.5L318.67,357Z" transform="translate(239.49 0.04)"/><path class="cls-69" d="M322.14,400l9.25-8.83.84-.8,43.59-10.91,1.6-.33,18-3.62-6.17-2.8-5.5-2.5c-14.16-6.46-55.83-4.9-69.22,10.84a29.11,29.11,0,0,1-5.56,5.13c-5.29,3.72-11.27,5.05-17.69,5-9.36-.05-19.65-3-30.08-5.65-13.76-3.5-23.42,7.2-28.21,14.45Z" transform="translate(239.49 0.04)"/><path class="cls-70" d="M200.75,354.21a1.66,1.66,0,0,1-1.75,1.61,1.73,1.73,0,0,1-1.75-1.67,1.65,1.65,0,0,1,1.75-1.6A1.73,1.73,0,0,1,200.75,354.21Z" transform="translate(239.49 0.04)"/><path class="cls-70" d="M263.25,379.9A1.19,1.19,0,0,1,262,381a1.21,1.21,0,0,1-1.25-1.15,1.18,1.18,0,0,1,1.25-1.13A1.21,1.21,0,0,1,263.25,379.9Z" transform="translate(239.49 0.04)"/><path class="cls-71" d="M249.5,375.21a1.2,1.2,0,0,1-1.25,1.14,1.22,1.22,0,0,1-1.25-1.16,1.18,1.18,0,0,1,1.25-1.13A1.21,1.21,0,0,1,249.5,375.21Z" transform="translate(239.49 0.04)"/><path class="cls-71" d="M262.5,392.42a1.25,1.25,0,1,1-1.25-1.15A1.21,1.21,0,0,1,262.5,392.42Z" transform="translate(239.49 0.04)"/><path class="cls-71" d="M197.5,365.37a1.19,1.19,0,0,1-1.25,1.15,1.23,1.23,0,0,1-1.25-1.19,1.19,1.19,0,0,1,1.25-1.15A1.23,1.23,0,0,1,197.5,365.37Z" transform="translate(239.49 0.04)"/><path class="cls-71" d="M180.87,372.67a1,1,0,0,1-1,.93,1,1,0,0,1-1-1,1,1,0,0,1,1-.93A1,1,0,0,1,180.87,372.67Z" transform="translate(239.49 0.04)"/><path class="cls-71" d="M189.62,359.52a.47.47,0,0,1-.5.46.49.49,0,0,1-.5-.47.47.47,0,0,1,.5-.46A.48.48,0,0,1,189.62,359.52Z" transform="translate(239.49 0.04)"/><path class="cls-70" d="M270.17,342.12a.78.78,0,0,1-.84.74.82.82,0,0,1-.83-.78.77.77,0,0,1,.83-.74A.84.84,0,0,1,270.17,342.12Z" transform="translate(239.49 0.04)"/><path class="cls-72" d="M279,329.35a.76.76,0,0,1-.83.73.83.83,0,0,1-.84-.77.77.77,0,0,1,.84-.73A.82.82,0,0,1,279,329.35Z" transform="translate(239.49 0.04)"/><path class="cls-72" d="M258.17,358.57a.79.79,0,0,1-.84.75.82.82,0,0,1-.83-.78.77.77,0,0,1,.83-.74A.81.81,0,0,1,258.17,358.57Z" transform="translate(239.49 0.04)"/><path class="cls-70" d="M183.42,355.63a1.68,1.68,0,0,1-1.75,1.62,1.74,1.74,0,0,1-1.75-1.68,1.66,1.66,0,0,1,1.75-1.61A1.73,1.73,0,0,1,183.42,355.63Z" transform="translate(239.49 0.04)"/><path class="cls-72" d="M74.42,332.1a1.68,1.68,0,0,1-1.75,1.66A1.78,1.78,0,0,1,70.92,332a1.67,1.67,0,0,1,1.75-1.67A1.79,1.79,0,0,1,74.42,332.1Z" transform="translate(239.49 0.04)"/><path class="cls-72" d="M82.17,328.06a1,1,0,0,1-1,.95,1,1,0,0,1-1-1,1,1,0,0,1,1-.95A1,1,0,0,1,82.17,328.06Z" transform="translate(239.49 0.04)"/><path class="cls-72" d="M134.5,334.55a1,1,0,0,1-1,.93,1,1,0,0,1-1-1,1,1,0,0,1,1-.93A1,1,0,0,1,134.5,334.55Z" transform="translate(239.49 0.04)"/><path class="cls-72" d="M171,371.15a1,1,0,0,1-1,.93,1,1,0,0,1-1-1,1,1,0,0,1,1-.93A1,1,0,0,1,171,371.15Z" transform="translate(239.49 0.04)"/><path class="cls-72" d="M137.5,385.27a1,1,0,0,1-1,1,1,1,0,1,1,1-1Z" transform="translate(239.49 0.04)"/><path class="cls-72" d="M108.67,371.27a1,1,0,0,1-1,1,1,1,0,0,1-1-1,1,1,0,0,1,1-1A1,1,0,0,1,108.67,371.27Z" transform="translate(239.49 0.04)"/><path class="cls-72" d="M129.67,387.47a.5.5,0,1,1-.5-.49A.51.51,0,0,1,129.67,387.47Z" transform="translate(239.49 0.04)"/><path class="cls-72" d="M134,377.6a.48.48,0,0,1-.5.47.49.49,0,0,1-.5-.48.48.48,0,0,1,.5-.47A.48.48,0,0,1,134,377.6Z" transform="translate(239.49 0.04)"/><path class="cls-72" d="M175.17,344.66a.48.48,0,0,1-.5.46.5.5,0,0,1-.5-.48.48.48,0,0,1,.5-.47A.51.51,0,0,1,175.17,344.66Z" transform="translate(239.49 0.04)"/><path class="cls-72" d="M181.83,348.87a.48.48,0,0,1-.5.46.5.5,0,0,1-.5-.48.47.47,0,0,1,.5-.46A.49.49,0,0,1,181.83,348.87Z" transform="translate(239.49 0.04)"/><path class="cls-70" d="M193.67,348a.79.79,0,0,1-.84.76A.82.82,0,0,1,192,348a.79.79,0,0,1,.83-.77A.84.84,0,0,1,193.67,348Z" transform="translate(239.49 0.04)"/><path class="cls-70" d="M191,365.36a.8.8,0,0,1-.83.77.83.83,0,0,1-.84-.79.79.79,0,0,1,.84-.77A.81.81,0,0,1,191,365.36Z" transform="translate(239.49 0.04)"/><path class="cls-70" d="M211.58,353.48a.8.8,0,0,1-.83.76.83.83,0,0,1-.83-.79.78.78,0,0,1,.83-.76A.82.82,0,0,1,211.58,353.48Z" transform="translate(239.49 0.04)"/><path class="cls-70" d="M182.75,342.55a.78.78,0,0,1-.83.76.84.84,0,0,1-.84-.8.8.8,0,0,1,.84-.77A.83.83,0,0,1,182.75,342.55Z" transform="translate(239.49 0.04)"/><path class="cls-70" d="M173.08,355.85a.79.79,0,0,1-.83.77.83.83,0,0,1-.83-.8.79.79,0,0,1,.83-.77A.82.82,0,0,1,173.08,355.85Z" transform="translate(239.49 0.04)"/><path class="cls-73" d="M121.09,400H0V365a285.92,285.92,0,0,0,21.67,24.07c17,16.5,44,10.59,64.33-1.69C100.54,378.73,114.23,391.57,121.09,400Z" transform="translate(239.49 0.04)"/><path class="cls-74" d="M35.67,342.67l65.08,17-47,12.91s39.9-11.08,36.56-12.24S35.67,342.67,35.67,342.67Z" transform="translate(239.49 0.04)"/><polygon class="cls-64" points="352.09 356.4 327.72 355.6 274.41 342.76 325.45 356.54 340.35 359.55 352.09 356.4"/><polygon class="cls-75" points="383.29 348.59 352.09 356.4 373.49 349.37 341.55 348.77 383.29 348.59"/><polygon class="cls-76" points="975.48 370.6 863.5 400.04 765.57 400.04 882.49 379.71 960.49 365.71 975.48 370.6"/><polygon class="cls-38" points="981.26 348.31 975.48 370.6 927.45 364.58 868.58 366.27 807.86 378 776.04 384.42 755.52 383.39 751.05 383.17 737.82 382.5 737.01 382.62 678.14 392.26 736.47 379.72 773.36 380.04 807.79 373.36 865.89 362.57 924.9 360.02 981.26 348.31"/><circle class="cls-77" cx="301.49" cy="358.04" r="2"/><circle class="cls-77" cx="307.33" cy="384.21" r="1.17"/><circle class="cls-77" cx="285.33" cy="373.21" r="1.17"/><circle class="cls-77" cx="326.83" cy="380.21" r="3"/><circle class="cls-77" cx="387.16" cy="364.37" r="3"/><circle class="cls-77" cx="320.33" cy="393.37" r="3"/><circle class="cls-77" cx="294.66" cy="394.21" r="1.5"/><path class="cls-77" d="M53.33,368.67a1.17,1.17,0,1,1-1.16-1.17A1.17,1.17,0,0,1,53.33,368.67Z" transform="translate(239.49 0.04)"/><circle class="cls-71" cx="342.37" cy="377.41" r="0.62"/><circle class="cls-71" cx="326.74" cy="371.29" r="0.62"/><circle class="cls-71" cx="309.99" cy="389.66" r="0.62"/><circle class="cls-71" cx="332.49" cy="393.79" r="0.62"/><path class="cls-71" d="M158,377.34a1.67,1.67,0,1,1-1.67-1.67A1.66,1.66,0,0,1,158,377.34Z" transform="translate(239.49 0.04)"/><path class="cls-71" d="M147.33,374a1.67,1.67,0,1,1-1.66-1.66A1.66,1.66,0,0,1,147.33,374Z" transform="translate(239.49 0.04)"/><polygon class="cls-78" points="789.72 344.56 654.87 400.04 593.49 400.04 778.41 344.94 789.72 344.56"/><polygon class="cls-79" points="955.2 306.12 982.86 309.46 1031.03 308.96 955.2 306.12"/><ellipse class="cls-80" cx="891.49" cy="189.3" rx="496" ry="36.64"/><ellipse class="cls-81" cx="891.49" cy="193.81" rx="267.07" ry="38.26"/><ellipse class="cls-82" cx="811.49" cy="193.81" rx="219" ry="15.06"/><path class="cls-83" d="M615,293.48s8,4,11.07,4.31,19.29-4.31,19.29-4.31L627,290.61Z" transform="translate(239.49 0.04)"/><path class="cls-84" d="M645.33,293.48l-30.5.42,2-2.51L618,290s5.16-5,7.42-5.58c1.75-.45,7.76.76,10.91,2a5.27,5.27,0,0,1,1.83,1C639.42,288.65,645.33,293.48,645.33,293.48Z" transform="translate(239.49 0.04)"/><path class="cls-49" d="M645.33,293.48l-30.5.42,2-2.51c2.69,3.13,14.18-.84,16.1-.3,1.54.43,2.88-3.18,3.37-4.73a5.27,5.27,0,0,1,1.83,1C639.42,288.65,645.33,293.48,645.33,293.48Z" transform="translate(239.49 0.04)"/><path class="cls-85" d="M579.88,296.31s23,5.86,24.91,5.48,15.08-6.51,15.08-6.51Z" transform="translate(239.49 0.04)"/><path class="cls-86" d="M619.87,295.28s-13.45,2.76-14.2,2.78-25.79-1.75-25.79-1.75l.12-.13,4.77-5.47s14.12-7,19.39-5.63l.5.15C610.07,287,619.87,295.28,619.87,295.28Z" transform="translate(239.49 0.04)"/><path class="cls-49" d="M619.87,295.28s-13.45,2.76-14.2,2.78-25.79-1.75-25.79-1.75l.12-.13c3.31-1.69,12.43-6.15,14.16-5.14,2.13,1.26,8.26,4.13,10.38,3.63,1.84-.43-.08-6.53.12-9.44C610.07,287,619.87,295.28,619.87,295.28Z" transform="translate(239.49 0.04)"/><path class="cls-50" d="M109.54,307.42l-31.75,1-23.25-2.25,16.75-13.75s21.75,3,23,4.75a4.35,4.35,0,0,0,.65.64C98,300.41,109.54,307.42,109.54,307.42Z" transform="translate(239.49 0.04)"/><path class="cls-51" d="M94.94,297.81l-13.4,3.86-10.25-9.25s21.75,3,23,4.75A4.35,4.35,0,0,0,94.94,297.81Z" transform="translate(239.49 0.04)"/><polygon class="cls-51" points="1068.53 300.13 1028.86 300.46 1034.2 287.79 1052.86 282.13 1061.53 287.46 1061.88 288.09 1068.53 300.13"/><polygon class="cls-52" points="1061.88 288.09 1034.2 287.79 1052.86 282.13 1061.53 287.46 1061.88 288.09"/></g></g></g></svg>