<svg width="35" height="35" viewBox="0 0 35 35" fill="none" xmlns="http://www.w3.org/2000/svg">
<mask id="path-1-inside-1" fill="white">
<path fill-rule="evenodd" clip-rule="evenodd" d="M0.175171 17.7205C0.175171 8.34182 7.78066 0.736328 17.1593 0.736328C26.5379 0.736328 34.1434 8.34182 34.1434 17.7205C34.1434 27.0991 26.5379 34.7046 17.1593 34.7046C7.78066 34.7046 0.175171 27.0991 0.175171 17.7205ZM27.3349 22.8432C27.7718 21.1823 27.7718 17.7378 27.7718 17.7378C27.7718 17.7378 27.7894 14.2763 27.3349 12.6153C27.09 11.7062 26.3731 10.9891 25.464 10.7445C23.8031 10.2899 17.1593 10.2899 17.1593 10.2899C17.1593 10.2899 10.5155 10.2899 8.85461 10.7271C7.96285 10.9717 7.2284 11.7062 6.98375 12.6153C6.54655 14.2763 6.54655 17.7205 6.54655 17.7205C6.54655 17.7205 6.54655 21.1823 6.98375 22.8256C7.22865 23.7347 7.94548 24.4518 8.85461 24.6965C10.5329 25.151 17.1593 25.151 17.1593 25.151C17.1593 25.151 23.8031 25.151 25.464 24.7138C26.3731 24.4692 27.09 23.7523 27.3349 22.8432ZM20.5685 17.7204L15.0438 20.9024V14.5385L20.5685 17.7204Z"/>
</mask>
<path d="M27.7718 17.7378L27.0718 17.7343V17.7378H27.7718ZM27.3349 22.8432L28.0108 23.0253L28.0118 23.0213L27.3349 22.8432ZM27.3349 12.6153L26.6589 12.7974L26.6597 12.8001L27.3349 12.6153ZM25.464 10.7445L25.2792 11.4196L25.2821 11.4204L25.464 10.7445ZM8.85461 10.7271L8.67641 10.0501L8.66941 10.052L8.85461 10.7271ZM6.98375 12.6153L6.30779 12.4334L6.30681 12.4371L6.98375 12.6153ZM6.98375 22.8256L6.30728 23.0056L6.30785 23.0077L6.98375 22.8256ZM8.85461 24.6965L9.03761 24.0208L9.03651 24.0205L8.85461 24.6965ZM25.464 24.7138L25.6422 25.3908L25.6459 25.3898L25.464 24.7138ZM15.0438 20.9024H14.3438V22.1133L15.3931 21.509L15.0438 20.9024ZM20.5685 17.7204L20.9178 18.327L21.971 17.7204L20.9178 17.1139L20.5685 17.7204ZM15.0438 14.5385L15.3931 13.9319L14.3438 13.3276V14.5385H15.0438ZM17.1593 0.0363281C7.39406 0.0363281 -0.524829 7.95522 -0.524829 17.7205H0.875171C0.875171 8.72842 8.16726 1.43633 17.1593 1.43633V0.0363281ZM34.8434 17.7205C34.8434 7.95522 26.9245 0.0363281 17.1593 0.0363281V1.43633C26.1513 1.43633 33.4434 8.72842 33.4434 17.7205H34.8434ZM17.1593 35.4046C26.9245 35.4046 34.8434 27.4857 34.8434 17.7205H33.4434C33.4434 26.7125 26.1513 34.0046 17.1593 34.0046V35.4046ZM-0.524829 17.7205C-0.524829 27.4857 7.39406 35.4046 17.1593 35.4046V34.0046C8.16726 34.0046 0.875171 26.7125 0.875171 17.7205H-0.524829ZM27.7718 17.7378C27.0718 17.7378 27.0718 17.7378 27.0718 17.7378C27.0718 17.7378 27.0718 17.7378 27.0718 17.7378C27.0718 17.7379 27.0718 17.738 27.0718 17.7381C27.0718 17.7384 27.0718 17.7389 27.0718 17.7396C27.0718 17.741 27.0718 17.7433 27.0718 17.7463C27.0718 17.7524 27.0717 17.7617 27.0717 17.774C27.0716 17.7986 27.0714 17.8354 27.071 17.8829C27.0701 17.9781 27.0685 18.1166 27.0651 18.2883C27.0584 18.6319 27.0449 19.1067 27.0181 19.6319C26.9634 20.7028 26.8558 21.9128 26.6579 22.6651L28.0118 23.0213C28.2508 22.1128 28.3618 20.77 28.4163 19.7034C28.444 19.1599 28.4579 18.6698 28.4648 18.3157C28.4683 18.1384 28.47 17.9949 28.4709 17.8952C28.4714 17.8454 28.4716 17.8065 28.4717 17.7798C28.4717 17.7665 28.4718 17.7562 28.4718 17.7492C28.4718 17.7456 28.4718 17.7429 28.4718 17.741C28.4718 17.7401 28.4718 17.7393 28.4718 17.7388C28.4718 17.7385 28.4718 17.7383 28.4718 17.7382C28.4718 17.7381 28.4718 17.738 28.4718 17.7379C28.4718 17.7379 28.4718 17.7378 27.7718 17.7378ZM26.6597 12.8001C26.8644 13.548 26.9721 14.7582 27.0246 15.8336C27.0504 16.3604 27.0622 16.837 27.0675 17.1819C27.0702 17.3542 27.0713 17.4932 27.0717 17.5887C27.0719 17.6365 27.0719 17.6734 27.0719 17.6981C27.0719 17.7104 27.0719 17.7197 27.0718 17.7258C27.0718 17.7288 27.0718 17.7311 27.0718 17.7325C27.0718 17.7332 27.0718 17.7337 27.0718 17.734C27.0718 17.7341 27.0718 17.7342 27.0718 17.7343C27.0718 17.7343 27.0718 17.7343 27.0718 17.7343C27.0718 17.7343 27.0718 17.7343 27.7718 17.7378C28.4718 17.7414 28.4718 17.7413 28.4718 17.7413C28.4718 17.7412 28.4718 17.7411 28.4718 17.741C28.4718 17.7409 28.4718 17.7407 28.4718 17.7404C28.4718 17.7398 28.4718 17.7391 28.4718 17.7381C28.4718 17.7362 28.4718 17.7335 28.4718 17.7299C28.4718 17.7228 28.4719 17.7125 28.4719 17.699C28.4719 17.6722 28.4719 17.6331 28.4717 17.5829C28.4712 17.4827 28.4701 17.3383 28.4674 17.1601C28.4618 16.8041 28.4496 16.3114 28.423 15.7653C28.3707 14.6946 28.2599 13.3435 28.01 12.4305L26.6597 12.8001ZM25.2821 11.4204C25.9501 11.6002 26.4789 12.129 26.659 12.7974L28.0108 12.4332C27.701 11.2834 26.7961 10.378 25.6459 10.0685L25.2821 11.4204ZM17.1593 10.2899C17.1593 10.9899 17.1593 10.9899 17.1593 10.9899C17.1594 10.9899 17.1594 10.9899 17.1595 10.9899C17.1597 10.9899 17.16 10.9899 17.1603 10.9899C17.1611 10.9899 17.1622 10.9899 17.1637 10.9899C17.1668 10.9899 17.1715 10.9899 17.1776 10.9899C17.19 10.9899 17.2085 10.99 17.2327 10.99C17.2812 10.9901 17.3528 10.9903 17.4447 10.9908C17.6283 10.9917 17.8929 10.9934 18.2157 10.997C18.8615 11.004 19.7391 11.0182 20.6675 11.0464C21.5971 11.0747 22.5718 11.1169 23.4136 11.1797C24.2754 11.2441 24.938 11.3262 25.2792 11.4196L25.6488 10.0693C25.1595 9.9354 24.3689 9.84714 23.5178 9.78361C22.6468 9.7186 21.6491 9.6756 20.7101 9.64705C19.7699 9.61846 18.8828 9.60418 18.231 9.59705C17.905 9.59348 17.6375 9.59169 17.4514 9.5908C17.3583 9.59035 17.2855 9.59013 17.2359 9.59002C17.2111 9.58996 17.1921 9.58993 17.1792 9.58992C17.1727 9.58991 17.1678 9.58991 17.1645 9.5899C17.1628 9.5899 17.1616 9.5899 17.1607 9.5899C17.1603 9.5899 17.1599 9.5899 17.1597 9.5899C17.1596 9.5899 17.1595 9.5899 17.1594 9.5899C17.1594 9.5899 17.1593 9.5899 17.1593 10.2899ZM9.03279 11.404C9.37647 11.3136 10.0414 11.2344 10.903 11.1725C11.7454 11.1121 12.7206 11.0714 13.6503 11.0443C14.5789 11.0171 15.4567 11.0035 16.1026 10.9967C16.4255 10.9933 16.6901 10.9916 16.8738 10.9907C16.9657 10.9903 17.0373 10.9901 17.0858 10.99C17.1101 10.99 17.1286 10.9899 17.1409 10.9899C17.1471 10.9899 17.1518 10.9899 17.1548 10.9899C17.1564 10.9899 17.1575 10.9899 17.1583 10.9899C17.1586 10.9899 17.1589 10.9899 17.1591 10.9899C17.1592 10.9899 17.1592 10.9899 17.1593 10.9899C17.1593 10.9899 17.1593 10.9899 17.1593 10.2899C17.1593 9.5899 17.1593 9.5899 17.1592 9.5899C17.1591 9.5899 17.159 9.5899 17.1589 9.5899C17.1587 9.5899 17.1583 9.5899 17.1579 9.5899C17.157 9.5899 17.1558 9.5899 17.1541 9.5899C17.1508 9.58991 17.1459 9.58991 17.1395 9.58992C17.1266 9.58993 17.1076 9.58996 17.0828 9.59001C17.0332 9.59012 16.9604 9.59033 16.8674 9.59076C16.6813 9.59162 16.4139 9.59334 16.0879 9.59677C15.4363 9.60363 14.5493 9.61736 13.6093 9.64485C12.6705 9.67231 11.6733 9.71365 10.8028 9.77614C9.95164 9.83725 9.16322 9.92202 8.67642 10.0502L9.03279 11.404ZM7.6597 12.7972C7.84007 12.127 8.38844 11.5809 9.0398 11.4022L8.66941 10.052C7.53726 10.3626 6.61673 11.2854 6.3078 12.4334L7.6597 12.7972ZM6.54655 17.7205C7.24655 17.7205 7.24655 17.7205 7.24655 17.7205C7.24655 17.7205 7.24655 17.7205 7.24655 17.7205C7.24655 17.7204 7.24655 17.7203 7.24655 17.7202C7.24655 17.7199 7.24655 17.7194 7.24655 17.7187C7.24656 17.7172 7.24656 17.715 7.24656 17.712C7.24658 17.7059 7.2466 17.6966 7.24665 17.6843C7.24676 17.6597 7.24696 17.6229 7.24738 17.5754C7.24821 17.4802 7.24989 17.3417 7.25325 17.1701C7.25998 16.8265 7.27343 16.3517 7.30029 15.8265C7.35505 14.7557 7.46266 13.5459 7.66069 12.7935L6.30681 12.4371C6.06765 13.3457 5.95666 14.6885 5.90212 15.755C5.87432 16.2985 5.86045 16.7885 5.85352 17.1426C5.85005 17.3199 5.84831 17.4634 5.84743 17.5631C5.847 17.6129 5.84678 17.6518 5.84667 17.6785C5.84661 17.6918 5.84658 17.7021 5.84657 17.7091C5.84656 17.7126 5.84656 17.7154 5.84656 17.7173C5.84655 17.7182 5.84655 17.7189 5.84655 17.7195C5.84655 17.7198 5.84655 17.72 5.84655 17.7201C5.84655 17.7202 5.84655 17.7203 5.84655 17.7203C5.84655 17.7204 5.84655 17.7205 6.54655 17.7205ZM7.66022 22.6456C7.46274 21.9033 7.35509 20.6948 7.30029 19.6211C7.27344 19.0948 7.25998 18.6184 7.25325 18.2734C7.24989 18.1011 7.24821 17.962 7.24738 17.8663C7.24696 17.8185 7.24676 17.7816 7.24665 17.7568C7.2466 17.7445 7.24658 17.7351 7.24656 17.729C7.24656 17.726 7.24656 17.7237 7.24655 17.7223C7.24655 17.7216 7.24655 17.721 7.24655 17.7207C7.24655 17.7206 7.24655 17.7205 7.24655 17.7204C7.24655 17.7204 7.24655 17.7204 7.24655 17.7204C7.24655 17.7204 7.24655 17.7205 6.54655 17.7205C5.84655 17.7205 5.84655 17.7205 5.84655 17.7206C5.84655 17.7206 5.84655 17.7207 5.84655 17.7208C5.84655 17.721 5.84655 17.7212 5.84655 17.7214C5.84655 17.722 5.84655 17.7227 5.84656 17.7237C5.84656 17.7256 5.84656 17.7283 5.84657 17.7319C5.84658 17.7389 5.84661 17.7493 5.84667 17.7626C5.84678 17.7894 5.847 17.8285 5.84743 17.8785C5.84831 17.9786 5.85005 18.1228 5.85352 18.3007C5.86045 18.6562 5.87432 19.1479 5.90211 19.6925C5.95662 20.7605 6.06756 22.1045 6.30728 23.0056L7.66022 22.6456ZM9.03651 24.0205C8.36849 23.8407 7.83972 23.3119 7.65966 22.6435L6.30785 23.0077C6.61759 24.1575 7.52248 25.0629 8.67271 25.3724L9.03651 24.0205ZM17.1593 25.151C17.1593 24.451 17.1593 24.451 17.1593 24.451C17.1592 24.451 17.1592 24.451 17.1591 24.451C17.1589 24.451 17.1587 24.451 17.1583 24.451C17.1575 24.451 17.1564 24.451 17.1549 24.451C17.1518 24.451 17.1472 24.451 17.141 24.451C17.1287 24.451 17.1103 24.451 17.0861 24.4509C17.0377 24.4508 16.9663 24.4506 16.8747 24.4501C16.6914 24.4493 16.4275 24.4475 16.1054 24.444C15.4609 24.4369 14.5849 24.4228 13.6576 24.3945C12.7292 24.3663 11.755 24.324 10.9123 24.2612C10.0502 24.1969 9.38428 24.1147 9.03761 24.0208L8.67161 25.3721C9.16409 25.5055 9.95579 25.5938 10.8082 25.6573C11.68 25.7223 12.6771 25.7653 13.615 25.7939C14.5541 25.8225 15.4396 25.8367 16.09 25.8439C16.4154 25.8474 16.6822 25.8492 16.8679 25.8501C16.9608 25.8506 17.0334 25.8508 17.0829 25.8509C17.1076 25.851 17.1266 25.851 17.1395 25.851C17.1459 25.851 17.1508 25.851 17.1541 25.851C17.1558 25.851 17.157 25.851 17.1579 25.851C17.1583 25.851 17.1587 25.851 17.1589 25.851C17.159 25.851 17.1591 25.851 17.1592 25.851C17.1593 25.851 17.1593 25.851 17.1593 25.151ZM25.2858 24.0369C24.9421 24.1273 24.2772 24.2065 23.4156 24.2684C22.5732 24.3288 21.598 24.3695 20.6683 24.3967C19.7397 24.4238 18.8619 24.4374 18.216 24.4442C17.8931 24.4476 17.6285 24.4493 17.4448 24.4502C17.3529 24.4506 17.2813 24.4508 17.2328 24.4509C17.2085 24.451 17.19 24.451 17.1777 24.451C17.1715 24.451 17.1668 24.451 17.1638 24.451C17.1622 24.451 17.1611 24.451 17.1603 24.451C17.16 24.451 17.1597 24.451 17.1595 24.451C17.1594 24.451 17.1594 24.451 17.1593 24.451C17.1593 24.451 17.1593 24.451 17.1593 25.151C17.1593 25.851 17.1594 25.851 17.1594 25.851C17.1595 25.851 17.1596 25.851 17.1597 25.851C17.1599 25.851 17.1603 25.851 17.1607 25.851C17.1616 25.851 17.1628 25.851 17.1645 25.851C17.1678 25.851 17.1727 25.851 17.1792 25.851C17.192 25.851 17.211 25.851 17.2358 25.8509C17.2854 25.8508 17.3582 25.8506 17.4513 25.8502C17.6374 25.8493 17.9048 25.8476 18.2307 25.8441C18.8823 25.8373 19.7693 25.8236 20.7093 25.7961C21.6481 25.7686 22.6453 25.7273 23.5158 25.6648C24.367 25.6037 25.1554 25.5189 25.6422 25.3908L25.2858 24.0369ZM26.659 22.6611C26.4789 23.3295 25.9502 23.8581 25.2821 24.0379L25.6459 25.3898C26.796 25.0803 27.701 24.1752 28.0108 23.0253L26.659 22.6611ZM15.3931 21.509L20.9178 18.327L20.2191 17.1139L14.6944 20.2958L15.3931 21.509ZM14.3438 14.5385V20.9024H15.7438V14.5385H14.3438ZM20.9178 17.1139L15.3931 13.9319L14.6944 15.1451L20.2191 18.327L20.9178 17.1139Z" fill="#9AB1FF" mask="url(#path-1-inside-1)"/>
</svg>
