<svg width="75" height="74" viewBox="0 0 75 74" fill="none" xmlns="http://www.w3.org/2000/svg">
<path d="M37.3861 0.09375C17.006 0.09375 0.484375 16.6154 0.484375 36.9954C0.484375 57.3754 17.006 73.8971 37.3861 73.8971C57.7661 73.8971 74.2877 57.3754 74.2877 36.9954C74.2649 16.625 57.7565 0.116573 37.3861 0.09375ZM37.3861 71.437C18.3646 71.437 2.94449 56.0169 2.94449 36.9954C2.94449 17.974 18.3646 2.55386 37.3861 2.55386C56.4075 2.55386 71.8276 17.974 71.8276 36.9954C71.806 56.0078 56.3985 71.4154 37.3861 71.437Z" fill="#F6E8FF"/>
<path d="M54.6072 22.2344H20.1656C19.4863 22.2344 18.9355 22.7851 18.9355 23.4644V50.5257C18.9355 51.205 19.4863 51.7557 20.1656 51.7557H54.6072C55.2865 51.7557 55.8372 51.205 55.8372 50.5257V23.4644C55.8372 22.7851 55.2865 22.2344 54.6072 22.2344ZM51.2858 24.6945L37.3864 36.6052L23.487 24.6945H51.2858ZM21.3957 49.2956V26.1384L36.5858 39.1585C37.0458 39.5525 37.7245 39.5525 38.1846 39.1585L53.3771 26.1384V49.2956H21.3957Z" fill="#F6E8FF"/>
</svg>
