<svg xmlns="http://www.w3.org/2000/svg" xmlns:xlink="http://www.w3.org/1999/xlink" viewBox="0 0 372.24 301.04"><defs><style>.cls-1{fill:none;}.cls-2{fill:#992c2c;}.cls-16,.cls-3{fill:#fff;}.cls-3,.cls-8{fill-rule:evenodd;}.cls-4{fill:#812525;}.cls-5{clip-path:url(#clip-path);}.cls-6{clip-path:url(#clip-path-2);}.cls-7{fill:#e3a380;}.cls-9{fill:#f4bea1;}.cls-10{fill:#802525;}.cls-11{clip-path:url(#clip-path-3);}.cls-12{clip-path:url(#clip-path-4);}.cls-13{clip-path:url(#clip-path-5);}.cls-14{clip-path:url(#clip-path-6);}.cls-15{clip-path:url(#clip-path-7);}</style><clipPath id="clip-path" transform="translate(0 1.18)"><path id="SVGID" class="cls-1" d="M254.41,134c0,14.11.92,63.19-37.58,98.42-35.92,1.65-78.42-15.33-98.45-45.84C138,139.4,209.58,175,227.82,126,227.82,126,249.89,121.37,254.41,134Z"/></clipPath><clipPath id="clip-path-2" transform="translate(0 1.18)"><path id="SVGID-2" data-name="SVGID" class="cls-1" d="M216.83,232.39c45,13,87.32,36.82,126.32,62.1,3.94-.1,5.24-2.3,7.43-5-6.86-25.84-50.18-83.62-104.78-99.24C226.93,184.89,205.8,223,216.83,232.39Z"/></clipPath><clipPath id="clip-path-3" transform="translate(0 1.18)"><path id="SVGID-3" data-name="SVGID" class="cls-1" d="M288,75.56c-18.95,7.56-3.5-21.21-13.09-31.95.15-3.46,1.63-3.87,4.66-4.27C282.63,50.61,307.24,59.8,288,75.56Z"/></clipPath><clipPath id="clip-path-4" transform="translate(0 1.18)"><path id="SVGID-4" data-name="SVGID" class="cls-1" d="M277.67,45.6c12.17,1.9,4-10.24,8.35-16.57,6.72-9.72,19.9-31.39,5.3-28.82-20.39,3.6-16.54,11-15.09,27.68C271,35.3,271,44.55,277.67,45.6Z"/></clipPath><clipPath id="clip-path-5" transform="translate(0 1.18)"><path id="SVGID-5" data-name="SVGID" class="cls-1" d="M301,81.54c-6.22,4.95-16.19,3.94-18.27-4.73-1.39-13.75,4.23-16.24,1.79-25.57,1.57-3.43,3.85-4.46,7.23-3.68C292.89,57.25,313.51,71.51,301,81.54Z"/></clipPath><clipPath id="clip-path-6" transform="translate(0 1.18)"><path id="SVGID-6" data-name="SVGID" class="cls-1" d="M284.81,55.08c-11.87-3.25.58-11-.81-18.53-2.14-11.62-5.26-36.8,7-28.45,17.11,11.65,10.58,16.78,2.39,31.43C295.11,48.43,291.3,56.86,284.81,55.08Z"/></clipPath><clipPath id="clip-path-7" transform="translate(0 1.18)"><path id="SVGID-7" data-name="SVGID" class="cls-1" d="M254.8,139.26l-30-8.67s.75-3.2,1.36-6.88c-3.79-7.29,2.17-18.2,11.13-17.11l7.51-18.85s15.49.89,18.64,11.18C280,100.51,284,118.41,284,118.41s-21.86,7-23.81,9.67A42.83,42.83,0,0,0,254.8,139.26Z"/></clipPath></defs><g id="Layer_2" data-name="Layer 2"><g id="OBJECTS"><g id="g333623"><path id="path249667" class="cls-2" d="M118.38,186.55c-26.51-18.9-68.76-49.1-104.19-40.94-1.74-4-.68-6.08.71-9.67,51.66-19.64,110.63-2,150.49,30.87C154.53,182.6,134.92,182.06,118.38,186.55Z" transform="translate(0 1.18)"/><path class="cls-3" d="M21.62,139.69a18.5,18.5,0,0,1,2.69-.71,44.56,44.56,0,0,1,11.09-.54c7.53.45,15.67,1.95,20.91,2.59a180.32,180.32,0,0,1,80.3,30.74,163.35,163.35,0,0,1,17,13.45.33.33,0,0,0,.47,0,.33.33,0,0,0,0-.46,145.77,145.77,0,0,0-16.8-13.93,168.71,168.71,0,0,0-28.47-16.13A180.53,180.53,0,0,0,56.43,140c-6.09-.72-16.1-2.71-24.52-2.62a29.84,29.84,0,0,0-7.42.82,14.05,14.05,0,0,0-3,1.2.14.14,0,0,0-.07.18A.14.14,0,0,0,21.62,139.69Z" transform="translate(0 1.18)"/><path id="path247971" class="cls-4" d="M254.41,134c0,14.11.92,63.19-37.58,98.42-35.92,1.65-78.42-15.33-98.45-45.84C138,139.4,209.58,175,227.82,126,227.82,126,249.89,121.37,254.41,134Z" transform="translate(0 1.18)"/><g class="cls-5"><path class="cls-3" d="M171.18,229.75a3.46,3.46,0,0,0,.29-.45c.06-.16.06-.32.1-.46a6.6,6.6,0,0,1,5.53-5.3,19.07,19.07,0,0,1,13.59,2.75,11.75,11.75,0,0,1,3.14,3.5,56.43,56.43,0,0,1,3.17,6.6.25.25,0,0,0,.34.14.27.27,0,0,0,.15-.34,53.48,53.48,0,0,0-2.88-6.87,12.53,12.53,0,0,0-3.31-3.85c-3.31-2.49-9.7-4.34-14.49-3.19-3.15.76-5.68,2.75-6.09,6.42a1.78,1.78,0,0,0,0,.52,2,2,0,0,0,.21.53.14.14,0,0,0,.13.14A.15.15,0,0,0,171.18,229.75Z" transform="translate(0 1.18)"/><path class="cls-3" d="M247.56,131.91c-.54.42-.57.06-.88.68a.7.7,0,0,0,0,.25c0,2.51-.19,5-.38,7.55a126.57,126.57,0,0,1-2.88,19.37c-1.27,5.52-2.85,11-4.47,16.33-1.13,3.69-2.24,7.33-3.36,10.84-1,3.74-2.34,7.69-3.21,11.67a31.78,31.78,0,0,0-.87,8.15.44.44,0,0,0,.44.46.44.44,0,0,0,.47-.44,28.46,28.46,0,0,1,1.27-5.74c1.42-4.44,3.65-8.82,5.34-12.95,1.09-3.18,2.24-6.41,3.3-9.74a176.1,176.1,0,0,0,5.89-23.43A84.85,84.85,0,0,0,249.59,142a54.44,54.44,0,0,0-.26-5.58,22.7,22.7,0,0,0-.46-3.69.78.78,0,0,0-.13-.37c-.42-.47-.34-.18-.9-.47a.14.14,0,1,0-.28,0Z" transform="translate(0 1.18)"/></g><path class="cls-3" d="M220.92,209.22c-.09-.14-.09-.24-.22-.34a1.18,1.18,0,0,0-.45-.22,73.89,73.89,0,0,0-7-2.43c-6.07-1.91-12.34-3.47-18.35-5.34-10.43-3.2-20.66-7.15-31-10.61-2.59-.86-5.22-1.66-7.84-2.45a.33.33,0,0,0-.39.21.33.33,0,0,0,.2.4c2.71.94,5.39,2,8.09,2.93q9.45,3.44,18.93,6.77c3.89,1.34,7.78,2.65,11.7,3.87,7.75,2.35,15.89,4.32,23.6,6.85a11.29,11.29,0,0,0,2.06.68,2.09,2.09,0,0,0,.61-.08.13.13,0,1,0,.09-.24Z" transform="translate(0 1.18)"/><path id="path249665" class="cls-2" d="M216.83,232.39c45,13,87.32,36.82,126.32,62.1,3.94-.1,5.24-2.3,7.43-5-6.86-25.84-50.18-83.62-104.78-99.24C226.93,184.89,205.8,223,216.83,232.39Z" transform="translate(0 1.18)"/><g class="cls-6"><path class="cls-3" d="M212.76,206.29c1.43.38,2.82.88,4.24,1.41,3.28,1.18,6.58,2.55,9.81,3.65A212.93,212.93,0,0,1,271.52,232a247.37,247.37,0,0,1,39.37,29.68c4.34,3.93,8.92,7.53,13.24,11.44,1.84,1.67,3.64,3.4,5.35,5.22a.11.11,0,0,0,.15,0,.11.11,0,0,0,0-.16c-1.68-1.86-3.45-3.63-5.26-5.36-4.22-4-8.7-7.73-12.93-11.77A244.53,244.53,0,0,0,272.13,231a211.67,211.67,0,0,0-45-20.72c-2.79-.89-5.6-2-8.47-2.94a38.29,38.29,0,0,0-5.88-1.32.14.14,0,0,0-.16.1A.13.13,0,0,0,212.76,206.29Z" transform="translate(0 1.18)"/></g><path id="path290469" class="cls-7" d="M139.81,176c-8.24-3.57.11,11.76,4,7.53C142.67,181.18,141.86,177.74,139.81,176Z" transform="translate(0 1.18)"/><path class="cls-8" d="M137,178.66c.94-.4,1.87.16,2.72,1a13.05,13.05,0,0,1,2.67,4,.18.18,0,0,0,.24.1.18.18,0,0,0,.11-.24,12.32,12.32,0,0,0-2.68-4.22c-1-.92-2.14-1.39-3.17-.86a.13.13,0,0,0-.07.18A.13.13,0,0,0,137,178.66Z" transform="translate(0 1.18)"/><path id="path290467" class="cls-7" d="M158.41,170.72c6.23-12.51,11,7.19,1.94,7.87C160,175.92,158.92,173.35,158.41,170.72Z" transform="translate(0 1.18)"/><path class="cls-8" d="M163.6,168.07c-1.28.33-2,1.59-2.19,3.14A15.5,15.5,0,0,0,162,177a.17.17,0,0,0,.19.12.17.17,0,0,0,.12-.2,18,18,0,0,1-.31-5.58c.17-1.38.58-2.58,1.69-3a.13.13,0,0,0,.09-.17A.14.14,0,0,0,163.6,168.07Z" transform="translate(0 1.18)"/><path id="path258381" class="cls-9" d="M163.48,185.41c-6.06,9.81-10.12,10-16.93,6.22,0,0-1.82-7.57-12.27-21.28-3.88-9.85,12.51-16.31,20.18-13s4.17,15.23,9,28.09Z" transform="translate(0 1.18)"/><path class="cls-8" d="M146.72,172.81c-.07.12-.1.06-.12.2s.06.18.1.29c.46,1.16,1,2.3,1.45,3.47.82,1.91,1.67,3.82,2.4,5.78.56,1.51,1,3.08,1.57,4.6.23.66.5,1.31.73,2a.27.27,0,0,0,.3.18.26.26,0,0,0,.18-.3c-.11-.7-.2-1.41-.36-2.09a47.79,47.79,0,0,0-2.65-8,45.5,45.5,0,0,0-2.8-5.69c-.1-.16-.15-.38-.31-.48s-.1,0-.25,0a.12.12,0,0,0-.18-.06A.14.14,0,0,0,146.72,172.81Z" transform="translate(0 1.18)"/><path id="path285225" d="M160.39,170.53c.33-7.9.59-10.68-1.81-18.28a29.3,29.3,0,0,1-6.72,1.24,26,26,0,0,1,.75-3.05c-4.8,1.54-11.36,1.88-14.71,6.05a27.47,27.47,0,0,1,.16-4.25c-3.52,4.11-3.64,11,4.66,12.31,2.3-4.88,12.7-8,13.33.91a60.28,60.28,0,0,0,4.34,5.07Z" transform="translate(0 1.18)"/><path id="path285811" d="M141.4,161.49c-4.88.8-6.29,5.66-3.52,9.08a38,38,0,0,1,1.05,6.34c-3.85-5.35-10.21-8.66-6.65-16.07a6.24,6.24,0,0,0,.47,2C133.86,158.5,141.82,155.7,141.4,161.49Z" transform="translate(0 1.18)"/><path id="path278171" class="cls-9" d="M268,117.85c23.31,4.83,34.25-27.38,33-36.31-3.3-5.3-8.69-8.14-15.21-5.66-1.41-3.31-3.78-5.49-7.84-4.43-3.63.94-18,10.45-34.46,24.09C236.38,118.22,258.66,112.41,268,117.85Z" transform="translate(0 1.18)"/><path id="path282731" class="cls-10" d="M288,75.56c-18.95,7.56-3.5-21.21-13.09-31.95.15-3.46,1.63-3.87,4.66-4.27C282.63,50.61,307.24,59.8,288,75.56Z" transform="translate(0 1.18)"/><g class="cls-11"><path class="cls-3" d="M284.17,74.36c-.11-.34.09-.25-.15-.5-.09-.1-.25-.1-.37-.14a15.94,15.94,0,0,1-5.14-2.24,4,4,0,0,1-1.54-2,.32.32,0,0,0-.36-.25.31.31,0,0,0-.25.36,4.72,4.72,0,0,0,2.15,3.44A11.37,11.37,0,0,0,283.44,75c.12,0,.25.08.35,0,.35-.15.09-.1.32-.39a.15.15,0,0,0,.17-.11A.13.13,0,0,0,284.17,74.36Z" transform="translate(0 1.18)"/><path class="cls-3" d="M284.15,70.82c-.17-.09-.25-.2-.43-.28a18.78,18.78,0,0,1-3.48-1.78c-1.52-1-2.91-2.1-3.13-2.83a.46.46,0,0,0-.89.21A7.45,7.45,0,0,0,279.4,70c1.28.84,2.87,1.6,4.24,1.32a1.67,1.67,0,0,0,.51-.23.14.14,0,0,0,0-.28Z" transform="translate(0 1.18)"/></g><path id="path255311-4" d="M277.67,45.6c12.17,1.9,4-10.24,8.35-16.57,6.72-9.72,19.9-31.39,5.3-28.82-20.39,3.6-16.54,11-15.09,27.68C271,35.3,271,44.55,277.67,45.6Z" transform="translate(0 1.18)"/><g class="cls-12"><path class="cls-3" d="M271.53,39.61a6,6,0,0,0,.8,2.16,5.26,5.26,0,0,0,1.74,1.55,5,5,0,0,0,4.64.51c2-.8,3.56-2.89,4.74-5.09a23.56,23.56,0,0,0,1.94-5.32c1.05-4.22,1.36-8.7,2.71-12.83s4.19-8.31,5.45-12.63a13.26,13.26,0,0,0-.32-9.08.09.09,0,0,0-.12,0,.09.09,0,0,0-.05.12,13.31,13.31,0,0,1,.08,8.89c-1.29,4.3-3.95,8.41-5.34,12.65s-1.71,8.62-2.8,12.83a22.5,22.5,0,0,1-2,5.19c-1.11,2.12-2.57,4.2-4.46,5a4.48,4.48,0,0,1-4.19-.62,5.18,5.18,0,0,1-1.63-1.36,6,6,0,0,1-.94-1.94.14.14,0,0,0-.17-.1A.14.14,0,0,0,271.53,39.61Z" transform="translate(0 1.18)"/></g><path class="cls-3" d="M290.06,4.28c-1.74-.88-2.82-.6-3.14.27-.25.7,0,1.84.83,3.17a.08.08,0,0,0,.09,0,.07.07,0,0,0,0-.09,4.21,4.21,0,0,1-.41-2.91c.27-.69,1.06-.79,2.49-.22a.14.14,0,0,0,.19-.07A.14.14,0,0,0,290.06,4.28Z" transform="translate(0 1.18)"/><path class="cls-3" d="M280.72,6.66a3.63,3.63,0,0,0-1.91-.7c-.66,0-1.16.27-1.16,1a2.29,2.29,0,0,0,.62,1.4A6.87,6.87,0,0,0,280,9.62a.13.13,0,1,0,.14-.22A7.29,7.29,0,0,1,278.65,8a1.9,1.9,0,0,1-.48-1.09c0-.35.3-.42.64-.43a3.59,3.59,0,0,1,1.73.4.13.13,0,0,0,.19,0A.14.14,0,0,0,280.72,6.66Z" transform="translate(0 1.18)"/><path class="cls-3" d="M279.35,13.22c-1.47-.41-2.34.16-2.42.88s.49,1.48,1.76,2a.16.16,0,0,0,.22-.08.15.15,0,0,0-.08-.21c-.91-.51-1.29-1.12-1.23-1.61s.62-.8,1.7-.68a.13.13,0,0,0,.16-.11A.13.13,0,0,0,279.35,13.22Z" transform="translate(0 1.18)"/><path class="cls-3" d="M287,14.16a2,2,0,0,0-1.78,1,1.9,1.9,0,0,0,.35,2,.2.2,0,0,0,.27.06.19.19,0,0,0,.05-.27,1.65,1.65,0,0,1-.08-1.56,1.76,1.76,0,0,1,1.22-1,.14.14,0,0,0,0-.27Z" transform="translate(0 1.18)"/><path class="cls-3" d="M277.61,32.48c0-.12.05,0,0-.13s-.31-.11-.46-.15c-1.19-.26-1.93.16-2.11.78s.17,1.48,1.16,2.4a.06.06,0,0,0,.09,0,.06.06,0,0,0,0-.09c-.68-.9-.91-1.65-.72-2.13s.57-.45,1.24-.39c.19,0,.41.15.64.09s0,0,.1-.11a.13.13,0,0,0,.17-.1A.14.14,0,0,0,277.61,32.48Z" transform="translate(0 1.18)"/><path class="cls-3" d="M277,38.63c-1.52-.33-2.3.33-2.27,1.08s.65,1.42,1.9,1.82a.14.14,0,1,0,.1-.26c-1-.42-1.48-1-1.49-1.57s.55-.94,1.71-.8a.14.14,0,0,0,.16-.12A.13.13,0,0,0,277,38.63Z" transform="translate(0 1.18)"/><path class="cls-3" d="M282.06,34.44c-1.59-.58-2.35.09-2.35.93a2.85,2.85,0,0,0,1.64,2.21.25.25,0,0,0,.36-.09.27.27,0,0,0-.1-.37,2.4,2.4,0,0,1-1.29-1.76c0-.59.49-.92,1.67-.66a.14.14,0,0,0,.17-.1A.13.13,0,0,0,282.06,34.44Z" transform="translate(0 1.18)"/><path class="cls-3" d="M283.54,28a3.82,3.82,0,0,0-2.83,2c-.19.66.2,1.34,1.76,1.44a.18.18,0,0,0,0-.36c-1.1-.14-1.45-.47-1.31-.94a3.52,3.52,0,0,1,2.39-1.86.14.14,0,0,0,.11-.16A.13.13,0,0,0,283.54,28Z" transform="translate(0 1.18)"/><path id="path282727" class="cls-2" d="M301,81.54c-6.22,4.95-16.19,3.94-18.27-4.73-1.39-13.75,4.23-16.24,1.79-25.57,1.57-3.43,3.85-4.46,7.23-3.68C292.89,57.25,313.51,71.51,301,81.54Z" transform="translate(0 1.18)"/><g class="cls-13"><path class="cls-3" d="M281.21,72.69a1.65,1.65,0,0,0-.3.59c-.32,1.78,1.17,3.36,2.71,4.51a13.44,13.44,0,0,0,8.21,2.41,16.55,16.55,0,0,0,9.43-3.62,15.19,15.19,0,0,0,5-8.64.18.18,0,0,0-.14-.22.18.18,0,0,0-.21.13,14.69,14.69,0,0,1-5.16,8.07,15.62,15.62,0,0,1-9,3.06,13,13,0,0,1-7.36-2.25,7.28,7.28,0,0,1-2.57-3.54c-.08-.21-.22-.29-.34-.5a.14.14,0,0,0-.13-.14A.14.14,0,0,0,281.21,72.69Z" transform="translate(0 1.18)"/><path class="cls-3" d="M280.8,68.6a1.74,1.74,0,0,0-.16.7c0,1.92,1.87,3.42,3.9,4.44a14,14,0,0,0,18.29-5,16.17,16.17,0,0,0,2.55-5.9,17.16,17.16,0,0,0,.22-4.25.26.26,0,0,0-.25-.26.24.24,0,0,0-.26.24,22.74,22.74,0,0,1-.88,4,18.74,18.74,0,0,1-2.49,5.42,12.56,12.56,0,0,1-15.2,5,13.69,13.69,0,0,1-2.39-1.08,5.78,5.78,0,0,1-2.63-2.64,2.37,2.37,0,0,0-.2-.46c-.07-.11-.13-.11-.23-.2a.14.14,0,0,0-.27,0Z" transform="translate(0 1.18)"/></g><path id="path255311" d="M284.81,55.08c-11.87-3.25.58-11-.81-18.53-2.14-11.62-5.26-36.8,7-28.45,17.11,11.65,10.58,16.78,2.39,31.43C295.11,48.43,291.3,56.86,284.81,55.08Z" transform="translate(0 1.18)"/><g class="cls-14"><path class="cls-3" d="M280,47.12c-.06,2.64,1.16,4,2.78,4.37,2.38.55,5.63-1,7-3.61a16.1,16.1,0,0,0,1.53-4.37c.72-3.51.46-6.87,2-10.47a23,23,0,0,1,1.9-3.43c1.69-2.58,3.73-5,5.23-7.66A15.09,15.09,0,0,0,301.89,17a28.93,28.93,0,0,0,.29-5.13.08.08,0,0,0-.08-.07.07.07,0,0,0-.07.07,30.65,30.65,0,0,1-.77,6,14.31,14.31,0,0,1-1.38,3.75c-1.5,2.66-3.56,5.05-5.21,7.64a21.11,21.11,0,0,0-1.87,3.55c-1.5,3.63-1.21,7-1.93,10.56a15.63,15.63,0,0,1-1.52,4.26,6.88,6.88,0,0,1-5.24,3.42c-2.06.17-3.86-.93-3.89-4a.13.13,0,0,0-.13-.13A.13.13,0,0,0,280,47.12Z" transform="translate(0 1.18)"/></g><path class="cls-3" d="M282.47,45.69c-.36-1-.46-1.63-.24-2s.82-.54,1.91-.47a.08.08,0,0,0,.08-.07.06.06,0,0,0-.06-.08c-1.29-.26-2.05-.11-2.34.39s-.12,1.27.39,2.37a.14.14,0,1,0,.26-.1Z" transform="translate(0 1.18)"/><path class="cls-3" d="M286,39.5c0-.07.05,0,0-.14s-.26-.41-.39-.65a4.63,4.63,0,0,1-.72-1.76,1.07,1.07,0,0,1,1-1.19.13.13,0,0,0,.09-.15.12.12,0,0,0-.14-.09A1.37,1.37,0,0,0,284.48,37a4.38,4.38,0,0,0,.66,2c.15.25.26.55.48.66.07,0,.06,0,.15,0a.14.14,0,0,0,.19,0A.15.15,0,0,0,286,39.5Z" transform="translate(0 1.18)"/><path class="cls-3" d="M297,14.58a2.28,2.28,0,0,0-2.47-.89c-.6.3-.83,1.22,0,2.54a.11.11,0,0,0,.15,0,.11.11,0,0,0,0-.15c-.56-1.1-.47-1.75,0-2a2,2,0,0,1,2.06.65.14.14,0,0,0,.19,0A.13.13,0,0,0,297,14.58Z" transform="translate(0 1.18)"/><path class="cls-3" d="M294,18.14c-1.43-.37-2.45-.07-2.77.52s0,1.59,1.31,2.49a.16.16,0,1,0,.2-.26c-.89-.8-1.16-1.45-.92-1.91s1-.69,2.13-.57a.14.14,0,0,0,.16-.11A.15.15,0,0,0,294,18.14Z" transform="translate(0 1.18)"/><path class="cls-3" d="M298.4,20.37c-.68-.94-1.56-1.1-2.1-.76s-.77,1.16-.26,2.23a.15.15,0,0,0,.21.08.17.17,0,0,0,.08-.21c-.33-.85-.18-1.45.22-1.71s1.05-.13,1.63.54a.14.14,0,0,0,.19,0A.15.15,0,0,0,298.4,20.37Z" transform="translate(0 1.18)"/><path id="path259817" class="cls-2" d="M254.8,139.26l-30-8.67s.75-3.2,1.36-6.88c-3.79-7.29,2.17-18.2,11.13-17.11l7.51-18.85s15.49.89,18.64,11.18C280,100.51,284,118.41,284,118.41s-21.86,7-23.81,9.67A42.83,42.83,0,0,0,254.8,139.26Z" transform="translate(0 1.18)"/><g class="cls-15"><path class="cls-8" d="M267.92,94.77a26.76,26.76,0,0,0-2.62,1.32,39,39,0,0,0-5.45,4.1,75.35,75.35,0,0,0-8.26,8.21c-.64.75-1.19,1.54-1.78,2.31a.23.23,0,0,0,0,.31.22.22,0,0,0,.31,0c.73-.64,1.48-1.24,2.19-1.93,2.74-2.64,5.35-5.53,8.23-8.09,1.68-1.5,3.45-2.87,5.22-4.22.77-.59,1.5-1.2,2.29-1.76a.14.14,0,0,0,.05-.19A.13.13,0,0,0,267.92,94.77Z" transform="translate(0 1.18)"/><path class="cls-8" d="M253.09,111.28a4.59,4.59,0,0,0-.81-.51,7.47,7.47,0,0,0-3.74-.48,12.6,12.6,0,0,0-6.44,2.76,14.93,14.93,0,0,0-4.93,6.4,11,11,0,0,0-.67,3.42.32.32,0,0,0,.28.33.3.3,0,0,0,.34-.27,12.19,12.19,0,0,1,1.07-3.05,15.73,15.73,0,0,1,4.73-5.74,13.19,13.19,0,0,1,6.84-2.57,21.71,21.71,0,0,1,2.55,0c.25,0,.45,0,.7,0a.14.14,0,1,0,.08-.26Z" transform="translate(0 1.18)"/><path class="cls-8" d="M227.86,125.51l-2.34,8a.36.36,0,0,0,.67.24,37.28,37.28,0,0,0,1.38-4,17.07,17.07,0,0,0,.59-3.35,6.27,6.27,0,0,0,0-.87.15.15,0,0,0-.11-.16A.15.15,0,0,0,227.86,125.51Z" transform="translate(0 1.18)"/><path class="cls-8" d="M230.87,126.32a30,30,0,0,0-1.07,3.81c-.24,1.15-.45,2.3-.63,3.46-.12.76-.18,1.52-.33,2.28a.42.42,0,0,0,.29.52.43.43,0,0,0,.51-.3,18.89,18.89,0,0,0,.8-2.88c.38-2.24.36-4.54.84-6.78a.21.21,0,0,0-.15-.25A.21.21,0,0,0,230.87,126.32Z" transform="translate(0 1.18)"/><path class="cls-8" d="M236,128.3a22.47,22.47,0,0,0-1.69,3.86,25.68,25.68,0,0,0-.77,4.15.33.33,0,0,0,.66.1l2-8a.14.14,0,0,0-.25-.11Z" transform="translate(0 1.18)"/><path class="cls-8" d="M240.28,130.58c-.08.08-.15.11-.21.21a7,7,0,0,0-.69,2.27c-.44,2-.61,4-1.15,5.92a.35.35,0,0,0,.67.19,30.92,30.92,0,0,0,1.06-4.24,35.36,35.36,0,0,0,.63-3.82,2.3,2.3,0,0,0-.05-.45.14.14,0,1,0-.26-.08Z" transform="translate(0 1.18)"/><path class="cls-8" d="M245,133a4.87,4.87,0,0,0-.47.65,3.8,3.8,0,0,0-.24.72c-.36,1.14-.73,2.29-1,3.46-.18.78-.29,1.58-.45,2.37a.41.41,0,0,0,.28.49.41.41,0,0,0,.49-.28c.26-.72.54-1.41.76-2.14s.37-1.46.54-2.19a13.47,13.47,0,0,0,.43-2.06,6,6,0,0,0-.06-.95.16.16,0,0,0-.1-.17A.14.14,0,0,0,245,133Z" transform="translate(0 1.18)"/><path class="cls-8" d="M249.31,133.49a1.81,1.81,0,0,0-.3.25,9.89,9.89,0,0,0-1.39,2.93,40.36,40.36,0,0,0-1.39,5.17.35.35,0,1,0,.68.19c.46-1.49,1-3,1.54-4.51.34-1,.61-2,1-3a2.45,2.45,0,0,0,.24-.67c0-.11,0-.12-.08-.22a.13.13,0,0,0-.06-.19A.15.15,0,0,0,249.31,133.49Z" transform="translate(0 1.18)"/><path class="cls-8" d="M253.88,134.37c-.19.29-.41.52-.58.83a14.58,14.58,0,0,0-1.46,3.77,8.63,8.63,0,0,0-.1,3.51.56.56,0,0,0,.64.46.55.55,0,0,0,.46-.64,8.75,8.75,0,0,1,.07-2.29c.2-1.47.77-2.89,1.09-4.37a9.49,9.49,0,0,0,.14-1.18.14.14,0,0,0-.08-.18A.15.15,0,0,0,253.88,134.37Z" transform="translate(0 1.18)"/><path class="cls-3" d="M284.83,111.4a12.4,12.4,0,0,0-1.36.21,28.11,28.11,0,0,0-3,1c-3.3,1.17-6.56,2.57-9.84,3.68-7.64,2.92-11.75,6-14.53,9.63s-4.36,8.28-6.61,14.22c-.77,2-1.66,4.27-2.67,6.72-.38.92-.73,1.88-1.15,2.88a.3.3,0,0,0,.13.41.31.31,0,0,0,.41-.14c.55-.94,1.08-1.83,1.55-2.72a72.6,72.6,0,0,0,3-6.67c2.31-5.76,3.58-10.23,6.39-13.92,2.68-3.51,6.7-6.3,14-9l13.77-6a.14.14,0,0,0,.1-.17A.15.15,0,0,0,284.83,111.4Z" transform="translate(0 1.18)"/></g><path id="path249898" class="cls-16" d="M342.63,299.86c-5.54-.15-9.41-2.39-11.43-7.76-2.53-1.05-4.77-1.32-6-4.25-4.26-5-2.44-10-7.66-14.08-2.5-2.35-1.14-4.37,1.25-8,4.9,5.71,5.2,9.26,12.74,10.41,11.59-4.79,18.67-8.43,28.58-16.17,1.2,1.79.55,3.11.46,4.88a38.59,38.59,0,0,0-14.11,10.42c6.2.33,14.14-4.8,21.31-7.56.91,1.1.63,2.45.76,3.75-6.11,2.73-11.09,6.61-16.41,10.71,6.84-.07,12.2-2.21,19.23-5.35.65,1,.2,3,.33,4.05-5.57,2.71-12.82,4.22-16.75,7.93,6,1.3,11.27-.52,17.3-1,.23,1.7-1.27,2.6-1.8,3.67-9.5,0-20.19,2-27.78,8.37Z" transform="translate(0 1.18)"/><path class="cls-8" d="M343.23,277.48c-.05.26-.12.5-.16.76a18.85,18.85,0,0,1-2.05,6.51,23.46,23.46,0,0,1-4.85,5.94.29.29,0,0,0,0,.42.3.3,0,0,0,.43,0,21,21,0,0,0,5.3-5.92,12.89,12.89,0,0,0,1.75-7,7.32,7.32,0,0,0-.11-.8.14.14,0,0,0-.28,0Z" transform="translate(0 1.18)"/><path id="path249898-2" class="cls-16" d="M14.69,147c3.56,1.91,6.81,1.88,10-.77,2,.25,3.49.89,5.34-.51,4.47-1.58,5.14-5.41,9.92-6.11,2.42-.59,2.3-2.35,2.1-5.5-5.16,1.83-6.63,4-11.8,2-5.58-7.2-8.74-12.06-12.2-20.52-1.4.69-1.47,1.76-2.05,2.9a28.11,28.11,0,0,1,5.14,11.67c-4-2-7.19-8.13-10.71-12.46-1,.37-1.29,1.32-1.84,2.09,2.87,3.93,4.61,8.18,6.49,12.69-4.29-2.52-6.9-5.81-10.2-10.32-.77.37-1.21,1.81-1.68,2.43,2.54,3.72,6.57,7.3,7.71,11.06C6.7,134.29,4,131.23.38,128.73c-.76,1-.13,2.1-.19,3,6,3.42,12,8.57,14.5,15.32Z" transform="translate(0 1.18)"/><path class="cls-8" d="M21.63,133.4a12.46,12.46,0,0,0-1.91,5.23,10.4,10.4,0,0,0,1,5.51.26.26,0,0,0,.36.14.27.27,0,0,0,.14-.37,10.69,10.69,0,0,1-.86-5.22,13.38,13.38,0,0,1,1.51-5.16.12.12,0,0,0-.05-.18A.13.13,0,0,0,21.63,133.4Z" transform="translate(0 1.18)"/></g></g></g></svg>