<svg xmlns="http://www.w3.org/2000/svg" xmlns:xlink="http://www.w3.org/1999/xlink" viewBox="0 0 331.14 55.23"><defs><style>.cls-1{isolation:isolate;}.cls-2{fill:#fff;}.cls-3,.cls-4,.cls-5{mix-blend-mode:screen;}.cls-3{fill:url(#radial-gradient);}.cls-4{fill:url(#radial-gradient-2);}.cls-5{fill:url(#radial-gradient-3);}</style><radialGradient id="radial-gradient" cx="88.21" cy="58.36" r="19.7" gradientTransform="translate(-79.59 1.47) scale(2.78 0.69)" gradientUnits="userSpaceOnUse"><stop offset="0" stop-color="#fff"/><stop offset="0.14" stop-color="#cec8dd" stop-opacity="0.78"/><stop offset="0.31" stop-color="#998db8" stop-opacity="0.55"/><stop offset="0.48" stop-color="#6d5b99" stop-opacity="0.35"/><stop offset="0.63" stop-color="#4a3481" stop-opacity="0.2"/><stop offset="0.77" stop-color="#311970" stop-opacity="0.09"/><stop offset="0.9" stop-color="#220866" stop-opacity="0.02"/><stop offset="0.99" stop-color="#1d0262" stop-opacity="0"/></radialGradient><radialGradient id="radial-gradient-2" cx="133.25" cy="40.98" r="17.97" gradientTransform="matrix(2.78, 0, 0, 0.69, -87.74, 1.83)" gradientUnits="userSpaceOnUse"><stop offset="0" stop-color="#fff"/><stop offset="0.05" stop-color="#e4e1ec" stop-opacity="0.88"/><stop offset="0.15" stop-color="#b6adcc" stop-opacity="0.68"/><stop offset="0.26" stop-color="#8d7fb0" stop-opacity="0.5"/><stop offset="0.37" stop-color="#6b5998" stop-opacity="0.34"/><stop offset="0.48" stop-color="#4e3984" stop-opacity="0.22"/><stop offset="0.59" stop-color="#392175" stop-opacity="0.12"/><stop offset="0.71" stop-color="#29106a" stop-opacity="0.05"/><stop offset="0.84" stop-color="#200564" stop-opacity="0.01"/><stop offset="0.99" stop-color="#1d0262" stop-opacity="0"/></radialGradient><radialGradient id="radial-gradient-3" cx="38.23" cy="-23.25" r="17.97" gradientTransform="matrix(0, -2.78, -0.69, 0, 37.83, 140.94)" xlink:href="#radial-gradient-2"/></defs><g class="cls-1"><g id="Layer_2" data-name="Layer 2"><g id="OBJECTS"><path class="cls-2" d="M279.32,1.53c3.95.9,7.89,1.9,11.76,3.15,1.93.65,3.85,1.31,5.72,2.13a33.45,33.45,0,0,1,5.44,2.83,12.51,12.51,0,0,1,1.26.9,10.5,10.5,0,0,1,1.19,1,8.52,8.52,0,0,1,1.89,2.56l.28.77a5.62,5.62,0,0,1,.14.82,3.38,3.38,0,0,1,0,.84,4.52,4.52,0,0,1-.13.82,6.94,6.94,0,0,1-1.54,2.85,18.71,18.71,0,0,1-4.93,3.83,47.12,47.12,0,0,1-5.55,2.67,142.34,142.34,0,0,1-23.51,6.67c-8,1.67-16,3-24.06,4.08C231.2,39.72,215,41,198.76,41.9S166.28,43.17,150,43.15s-32.5-.63-48.72-1.65-32.42-2.48-48.5-5c-8-1.24-16-2.7-24-4.61-4-1-7.9-2-11.77-3.33A57,57,0,0,1,5.81,23.62a15.36,15.36,0,0,1-4.73-4.16A6,6,0,0,1,0,16.32a5.62,5.62,0,0,1,1-3.16A14.11,14.11,0,0,1,5.67,9a40.18,40.18,0,0,1,5.52-2.69A128,128,0,0,1,34.69,0C30.74.89,26.8,1.87,22.91,3A95,95,0,0,0,11.47,7,38.67,38.67,0,0,0,6.12,9.78,13.49,13.49,0,0,0,1.83,13.7a4.55,4.55,0,0,0-.73,2.58,4.85,4.85,0,0,0,.95,2.51,14.33,14.33,0,0,0,4.44,3.7,57.3,57.3,0,0,0,11.06,4.63c3.84,1.21,7.75,2.22,11.69,3.11,7.88,1.78,15.87,3.11,23.88,4.22,32.09,4.36,64.53,5.91,96.93,6a779.84,779.84,0,0,0,97-5c8-1,16-2.16,24-3.69a144.35,144.35,0,0,0,23.36-6.23A45.68,45.68,0,0,0,299.86,23a17.66,17.66,0,0,0,4.73-3.48,6,6,0,0,0,1.4-2.41,3.76,3.76,0,0,0,.12-.67,2.59,2.59,0,0,0,0-.68,3.74,3.74,0,0,0-.1-.67l-.22-.66a10.85,10.85,0,0,0-3.94-4.23,33.24,33.24,0,0,0-5.27-2.91c-1.82-.85-3.72-1.56-5.62-2.26C287.14,3.69,283.24,2.56,279.32,1.53Z"/><ellipse class="cls-3" cx="165.22" cy="41.66" rx="54.67" ry="13.57"/><ellipse class="cls-4" cx="282.07" cy="30.05" rx="49.88" ry="12.38" transform="translate(-0.65 53.18) rotate(-10.76)"/><ellipse class="cls-5" cx="53.84" cy="34.83" rx="12.38" ry="49.88" transform="translate(14.25 85.27) rotate(-84.77)"/></g></g></g></svg>