<svg width="141" height="130" viewBox="0 0 141 130" fill="none" xmlns="http://www.w3.org/2000/svg">
<path opacity="0.75" d="M117.98 15.7744L133.855 15.7744L80.2684 113.553L54.0439 113.553L117.98 15.7744Z" fill="url(#paint0_linear)"/>
<path d="M24.2674 49.0968H2.21738V55.7468H12.7174L1.01738 79.0968H24.0674V72.4468H12.7174L24.2674 49.0968ZM47.0189 55.7468V49.0968H28.4189V79.0968H47.0189V72.4468H36.0689V67.3968H45.3189V60.7968H36.0689V55.7468H47.0189ZM61.2502 79.4968C67.0002 79.4968 71.9502 76.1468 71.9502 70.3968C71.9502 58.9968 58.3502 61.8468 58.3502 57.2968C58.3502 55.9968 59.3502 55.3968 60.5502 55.3968C62.0502 55.3968 63.7002 56.2968 65.3002 57.9968L70.3002 53.1468C67.9502 50.3968 64.4002 48.6968 60.6502 48.6968C55.9002 48.6968 50.6502 51.4468 50.6502 57.8468C50.6502 68.2468 64.3002 65.7468 64.3002 70.2968C64.3002 71.4968 63.3002 72.3468 61.3502 72.3468C58.7502 72.3468 56.6502 70.9468 55.6002 68.6968L49.3502 72.5968C51.3502 76.3968 55.7502 79.4968 61.2502 79.4968ZM94.8861 49.0968H72.5861V55.7468H79.9361V79.0968H87.5361V55.7468H94.8861V49.0968Z" fill="#FDFDFD"/>
<path opacity="0.75" d="M76.9684 15.7744L61.0935 15.7744L114.68 113.553L140.904 113.553L76.9684 15.7744Z" fill="url(#paint1_linear)"/>
<defs>
<linearGradient id="paint0_linear" x1="62.8423" y1="17.7189" x2="62.8423" y2="121.424" gradientUnits="userSpaceOnUse">
<stop offset="0.0239582" stop-color="#BD00FF"/>
<stop offset="1" stop-color="#40027D"/>
</linearGradient>
<linearGradient id="paint1_linear" x1="132.106" y1="17.7189" x2="132.106" y2="121.424" gradientUnits="userSpaceOnUse">
<stop offset="0.0760415" stop-color="#00A3FF"/>
<stop offset="0.914583" stop-color="#120082"/>
</linearGradient>
</defs>
</svg>
