<svg width="271" height="319" viewBox="0 0 271 319" fill="none" xmlns="http://www.w3.org/2000/svg">
<g opacity="0.2">
<path opacity="0.2" d="M30.8275 285.038C43.2704 285.038 53.3572 282.006 53.3572 278.265C53.3572 274.524 43.2704 271.492 30.8276 271.492C18.3847 271.492 8.29785 274.524 8.29785 278.265C8.29785 282.006 18.3847 285.038 30.8275 285.038Z" fill="#232323"/>
</g>
<g opacity="0.2">
<path opacity="0.2" d="M145.169 318.385C206.868 318.385 256.884 309.403 256.884 298.325C256.884 287.246 206.868 278.265 145.169 278.265C83.4707 278.265 33.4541 287.246 33.4541 298.325C33.4541 309.403 83.4707 318.385 145.169 318.385Z" fill="#232323"/>
</g>
<path d="M55.9511 175.755C55.9511 175.939 55.9294 176.123 55.8751 176.297L55.8751 176.308C55.6906 176.98 55.1589 177.619 54.3341 178.215C50.5683 180.979 40.66 182.951 29.037 182.951C17.414 182.951 7.50575 180.979 3.7508 178.215C2.69812 177.446 2.13379 176.622 2.13379 175.744C2.13379 171.767 14.18 168.548 29.0479 168.548C43.9157 168.548 55.9511 171.778 55.9511 175.755Z" fill="#C69C6D"/>
<g opacity="0.4">
<g opacity="0.4">
<path opacity="0.4" d="M9.36152 177.283C10.0995 179.19 12.1615 180.187 14.104 180.848C17.3164 181.943 20.6915 182.593 24.0774 182.756C18.738 184.414 12.9862 182.918 7.59257 181.412C5.13991 180.729 2.32913 179.732 1.51519 177.316C0.809785 175.246 2.01441 172.894 3.80506 171.637C5.60657 170.38 7.86388 170 10.0452 169.805C12.2266 169.61 14.4622 169.545 16.5241 168.808C14.5707 169.524 12.5738 170.26 11.0545 171.669C9.53516 173.078 8.6127 175.354 9.36152 177.283Z" fill="white"/>
</g>
</g>
<path d="M29.0371 184.479C17.2838 184.479 7.00657 182.507 2.83923 179.45C1.35244 178.356 0.592773 177.11 0.592773 175.755C0.592773 169.762 15.3304 167.031 29.0371 167.031C42.7329 167.031 57.4813 169.762 57.4813 175.755C57.4813 176.048 57.4379 176.351 57.362 176.633C57.3511 176.665 57.3511 176.687 57.3403 176.719C57.0581 177.706 56.3527 178.627 55.2349 179.45C51.0675 182.507 40.7794 184.479 29.0371 184.479ZM29.0371 170.076C12.6173 170.076 3.65316 173.826 3.65316 175.744C3.65316 176.058 4.02215 176.524 4.65159 176.98C8.2112 179.591 18.2389 181.423 29.0371 181.423C39.8352 181.423 49.8629 179.602 53.4225 176.98C54.1171 176.47 54.3233 176.091 54.3884 175.928C54.3884 175.907 54.3992 175.885 54.4101 175.863C54.4209 175.82 54.4318 175.787 54.4318 175.744C54.4209 173.826 45.4568 170.076 29.0371 170.076Z" fill="#232323"/>
<path d="M55.9404 180.87C55.5714 184.761 43.6662 187.882 29.0371 187.882C14.1801 187.882 2.12305 184.652 2.12305 180.686L2.12305 175.755C2.12305 176.622 2.69823 177.456 3.74006 178.226C7.50586 180.989 17.4033 182.962 29.0263 182.962C40.6493 182.962 50.5576 180.989 54.3234 178.226C55.1481 177.619 55.6799 176.98 55.8644 176.318L55.9295 180.469L55.9404 180.87Z" fill="#C69C6D"/>
<g opacity="0.3">
<path opacity="0.3" d="M55.9404 180.87C55.5714 184.761 43.6662 187.882 29.0371 187.882C14.1801 187.882 2.12305 184.652 2.12305 180.686L2.12305 175.755C2.12305 176.622 2.69823 177.456 3.74006 178.226C7.50586 180.989 17.4033 182.962 29.0263 182.962C40.6493 182.962 50.5576 180.989 54.3234 178.226C55.1481 177.619 55.6799 176.98 55.8644 176.318L55.9295 180.469L55.9404 180.87Z" fill="#232323"/>
</g>
<g opacity="0.3">
<path opacity="0.3" d="M45.4891 170.055L41.4195 170.055C41.4195 170.055 27.9081 172.569 20.2246 170.055L20.2246 172.287C20.2246 172.287 21.5703 179.938 41.083 176.492C41.083 176.492 40.4753 180.437 27.4523 182.94L50.4161 180.935L54.7137 173.598C54.7137 173.588 50.1882 169.946 45.4891 170.055Z" fill="#232323"/>
</g>
<path d="M29.0371 189.41C15.3413 189.41 0.592772 186.679 0.592773 180.686L0.592773 175.755C0.592773 174.91 1.27648 174.227 2.12297 174.227C2.96946 174.227 3.65317 174.91 3.65317 175.755C3.65317 176.069 4.02215 176.535 4.65159 176.99C8.2112 179.602 18.2389 181.434 29.0371 181.434C39.8352 181.434 49.8629 179.613 53.4225 176.99C54.1822 176.438 54.3558 176.037 54.3992 175.896C54.6054 175.17 55.3109 174.693 56.0705 174.79C56.8193 174.888 57.3945 175.527 57.4054 176.286L57.4705 180.859C57.4705 180.914 57.4705 180.968 57.4596 181.022C56.917 186.776 42.3422 189.41 29.0371 189.41ZM3.65317 179.982L3.65317 180.675C3.65316 182.604 12.6064 186.354 29.0371 186.354C45.1964 186.354 54.0628 182.756 54.4101 180.783L54.3992 180.003C49.8087 182.745 40.0632 184.479 29.0371 184.479C17.9893 184.479 8.24375 182.734 3.65317 179.982Z" fill="#232323"/>
<path d="M20.2246 148.716L20.2246 172.276C25.2493 174.931 34.0289 175.712 41.4194 172.276L41.4194 148.716C34.2568 147.253 27.1919 147.275 20.2246 148.716Z" fill="#FBB03B"/>
<g opacity="0.4">
<g opacity="0.4">
<path opacity="0.4" d="M30.817 147.665L29.0264 147.665L29.0264 175.755L30.817 175.755L30.817 147.665Z" fill="white"/>
</g>
</g>
<g opacity="0.3">
<path opacity="0.3" d="M38.0771 148.142L38.0771 173.533L41.4197 172.287L41.4197 148.716L38.0771 148.142Z" fill="#232323"/>
</g>
<g opacity="0.3">
<path opacity="0.3" d="M23.5346 148.142L23.5346 173.533L20.2246 172.287L20.2246 148.716L23.5346 148.142Z" fill="#232323"/>
</g>
<path d="M30.6873 176.113C26.2812 176.113 22.2875 175.105 19.5092 173.631C19.01 173.371 18.6953 172.851 18.6953 172.276L18.6953 148.716C18.6953 147.99 19.2054 147.372 19.9108 147.22C27.0951 145.725 34.4422 145.725 41.7242 147.22C42.4405 147.361 42.9505 147.99 42.9505 148.716L42.9505 172.276C42.9505 172.872 42.6033 173.414 42.0606 173.663C38.3165 175.408 34.3662 176.113 30.6873 176.113ZM21.7557 171.333C26.2486 173.349 33.5306 173.902 39.8901 171.29L39.8902 149.984C33.8345 148.889 27.7354 148.889 21.7557 149.984L21.7557 171.333V171.333Z" fill="#232323"/>
<path d="M21.5702 282.242C20.0834 282.242 19.4431 280.844 18.3904 276.91C17.7067 274.342 16.8602 270.592 15.8835 265.748C14.2448 257.62 12.2045 246.306 9.80613 232.098C5.7256 207.92 2.00321 183.439 1.9598 183.189C1.82957 182.355 2.40475 181.575 3.24039 181.445C4.07603 181.315 4.85741 181.889 4.97679 182.723C9.80613 214.477 17.9455 263.981 21.4508 276.715C24.1748 264.307 29.1778 217.663 31.9994 187.741C32.0754 186.896 32.8242 186.289 33.6707 186.365C34.5063 186.441 35.1249 187.188 35.0489 188.034C35.0272 188.261 32.8242 211.518 30.2521 234.471C28.7437 247.964 27.4088 258.714 26.2801 266.431C25.6073 271.036 24.9996 274.613 24.4678 277.051C23.7081 280.714 23.1329 282.242 21.5702 282.242Z" fill="#232323"/>
<path d="M33.8772 277.3C32.3796 277.3 31.7176 275.772 30.8168 272.359C30.1982 270.029 29.4603 266.626 28.6246 262.237C27.2138 254.878 25.4883 244.637 23.4914 231.773C20.0946 209.892 17.0451 187.741 17.0125 187.513C16.8931 186.679 17.4792 185.91 18.3148 185.79C19.1504 185.682 19.921 186.256 20.0403 187.102C23.9472 215.528 30.6106 259.798 33.7904 271.762C36.4058 259.668 40.9856 215.181 43.5468 186.625C43.6227 185.779 44.3607 185.162 45.2072 185.238C46.0537 185.313 46.6723 186.05 46.5963 186.896C46.5746 187.123 44.5669 209.416 42.2011 231.426C40.8119 244.366 39.5639 254.672 38.5004 262.074C37.8601 266.496 37.2849 269.92 36.7857 272.261C36.0151 275.74 35.4291 277.3 33.8772 277.3Z" fill="#232323"/>
<path d="M87.9991 109.442C82.1714 156.28 45.273 173.154 35.6469 211.084C26.9975 245.124 46.0218 283.922 78.4924 298.455C95.4873 306.062 114.653 307.341 133.319 307.265C169.425 307.125 208.375 301.012 233.834 275.826C259.728 250.218 265.426 211.323 267.629 175.256C269.083 151.404 269.572 127.204 264.243 103.893C260.325 86.7483 253.271 70.3298 243.754 55.4611C228.159 31.0989 204.533 10.2588 175.882 4.41746C147.232 -1.42384 113.22 1.12292 92.8936 35.8131C80.6412 56.7182 90.9727 85.4804 87.9991 109.442Z" fill="#918DEB"/>
<g opacity="0.4">
<g opacity="0.4">
<path opacity="0.4" d="M55.4086 191.881C44.6213 207.302 33.682 210.629 40.8338 196.064C47.9855 181.499 58.3062 168.787 67.4983 155.413C76.6903 142.04 84.9707 127.453 87.1304 111.382C89.5505 93.3591 84.0917 74.9682 86.5009 56.9458C88.5412 41.6869 96.4309 27.2733 108.195 17.3139C119.97 7.36522 135.489 1.95742 150.899 2.4451C131.756 7.41941 110.832 13.64 100.164 30.2752C89.952 46.1952 92.3178 66.721 94.2604 85.5237C96.0185 102.506 97.0604 120.171 91.1349 136.188C87.521 145.952 81.4871 154.601 75.5291 163.13C68.8114 172.71 62.1154 182.29 55.4086 191.881Z" fill="white"/>
</g>
</g>
<g opacity="0.2">
<path opacity="0.2" d="M207.321 122.11C203.957 115.771 200.376 109.171 194.32 105.107C186.159 99.6231 175.187 99.9373 165.583 102.419C149.5 106.581 135.033 116.345 125.44 129.512C122.227 133.912 119.492 138.735 115.39 142.387C109.921 147.253 102.606 149.54 96.0837 152.975C89.5614 156.4 83.2344 161.927 82.8003 169.101C82.5399 173.414 84.4716 177.63 84.2871 181.954C84.0267 188.315 79.2841 193.647 74.216 197.711C69.1588 201.775 63.407 205.276 59.728 210.564C56.0599 215.842 55.2025 223.753 59.9993 228.11C63.9822 231.73 70.0921 231.621 75.5509 231.502C81.0097 231.394 87.2824 231.87 90.5707 236.097C93.0776 239.316 93.2078 244.052 96.355 246.696C99.5782 249.394 104.711 248.636 108.228 246.306C111.744 243.976 114.153 240.421 116.931 237.289C119.71 234.157 123.28 231.242 127.534 230.971C137.735 230.332 143.292 244.366 153.461 245.33C158.04 245.764 162.425 243.325 165.843 240.334C169.262 237.343 172.083 233.724 175.697 230.971C181.178 226.799 188.091 224.87 194.863 223.276C201.646 221.694 208.602 220.307 214.669 216.98C220.735 213.653 225.879 207.909 226.357 201.179C227.095 190.57 216.622 182.246 214.625 171.799C213.193 164.311 216.286 156.714 216.351 149.095C216.448 139.548 211.825 130.618 207.321 122.11Z" fill="#232323"/>
</g>
<path d="M131.789 309.01C114.729 309.01 95.1725 307.829 77.7651 300.048C61.6927 292.852 48.3116 279.652 40.0746 262.854C31.8376 246.057 29.6671 227.525 33.9429 210.662C38.3273 193.42 47.9752 180.762 58.1982 167.367C70.4398 151.328 83.0829 134.736 86.2626 109.236L87.999 109.452L86.2626 109.236C87.3479 100.533 86.6099 90.9099 85.9045 81.6115C84.6673 65.3664 83.3976 48.5686 91.385 34.9353C100.881 18.7335 114.132 8.08049 130.758 3.24706C143.911 -0.567663 159.202 -0.751895 176.197 2.71604C190.077 5.54457 203.393 11.9061 215.765 21.6271C226.78 30.2861 236.96 41.6653 245.197 54.5291C255.018 69.8856 261.996 86.3582 265.914 103.514C271.33 127.193 270.765 152.043 269.344 175.376C267.173 211.041 261.4 251.009 235.039 277.073C213.486 298.39 180.212 308.837 133.297 309.021C132.809 309.01 132.299 309.01 131.789 309.01ZM152.918 3.68056C126.894 3.68055 107.273 14.7237 94.402 36.6909C86.9681 49.3814 88.1944 65.6265 89.3882 81.3297C90.1044 90.8015 90.8532 100.598 89.7246 109.648C86.4363 136.091 73.4893 153.051 60.9764 169.469C50.9813 182.572 41.5397 194.959 37.3289 211.507C28.9508 244.485 47.7256 282.773 79.1868 296.851C96.5073 304.6 116.259 305.586 133.286 305.51C179.236 305.326 211.717 295.214 232.575 274.58C258.1 249.34 263.722 210.153 265.849 175.148C267.249 152.076 267.824 127.529 262.496 104.272C258.665 87.5178 251.849 71.4028 242.234 56.3931C232.152 40.6466 210.078 13.174 175.481 6.11895C167.515 4.49335 159.983 3.68056 152.918 3.68056Z" fill="#232323"/>
<g opacity="0.2">
<path opacity="0.2" d="M183.706 6.42241C183.706 6.42241 259.239 58.2788 252.12 96.4369C246.878 124.549 254.052 125.828 254.052 165.893C254.052 205.959 259.467 241.732 226.389 260.936C193.31 280.14 192.605 276.347 155.75 281.148C118.906 285.949 101.238 301.337 70.9489 280.725C39.2055 259.115 35.2877 215.484 40.0628 198.535C40.0628 198.535 21.809 234.97 45.0766 269.227C68.3443 303.483 114.782 314.819 163.119 305.553C211.456 296.287 239.574 280.14 251.295 251.334C263.016 222.529 272.392 167.865 268.474 139.558C264.557 111.251 261.388 77.1032 249.255 64.9871C249.244 64.9871 230.925 24.4448 183.706 6.42241Z" fill="#232323"/>
</g>
<path d="M219.529 141.574C217.218 142.485 214.96 143.514 212.736 144.598C210.522 145.692 208.34 146.841 206.224 148.098C204.119 149.366 202.068 150.699 200.147 152.151C198.237 153.625 196.446 155.208 194.916 156.931L194.894 156.952C194.167 157.765 192.919 157.841 192.105 157.115C191.291 156.389 191.215 155.142 191.942 154.341C191.997 154.276 192.062 154.21 192.127 154.156C194.145 152.411 196.305 150.981 198.519 149.691C200.744 148.423 203.023 147.34 205.334 146.343C207.646 145.356 209.99 144.489 212.356 143.687C214.733 142.896 217.12 142.181 219.529 141.574Z" fill="#232323"/>
<path d="M64.1768 213.664C66.9224 213.209 69.7007 212.959 72.4897 212.818C75.2788 212.688 78.0896 212.699 80.9004 212.862C83.7112 213.014 86.522 213.404 89.3327 213.935C92.1327 214.487 94.9 215.344 97.6349 216.416C98.6441 216.817 99.1434 217.955 98.7418 218.974C98.3403 219.982 97.2008 220.48 96.1806 220.079C96.1047 220.047 96.0396 220.014 95.9744 219.982L95.9093 219.949C93.5869 218.714 91.1451 217.619 88.5731 216.785C86.001 215.972 83.353 215.279 80.6616 214.813C77.9594 214.336 75.2245 214 72.468 213.805C69.7224 213.61 66.955 213.534 64.1768 213.664Z" fill="#232323"/>
<path d="M218.217 188.055C215.135 187.817 212.042 187.99 209.003 188.402C208.244 188.521 207.484 188.619 206.735 188.76L204.489 189.215L202.275 189.789C201.537 189.963 200.821 190.244 200.104 190.461L199.019 190.808L197.966 191.22C197.261 191.502 196.556 191.751 195.872 192.065C194.515 192.715 193.137 193.322 191.846 194.103C189.208 195.522 186.821 197.343 184.52 199.196L184.423 199.272C183.576 199.955 182.339 199.825 181.644 198.979C180.961 198.134 181.091 196.899 181.937 196.205C181.992 196.162 182.057 196.107 182.122 196.075L184.162 194.785C184.846 194.363 185.508 193.907 186.235 193.561L188.362 192.444C188.709 192.249 189.078 192.087 189.447 191.935L190.543 191.458C191.987 190.786 193.506 190.299 195.004 189.768C195.752 189.518 196.534 189.334 197.283 189.117L198.422 188.803L199.583 188.554C200.354 188.402 201.124 188.207 201.906 188.099L204.239 187.752L206.583 187.524C207.365 187.459 208.146 187.448 208.927 187.405C212.053 187.329 215.178 187.492 218.217 188.055Z" fill="#232323"/>
<path d="M200.636 226.669C198.075 225.216 195.351 224.024 192.583 223.027C189.816 222.03 186.973 221.261 184.097 220.719C182.664 220.415 181.221 220.253 179.777 220.069C179.05 220.004 178.334 219.96 177.607 219.906L176.522 219.83L175.436 219.83C174.72 219.83 173.993 219.819 173.277 219.83L171.128 219.982C170.77 220.015 170.412 220.025 170.064 220.069L169.001 220.231L166.895 220.546L166.744 220.567C165.669 220.73 164.66 219.993 164.497 218.909C164.334 217.836 165.072 216.828 166.158 216.666C166.223 216.655 166.288 216.655 166.342 216.644L168.675 216.514L169.837 216.449C170.227 216.438 170.607 216.46 170.998 216.471L173.32 216.525C174.091 216.579 174.861 216.666 175.621 216.742L176.771 216.85L177.911 217.034C178.67 217.164 179.419 217.273 180.179 217.424C181.666 217.771 183.163 218.075 184.618 218.541C187.537 219.397 190.369 220.459 193.104 221.748C195.828 223.038 198.454 224.501 200.918 226.224C201.037 226.3 201.059 226.463 200.983 226.582C200.907 226.69 200.766 226.723 200.647 226.658L200.636 226.669Z" fill="#232323"/>
<path d="M154.393 228.728C154.165 229.064 153.905 229.497 153.677 229.909C153.438 230.321 153.21 230.754 152.993 231.188C152.548 232.055 152.147 232.943 151.767 233.843C151.018 235.653 150.4 237.527 149.944 239.446C149.466 241.364 149.217 243.336 149.141 245.33L149.119 246.837C149.141 247.335 149.184 247.834 149.217 248.343L149.271 249.102L149.39 249.849L149.629 251.356L149.152 249.904L148.913 249.178L148.739 248.43C148.62 247.931 148.5 247.433 148.392 246.923L148.164 245.395C147.914 243.347 147.838 241.256 148.012 239.175C148.164 237.094 148.49 235.013 148.978 232.965C149.228 231.946 149.499 230.917 149.835 229.909C149.998 229.4 150.172 228.901 150.356 228.392C150.552 227.882 150.725 227.405 150.986 226.842C151.431 225.845 152.603 225.411 153.601 225.856C154.589 226.3 155.034 227.47 154.589 228.468C154.502 228.543 154.448 228.641 154.393 228.728Z" fill="#232323"/>
<path d="M115.607 230.754C115.552 230.754 115.444 230.787 115.346 230.808C115.248 230.83 115.14 230.863 115.031 230.884C114.825 230.939 114.608 230.993 114.391 231.058C113.957 231.177 113.534 231.339 113.1 231.48C112.242 231.805 111.385 232.163 110.549 232.575C108.878 233.399 107.25 234.374 105.731 235.523C105.34 235.794 104.982 236.108 104.613 236.411C104.244 236.715 103.864 237.007 103.517 237.343L102.453 238.319C102.117 238.655 101.791 239.012 101.455 239.359C100.76 240.042 100.185 240.811 99.5557 241.559C98.948 242.318 98.4054 243.13 97.8193 243.922C98.2643 243.055 98.6658 242.144 99.1433 241.288C99.6425 240.443 100.109 239.565 100.684 238.752C100.967 238.34 101.238 237.929 101.531 237.517L102.442 236.335C102.735 235.934 103.072 235.555 103.408 235.187C103.745 234.818 104.059 234.417 104.418 234.07C105.807 232.607 107.348 231.274 109.019 230.072C109.844 229.465 110.723 228.912 111.624 228.392C112.079 228.142 112.535 227.882 113.013 227.655C113.252 227.536 113.49 227.416 113.74 227.308C113.87 227.254 113.989 227.2 114.12 227.145C114.261 227.091 114.369 227.037 114.554 226.983L114.814 226.896C115.856 226.549 116.996 227.102 117.343 228.153C117.69 229.205 117.137 230.332 116.084 230.678C115.943 230.711 115.769 230.743 115.607 230.754Z" fill="#232323"/>
<path d="M166.874 18.7335C166.874 18.7335 153.308 1.26382 122.618 17.5197C91.9268 33.7757 94.3035 53.5971 94.3035 61.1507C94.3035 68.7042 96.7778 87.9079 96.7778 94.8871C96.7778 101.866 102.638 114.308 102.638 114.308C102.638 114.308 103.951 124.191 97.8305 128.418C97.8305 128.418 112.058 150.233 165.333 140.924C202.492 134.432 209.481 119.77 209.481 119.77C209.481 119.77 202.394 107.816 204.412 96.4477C206.42 85.0794 210.794 75.0441 205.769 54.9626C200.744 34.8811 189.382 11.7543 166.874 18.7335Z" fill="#262E3A"/>
<path d="M207.614 83.6381C208.168 89.6202 206.442 93.565 203.903 96.1768C198.878 101.335 190.695 101.27 190.695 101.27C185.508 112.714 176.218 119.737 160.971 124.549C160.602 124.668 160.233 124.776 159.864 124.885C156.152 126.001 152.093 126.911 147.655 127.616C143.281 128.309 139.114 128.526 135.185 128.353C132.092 128.223 129.151 127.843 126.373 127.258C115.184 124.928 106.632 119.304 101.89 112.888C101.271 112.053 100.729 111.219 100.24 110.374C98.5146 107.339 97.4403 103.795 96.7891 98.4526C96.138 93.099 95.9101 87.2469 95.8558 82.2292C95.8449 81.243 95.8449 80.2785 95.8558 79.379C95.8666 76.6263 95.9318 74.2963 95.986 72.6815C95.986 72.6815 95.9752 72.6815 95.9643 72.6815C95.9752 72.5298 95.9752 72.3781 95.986 72.2372C148.642 62.4186 164.704 34.4476 164.704 34.4476C164.704 34.4476 168.111 67.0787 178.031 73.9387C190.815 82.7711 195.297 72.6274 195.297 72.6274C195.297 72.6274 203.664 72.2589 206.659 79.509C207.126 80.6795 207.462 82.045 207.614 83.6381Z" fill="#F9C4B2"/>
<path d="M190.261 164.603C190.304 164.918 191.889 178.161 181.861 186.159C178.128 189.15 172.778 191.404 165.127 191.989L164.79 192.022L163.423 175.766C169.641 174.032 170.813 171.691 170.813 171.691L170.813 167.291C179.181 168.505 186.321 166.283 190.261 164.603Z" fill="#F9C4B2"/>
<path d="M175.61 204.636C177.206 208.906 175.676 213.469 175.61 213.653C173.049 215.441 170.054 216.655 167.145 217.446C163.336 218.486 159.668 218.812 157.248 218.812C157.248 218.812 152.202 222.225 143.975 225.13C136.509 227.774 126.416 229.985 115.086 228.847C115.086 228.847 103.897 229.876 95.834 216.568C101.38 219.278 107.913 220.957 113.871 222.084C121.424 219.928 126.492 217.89 131.473 211.388C132.255 210.358 133.145 209.351 134.078 208.386C139.483 202.794 146.548 198.513 146.548 198.513L165.333 198.513L164.986 194.363C165.225 194.471 172.941 197.484 175.61 204.636Z" fill="#F9C4B2"/>
<path d="M167.155 217.446C167.155 217.446 167.047 217.869 166.645 218.595C165.788 220.145 163.617 223.06 158.387 226.04C150.725 230.408 143.985 225.141 143.985 225.141C152.222 222.236 157.258 218.822 157.258 218.822C159.678 218.822 163.346 218.497 167.155 217.446Z" fill="#F9C4B2"/>
<path d="M159.852 124.885C159.852 124.885 157.476 134.161 147.643 136.123C137.811 138.085 135.174 128.353 135.174 128.353C139.102 128.526 143.27 128.309 147.643 127.616C152.082 126.911 156.141 126.001 159.852 124.885Z" fill="#F9C4B2"/>
<path d="M126.362 198.524C126.362 198.524 128.945 203.108 130.214 207.248C126.351 205.948 120.165 203.314 114.587 198.524L126.362 198.524Z" fill="#F9C4B2"/>
<path d="M134.023 208.343C134.023 208.343 132.536 208.039 130.214 207.248C126.35 205.948 120.165 203.314 114.586 198.524C113.87 197.906 113.154 197.256 112.459 196.563C104.266 188.381 85.5344 189.713 83.0275 198.524C82.691 199.705 82.6476 201.017 82.9623 202.447C84.3623 208.982 89.4521 213.458 95.8334 216.568C101.379 219.278 107.912 220.957 113.87 222.084C121.423 219.928 126.492 217.89 131.473 211.388C132.254 210.359 133.144 209.351 134.077 208.386L134.023 208.343Z" fill="#F9C4B2"/>
<path d="M95.8442 79.3682C95.8442 80.2785 95.8442 81.2322 95.8442 82.2184C95.8768 87.3227 96.1047 93.3591 96.7775 98.8753C90.1467 98.3334 84.9375 92.6547 84.9375 85.7188C84.9375 79.0864 89.7234 73.5811 95.9636 72.6599C95.9093 74.3613 95.8442 76.6805 95.8442 79.3682Z" fill="#F9C4B2"/>
<path d="M181.861 186.148C181.861 186.148 185.67 198.091 181.08 207.465C179.81 210.055 177.878 212.082 175.621 213.653C175.686 213.469 177.216 208.906 175.621 204.636C172.951 197.484 165.235 194.471 164.996 194.384L164.79 192.011L165.126 191.978C172.777 191.393 178.117 189.139 181.861 186.148Z" fill="#EFC03C"/>
<path d="M163.477 75.3042C168.307 75.3042 172.214 80.582 172.214 87.0843C172.214 93.5975 168.307 98.8644 163.477 98.8644C158.648 98.8644 154.741 93.5975 154.741 87.0843C154.73 80.5711 158.648 75.3042 163.477 75.3042Z" fill="#232323"/>
<path d="M160.959 81.1563C162.348 81.1563 163.477 82.8361 163.477 84.9169C163.477 86.9868 162.359 88.6665 160.959 88.6665C159.57 88.6665 158.441 86.9868 158.441 84.9169C158.452 82.8361 159.581 81.1563 160.959 81.1563Z" fill="white"/>
<path d="M126.362 198.524L146.548 198.524C146.548 198.524 139.472 202.805 134.078 208.397L134.013 208.343C134.013 208.343 132.527 208.039 130.204 207.248C128.956 203.119 126.362 198.524 126.362 198.524Z" fill="#EFC03C"/>
<path d="M187.417 140.49C186.614 138.789 185.616 137.261 184.498 135.895C176.348 126.001 161.328 124.592 160.97 124.549C160.601 124.668 160.232 124.776 159.863 124.885C159.863 124.885 157.486 134.151 147.654 136.112C137.822 138.074 135.185 128.342 135.185 128.342C132.092 128.212 129.151 127.833 126.372 127.247C126.372 127.247 119.221 130.585 115.78 139.537C115.976 139.602 116.182 139.656 116.388 139.721C114.901 142.073 113.089 145.747 111.374 151.371C107.457 164.246 108.867 178.258 108.867 178.258C108.867 178.258 146.851 183.298 163.423 175.733C169.641 173.999 170.813 171.659 170.813 171.659L170.813 167.259C179.191 168.483 186.321 166.251 190.261 164.571C192.345 163.682 193.538 162.934 193.538 162.934C193.538 162.934 192.876 152.054 187.417 140.49Z" fill="#8CC63F"/>
<path d="M101.26 80.1918C101.456 80.8203 101.868 81.3405 102.335 81.7198C102.801 82.0992 103.355 82.3376 103.919 82.4893C104.473 82.6519 105.08 82.6844 105.666 82.706C105.97 82.6952 106.263 82.6844 106.556 82.6627L107.446 82.5543L107.5 82.5435C108.358 82.4459 109.139 83.0528 109.237 83.909C109.334 84.7651 108.727 85.5454 107.869 85.643C107.663 85.6646 107.468 85.6538 107.272 85.5996L106.209 85.307C105.851 85.1986 105.504 85.0577 105.167 84.9385C104.483 84.6351 103.811 84.31 103.214 83.8548C102.617 83.4105 102.085 82.8578 101.727 82.2184C101.38 81.579 101.173 80.8745 101.239 80.1918C101.239 80.1809 101.249 80.1701 101.26 80.1701C101.249 80.1701 101.26 80.1809 101.26 80.1918Z" fill="#232323"/>
<path d="M173.493 74.9248C173.71 75.5642 173.7 76.3012 173.515 77.0056C173.331 77.71 172.94 78.3819 172.473 78.9563C172.007 79.5524 171.431 80.0292 170.845 80.4844C170.541 80.6903 170.238 80.907 169.923 81.1021L168.957 81.644C168.208 82.0666 167.253 81.7957 166.83 81.0479C166.407 80.3001 166.678 79.3465 167.427 78.9238C167.6 78.8263 167.796 78.7612 167.991 78.7396L168.056 78.7287L168.946 78.6095C169.239 78.5553 169.521 78.4903 169.825 78.4253C170.39 78.2627 170.965 78.0893 171.464 77.7967C171.974 77.515 172.451 77.1573 172.82 76.6696C173.179 76.1928 173.45 75.5859 173.482 74.9357C173.482 74.9248 173.493 74.914 173.504 74.914C173.482 74.914 173.493 74.9248 173.493 74.9248Z" fill="#232323"/>
<path d="M113.871 75.3042C118.7 75.3042 122.607 80.582 122.607 87.0843C122.607 93.5975 118.7 98.8644 113.871 98.8644C109.042 98.8644 105.135 93.5975 105.135 87.0843C105.135 80.5711 109.053 75.3042 113.871 75.3042Z" fill="#232323"/>
<path d="M111.364 81.1563C112.754 81.1563 113.871 82.8361 113.871 84.9169C113.871 86.9868 112.754 88.6665 111.364 88.6665C109.975 88.6665 108.847 86.9868 108.847 84.9169C108.858 82.8361 109.975 81.1563 111.364 81.1563Z" fill="white"/>
<path d="M165.333 198.524L75.7569 198.524L70.9492 141.574L160.525 141.574L165.333 198.524Z" fill="#CCCCCC"/>
<path d="M177.748 172.254C176.576 172.103 175.393 172.114 174.254 172.233C173.689 172.287 173.125 172.385 172.582 172.515C172.04 172.634 171.519 172.807 171.02 172.981C170.325 173.23 169.565 172.872 169.316 172.179C169.066 171.485 169.424 170.726 170.119 170.477C170.271 170.423 170.444 170.401 170.596 170.401C171.247 170.412 171.899 170.445 172.528 170.542C173.158 170.629 173.765 170.759 174.373 170.911C175.567 171.225 176.706 171.658 177.77 172.222C177.781 172.222 177.781 172.233 177.781 172.244C177.759 172.244 177.748 172.254 177.748 172.254Z" fill="#232323"/>
<path d="M160.395 212.851C160.33 214.011 160.146 215.181 159.864 216.362C159.56 217.533 159.136 218.725 158.355 219.895L158.29 220.004C157.802 220.73 156.814 220.925 156.087 220.437C155.36 219.949 155.164 218.963 155.653 218.237C155.794 218.031 155.989 217.858 156.195 217.739C156.998 217.284 157.802 216.536 158.507 215.68C159.191 214.823 159.842 213.87 160.395 212.851Z" fill="#232323"/>
<g opacity="0.5">
<path opacity="0.5" d="M39.2383 92.7522C36.2864 94.1285 35.3097 98.0408 36.0802 101.205C36.8507 104.37 38.9236 107.025 40.7034 109.767C42.4832 112.498 44.0459 115.641 43.6335 118.881C43.2428 121.915 41.1592 124.451 39.0104 126.64C36.8616 128.83 34.4958 130.932 33.2369 133.728C31.9888 136.524 32.2276 140.285 34.702 142.094C31.6307 143.135 28.5703 139.699 28.6137 136.459C28.6571 133.219 30.6431 130.39 32.4338 127.692C34.2245 124.993 35.95 121.883 35.3857 118.697C34.9082 116.031 32.9222 113.928 31.6958 111.522C29.9594 108.119 29.7749 103.969 31.1966 100.425C32.6183 96.8704 35.6353 93.9985 39.2383 92.7522Z" fill="white"/>
</g>
<g opacity="0.5">
<path opacity="0.5" d="M24.0233 117.147C26.0202 116.822 27.9193 118.502 28.4728 120.441C29.0263 122.381 29.124 124.798 27.8325 126.359C25.7597 128.873 26.2372 130.097 25.9442 132.102C24.0233 132.178 22.7102 129.978 22.8078 128.06C22.9055 126.142 23.9148 124.408 24.5551 122.598C25.1845 120.767 25.3582 118.523 24.0233 117.147Z" fill="white"/>
</g>
<path d="M118.016 164.311L118.364 165.026C118.635 165.568 119.145 165.936 119.742 166.023L120.534 166.142C122.032 166.359 122.629 168.201 121.543 169.253L120.979 169.805C120.545 170.228 120.35 170.824 120.458 171.42L120.588 172.2C120.849 173.685 119.275 174.823 117.94 174.119L117.235 173.75C116.703 173.468 116.063 173.468 115.531 173.75L114.826 174.119C113.491 174.823 111.917 173.685 112.178 172.2L112.308 171.42C112.406 170.824 112.21 170.228 111.787 169.805L111.223 169.253C110.138 168.201 110.734 166.359 112.232 166.142L113.024 166.023C113.621 165.936 114.131 165.568 114.403 165.026L114.75 164.311C115.412 162.956 117.344 162.956 118.016 164.311Z" fill="white"/>
<g opacity="0.3">
<path opacity="0.3" d="M165.333 23.5344C165.333 23.5344 178.215 22.0714 184.488 28.3354C195.894 39.7253 203.371 62.9171 202.015 74.9357L206.638 79.5199C206.638 79.5199 210.555 58.3872 201.982 42.9223C193.409 27.4575 191.477 18.4734 177.738 17.7148C167.96 17.1729 167.081 18.5276 167.081 18.5276C167.081 18.5276 160.092 6.10808 137.367 12.3178C114.641 18.5276 102.943 27.6309 96.7783 43.0415C96.7783 43.0415 113.871 20.7059 143.27 16.9887C164.183 14.3553 165.333 23.5344 165.333 23.5344Z" fill="#2A2433"/>
</g>
<g opacity="0.3">
<path opacity="0.3" d="M196.99 100.327C196.99 100.327 195.785 121.287 179.485 131.29C179.485 131.29 168.806 122.739 159.853 124.896C159.853 124.896 180.418 119.65 190.695 101.27L196.99 100.327Z" fill="#2A2433"/>
</g>
<g opacity="0.3">
<path opacity="0.3" d="M102.639 114.308C102.639 114.308 105.862 131.105 116.378 138.962C116.378 138.962 118.201 131.29 126.373 127.269C126.362 127.269 108.976 122.165 102.639 114.308Z" fill="#2A2433"/>
</g>
<g opacity="0.3">
<path opacity="0.3" d="M145.039 127.973C145.039 127.973 150.509 129.534 157.595 129.534L158.572 127.865C158.572 127.865 169.663 128.494 180.418 137.716C185.866 142.398 189.762 164.798 189.762 164.798L194.298 162.187C194.298 162.187 192.117 140.328 182.545 133.782C172.973 127.236 159.864 124.885 159.864 124.885L145.039 127.973Z" fill="#232323"/>
</g>
<g opacity="0.3">
<path opacity="0.3" d="M186.169 166.435C186.169 166.435 185.225 186.376 164.779 187.73L165.474 191.957C170.705 191.978 183.413 187.08 186.94 180.274C192.865 168.852 189.751 164.809 189.751 164.809L186.169 166.435Z" fill="#232323"/>
</g>
<g opacity="0.3">
<path opacity="0.3" d="M184.488 77.5583C184.488 77.5583 195.264 104.316 165.333 122.945C165.333 122.945 183.912 116.367 190.684 101.259C190.684 101.259 207.94 100.111 207.506 88.6557C207.072 77.2007 204.89 73.4943 195.275 72.6274C195.275 72.6274 192.714 78.7829 184.488 77.5583Z" fill="#232323"/>
</g>
<g opacity="0.3">
<path opacity="0.3" d="M143.986 225.141L157.259 218.822C157.259 218.822 162.88 220.654 167.525 218.183C167.525 218.183 159.006 227.774 152.668 227.774C146.33 227.774 143.986 225.141 143.986 225.141Z" fill="#232323"/>
</g>
<g opacity="0.3">
<path opacity="0.3" d="M114.587 198.524C114.587 198.524 128.478 208.289 134.013 208.343C134.013 208.343 141.089 200.702 146.547 198.524C152.006 196.346 145.039 198.524 145.039 198.524L114.587 198.524Z" fill="#232323"/>
</g>
<g opacity="0.3">
<path opacity="0.3" d="M82.973 202.458C82.973 202.458 109.844 202.751 121.651 204.019L113.609 197.657L82.1699 197.657L82.973 202.458Z" fill="#232323"/>
</g>
<g opacity="0.3">
<path opacity="0.3" d="M181.927 186.375C181.927 186.375 175.165 191.393 169.663 191.393C169.663 191.393 169.663 193.366 169.023 196.519L164.975 194.373L165.116 198.524L142.825 198.091L135.717 207.031L141.957 201.797C141.957 201.797 166.299 195.078 158.822 217.446C158.8 217.522 157.313 218.757 157.259 218.812C157.259 218.812 180.624 220.73 183.337 198.524C184.488 189.15 181.927 186.375 181.927 186.375Z" fill="#232323"/>
</g>
<g opacity="0.3">
<path opacity="0.3" d="M87.0762 210.315C87.0762 210.315 108.336 219.689 115.086 217.457C121.837 215.214 130.301 212.851 130.301 212.851C130.301 212.851 122.488 222.106 113.871 222.106C105.254 222.106 87.0762 210.315 87.0762 210.315Z" fill="#232323"/>
</g>
<g opacity="0.3">
<path opacity="0.3" d="M113.871 222.095C113.871 222.095 115.531 228.652 129.292 228.652C129.292 228.652 115.965 231.35 106.459 226.831C96.9518 222.312 95.834 216.579 95.834 216.579L113.871 222.095Z" fill="#232323"/>
</g>
<g opacity="0.3">
<path opacity="0.3" d="M95.9745 72.2372L96.7775 98.8861C96.7775 98.8861 84.9375 97.8241 84.9375 87.0843C84.9375 76.3445 93.5544 72.7032 95.9745 72.2372Z" fill="#232323"/>
</g>
<g opacity="0.3">
<path opacity="0.3" d="M135.728 129.805C135.728 129.805 125.874 129.469 116.378 138.952C116.378 138.952 117.713 129.967 124.485 127.258C124.485 127.269 134.816 129.805 135.728 129.805Z" fill="#232323"/>
</g>
<g opacity="0.3">
<path opacity="0.3" d="M168.491 165.882C168.491 165.882 168.535 170.596 163.119 172.233L163.412 175.755L170.803 172.233L170.803 167.28L168.491 165.882Z" fill="#232323"/>
</g>
<g opacity="0.3">
<path opacity="0.3" d="M157.259 142.138C157.259 142.138 157.801 176.806 124.3 197.56L165.116 198.524L160.514 141.574L157.259 142.138Z" fill="#232323"/>
</g>
<g opacity="0.3">
<path opacity="0.3" d="M142.488 54.9626C142.488 54.9626 153.221 51.7547 159.755 47.2031C161.068 46.2927 162.88 46.8888 163.412 48.3952C164.53 51.5705 166.581 56.2956 169.674 59.3842C169.674 59.3842 162.251 42.0879 164.736 34.7835C164.725 34.7835 150.877 50.205 142.488 54.9626Z" fill="#232323"/>
</g>
<g opacity="0.4">
<g opacity="0.4">
<path opacity="0.4" d="M77.0916 149.42C78.4265 149.42 79.5225 148.337 79.5225 146.993C79.5225 146.353 79.2729 145.768 78.8714 145.335C93.9455 144.739 156.097 142.268 157.27 142.127L70.96 141.574L75.7676 198.524L80.4884 198.524L75.9412 149.117C76.2777 149.312 76.6684 149.42 77.0916 149.42Z" fill="white"/>
</g>
</g>
<g opacity="0.4">
<g opacity="0.4">
<path opacity="0.4" d="M101.239 72.2372C101.239 72.2372 98.1239 98.1708 104.299 107.794C113.361 121.926 132.667 129.48 172.214 119.726C172.214 119.726 137.106 137.12 113.534 122.663C113.534 122.663 98.0696 118.588 96.7456 97.8024C95.4216 77.0056 95.9751 72.248 95.9751 72.248L101.239 72.248L101.239 72.2372Z" fill="white"/>
</g>
</g>
<g opacity="0.4">
<g opacity="0.4">
<path opacity="0.4" d="M167.112 26.5906C167.112 26.5906 172.777 82.1316 195.285 72.6273C195.285 72.6273 186.115 83.5405 175.621 70.2214C165.126 56.9024 164.985 34.4367 164.985 34.4367C164.985 34.4367 147.361 58.2029 117.278 66.7318L95.9746 72.2263C95.9746 72.2372 136.834 59.5359 167.112 26.5906Z" fill="white"/>
</g>
</g>
<g opacity="0.4">
<g opacity="0.4">
<path opacity="0.4" d="M168.491 153.051C168.491 153.051 169.674 161.645 174.276 163.834C179.365 166.24 187.385 165.882 187.385 165.882L169.164 166.554L168.491 153.051Z" fill="white"/>
</g>
</g>
<g opacity="0.4">
<g opacity="0.4">
<path opacity="0.4" d="M146.558 209.622C148.506 209.622 150.085 208.268 150.085 206.598C150.085 204.928 148.506 203.574 146.558 203.574C144.61 203.574 143.031 204.928 143.031 206.598C143.031 208.268 144.61 209.622 146.558 209.622Z" fill="white"/>
</g>
</g>
<g opacity="0.4">
<g opacity="0.4">
<path opacity="0.4" d="M88.6822 207.974C89.5633 207.974 90.2775 207.358 90.2775 206.598C90.2775 205.838 89.5633 205.222 88.6822 205.222C87.8012 205.222 87.0869 205.838 87.0869 206.598C87.0869 207.358 87.8012 207.974 88.6822 207.974Z" fill="white"/>
</g>
</g>
<path d="M206.637 81.048C206.485 81.048 206.333 81.0263 206.182 80.9829C205.378 80.7337 204.923 79.8775 205.172 79.0756C205.205 78.9564 208.862 66.4826 201.048 44.7972C196.545 32.3127 190.315 24.2172 182.523 20.7493C174.59 17.2163 167.742 19.9148 167.666 19.9365C166.928 20.2399 166.071 19.9148 165.713 19.1996C165.637 19.0587 163.716 15.4498 157.801 13.4558C152.191 11.5701 141.848 10.8982 124.43 18.3868C108.433 25.2793 99.0244 36.3116 96.4632 51.1912C94.9547 59.9261 96.3764 67.523 97.0927 70.4707C123.084 65.3989 139.634 55.7971 148.989 48.5794C159.288 40.6249 163.325 33.754 163.369 33.689C163.705 33.1146 164.367 32.822 165.007 32.9629C165.658 33.1038 166.147 33.6348 166.212 34.2959C167.145 43.1825 171.226 67.393 178.888 72.6924C182.99 75.5318 186.528 76.5721 189.393 75.781C192.518 74.914 193.864 72.0422 193.875 72.0097C194.222 71.2402 195.123 70.9043 195.893 71.2402C196.664 71.587 197.011 72.4757 196.675 73.2451C196.599 73.4185 194.786 77.4283 190.261 78.7071C186.463 79.78 182.057 78.5987 177.14 75.1958C168.806 69.4304 164.931 47.6258 163.662 38.5549C161.393 41.4485 157.367 45.9351 151.019 50.8661C141.219 58.4739 123.757 68.6067 96.257 73.7436C95.4973 73.8845 94.7485 73.4402 94.5206 72.7032C94.3904 72.3023 91.4168 62.7004 93.4245 50.8011C95.2911 39.7796 101.976 24.7266 123.225 15.5907C154.068 2.32589 165.029 12.9681 167.742 16.6961C170.314 15.9592 176.576 14.7671 183.706 17.9208C192.312 21.7246 199.117 30.4161 203.935 43.746C212.14 66.5043 208.276 79.4332 208.102 79.9751C207.896 80.6253 207.288 81.048 206.637 81.048Z" fill="#232323"/>
<path d="M137.714 129.935C136.834 129.935 135.966 129.913 135.109 129.881C132.016 129.751 128.966 129.371 126.047 128.754C115.282 126.51 106.024 121.059 100.642 113.798C100.62 113.777 100.609 113.744 100.587 113.722C99.9795 112.899 99.4044 112.021 98.8943 111.121C97.006 107.805 95.9099 104.066 95.2479 98.626C94.6835 93.9768 94.3688 88.4606 94.3037 82.2292C94.3037 79.4223 94.358 74.2638 94.4122 72.6165C94.4231 72.454 94.4231 72.3347 94.4231 72.2264L95.9533 72.2264L97.4835 72.2806C97.4726 72.4648 97.4726 72.6057 97.4618 72.7574C97.4184 74.3396 97.3641 79.444 97.3532 82.2184C97.4075 88.3197 97.7222 93.7167 98.2757 98.2575C98.8834 103.275 99.8602 106.678 101.542 109.615C102.009 110.428 102.53 111.23 103.094 111.978C103.116 111.999 103.127 112.021 103.148 112.053C108.097 118.686 116.66 123.682 126.666 125.763C129.422 126.337 132.309 126.695 135.239 126.825C139.2 126.998 143.292 126.749 147.405 126.099C151.713 125.416 155.75 124.516 159.408 123.422C159.787 123.313 160.135 123.205 160.493 123.086C160.515 123.075 160.536 123.075 160.558 123.064C175.556 118.317 184.412 111.392 189.295 100.631C189.545 100.078 190.109 99.7314 190.706 99.7314C190.782 99.7422 198.314 99.7206 202.807 95.1039C205.433 92.4054 206.54 88.5907 206.095 83.7681C205.965 82.3918 205.672 81.1563 205.227 80.0943C202.687 73.9387 195.644 74.1337 195.34 74.1446C194.504 74.1771 193.788 73.5269 193.756 72.6815C193.723 71.8362 194.374 71.1318 195.21 71.0885C195.59 71.0668 204.684 70.7634 208.048 78.913C208.613 80.2676 208.971 81.7957 209.134 83.4755C209.665 89.2192 208.276 93.8468 204.988 97.2172C200.593 101.736 194.146 102.582 191.672 102.733C186.322 113.874 176.945 121.07 161.415 125.979C161.394 125.99 161.383 125.99 161.361 125.99C161.003 126.109 160.634 126.218 160.265 126.326C156.488 127.453 152.31 128.396 147.871 129.1C144.464 129.664 141.056 129.935 137.714 129.935Z" fill="#232323"/>
<path d="M135.023 109.322C127.003 109.322 123.367 104.045 123.215 103.806C122.749 103.102 122.933 102.159 123.638 101.693C124.333 101.227 125.288 101.411 125.755 102.105C125.896 102.311 128.989 106.656 135.978 106.234C144.15 105.746 147.796 100.945 147.948 100.75C148.447 100.078 149.402 99.9265 150.086 100.425C150.77 100.924 150.911 101.866 150.422 102.549C150.238 102.798 145.843 108.705 136.162 109.29C135.771 109.312 135.392 109.322 135.023 109.322Z" fill="#232323"/>
<path d="M152.874 62.3103C153.308 62.061 153.655 61.8984 154.046 61.7142C154.426 61.5408 154.806 61.3891 155.186 61.2482C155.956 60.9556 156.738 60.728 157.53 60.5221C159.114 60.132 160.753 59.9586 162.381 60.0019C163.195 59.9911 164.009 60.132 164.812 60.2295C165.604 60.4246 166.407 60.5546 167.156 60.8581C168.697 61.3458 170.086 62.1802 171.399 63.058C171.725 63.2748 171.822 63.7191 171.595 64.0551C171.388 64.3585 170.987 64.4669 170.661 64.2935L170.596 64.261C169.316 63.5891 168.013 62.9605 166.613 62.6679C165.93 62.462 165.213 62.4295 164.53 62.3211C163.824 62.3103 163.119 62.2561 162.424 62.3319C161.024 62.4295 159.635 62.7221 158.311 63.1881C157.649 63.4265 156.998 63.6866 156.379 64.0009C156.065 64.1526 155.761 64.3152 155.468 64.4886C155.186 64.6511 154.86 64.857 154.654 64.9979L154.632 65.0088C153.905 65.5289 152.896 65.3772 152.364 64.6511C151.843 63.925 151.995 62.9172 152.722 62.3861C152.776 62.3645 152.831 62.3428 152.874 62.3103Z" fill="#232323"/>
<path d="M115.77 141.087C115.618 141.087 115.466 141.065 115.303 141.011C101.282 136.578 96.7129 129.523 96.5285 129.22C96.3114 128.862 96.2354 128.439 96.344 128.038C96.4525 127.637 96.7129 127.291 97.0711 127.085C97.2773 126.966 102.421 123.736 100.381 113.191C100.359 113.094 100.349 112.996 100.349 112.899C100.349 112.053 101.032 111.371 101.879 111.371C102.649 111.371 103.279 111.934 103.387 112.66C105.178 122.002 101.944 126.716 99.9578 128.645C101.727 130.639 106.513 135.028 116.226 138.095C117.029 138.345 117.474 139.212 117.224 140.014C117.018 140.675 116.421 141.087 115.77 141.087Z" fill="#232323"/>
<path d="M184.487 137.413C183.869 137.413 183.283 137.033 183.055 136.416C182.762 135.625 183.163 134.747 183.956 134.454C198.541 129.079 205.584 122.121 207.603 119.835C201.07 108.618 202.817 96.7187 202.893 96.1985C203.023 95.364 203.805 94.7896 204.64 94.9197C205.476 95.0497 206.051 95.83 205.921 96.6645C205.899 96.7837 204.184 108.672 210.772 119.163C211.108 119.694 211.076 120.366 210.718 120.875C210.435 121.265 203.588 130.466 185.019 137.326C184.845 137.391 184.661 137.413 184.487 137.413Z" fill="#232323"/>
<path d="M175.632 169.166C174.015 169.166 172.322 169.058 170.586 168.808C170.206 168.754 169.826 168.689 169.446 168.624C168.806 168.516 168.317 168.006 168.209 167.367L166.027 154.275C165.886 153.441 166.451 152.661 167.286 152.52C168.122 152.379 168.903 152.943 169.044 153.777L171.052 165.785C179.224 166.966 186.213 164.679 189.664 163.205C190.445 162.869 191.335 163.238 191.672 164.007C192.008 164.788 191.65 165.676 190.869 166.012C187.841 167.291 182.317 169.166 175.632 169.166Z" fill="#232323"/>
<path d="M190.261 166.121C189.664 166.121 189.099 165.774 188.85 165.189C188.513 164.408 188.882 163.52 189.653 163.184C190.63 162.772 191.389 162.382 191.921 162.111C191.617 159.261 190.391 150.363 186.028 141.13C185.312 139.623 184.4 138.182 183.304 136.849C175.718 127.637 161.567 126.131 160.829 126.055C160.047 125.99 159.429 125.329 159.429 124.538C159.429 123.693 160.112 123.01 160.959 123.01C161.013 123.01 161.057 123.01 161.111 123.021C162.76 123.183 177.39 124.863 185.67 134.909C186.929 136.437 187.982 138.095 188.795 139.829C194.319 151.523 195.025 162.403 195.057 162.859C195.09 163.422 194.819 163.953 194.341 164.246C194.287 164.278 193.028 165.059 190.857 165.991C190.662 166.077 190.456 166.121 190.261 166.121Z" fill="#232323"/>
<path d="M165.127 193.506C164.335 193.506 163.662 192.9 163.608 192.098C163.543 191.252 164.172 190.526 165.019 190.461C171.639 189.952 176.989 188.109 180.918 184.967C190.251 177.521 188.775 164.929 188.753 164.798C188.742 164.733 188.742 164.668 188.742 164.603C188.742 163.758 189.426 163.075 190.273 163.075C191.065 163.075 191.727 163.682 191.792 164.463C191.911 165.514 193.279 179.017 182.828 187.351C178.411 190.884 172.496 192.954 165.258 193.506C165.203 193.506 165.16 193.506 165.127 193.506Z" fill="#232323"/>
<path d="M163.412 177.294C162.739 177.294 162.131 176.85 161.936 176.178C161.708 175.365 162.185 174.52 162.999 174.292C167.156 173.132 168.773 171.734 169.272 171.193L169.272 167.291C169.272 166.446 169.956 165.763 170.802 165.763C171.649 165.763 172.332 166.446 172.332 167.291L172.332 171.691C172.332 171.929 172.278 172.157 172.17 172.374C171.92 172.861 170.368 175.408 163.813 177.229C163.683 177.272 163.553 177.294 163.412 177.294Z" fill="#232323"/>
<path d="M115.086 143.102C114.945 143.102 114.804 143.081 114.652 143.037C113.838 142.799 113.372 141.953 113.61 141.141C113.827 140.393 114.077 139.667 114.337 138.995C117.962 129.588 125.396 126.023 125.711 125.871C126.47 125.513 127.382 125.838 127.74 126.608C128.098 127.367 127.773 128.277 127.002 128.634C126.937 128.667 120.35 131.875 117.181 140.089C116.953 140.686 116.736 141.325 116.54 141.986C116.367 142.669 115.748 143.102 115.086 143.102Z" fill="#232323"/>
<path d="M121.304 230.7C119.21 230.7 117.137 230.602 115.064 230.397C113.534 230.483 102.551 230.624 94.5311 217.381C94.097 216.655 94.3249 215.723 95.0521 215.279C95.7792 214.845 96.7125 215.073 97.1574 215.799C104.635 228.153 114.858 227.351 114.955 227.34C115.053 227.33 115.151 227.33 115.248 227.34C124.516 228.272 134.012 227.048 143.476 223.71C151.398 220.914 156.358 217.598 156.401 217.565C156.651 217.392 156.954 217.305 157.258 217.305C158.669 217.305 162.413 217.175 166.743 215.994C169.88 215.138 172.56 213.946 174.731 212.428C175.425 211.941 176.38 212.114 176.858 212.808C177.346 213.501 177.173 214.455 176.478 214.932C174.025 216.644 171.019 217.999 167.546 218.942C163.271 220.112 159.505 220.329 157.714 220.361C156.347 221.228 151.593 224.089 144.485 226.604C136.758 229.324 128.977 230.7 121.304 230.7Z" fill="#232323"/>
<path d="M175.622 215.181C175.133 215.181 174.667 214.953 174.363 214.531C173.885 213.837 174.048 212.884 174.743 212.407C176.967 210.857 178.639 208.971 179.702 206.804C183.956 198.101 180.44 186.733 180.397 186.614C180.147 185.812 180.592 184.956 181.395 184.696C182.198 184.447 183.056 184.88 183.316 185.693C183.479 186.202 187.256 198.329 182.448 208.148C181.156 210.792 179.149 213.068 176.49 214.91C176.229 215.094 175.926 215.181 175.622 215.181Z" fill="#232323"/>
<path d="M113.882 223.623C113.784 223.623 113.698 223.612 113.6 223.602C106.079 222.193 100.045 220.34 95.1725 217.955C87.4347 214.184 82.8332 209.069 81.4767 202.783C81.1186 201.147 81.1511 199.575 81.5744 198.112C81.8023 197.299 82.6487 196.833 83.4627 197.061C84.2766 197.289 84.7433 198.134 84.5154 198.947C84.2332 199.911 84.2224 200.984 84.472 202.133C85.6115 207.465 89.6703 211.865 96.5182 215.203C101.141 217.468 106.915 219.223 114.164 220.589C115 220.741 115.543 221.542 115.38 222.377C115.239 223.114 114.598 223.623 113.882 223.623Z" fill="#232323"/>
<path d="M134.024 209.871C133.927 209.871 133.818 209.86 133.71 209.838C133.644 209.827 132.103 209.502 129.727 208.7C125.494 207.281 119.265 204.561 113.6 199.684C112.96 199.131 112.884 198.167 113.437 197.527C113.991 196.888 114.956 196.812 115.597 197.365C120.893 201.916 126.731 204.463 130.714 205.807C132.906 206.544 134.328 206.847 134.339 206.847C135.164 207.021 135.696 207.823 135.522 208.657C135.37 209.383 134.73 209.871 134.024 209.871Z" fill="#232323"/>
<path d="M113.87 223.623C113.208 223.623 112.59 223.19 112.405 222.518C112.177 221.705 112.644 220.86 113.458 220.632C121.445 218.356 125.776 216.341 130.269 210.478C131.05 209.459 131.962 208.408 132.992 207.346C138.462 201.678 145.473 197.408 145.766 197.224C146.493 196.79 147.426 197.018 147.871 197.733C148.305 198.459 148.077 199.391 147.361 199.835C147.296 199.879 140.394 204.094 135.196 209.47C134.251 210.445 133.416 211.41 132.71 212.331C127.262 219.44 121.652 221.467 114.315 223.569C114.153 223.602 114.012 223.623 113.87 223.623Z" fill="#232323"/>
<path d="M152.017 229.313C146.927 229.313 143.259 226.506 143.042 226.343C142.38 225.823 142.261 224.859 142.782 224.198C143.303 223.537 144.258 223.417 144.92 223.938C145.169 224.133 150.986 228.5 157.628 224.718C162.577 221.9 164.563 219.212 165.301 217.869C165.583 217.348 165.68 217.034 165.68 217.034C165.919 216.232 166.766 215.766 167.569 215.994C168.372 216.221 168.849 217.034 168.632 217.847C168.611 217.945 168.448 218.497 167.981 219.343C167.091 220.968 164.747 224.176 159.147 227.373C156.619 228.804 154.188 229.313 152.017 229.313Z" fill="#232323"/>
<path d="M130.214 208.787C129.563 208.787 128.955 208.364 128.749 207.703C127.555 203.78 125.059 199.326 125.027 199.283C124.614 198.546 124.875 197.614 125.613 197.202C126.351 196.79 127.284 197.05 127.696 197.787C127.805 197.982 130.377 202.566 131.679 206.815C131.929 207.617 131.473 208.473 130.659 208.722C130.507 208.765 130.355 208.787 130.214 208.787Z" fill="#232323"/>
<path d="M165.333 200.052L75.7681 200.052C74.9759 200.052 74.3139 199.445 74.2488 198.654L69.4411 141.704C69.4086 141.282 69.5496 140.859 69.8427 140.545C70.1357 140.23 70.5372 140.046 70.9713 140.046L160.547 140.046C161.361 140.046 162.023 140.675 162.078 141.477L162.078 141.553L166.527 194.243L166.874 198.394C166.907 198.817 166.766 199.239 166.473 199.554C166.169 199.879 165.767 200.052 165.333 200.052ZM77.1681 196.996L163.673 196.996L159.115 143.102L72.6209 143.102L77.1681 196.996Z" fill="#232323"/>
<path d="M145.136 137.911C138.136 137.911 134.631 132.167 133.709 128.754C133.492 127.941 133.969 127.096 134.783 126.879C135.597 126.662 136.433 127.139 136.66 127.952C136.758 128.299 139.07 136.275 147.35 134.627C156.076 132.883 158.289 124.852 158.376 124.505C158.593 123.693 159.429 123.205 160.243 123.411C161.057 123.617 161.556 124.451 161.339 125.264C161.23 125.676 158.604 135.484 147.947 137.619C146.949 137.824 146.015 137.911 145.136 137.911Z" fill="#232323"/>
<path d="M175.611 215.181C175.252 215.181 174.883 215.051 174.601 214.802C174.113 214.368 173.961 213.686 174.189 213.111C174.417 212.407 175.48 208.635 174.178 205.178C171.747 198.665 164.509 195.847 164.433 195.815C164.226 195.739 164.053 195.62 163.901 195.468C163.304 194.872 163.304 193.907 163.901 193.301C164.367 192.835 165.062 192.737 165.626 192.997C166.614 193.398 174.265 196.671 177.043 204.105C178.725 208.603 177.358 213.241 177.076 214.13C177.011 214.325 176.902 214.52 176.761 214.672C176.457 215.008 176.034 215.181 175.611 215.181Z" fill="#232323"/>
<path d="M96.7784 100.414C96.735 100.414 96.6916 100.414 96.6591 100.414C89.2251 99.8073 83.4082 93.3591 83.4082 85.7405C83.4082 78.4903 88.6825 72.2372 95.6823 71.1752C96.1924 71.0776 96.7242 71.2402 97.0715 71.6087C97.3645 71.9121 97.5164 72.3131 97.4947 72.7249C97.4404 74.1988 97.3753 76.5505 97.3645 79.379C97.3645 80.2785 97.3645 81.2322 97.3645 82.2075C97.4079 88.4715 97.7117 94.0202 98.2869 98.6911C98.3412 99.1462 98.1893 99.6014 97.8745 99.9373C97.5924 100.252 97.1908 100.414 96.7784 100.414ZM94.3909 74.6106C89.7677 76.117 86.4686 80.6145 86.4686 85.7297C86.4686 91.1158 90.1042 95.7541 95.042 97.0438C94.6079 92.7089 94.3583 87.7346 94.3258 82.24C94.3149 81.243 94.3149 80.2785 94.3258 79.3682C94.3258 77.5583 94.3475 75.9327 94.3909 74.6106Z" fill="#232323"/>
<path d="M194.309 91.1808C194.363 89.8587 194.569 88.6774 194.916 87.4528C195.264 86.2498 195.763 85.0577 196.566 84.039C197.358 83.0203 198.519 82.2075 199.789 81.9908C201.048 81.7415 202.296 81.9474 203.435 82.3051C203.533 82.3376 203.598 82.446 203.566 82.5435C203.533 82.641 203.435 82.6952 203.349 82.6735C202.22 82.4676 201.037 82.4351 200.017 82.7927C198.975 83.1179 198.172 83.8656 197.64 84.7651C197.098 85.6755 196.794 86.7375 196.62 87.8213C196.457 88.8941 196.414 90.0646 196.501 91.0941L196.501 91.1266C196.555 91.7335 196.11 92.2537 195.502 92.3079C194.895 92.3621 194.374 91.9177 194.319 91.3109C194.309 91.2783 194.309 91.2242 194.309 91.1808Z" fill="#232323"/>
<path d="M204.347 86.9976C203.848 86.4883 203.23 86.0981 202.589 85.8597C201.938 85.6213 201.265 85.5562 200.614 85.6104C199.963 85.6863 199.333 85.8922 198.747 86.174C198.454 86.3149 198.172 86.4991 197.89 86.6616L197.087 87.2469L197.022 87.3011C196.534 87.6587 195.839 87.5503 195.481 87.0626C195.123 86.575 195.231 85.8814 195.72 85.5237C195.785 85.4695 195.872 85.4262 195.948 85.3937L197.054 84.9277C197.445 84.8085 197.825 84.6784 198.227 84.5917C199.03 84.4183 199.854 84.3533 200.668 84.4508C202.296 84.6676 203.729 85.6213 204.499 86.9109C204.521 86.9434 204.51 86.9976 204.467 87.0193C204.423 87.041 204.38 87.0301 204.347 86.9976Z" fill="#232323"/>
</svg>
