<svg width="75" height="75" viewBox="0 0 75 75" fill="none" xmlns="http://www.w3.org/2000/svg">
<path fill-rule="evenodd" clip-rule="evenodd" d="M37.7306 71.7191C18.7092 71.7191 3.28906 56.2989 3.28906 37.2775C3.28906 18.2561 18.7092 2.83594 37.7306 2.83594C56.7521 2.83594 72.1722 18.2561 72.1722 37.2775C72.1506 56.2899 56.743 71.6975 37.7306 71.7191ZM54.6361 30.5639C54.6115 31.7846 54.5136 32.8732 54.3567 33.866C53.388 39.9455 48.0107 42.2576 42.8335 42.7889C44.6188 43.9132 45.1311 45.324 45.1311 49.1376C45.1311 51.4806 45.1122 52.5785 45.1001 53.2801C45.0925 53.7212 45.0876 54.0056 45.0918 54.3442C45.1043 55.2413 45.9276 55.8462 46.5277 56.2871C46.8912 56.5542 47.1728 56.7611 47.1429 56.9364C47.0639 57.4 45.3771 57.3249 44.5886 57.0487C42.3551 56.2721 42.5782 54.4111 42.5782 54.4111L42.2422 49.3112C42.2422 49.3112 42.0495 46.5661 41.1172 46.5661V54.9172C41.1172 56.0449 41.711 56.6851 42.1599 57.169C42.4326 57.4629 42.6518 57.6992 42.6518 57.9521C42.6518 59.1067 40.4603 57.8433 39.745 57.1233C38.7733 56.1471 38.8185 54.1973 38.8582 52.4855C38.863 52.2774 38.8677 52.0729 38.8706 51.8741C38.8955 50.1026 38.8872 46.2249 38.8872 46.2249L38.1642 46.2406C38.1642 46.2406 38.4748 54.7073 37.7813 56.2529C36.885 58.2317 34.1826 58.9147 34.1826 58.0107C34.1826 57.7479 34.3084 57.6355 34.481 57.4813C34.7063 57.2801 35.0112 57.0077 35.2201 56.2371C35.5348 55.0796 35.4287 46.4459 35.4287 46.4459C35.4287 46.4459 34.562 46.9608 34.562 48.5782C34.562 48.8995 34.5582 49.8779 34.5539 50.9853C34.5483 52.4287 34.5419 54.0912 34.5419 54.803C34.5419 56.3858 32.294 57.2857 31.2137 57.2857C30.667 57.2857 29.9867 57.2582 29.9867 56.9676C29.9867 56.6686 30.3309 56.4204 30.7375 56.1271C31.3246 55.7036 32.042 55.1862 32.042 54.2865C32.042 52.9632 32.0138 49.5702 32.0138 49.5702C32.0138 49.5702 30.9775 49.745 29.498 49.745C25.7711 49.745 24.5923 47.3676 24.0318 46.0361C23.3021 44.3018 22.3554 43.4913 21.3502 42.8393C20.7319 42.4379 20.5901 41.967 21.304 41.8334C23.2862 41.4595 24.382 42.885 25.4187 44.2338C26.1077 45.13 26.7705 45.9923 27.6501 46.2702C29.2225 46.7646 31.2447 46.5497 32.25 45.8998C32.3828 44.5667 33.3433 43.4163 34.1434 42.8084C28.8268 42.3002 23.4143 39.3534 22.1152 32.5227C22.0242 31.7378 21.9705 30.9219 21.9705 30.0585C21.9705 26.5247 23.0509 25.1489 24.5145 23.2853C24.544 23.2478 24.5736 23.21 24.6034 23.1721C23.4501 19.0595 25.0178 16.2484 25.0178 16.2484C25.0178 16.2484 27.4427 15.7478 32.0275 19.0307C34.5124 17.9649 41.1385 17.8753 44.274 18.7932C46.1971 17.5228 49.7168 15.7183 51.1365 16.2222C51.5214 16.8398 52.349 18.6437 51.639 22.6095C51.7296 22.7726 51.8916 22.9704 52.095 23.2189C52.9744 24.293 54.6284 26.3131 54.6361 30.5639Z" fill="#F6E8FF"/>
<path d="M37.7298 0.375C17.3498 0.375 0.828125 16.8967 0.828125 37.2767C0.828125 57.6567 17.3498 74.1784 37.7298 74.1784C58.1098 74.1784 74.6315 57.6567 74.6315 37.2767C74.6087 16.9063 58.1002 0.397823 37.7298 0.375ZM37.7298 71.7183C18.7084 71.7183 3.28824 56.2981 3.28824 37.2767C3.28824 18.2553 18.7084 2.83511 37.7298 2.83511C56.7512 2.83511 72.1714 18.2553 72.1714 37.2767C72.1498 56.2891 56.7422 71.6966 37.7298 71.7183Z" fill="#F6E8FF"/>
</svg>
