<svg width="75" height="75" viewBox="0 0 75 75" fill="none" xmlns="http://www.w3.org/2000/svg">
<path fill-rule="evenodd" clip-rule="evenodd" d="M37.7306 72.1117C18.7092 72.1117 3.28906 56.6915 3.28906 37.6701C3.28906 18.6487 18.7092 3.22852 37.7306 3.22852C56.7521 3.22852 72.1722 18.6487 72.1722 37.6701C72.1506 56.6825 56.743 72.09 37.7306 72.1117ZM20.5098 22.9094H54.9513C55.6306 22.9094 56.1814 23.4601 56.1814 24.1394V51.2007C56.1814 51.88 55.6306 52.4307 54.9513 52.4307H20.5098C19.8305 52.4307 19.2797 51.88 19.2797 51.2007V24.1394C19.2797 23.4601 19.8305 22.9094 20.5098 22.9094ZM37.7305 37.2803L51.6299 25.3695H23.8311L37.7305 37.2803ZM21.7398 26.8134V49.9706H53.7213V26.8134L38.5288 39.8335C38.0687 40.2275 37.39 40.2275 36.9299 39.8335L21.7398 26.8134Z" fill="#F6E8FF"/>
<path d="M37.7298 0.767578C17.3498 0.767578 0.828125 17.2892 0.828125 37.6693C0.828125 58.0493 17.3498 74.5709 37.7298 74.5709C58.1098 74.5709 74.6315 58.0493 74.6315 37.6693C74.6087 17.2989 58.1002 0.790402 37.7298 0.767578ZM37.7298 72.1108C18.7084 72.1108 3.28824 56.6907 3.28824 37.6693C3.28824 18.6478 18.7084 3.22769 37.7298 3.22769C56.7512 3.22769 72.1714 18.6478 72.1714 37.6693C72.1498 56.6817 56.7422 72.0892 37.7298 72.1108Z" fill="#F6E8FF"/>
</svg>
