<svg width="700" height="700" viewBox="0 0 700 700" fill="none" xmlns="http://www.w3.org/2000/svg">
<g opacity="0.8">
<g filter="url(#filter0_bdi)">
<rect x="50" y="46" width="600" height="600" rx="90" fill="#C4C4C4" fill-opacity="0.2"/>
</g>
<rect x="70.291" y="66" width="560" height="560" rx="100" fill="#06001E"/>
<path d="M350.291 140.551C317.683 140.551 291.248 166.985 291.248 199.593C291.248 232.201 317.683 258.636 350.291 258.636C382.899 258.636 409.333 232.201 409.333 199.593C409.297 167.001 382.883 140.587 350.291 140.551ZM350.291 254.7C319.856 254.7 295.184 230.028 295.184 199.593C295.184 169.159 319.856 144.487 350.291 144.487C380.725 144.487 405.397 169.159 405.397 199.593C405.363 230.013 380.711 254.665 350.291 254.7Z" fill="#F6E8FF"/>
<path d="M377.844 175.977H322.738C321.651 175.977 320.77 176.858 320.77 177.945V221.243C320.77 222.33 321.651 223.211 322.738 223.211H377.844C378.931 223.211 379.812 222.33 379.812 221.243V177.945C379.812 176.858 378.931 175.977 377.844 175.977ZM372.53 179.913L350.291 198.97L328.052 179.913H372.53ZM324.706 219.275V182.223L349.01 203.055C349.746 203.686 350.832 203.686 351.568 203.055L375.876 182.223V219.275H324.706Z" fill="#F6E8FF"/>
<path d="M350.291 433.367C317.683 433.367 291.248 459.802 291.248 492.41C291.248 525.018 317.683 551.453 350.291 551.453C382.899 551.453 409.333 525.018 409.333 492.41C409.297 459.817 382.883 433.404 350.291 433.367ZM350.291 547.516C319.856 547.516 295.184 522.844 295.184 492.41C295.184 461.976 319.856 437.303 350.291 437.303C380.725 437.303 405.397 461.976 405.397 492.41C405.363 522.83 380.711 547.482 350.291 547.516Z" fill="#F6E8FF"/>
<path d="M381.03 516.423V516.421H381.043V496.12C381.043 486.189 378.905 478.539 367.295 478.539C361.714 478.539 357.968 481.602 356.439 484.506H356.278V479.466H345.27V516.421H356.732V498.122C356.732 493.304 357.645 488.646 363.612 488.646C369.491 488.646 369.579 494.144 369.579 498.431V516.423H381.03Z" fill="#F6E8FF"/>
<path d="M326.604 479.467H338.08V516.422H326.604V479.467Z" fill="#F6E8FF"/>
<path d="M332.338 461.07C328.669 461.07 325.691 464.048 325.691 467.717C325.691 471.387 328.669 474.426 332.338 474.426C336.008 474.426 338.985 471.387 338.985 467.717C338.983 464.048 336.005 461.07 332.338 461.07V461.07Z" fill="#F6E8FF"/>
<path d="M350.291 286.959C317.683 286.959 291.248 313.394 291.248 346.002C291.248 378.61 317.683 405.044 350.291 405.044C382.899 405.044 409.333 378.61 409.333 346.002C409.297 313.409 382.883 286.996 350.291 286.959ZM350.291 401.108C319.856 401.108 295.184 376.436 295.184 346.002C295.184 315.567 319.856 290.895 350.291 290.895C380.725 290.895 405.397 315.567 405.397 346.002C405.363 376.422 380.711 401.074 350.291 401.108Z" fill="#F6E8FF"/>
<path d="M376.893 340.542C377.144 338.954 377.3 337.212 377.34 335.259C377.325 326.885 373.316 323.921 372.544 322.532C373.681 316.187 372.356 313.3 371.74 312.312C369.469 311.506 363.837 314.393 360.76 316.426C355.744 314.957 345.142 315.101 341.166 316.806C333.83 311.553 329.951 312.354 329.951 312.354C329.951 312.354 327.442 316.852 329.288 323.432C326.874 326.508 325.075 328.682 325.075 334.45C325.075 335.832 325.161 337.137 325.306 338.393C327.385 349.322 336.045 354.037 344.551 354.85C343.271 355.823 341.735 357.664 341.522 359.797C339.914 360.836 336.678 361.18 334.162 360.389C330.637 359.275 329.288 352.295 324.008 353.29C322.866 353.504 323.093 354.258 324.082 354.9C325.691 355.943 327.205 357.24 328.373 360.015C329.27 362.145 331.156 365.949 337.119 365.949C339.486 365.949 341.144 365.669 341.144 365.669C341.144 365.669 341.189 371.098 341.189 373.215C341.189 375.652 337.901 376.336 337.901 377.505C337.901 377.97 338.989 378.014 339.864 378.014C341.593 378.014 345.189 376.574 345.189 374.042C345.189 372.029 345.221 365.266 345.221 364.082C345.221 361.494 346.608 360.67 346.608 360.67C346.608 360.67 346.778 374.484 346.274 376.336C345.684 378.514 344.614 378.205 344.614 379.174C344.614 380.62 348.938 379.528 350.372 376.361C351.482 373.889 350.985 360.342 350.985 360.342L352.142 360.317C352.142 360.317 352.155 366.521 352.115 369.355C352.073 372.291 351.77 376.002 353.514 377.754C354.659 378.906 358.165 380.928 358.165 379.08C358.165 378.01 355.71 377.125 355.71 374.224V360.863C357.201 360.863 357.51 365.255 357.51 365.255L358.047 373.415C358.047 373.415 357.69 376.392 361.264 377.635C362.525 378.077 365.224 378.197 365.351 377.455C365.478 376.712 362.101 375.612 362.069 373.308C362.052 371.904 362.132 371.082 362.132 364.977C362.132 358.875 361.312 356.618 358.456 354.819C366.739 353.969 375.343 350.27 376.893 340.542Z" fill="#F6E8FF"/>
</g>
<defs>
<filter id="filter0_bdi" x="0" y="0" width="900" height="700" filterUnits="userSpaceOnUse" color-interpolation-filters="sRGB">
<feFlood flood-opacity="0" result="BackgroundImageFix"/>
<feGaussianBlur in="BackgroundImage" stdDeviation="2"/>
<feComposite in2="SourceAlpha" operator="in" result="effect1_backgroundBlur"/>
<feColorMatrix in="SourceAlpha" type="matrix" values="0 0 0 0 0 0 0 0 0 0 0 0 0 0 0 0 0 0 127 0"/>
<feOffset dy="4"/>
<feGaussianBlur stdDeviation="25"/>
<feColorMatrix type="matrix" values="0 0 0 0 0 0 0 0 0 0 0 0 0 0 0 0 0 0 0.25 0"/>
<feBlend mode="normal" in2="effect1_backgroundBlur" result="effect2_dropShadow"/>
<feBlend mode="normal" in="SourceGraphic" in2="effect2_dropShadow" result="shape"/>
<feColorMatrix in="SourceAlpha" type="matrix" values="0 0 0 0 0 0 0 0 0 0 0 0 0 0 0 0 0 0 127 0" result="hardAlpha"/>
<feOffset dx="349" dy="4"/>
<feGaussianBlur stdDeviation="125"/>
<feComposite in2="hardAlpha" operator="arithmetic" k2="-1" k3="1"/>
<feColorMatrix type="matrix" values="0 0 0 0 1 0 0 0 0 0.9475 0 0 0 0 0.98215 0 0 0 0.1 0"/>
<feBlend mode="normal" in2="shape" result="effect3_innerShadow"/>
</filter>
</defs>
</svg>
