<svg width="75" height="75" viewBox="0 0 75 75" fill="none" xmlns="http://www.w3.org/2000/svg">
<path d="M37.3861 0.597656C17.006 0.597656 0.484375 17.1193 0.484375 37.4993C0.484375 57.8793 17.006 74.401 37.3861 74.401C57.7661 74.401 74.2877 57.8793 74.2877 37.4993C74.2649 17.1289 57.7565 0.62048 37.3861 0.597656ZM37.3861 71.9409C18.3646 71.9409 2.94449 56.5208 2.94449 37.4993C2.94449 18.4779 18.3646 3.05777 37.3861 3.05777C56.4075 3.05777 71.8276 18.4779 71.8276 37.4993C71.806 56.5118 56.3985 71.9193 37.3861 71.9409Z" fill="#F6E8FF"/>
<path d="M54.0121 34.0878C54.169 33.095 54.2669 32.0064 54.2915 30.7858C54.2821 25.5517 51.7765 23.6996 51.2944 22.8313C52.0045 18.8655 51.1768 17.0616 50.7919 16.4441C49.3722 15.9401 45.8525 17.7447 43.9294 19.015C40.794 18.0972 34.1678 18.1868 31.6829 19.2525C27.0982 15.9696 24.6733 16.4702 24.6733 16.4702C24.6733 16.4702 23.1056 19.2813 24.2588 23.3939C22.7503 25.3162 21.626 26.6753 21.626 30.2803C21.626 31.1437 21.6796 31.9596 21.7706 32.7446C23.0697 39.5752 28.4822 42.5221 33.7988 43.0302C32.9987 43.6381 32.0383 44.7886 31.9054 46.1216C30.9001 46.7716 28.878 46.9864 27.3055 46.4921C25.1023 45.7959 24.2588 41.4329 20.9594 42.0553C20.2455 42.1888 20.3874 42.6597 21.0056 43.0612C22.0108 43.7132 22.9575 44.5236 23.6872 46.2579C24.2477 47.5895 25.4265 49.9669 29.1534 49.9669C30.6329 49.9669 31.6692 49.792 31.6692 49.792C31.6692 49.792 31.6974 53.185 31.6974 54.5083C31.6974 56.0312 29.6421 56.4588 29.6421 57.1894C29.6421 57.48 30.3224 57.5076 30.8691 57.5076C31.9495 57.5076 34.1973 56.6077 34.1973 55.0248C34.1973 53.767 34.2174 49.5402 34.2174 48.8C34.2174 47.1826 35.0841 46.6677 35.0841 46.6677C35.0841 46.6677 35.1902 55.3014 34.8755 56.4589C34.5065 57.8201 33.838 57.6267 33.838 58.2325C33.838 59.1366 36.5404 58.4536 37.4368 56.4747C38.1302 54.9291 37.8197 46.4625 37.8197 46.4625L38.5426 46.4467C38.5426 46.4467 38.5509 50.3244 38.526 52.0959C38.4999 53.9307 38.3106 56.2503 39.4004 57.3451C40.1157 58.0651 42.3072 59.3285 42.3072 58.174C42.3072 57.5048 40.7726 56.9519 40.7726 55.139V46.7879C41.7049 46.7879 41.8976 49.533 41.8976 49.533L42.2337 54.6329C42.2337 54.6329 42.0105 56.4939 44.244 57.2705C45.0325 57.5467 46.7193 57.6218 46.7984 57.1582C46.8776 56.6936 44.7673 56.0064 44.7473 54.566C44.7364 53.6887 44.7866 53.1753 44.7866 49.3595C44.7866 45.5458 44.2743 44.135 42.489 43.0107C47.6661 42.4794 53.0434 40.1673 54.0121 34.0878Z" fill="#F6E8FF"/>
</svg>
