<svg width="75" height="74" viewBox="0 0 75 74" fill="none" xmlns="http://www.w3.org/2000/svg">
<path d="M37.3861 0.103516C17.006 0.103516 0.484375 16.6252 0.484375 37.0052C0.484375 57.3852 17.006 73.9069 37.3861 73.9069C57.7661 73.9069 74.2877 57.3852 74.2877 37.0052C74.2649 16.6348 57.7565 0.126339 37.3861 0.103516ZM37.3861 71.4468C18.3646 71.4468 2.94449 56.0266 2.94449 37.0052C2.94449 17.9838 18.3646 2.56363 37.3861 2.56363C56.4075 2.56363 71.8276 17.9838 71.8276 37.0052C71.806 56.0176 56.3985 71.4251 37.3861 71.4468Z" fill="#F6E8FF"/>
<path d="M56.5981 52.0135V52.0121H56.6067V39.3243C56.6067 33.1173 55.2705 28.3359 48.0141 28.3359C44.5257 28.3359 42.1848 30.2502 41.2291 32.065H41.1282V28.9154H34.248V52.0121H41.4122V40.5755C41.4122 37.5642 41.983 34.6525 45.7121 34.6525C49.3864 34.6525 49.4412 38.0889 49.4412 40.7686V52.0135H56.5981Z" fill="#F6E8FF"/>
<path d="M22.582 28.916H29.7548V52.0127H22.582V28.916Z" fill="#F6E8FF"/>
<path d="M26.166 17.418C23.8727 17.418 22.0117 19.2789 22.0117 21.5723C22.0117 23.8657 23.8727 25.7655 26.166 25.7655C28.4594 25.7655 30.3204 23.8657 30.3204 21.5723C30.3189 19.2789 28.458 17.418 26.166 17.418V17.418Z" fill="#F6E8FF"/>
</svg>
