<svg width="158" height="34" viewBox="0 0 158 34" fill="none" xmlns="http://www.w3.org/2000/svg">
<path d="M147.742 22.0771L152.991 16.8271L147.742 11.5771" stroke="#F8E5FF" stroke-width="2" stroke-linecap="round" stroke-linejoin="round"/>
<path d="M138.991 16.8271H152.988" stroke="#F8E5FF" stroke-width="2" stroke-linecap="round" stroke-linejoin="round"/>
<path d="M138.991 5.82715H131.991C131.726 5.82715 131.472 5.9325 131.284 6.12004C131.097 6.30758 130.991 6.56193 130.991 6.82715V26.8271C130.991 27.0924 131.097 27.3467 131.284 27.5343C131.472 27.7218 131.726 27.8271 131.991 27.8271H138.991" stroke="#F8E5FF" stroke-width="2" stroke-linecap="round" stroke-linejoin="round"/>
<path d="M5.91121 23.5971V8.32715H2.97121V26.3271H12.2412V23.5971H5.91121ZM22.9118 26.5671C28.0118 26.5671 32.1518 22.4271 32.1518 17.3271C32.1518 12.2271 28.0118 8.08715 22.9118 8.08715C17.8118 8.08715 13.6718 12.2271 13.6718 17.3271C13.6718 22.4271 17.8118 26.5671 22.9118 26.5671ZM22.9118 23.6571C19.3718 23.6571 16.5818 20.8971 16.5818 17.3271C16.5818 13.7571 19.3718 10.9971 22.9118 10.9971C26.4818 10.9971 29.2418 13.7571 29.2418 17.3271C29.2418 20.8971 26.4818 23.6571 22.9118 23.6571ZM44.0121 16.6071V19.0671H50.1321C49.4121 21.7671 46.9821 23.6571 44.0421 23.6571C40.4721 23.6571 37.6821 20.8971 37.6821 17.3271C37.6821 13.7571 40.4721 10.9971 44.0421 10.9971C46.4721 10.9971 48.5421 12.2871 49.6221 14.2671L52.1421 12.9171C50.5821 10.0371 47.5221 8.08715 44.0421 8.08715C38.9121 8.08715 34.8021 12.2271 34.8021 17.3271C34.8021 22.4271 38.9121 26.5671 44.0421 26.5671C49.1421 26.5671 53.2821 22.4271 53.2821 17.3271V16.6071H44.0121ZM72.3181 26.5671C77.4181 26.5671 81.5581 22.4271 81.5581 17.3271C81.5581 12.2271 77.4181 8.08715 72.3181 8.08715C67.2181 8.08715 63.0781 12.2271 63.0781 17.3271C63.0781 22.4271 67.2181 26.5671 72.3181 26.5671ZM72.3181 23.6571C68.7781 23.6571 65.9881 20.8971 65.9881 17.3271C65.9881 13.7571 68.7781 10.9971 72.3181 10.9971C75.8881 10.9971 78.6481 13.7571 78.6481 17.3271C78.6481 20.8971 75.8881 23.6571 72.3181 23.6571ZM91.8584 26.5671C95.9384 26.5671 98.9984 23.9571 98.9984 20.4771V8.32715H96.0584V19.9671C96.0584 22.1871 94.2584 23.8371 91.8584 23.8371C89.4584 23.8371 87.6884 22.1871 87.6884 19.9671V8.32715H84.7484V20.4771C84.7484 23.9571 87.7784 26.5671 91.8584 26.5671ZM113.392 8.32715H100.942V11.0571H105.712V26.3271H108.622V11.0571H113.392V8.32715Z" fill="white"/>
</svg>
