<svg xmlns="http://www.w3.org/2000/svg" xmlns:xlink="http://www.w3.org/1999/xlink" viewBox="0 0 367.27 61.26"><defs><style>.cls-1{isolation:isolate;}.cls-2{fill:#fff;}.cls-3,.cls-4,.cls-5{mix-blend-mode:screen;}.cls-3{fill:url(#radial-gradient);}.cls-4{fill:url(#radial-gradient-2);}.cls-5{fill:url(#radial-gradient-3);}</style><radialGradient id="radial-gradient" cx="106.28" cy="83.47" r="21.85" gradientTransform="translate(-111.72 -11.28) scale(2.78 0.69)" gradientUnits="userSpaceOnUse"><stop offset="0" stop-color="#fff"/><stop offset="0.14" stop-color="#cec8dd" stop-opacity="0.78"/><stop offset="0.31" stop-color="#998db8" stop-opacity="0.55"/><stop offset="0.48" stop-color="#6d5b99" stop-opacity="0.35"/><stop offset="0.63" stop-color="#4a3481" stop-opacity="0.2"/><stop offset="0.77" stop-color="#311970" stop-opacity="0.09"/><stop offset="0.9" stop-color="#220866" stop-opacity="0.02"/><stop offset="0.99" stop-color="#1d0262" stop-opacity="0"/></radialGradient><radialGradient id="radial-gradient-2" cx="152.86" cy="66.55" r="19.94" gradientTransform="matrix(2.78, 0, 0, 0.69, -111.38, -12.51)" gradientUnits="userSpaceOnUse"><stop offset="0" stop-color="#fff"/><stop offset="0.05" stop-color="#e4e1ec" stop-opacity="0.88"/><stop offset="0.15" stop-color="#b6adcc" stop-opacity="0.68"/><stop offset="0.26" stop-color="#8d7fb0" stop-opacity="0.5"/><stop offset="0.37" stop-color="#6b5998" stop-opacity="0.34"/><stop offset="0.48" stop-color="#4e3984" stop-opacity="0.22"/><stop offset="0.59" stop-color="#392175" stop-opacity="0.12"/><stop offset="0.71" stop-color="#29106a" stop-opacity="0.05"/><stop offset="0.84" stop-color="#200564" stop-opacity="0.01"/><stop offset="0.99" stop-color="#1d0262" stop-opacity="0"/></radialGradient><radialGradient id="radial-gradient-3" cx="59.24" cy="2.12" r="19.93" gradientTransform="matrix(0, -2.78, -0.69, 0, 61.17, 203.05)" xlink:href="#radial-gradient-2"/></defs><g class="cls-1"><g id="Layer_2" data-name="Layer 2"><g id="OBJECTS"><path class="cls-2" d="M309.8,1.7c4.38,1,8.75,2.1,13,3.49,2.14.72,4.27,1.46,6.35,2.36a38,38,0,0,1,6,3.14,17,17,0,0,1,1.4,1,11.66,11.66,0,0,1,1.31,1.13,9.33,9.33,0,0,1,2.1,2.84l.31.86a4.44,4.44,0,0,1,.15.91l.06.46c0,.15,0,.31,0,.46a5.68,5.68,0,0,1-.14.92,7.78,7.78,0,0,1-1.71,3.16,20.69,20.69,0,0,1-5.47,4.24,52.7,52.7,0,0,1-6.15,3A159.94,159.94,0,0,1,301,37c-8.84,1.84-17.75,3.29-26.68,4.52-17.87,2.49-35.86,3.9-53.85,4.91s-36,1.41-54,1.39-36-.7-54-1.83q-13.5-.86-27-2.17c-9-.88-17.92-2-26.84-3.36s-17.8-3-26.58-5.12c-4.4-1.07-8.76-2.26-13.06-3.7A62.76,62.76,0,0,1,6.44,26.2,17.07,17.07,0,0,1,1.2,21.58,6.62,6.62,0,0,1,0,18.1a6.18,6.18,0,0,1,1.07-3.5A16,16,0,0,1,6.28,10a45,45,0,0,1,6.13-3C20.82,3.68,29.65,1.7,38.48,0c-4.39,1-8.76,2.07-13.07,3.34A104.16,104.16,0,0,0,12.72,7.78a43.69,43.69,0,0,0-5.93,3.06A15,15,0,0,0,2,15.2a5,5,0,0,0-.81,2.86,5.22,5.22,0,0,0,1.06,2.78,15.66,15.66,0,0,0,4.92,4.1,62.78,62.78,0,0,0,12.26,5.14c4.26,1.34,8.6,2.46,13,3.45,8.74,2,17.6,3.44,26.49,4.68,35.58,4.83,71.57,6.55,107.5,6.65s71.92-1.3,107.58-5.58c8.91-1.08,17.8-2.4,26.61-4.09a160.88,160.88,0,0,0,25.91-6.91,50.81,50.81,0,0,0,6.06-2.74,19.62,19.62,0,0,0,5.25-3.85A6.48,6.48,0,0,0,339.37,19a3.12,3.12,0,0,0,.14-.74c0-.13,0-.25,0-.38l0-.37a3.77,3.77,0,0,0-.11-.75l-.24-.74a12.08,12.08,0,0,0-4.37-4.68,36.92,36.92,0,0,0-5.85-3.23c-2-.95-4.13-1.73-6.23-2.51C318.47,4.09,314.15,2.84,309.8,1.7Z"/><ellipse class="cls-3" cx="183.25" cy="46.21" rx="60.63" ry="15.05"/><ellipse class="cls-4" cx="312.85" cy="33.32" rx="55.33" ry="13.73" transform="translate(-0.72 58.99) rotate(-10.76)"/><ellipse class="cls-5" cx="59.72" cy="38.63" rx="13.73" ry="55.33" transform="translate(15.81 94.58) rotate(-84.77)"/><path class="cls-2" d="M309.8,1.7c4.38,1,8.75,2.1,13,3.49,2.14.72,4.27,1.46,6.35,2.36a38,38,0,0,1,6,3.14,17,17,0,0,1,1.4,1,11.66,11.66,0,0,1,1.31,1.13,9.33,9.33,0,0,1,2.1,2.84l.31.86a4.44,4.44,0,0,1,.15.91l.06.46c0,.15,0,.31,0,.46a5.68,5.68,0,0,1-.14.92,7.78,7.78,0,0,1-1.71,3.16,20.69,20.69,0,0,1-5.47,4.24,52.7,52.7,0,0,1-6.15,3A159.94,159.94,0,0,1,301,37c-8.84,1.84-17.75,3.29-26.68,4.52-17.87,2.49-35.86,3.9-53.85,4.91s-36,1.41-54,1.39-36-.7-54-1.83q-13.5-.86-27-2.17c-9-.88-17.92-2-26.84-3.36s-17.8-3-26.58-5.12c-4.4-1.07-8.76-2.26-13.06-3.7A62.76,62.76,0,0,1,6.44,26.2,17.07,17.07,0,0,1,1.2,21.58,6.62,6.62,0,0,1,0,18.1a6.18,6.18,0,0,1,1.07-3.5A16,16,0,0,1,6.28,10a45,45,0,0,1,6.13-3C20.82,3.68,29.65,1.7,38.48,0c-4.39,1-8.76,2.07-13.07,3.34A104.16,104.16,0,0,0,12.72,7.78a43.69,43.69,0,0,0-5.93,3.06A15,15,0,0,0,2,15.2a5,5,0,0,0-.81,2.86,5.22,5.22,0,0,0,1.06,2.78,15.66,15.66,0,0,0,4.92,4.1,62.78,62.78,0,0,0,12.26,5.14c4.26,1.34,8.6,2.46,13,3.45,8.74,2,17.6,3.44,26.49,4.68,35.58,4.83,71.57,6.55,107.5,6.65s71.92-1.3,107.58-5.58c8.91-1.08,17.8-2.4,26.61-4.09a160.88,160.88,0,0,0,25.91-6.91,50.81,50.81,0,0,0,6.06-2.74,19.62,19.62,0,0,0,5.25-3.85A6.48,6.48,0,0,0,339.37,19a3.12,3.12,0,0,0,.14-.74c0-.13,0-.25,0-.38l0-.37a3.77,3.77,0,0,0-.11-.75l-.24-.74a12.08,12.08,0,0,0-4.37-4.68,36.92,36.92,0,0,0-5.85-3.23c-2-.95-4.13-1.73-6.23-2.51C318.47,4.09,314.15,2.84,309.8,1.7Z"/><ellipse class="cls-3" cx="183.25" cy="46.21" rx="60.63" ry="15.05"/><ellipse class="cls-4" cx="312.85" cy="33.32" rx="55.33" ry="13.73" transform="translate(-0.72 58.99) rotate(-10.76)"/><ellipse class="cls-5" cx="59.72" cy="38.63" rx="13.73" ry="55.33" transform="translate(15.81 94.58) rotate(-84.77)"/></g></g></g></svg>