<svg width="65" height="65" viewBox="0 0 65 65" fill="none" xmlns="http://www.w3.org/2000/svg">
<path d="M47.7546 47.7776C56.2181 39.3141 56.2181 25.5921 47.7546 17.1287C39.2912 8.6652 25.5692 8.6652 17.1057 17.1287C8.64224 25.5921 8.64224 39.3141 17.1057 47.7776C25.5692 56.2411 39.2912 56.2411 47.7546 47.7776Z" stroke="#F8EEFF" stroke-width="2" stroke-miterlimit="10"/>
<path d="M30.8534 36.2406H33.6738L34.1439 24.2831H30.4127L30.8534 36.2406ZM32.2636 42.5866C33.4388 42.5866 34.3496 41.6465 34.3496 40.53C34.3496 39.3842 33.4388 38.4441 32.2636 38.4441C31.1472 38.4441 30.207 39.3842 30.207 40.53C30.207 41.6465 31.1472 42.5866 32.2636 42.5866Z" fill="white"/>
</svg>
