<svg xmlns="http://www.w3.org/2000/svg" xmlns:xlink="http://www.w3.org/1999/xlink" viewBox="0 0 516.88 521.43"><defs><style>.cls-1,.cls-54,.cls-58,.cls-62{fill:none;}.cls-2{isolation:isolate;}.cls-13,.cls-14,.cls-15,.cls-3{fill:#1a0e24;}.cls-4{clip-path:url(#clip-path);}.cls-20,.cls-31,.cls-5,.cls-56{fill:#c098f8;}.cls-19,.cls-27,.cls-31,.cls-5,.cls-56,.cls-59,.cls-60,.cls-68{mix-blend-mode:overlay;}.cls-6{opacity:0.4;}.cls-57,.cls-7{fill:#ab4587;}.cls-8{fill:#291377;}.cls-9{fill:#260937;}.cls-10{fill:#352963;}.cls-11{fill:#6fff90;}.cls-12{fill:#541d84;}.cls-13{opacity:0.56;}.cls-13,.cls-14,.cls-15,.cls-24,.cls-33,.cls-37,.cls-38,.cls-41,.cls-57{mix-blend-mode:multiply;}.cls-14{opacity:0.11;}.cls-15{opacity:0.49;}.cls-16,.cls-41{fill:#65205c;}.cls-17{clip-path:url(#clip-path-2);}.cls-18{opacity:0.65;}.cls-19,.cls-57{opacity:0.51;}.cls-21{fill:#c57a68;}.cls-22{fill:#ac504d;}.cls-23{fill:#67176c;}.cls-24{opacity:0.54;}.cls-25{fill:#2e1737;}.cls-26{clip-path:url(#clip-path-3);}.cls-28{fill:#4c1036;}.cls-29{clip-path:url(#clip-path-5);}.cls-30{fill:#340723;}.cls-31{opacity:0.64;}.cls-32{fill:#5029a0;}.cls-33{opacity:0.5;}.cls-34{clip-path:url(#clip-path-7);}.cls-35{fill:#abaecf;}.cls-36{fill:#91acda;}.cls-38,.cls-41{opacity:0.87;}.cls-39{fill:#ac4b5a;}.cls-40{fill:#7a2732;}.cls-42{clip-path:url(#clip-path-8);}.cls-43{clip-path:url(#clip-path-9);}.cls-44{fill:#1d1c33;}.cls-45{clip-path:url(#clip-path-10);}.cls-46{fill:#d3a88e;}.cls-47{clip-path:url(#clip-path-11);}.cls-48{fill:#fff6a7;}.cls-49{clip-path:url(#clip-path-12);}.cls-50{clip-path:url(#clip-path-13);}.cls-51{opacity:0.42;}.cls-52{fill:#7a274f;}.cls-53{fill:#48edf1;}.cls-54{stroke:#ab4587;stroke-width:2.31px;}.cls-54,.cls-58{stroke-miterlimit:10;}.cls-55{clip-path:url(#clip-path-14);}.cls-56{opacity:0.28;}.cls-58{stroke:#260937;stroke-width:2.88px;}.cls-59{fill:url(#linear-gradient);}.cls-60{fill:#9ac4cc;}.cls-61{fill:#ac1890;}.cls-62{stroke:#1a0e24;stroke-linecap:round;stroke-linejoin:round;stroke-width:1.11px;}.cls-63{fill:#fcaeff;}.cls-64{fill:#00a27b;}.cls-65{fill:#1a2427;}.cls-66{fill:#1a2524;}.cls-67{fill:#fff;}.cls-68{fill:#afd1d8;}.cls-69{clip-path:url(#clip-path-15);}.cls-70{mix-blend-mode:screen;fill:url(#radial-gradient);}</style><clipPath id="clip-path" transform="translate(7.36 10.39)"><rect class="cls-1" width="500" height="500"/></clipPath><clipPath id="clip-path-2" transform="translate(7.36 10.39)"><path class="cls-1" d="M269.83,438.12c-62.39,0-138.08,5.36-138.08-34.66s57.66-65.91,135.58-65.91c44,0,90.8,13.75,116.94,34.73,25,20.09,12.31,60.49-19.68,63C345.48,436.82,315.72,438.12,269.83,438.12Z"/></clipPath><clipPath id="clip-path-3" transform="translate(7.36 10.39)"><path class="cls-1" d="M228.22,325.38l-1.8,9.41s-20.75-3.59-37.64-.45-23.57,12.76-23.83,20,10.92,15.7,10.92,15.7,9.61,6.07,35.28,9.18,30.37-.53,30.37-.53a32.92,32.92,0,0,1,6.67,1.24s3.13-.21,12.66-6.74c0,0,5.5,13.48,12.86,16.22l33.89-12.78s21.09-7.6,32.59-16.18,21.29-15.41,23.74-25.67-4.65-21.65-14.56-23.77-38.4,4.15-47.7,7.49l-4.23-6.09s-11.69,3.79-21.61,4.94-19.94,1.6-26.91,3.19S228.22,325.38,228.22,325.38Z"/></clipPath><clipPath id="clip-path-5" transform="translate(7.36 10.39)"><path class="cls-1" d="M190,199.23c-.81,13.53-9.41,22-16.12,33.73s-12.06,26.15-6.67,38.58a20.28,20.28,0,0,1,4.58-17.81c-1.15,5.52.79,11.33,4,16s7.6,8.32,11.94,11.94a44.91,44.91,0,0,1,9.65-36.46,56.1,56.1,0,0,0,2.8,22.08c8.93-7.59,20.67-10.74,31.47-15.31,13-5.52,25.2-13.51,34.26-24.37s14.87-24.74,14.65-38.89c-.05-3.94-.63-8-2.78-11.34a19.91,19.91,0,0,0-7.09-6.13c-8.25-4.66-18-6.2-27.45-5.68a69.54,69.54,0,0,0-52.74,29.73"/></clipPath><clipPath id="clip-path-7" transform="translate(7.36 10.39)"><path class="cls-1" d="M265.51,231.13s9.4-4.37,15-5.29,17.32,8.32,17.32,8.32a144.66,144.66,0,0,1,22,23.37c-5.55,9.56-19.43,17.27-19.43,17.27L287.8,258.46s2.46,37,3.08,41.32,7.4,11.1,6.56,12.64-22,6.17-33.7,7.1-34.85,7.09-35.52,5.86,1-9.25,2.21-13-13.26-35.63-13.26-35.63l-10.09,15.28-22-9.25c10.79-27.45,20.12-40.95,27.14-43.49,5.39-2,8.21-1,8.21-1,28.56,14.7,45.06-7.17,45.06-7.17"/></clipPath><clipPath id="clip-path-8" transform="translate(7.36 10.39)"><path class="cls-1" d="M234.12,281c-5.22,3-8.35,5.82-10.18,6.47s-33,13.88-39.56,17-7.46,21.42,13,14.1a102.08,102.08,0,0,0,33.07-19.35s8.95,2.35,11.41,3,10.08-1.32,9.26-6.77c0,0-7.51-2.16-11.21-2.67s-5.14-3.19-4.42-4.32,1.9-4.41,4.77-4.1,9.26-1.33,9.36-3.29-2.76-.92-5.06-1C238.9,279.69,237.81,278.81,234.12,281Z"/></clipPath><clipPath id="clip-path-9" transform="translate(7.36 10.39)"><path class="cls-1" d="M273.35,274.2c5.92,1.21,9.78,2.82,11.72,2.85s35.68,2.51,42.92,3.31,14,17.87-7.74,17.53a102.14,102.14,0,0,1-37.55-7.65s-7.71,5.1-9.84,6.48-10,2-10.94-3.42c0,0,6.41-4.46,9.74-6.14s3.84-4.68,2.8-5.51-4.45-2.51-7.07-1.29-9.19,1.71-9.92-.1,2.31-1.76,4.45-2.61C267.18,275.59,269.16,273.35,273.35,274.2Z"/></clipPath><clipPath id="clip-path-10" transform="translate(7.36 10.39)"><path class="cls-1" d="M190,119.48s-10.08-33-20.32-25.64-2,28.74,15.47,35A51.55,51.55,0,0,1,190,119.48Z"/></clipPath><clipPath id="clip-path-11" transform="translate(7.36 10.39)"><path class="cls-1" d="M246.9,106.93S242.6,72.65,255,75.22s13.35,25.79,0,38.67A46.16,46.16,0,0,0,246.9,106.93Z"/></clipPath><clipPath id="clip-path-12" transform="translate(7.36 10.39)"><path class="cls-1" d="M184.43,147.23c-3.44,1-6.32,2.25-5.7,6s1.36,12.5,8.39,11.7,78.37-15.81,81.66-16.43,1.38-16,0-17.06C262.61,126.51,184.43,147.23,184.43,147.23Z"/></clipPath><clipPath id="clip-path-13" transform="translate(7.36 10.39)"><path class="cls-1" d="M243.26,322.37s.23,12.57-1.21,14.21-9.87,1.44-9.87,0V325.15Z"/></clipPath><clipPath id="clip-path-14" transform="translate(7.36 10.39)"><path class="cls-1" d="M151.52,81.9C114.13,72.9,91.24,45,91.24,45S68.35,72.9,31,81.9c0,0-8.31,69.16,60.24,100.89v-.47c0,.16,0,.31.08.47C159.83,151.06,151.52,81.9,151.52,81.9Z"/></clipPath><linearGradient id="linear-gradient" x1="263.02" y1="434.72" x2="263.02" y2="309.18" gradientUnits="userSpaceOnUse"><stop offset="0" stop-color="#fbf"/><stop offset="0.07" stop-color="#ebaaec" stop-opacity="0.91"/><stop offset="0.32" stop-color="#a66ea9" stop-opacity="0.59"/><stop offset="0.54" stop-color="#703f74" stop-opacity="0.34"/><stop offset="0.72" stop-color="#481d4e" stop-opacity="0.15"/><stop offset="0.86" stop-color="#300837" stop-opacity="0.04"/><stop offset="0.94" stop-color="#27002e" stop-opacity="0"/></linearGradient><clipPath id="clip-path-15" transform="translate(7.36 10.39)"><circle class="cls-1" cx="130.2" cy="227.54" r="20.61"/></clipPath><radialGradient id="radial-gradient" cx="288.48" cy="504.18" r="145.37" gradientTransform="translate(-192.58) scale(1.56 1)" gradientUnits="userSpaceOnUse"><stop offset="0" stop-color="#56b486"/><stop offset="0.13" stop-color="#4e9577" stop-opacity="0.83"/><stop offset="0.41" stop-color="#3d5658" stop-opacity="0.48"/><stop offset="0.65" stop-color="#312741" stop-opacity="0.22"/><stop offset="0.84" stop-color="#2a0b33" stop-opacity="0.06"/><stop offset="0.94" stop-color="#27002e" stop-opacity="0"/></radialGradient></defs><g class="cls-2"><g id="BACKGROUND"><rect class="cls-3" x="7.36" y="10.39" width="500" height="500"/></g><g id="OBJECTS"><g class="cls-4"><circle class="cls-5" cx="257.45" cy="228.22" r="173.22" transform="translate(-78.62 259.28) rotate(-45)"/><circle class="cls-5" cx="253.45" cy="226.85" r="110.3" transform="translate(-78.82 256.05) rotate(-45)"/><g class="cls-6"><rect class="cls-7" x="58.47" y="288.4" width="81.05" height="91.61"/><path class="cls-8" d="M64.18,209.54H-5v-16.3H64.18a8.15,8.15,0,0,1,8.15,8.15h0A8.15,8.15,0,0,1,64.18,209.54Z" transform="translate(7.36 10.39)"/><polygon class="cls-8" points="0 0 0 73.39 42.36 73.39 42.36 38.72 168.36 38.72 168.36 0 0 0"/><polygon class="cls-8" points="516.88 73.39 516.88 0 349.19 0 349.19 38.72 475.19 38.72 475.19 73.39 516.88 73.39"/><path class="cls-8" d="M91.73,233.09H-5V219.87H91.73a6.61,6.61,0,0,1,6.6,6.61h0A6.61,6.61,0,0,1,91.73,233.09Z" transform="translate(7.36 10.39)"/><path class="cls-8" d="M438.49,209.54h69.18v-16.3H438.49a8.15,8.15,0,0,0-8.16,8.15h0A8.15,8.15,0,0,0,438.49,209.54Z" transform="translate(7.36 10.39)"/><path class="cls-8" d="M410.94,233.09h96.73V219.87H410.94a6.61,6.61,0,0,0-6.61,6.61h0A6.61,6.61,0,0,0,410.94,233.09Z" transform="translate(7.36 10.39)"/><rect class="cls-3" x="67.65" y="298.78" width="62.67" height="70.84"/><rect class="cls-9" x="77.6" y="306.36" width="42.79" height="22.01"/><rect class="cls-10" x="81.34" y="310.28" width="35.3" height="15.03"/><rect class="cls-7" x="67.65" y="328.41" width="62.67" height="13.79"/><path class="cls-9" d="M133.82,289.68H48.66A13.18,13.18,0,0,1,35.48,276.5h0a13.18,13.18,0,0,1,13.18-13.18h85.16A13.18,13.18,0,0,1,147,276.5h0A13.18,13.18,0,0,1,133.82,289.68Z" transform="translate(7.36 10.39)"/><path class="cls-11" d="M125.31,269.5a3.41,3.41,0,1,1-3.4-3.41A3.41,3.41,0,0,1,125.31,269.5Z" transform="translate(7.36 10.39)"/><path class="cls-11" d="M95,324.91a3.41,3.41,0,1,1-3.41-3.4A3.41,3.41,0,0,1,95,324.91Z" transform="translate(7.36 10.39)"/><circle class="cls-11" cx="72.86" cy="279.89" r="3.41"/><path class="cls-3" d="M83.64,307.4A2.61,2.61,0,1,1,81,304.79,2.61,2.61,0,0,1,83.64,307.4Z" transform="translate(7.36 10.39)"/><path class="cls-3" d="M94.24,307.4a2.61,2.61,0,1,1-2.61-2.61A2.61,2.61,0,0,1,94.24,307.4Z" transform="translate(7.36 10.39)"/><path class="cls-3" d="M104.85,307.4a2.61,2.61,0,1,1-2.61-2.61A2.61,2.61,0,0,1,104.85,307.4Z" transform="translate(7.36 10.39)"/><rect class="cls-9" x="77.6" y="347.34" width="42.79" height="22.01"/><rect class="cls-10" x="81.34" y="351.25" width="35.3" height="15.03"/><path class="cls-3" d="M83.64,348.38A2.61,2.61,0,1,1,81,345.77,2.61,2.61,0,0,1,83.64,348.38Z" transform="translate(7.36 10.39)"/><path class="cls-3" d="M94.24,348.38a2.61,2.61,0,1,1-2.61-2.61A2.61,2.61,0,0,1,94.24,348.38Z" transform="translate(7.36 10.39)"/><path class="cls-3" d="M104.85,348.38a2.61,2.61,0,1,1-2.61-2.61A2.61,2.61,0,0,1,104.85,348.38Z" transform="translate(7.36 10.39)"/><path class="cls-5" d="M131.44,276.31H99.63v-13H86.5v13H49.06a4.06,4.06,0,1,0,0,8.12H86.5v5.25H74v79.94h36V289.68H99.63v-5.25h31.81a4.06,4.06,0,1,0,0-8.12Z" transform="translate(7.36 10.39)"/></g><g class="cls-6"><rect class="cls-7" x="391.56" y="288.4" width="81.05" height="91.61"/><rect class="cls-3" x="400.75" y="298.78" width="62.67" height="70.84"/><rect class="cls-9" x="410.69" y="306.36" width="42.79" height="22.01"/><rect class="cls-10" x="414.43" y="310.28" width="35.3" height="15.03"/><rect class="cls-7" x="400.75" y="328.41" width="62.67" height="13.79"/><path class="cls-9" d="M466.92,289.68H381.75a13.18,13.18,0,0,1-13.18-13.18h0a13.18,13.18,0,0,1,13.18-13.18h85.17a13.18,13.18,0,0,1,13.17,13.18h0A13.18,13.18,0,0,1,466.92,289.68Z" transform="translate(7.36 10.39)"/><path class="cls-3" d="M416.73,307.4a2.61,2.61,0,1,1-2.61-2.61A2.61,2.61,0,0,1,416.73,307.4Z" transform="translate(7.36 10.39)"/><path class="cls-3" d="M427.34,307.4a2.61,2.61,0,1,1-2.61-2.61A2.61,2.61,0,0,1,427.34,307.4Z" transform="translate(7.36 10.39)"/><path class="cls-3" d="M437.94,307.4a2.61,2.61,0,1,1-2.61-2.61A2.61,2.61,0,0,1,437.94,307.4Z" transform="translate(7.36 10.39)"/><rect class="cls-9" x="410.69" y="347.34" width="42.79" height="22.01"/><rect class="cls-10" x="414.43" y="351.25" width="35.3" height="15.03"/><path class="cls-3" d="M416.73,348.38a2.61,2.61,0,1,1-2.61-2.61A2.61,2.61,0,0,1,416.73,348.38Z" transform="translate(7.36 10.39)"/><path class="cls-3" d="M427.34,348.38a2.61,2.61,0,1,1-2.61-2.61A2.61,2.61,0,0,1,427.34,348.38Z" transform="translate(7.36 10.39)"/><path class="cls-3" d="M437.94,348.38a2.61,2.61,0,1,1-2.61-2.61A2.61,2.61,0,0,1,437.94,348.38Z" transform="translate(7.36 10.39)"/><path class="cls-5" d="M464.53,276.31H432.72v-13H419.59v13H382.16a4.06,4.06,0,1,0,0,8.12h37.43v5.25H407.07v79.94h36V289.68H432.72v-5.25h31.81a4.06,4.06,0,0,0,0-8.12Z" transform="translate(7.36 10.39)"/></g><ellipse class="cls-12" cx="270.13" cy="455.11" rx="202.48" ry="36.39"/><ellipse class="cls-3" cx="265.54" cy="449.11" rx="174.54" ry="26.31"/><ellipse class="cls-12" cx="265.54" cy="446.42" rx="139.3" ry="18.31"/><ellipse class="cls-13" cx="265.54" cy="442.9" rx="110.39" ry="11.62"/><ellipse class="cls-14" cx="143.08" cy="259.17" rx="15.94" ry="12.42"/><ellipse class="cls-14" cx="389.63" cy="252.69" rx="15.94" ry="12.42"/><path class="cls-15" d="M399.21,342.45c-1.08-3.67-3.64-7.37-6.87-9.09A25.16,25.16,0,0,0,385,324a81.68,81.68,0,0,0-12.28-8,43.36,43.36,0,0,0-5.18-4.29,42.59,42.59,0,0,0,2.65-3.59c1.75-2.68,3.15-6.26,1.41-8.95a7.64,7.64,0,0,0-1.72,0,13.41,13.41,0,0,0,.6-1.89c1.76-7.33-3.33-15.45-10.4-17s-27.43,3-34.07,5.35l-2.21-3.17.58-.15-.67,0-.72-1.05c.6-1.1-4.25-5.94-4.69-9-.05-.35-.12-1-.2-1.9.44-.07.88-.12,1.32-.16,7.62-.6,15.08,3.74,22.66,2.72a5.59,5.59,0,0,0,3-1.11,3.38,3.38,0,0,0,1-1.73c3.85-.67,5.5-7.11,3.89-11.13s-9.25-11.86-11.6-14.2a26.88,26.88,0,0,0,1.56-3.41c-.31.25-.63.48-.95.72-.18-.24-2.25-3.06-5.56-6.78a10.46,10.46,0,0,0-1.83-7.88,26.32,26.32,0,0,0-6.86-6.35,15.56,15.56,0,0,0-5.94-3,10.7,10.7,0,0,0-6.9,1.35,4,4,0,0,0-1,0c-4,.66-10.66,3.74-10.72,3.77l-.4,0h-.08l-.48-.05h-.09l-.46-.05h-.1l-.24,0c.72-.76,1.42-1.54,2.1-2.35,6.47-7.75,10.61-17.67,10.46-27.77a20,20,0,0,0-.63-5l.36-.42.4-.48c.66-.8,1.31-1.63,1.95-2.45l.75-1c.38-.48.75-.94,1.12-1.38l.76-.92.2-.25.52-.65c.07-.08.13-.17.2-.26l.48-.61.17-.24.47-.61.15-.21.28-.39.17-.24.11-.16.46-.65.07-.11.46-.69,0-.05.61-.95c.27-.44.52-.87.75-1.27.12-.2.23-.4.33-.59.21-.39.4-.76.58-1.11a20,20,0,0,0,.81-1.87c.1-.28.18-.53.25-.77a6.1,6.1,0,0,0,.22-.93,4.57,4.57,0,0,0,.05-.46,1.09,1.09,0,0,0,0-.19.7.7,0,0,0,0-.16c-.05-.24-.16-.35-.32-.33-1,.14-11.36,6-16.23,7.16a7.05,7.05,0,0,1-.81.15,28.54,28.54,0,0,0-1.78-10.22,4.65,4.65,0,0,0,1.15-.93c1-1.13,1.22-3.11,0-4a5.38,5.38,0,0,1-1.23,1.29,27.25,27.25,0,0,0-.85-8.14,3.28,3.28,0,0,0,1-3,4.33,4.33,0,0,0-1.47-2.07,20.37,20.37,0,0,0-3.62-2.58,4.36,4.36,0,0,1-1,1.82,39.25,39.25,0,0,0-5.33-7.62l.08.09A23.07,23.07,0,0,0,299.49,125a18.1,18.1,0,0,0,0-8.12h.44l-1-2a3.43,3.43,0,0,0-1.83-2,2.39,2.39,0,0,0-1.55.17,7.23,7.23,0,0,0-2.82-1.26c-8.77-1.82-5.8,22.27-5.76,22.63a25.89,25.89,0,0,0-18.16-3.89h0a34,34,0,0,0-3.51.65h0l-.15,0c-10.34,2.46-16.38,7.92-19.89,13.81a17.43,17.43,0,0,1,1-1.62s-7.2-23.59-14.52-18.31a7.38,7.38,0,0,0-2.13,2.4,5.78,5.78,0,0,0-1.05,1.62,9.34,9.34,0,0,0-.4,6.54l0-.57a21,21,0,0,0,2.72,7.19,8.18,8.18,0,0,0,4.4,3.27,22.32,22.32,0,0,0,7.49,4.57,36.37,36.37,0,0,0-1.53,5.37,4.49,4.49,0,0,1,.29-3.55l-2.93,3.76a42.78,42.78,0,0,0-1.1,11.67,3.8,3.8,0,0,0,.06.58,3.45,3.45,0,0,0,.57,3.77l-.53-3.63a1.15,1.15,0,0,0,.25.46,1.08,1.08,0,0,0,.58.3,16.55,16.55,0,0,0,1.09,4.07,4.69,4.69,0,0,1-1.39-1.2l.2,1.37a5.68,5.68,0,0,0,3.66,3.76v.07h0a15.51,15.51,0,0,0,1.46,7.47,5.72,5.72,0,0,0-.58,0h0a6,6,0,0,0-.81.11c-4.36.86-17.45-1.77-18.47-1.59-.81.15.58,3.18,6.41,7.66l.13.09c.25.2.51.39.78.59l.15.11c.61.45,1.27.91,2,1.38l.28.19.81.53.32.21,1.14.72c1.57,1,3.24,2.15,4.93,3.22l.54.33a26.09,26.09,0,0,0,2.66,1.48,63.63,63.63,0,0,1-3.81,15.86l2-2.12c-1.28,2.16-2.74,4.29-4.19,6.51a42.29,42.29,0,0,0-14.45,22.52l-2.16,3.26c-.2,2.91-.39,5.91.45,8.71,2.07,6.95,9.54,10.53,16.24,13.3.86.35,1.76.7,2.67,1-1.44,3.28-2.77,6.87-2.89,9.21a10.55,10.55,0,0,0,2,6.39,3.12,3.12,0,0,0,.74,2.69,5.15,5.15,0,0,0,3.73,1.2c8.33.17,16.15-3.69,23.58-7.45l2.08-1.05a39.31,39.31,0,0,1,.24,6.6,17,17,0,0,0,.1,4.89,4.42,4.42,0,0,0,2.8,3.29l-.56,2.93s-14.83-2.56-26.89-.32C234.27,299,229.35,305,228.51,310a56.68,56.68,0,0,0-7.46,3.77c-4.66,2.83-9.12,6.62-10.81,11.8a3.15,3.15,0,0,0-.2,1.65,1.66,1.66,0,0,0,.8,1.13,29.62,29.62,0,0,0-6.18,17.95,20,20,0,0,0,.47,4.34c-.12.24-.25.47-.35.72-2.53,6.08,1.82,14,8.31,15.06l-1.27,2.79c4.84,5.83,13.26,6.84,20.82,7.32A786.8,786.8,0,0,0,353,374.79a166.52,166.52,0,0,0,22.91-3.27c10-2.33,20.69-7.51,23.54-17.34A21.09,21.09,0,0,0,399.21,342.45Zm-82-86.29c0-.34,0-.68-.05-1-.06-.6-.11-1.21-.14-1.82l-.15,0c-.3-4.43-.57-8.3-.67-9.85l.13.25v0l-.13-.22c0-.46-.05-.72-.05-.72l.17.21c0,.25,0,.49,0,.73l6.29,10.16c.74,1.2,1.74,2.55,3.16,2.52a3.89,3.89,0,0,0,1.72-.59l.69-.41c.42.5.92,1.07,1.47,1.71l0,0h0l0,0C324.9,256.71,320.15,256.37,317.18,256.16ZM302,176.8Zm-46,92.26c.19.07.39.13.58.18l-.78.33Z" transform="translate(7.36 10.39)"/><path class="cls-7" d="M318,260.3s14.46,14,17.22,20.85-1.3,18.84-9.5,14.88-23.22-22.46-23.22-22.46Z" transform="translate(7.36 10.39)"/><path class="cls-16" d="M302.5,273.57s1.95,2.35,4.24,5c5.46.59,10.47.41,15.95.51a2.14,2.14,0,0,0,1.67-.46c-10.93-3.51-16.49-2.94-21.86-5Z" transform="translate(7.36 10.39)"/><path class="cls-9" d="M269.83,438.12c-62.39,0-138.08,5.36-138.08-34.66s57.66-65.91,135.58-65.91c44,0,90.8,13.75,116.94,34.73,25,20.09,12.31,60.49-19.68,63C345.48,436.82,315.72,438.12,269.83,438.12Z" transform="translate(7.36 10.39)"/><path class="cls-11" d="M269.83,438.12l-19.26.6-19.26.4c-6.42.13-12.85.07-19.28,0s-12.86-.34-19.29-.75-12.84-1.16-19.21-2.2a101.36,101.36,0,0,1-18.81-4.71c-6-2.28-12-5.35-16.49-10.16a23.71,23.71,0,0,1-2.95-3.89,22,22,0,0,1-2.11-4.4,25.56,25.56,0,0,1-1.42-9.52,27.39,27.39,0,0,0,1.91,9.33,21.85,21.85,0,0,0,2.25,4.18,22.81,22.81,0,0,0,3,3.62c4.47,4.5,10.32,7.34,16.3,9.39,12.08,4,24.9,5.49,37.64,6.37s25.6,1.09,38.43,1.24l19.25.15C257,437.85,263.41,437.89,269.83,438.12Z" transform="translate(7.36 10.39)"/><g class="cls-17"><g class="cls-18"><path class="cls-3" d="M191.22,346.69a78.87,78.87,0,0,0-36.53,11.23c-6.53,3.95-12.77,9.26-15.14,16.52a4.37,4.37,0,0,0-.28,2.31c.67,3,5.12,2.18,7.87.83a75.33,75.33,0,0,1,41.1-7.22c-5,1.87-10.12,3.81-14.22,7.24s-7.06,8.7-6.3,14a93.29,93.29,0,0,1,48-14.65,35.52,35.52,0,0,0-22.82,27.42,80.11,80.11,0,0,1,36.86-20.28,138.86,138.86,0,0,0-20.54,16.67,21.78,21.78,0,0,1,9.69-3.53,25,25,0,0,1-6.38,9.13c12.87-.71,24.82-6.61,36.34-12.4a184.77,184.77,0,0,1-24,14.67,168.35,168.35,0,0,0,41.44-16L260,404.45a26.65,26.65,0,0,0,13.71-10,30.12,30.12,0,0,1,4.1,7.77l1.05-6.73a46.86,46.86,0,0,1,19.6,14.14c-.24-6.79-4.61-12.64-8.79-18a77.24,77.24,0,0,1,31,13.09A87.91,87.91,0,0,0,301,387.77c24.37-2.57,48.4,6.12,71.1,15.37,1.93.79,4.76,1.25,5.57-.67.47-1.12-.14-2.38-.79-3.4-5.41-8.49-14.61-13.78-23.81-17.89s-18.89-7.45-26.95-13.49a157,157,0,0,1,49.5,6.54c.08-2.61-1.42-5-3-7.06-12.68-16.52-33.8-24.78-54.54-26.69s-41.54,1.75-62.13,4.95-41.65,5.94-62.15,2.23" transform="translate(7.36 10.39)"/></g><g class="cls-19"><path class="cls-20" d="M143.55,431.62c-9.09-1.54-15.18-12.57-11.64-21.08s15.64-12,23.15-6.63c4.94,3.52,8,10,13.86,11.42,5.73,1.36,11.16-2.73,15.8-6.36s10.71-7.17,16.07-4.72c-1.91,7.17,3,14.86,9.65,18.15s14.52,3,21.82,1.7,14.44-3.67,21.83-4.33c10.58-.95,21.11,1.57,31.62,3s21.78,1.73,31.15-3.26c9.17-4.89,17.13-14.8,27.39-13.17,6.46,1,11.26,6.53,17.34,9A19.27,19.27,0,0,0,388,395.94c-.3-3.91-1.8-7.75-1.28-11.63,8-2,15.11,5.95,17.43,13.81a29.45,29.45,0,0,1,.37,16.43c-4,13.75-19,21-32.95,24.27-10.53,2.46-21.32,3.6-32.08,4.58a1101.59,1101.59,0,0,1-168.55,2.37c-10.59-.66-22.38-2.07-29.16-10.24" transform="translate(7.36 10.39)"/></g></g><path class="cls-21" d="M311.5,351.25c-9.87,6.79-37.79,38.17-37.79,38.17s-26.31,9.87-37.21,15.63-20.77,8.22-23.85,2.05,1.85-5.75,7.4-9.87,11.51-8,15.42-14,8.84-4.52,11.72-3.49,13.66-6.56,13.66-6.56" transform="translate(7.36 10.39)"/><path class="cls-22" d="M247.19,379.76c-2.88-1-7.81-2.47-11.72,3.49s-9.87,9.87-15.42,14-10.48,3.7-7.4,9.87c2.25,4.5,8.11,4.39,15.34,1.78.36-.93.52-1.95.9-2.89,1.31-3.27,5-4.78,7.7-7,4.49-3.75,6.54-9.87,11.19-13.39a14.18,14.18,0,0,1,14.44-1.44c1.57.75,4.2,1.29,4.38-.45a2.64,2.64,0,0,0-.33-1.27q-2.24-4.8-4.45-9.62l-1,.42S250.07,380.79,247.19,379.76Z" transform="translate(7.36 10.39)"/><path class="cls-23" d="M228.22,325.38l-1.8,9.41s-20.75-3.59-37.64-.45-23.57,12.76-23.83,20,10.92,15.7,10.92,15.7,9.61,6.07,35.28,9.18,30.37-.53,30.37-.53a32.92,32.92,0,0,1,6.67,1.24s3.13-.21,12.66-6.74c0,0,5.5,13.48,12.86,16.22l33.89-12.78s21.09-7.6,32.59-16.18,21.29-15.41,23.74-25.67-4.65-21.65-14.56-23.77-38.4,4.15-47.7,7.49l-4.23-6.09s-11.69,3.79-21.61,4.94-19.94,1.6-26.91,3.19S228.22,325.38,228.22,325.38Z" transform="translate(7.36 10.39)"/><path class="cls-11" d="M188.78,334.34a42.88,42.88,0,0,0-12.29,4.71,27.38,27.38,0,0,0-5.17,3.94,20.76,20.76,0,0,0-3.83,5.13,14.56,14.56,0,0,0-1.69,6,10.39,10.39,0,0,0,1.83,5.77,29.91,29.91,0,0,0,4,5,45.86,45.86,0,0,0,4.81,4.34l-.07,0A28.64,28.64,0,0,0,180,371c1.27.54,2.57,1,3.87,1.47,2.62.9,5.29,1.67,8,2.37,5.4,1.33,10.88,2.4,16.4,3.21s11.08,1.49,16.66,1.85c2.78.18,5.57.29,8.36.2a41.34,41.34,0,0,0,4.17-.32,12.74,12.74,0,0,0,4-1,12.62,12.62,0,0,1-4,1.37,39.77,39.77,0,0,1-4.19.57,74.48,74.48,0,0,1-8.45.28,163.42,163.42,0,0,1-16.83-1.26,147.38,147.38,0,0,1-16.65-3c-2.74-.7-5.47-1.46-8.16-2.37-1.34-.46-2.67-1-4-1.52a32.08,32.08,0,0,1-3.92-1.91l0,0,0,0a38.68,38.68,0,0,1-9.19-10,13.56,13.56,0,0,1-1.88-4.94,12.39,12.39,0,0,1-.06-1.82,16.19,16.19,0,0,1,2.06-6.62,23.62,23.62,0,0,1,9.86-9.15A40.14,40.14,0,0,1,188.78,334.34Z" transform="translate(7.36 10.39)"/><g class="cls-24"><path class="cls-23" d="M243.33,333.36c-.3,1-.79,1.88-1.13,2.83a9.86,9.86,0,0,0-.48,4.63,7.25,7.25,0,0,0,.92-1.15l2.19-3.17a.43.43,0,0,0,.11-.33.39.39,0,0,0-.19-.21,5.32,5.32,0,0,1-1.82-2.51" transform="translate(7.36 10.39)"/></g><g class="cls-24"><path class="cls-23" d="M286.71,325.63a16.23,16.23,0,0,1,2.71,6.16,23,23,0,0,0-4.41-4.24,9.92,9.92,0,0,1,1.88-1.95" transform="translate(7.36 10.39)"/></g><g class="cls-24"><path class="cls-23" d="M212.49,345.38c13.73-1.31,26.5,6.56,40,9.58a28.81,28.81,0,0,1-5.13-11c3.57,5,12.44,11.85,18,14.46,0-5.68-4.42-19.05-5.05-20.08,2.62,1.6,3.65,4.56,4.44,7.53.53,2,1.79,9.93,3.86,10.21,1.43.2,1.94-3.14,2.89-4.22,0,0-2.89-12.8-2.89-16.65.5,4.49,11.5,11.56,10.43,15.68a41.72,41.72,0,0,0,8.36-14.3A24.47,24.47,0,0,1,286,347.29c7-5.11,15.06-8.63,23-12.11-14.06,7.65-26.44,17.4-38.68,27.71-.37.31-1.69,0-2.17,0a2.55,2.55,0,0,1-.86-.15,295.57,295.57,0,0,1-28.83-10.11c-9.24-3.9-19.05-8.64-28.86-6.5" transform="translate(7.36 10.39)"/></g><path class="cls-25" d="M259.47,328.9l-.77-.77a2.07,2.07,0,0,0-.52,1.56,6.58,6.58,0,0,0,.23,1.33l.62,2.43,1.22,4.86L262.7,348l4.89,19.44-4.36-19.57-2.18-9.77L260,333.24l-.54-2.44C259.21,330,259.14,329.18,259.47,328.9Z" transform="translate(7.36 10.39)"/><path class="cls-25" d="M267.71,327.07l-1.08.18q3.28,18.22,7.37,36.28Q270.45,345.37,267.71,327.07Z" transform="translate(7.36 10.39)"/><path class="cls-25" d="M272,360.2l.87.66a109.62,109.62,0,0,0,13.55-24.35A109.07,109.07,0,0,1,272,360.2Z" transform="translate(7.36 10.39)"/><path class="cls-25" d="M268.16,363.53l.39-1a46.37,46.37,0,0,1-19.89-13.92A47,47,0,0,0,268.16,363.53Z" transform="translate(7.36 10.39)"/><g class="cls-26"><g class="cls-27"><path class="cls-20" d="M224.08,382.63a75.93,75.93,0,0,1-47.23-10.73c-2.83-1.74-5.64-3.78-7.22-6.7s-1.54-6.95.9-9.22c1.95-1.82,4.85-2.08,7.52-2.2a265,265,0,0,1,37.8.92c8.88.84,18.16,2.32,25.19,7.8A85.8,85.8,0,0,0,216.78,360a55.5,55.5,0,0,0,33.74,10.37c3.15-.1,7.21.09,8.26,3.07s-1.94,5.64-4.71,7c-11.95,5.89-26,4.49-39.27,3" transform="translate(7.36 10.39)"/></g></g><g class="cls-26"><g class="cls-27"><path class="cls-20" d="M271.31,362.17a156.2,156.2,0,0,1,39.39-23.9Q298.36,349.79,286,361.32c20.57-4.44,44-1.42,60.8-14.07,5.79-4.35,11.5-10.72,18.68-9.78,2.43,3.76.47,8.77-2,12.53-9.76,15-26.16,24.1-42.36,31.62-10.32,4.78-21.19,9.23-32.57,9.19s-23.43-5.58-28-16a4.58,4.58,0,0,1-.5-2.9,5.11,5.11,0,0,1,2.31-2.6c9-6.4,16.32-11.46,24.06-19.39" transform="translate(7.36 10.39)"/></g></g><path class="cls-3" d="M297.44,312.42l4.23,6.09s-18.3,12.63-36.59,16.28-38.66,0-38.66,0l1.8-9.41s19.59-5.41,37.68-6.87A142.28,142.28,0,0,0,297.44,312.42Z" transform="translate(7.36 10.39)"/><path class="cls-28" d="M190,199.23c-.81,13.53-9.41,22-16.12,33.73s-12.06,26.15-6.67,38.58a20.28,20.28,0,0,1,4.58-17.81c-1.15,5.52.79,11.33,4,16s7.6,8.32,11.94,11.94a44.91,44.91,0,0,1,9.65-36.46,56.1,56.1,0,0,0,2.8,22.08c8.93-7.59,20.67-10.74,31.47-15.31,13-5.52,25.2-13.51,34.26-24.37s14.87-24.74,14.65-38.89c-.05-3.94-.63-8-2.78-11.34a19.91,19.91,0,0,0-7.09-6.13c-8.25-4.66-18-6.2-27.45-5.68a69.54,69.54,0,0,0-52.74,29.73" transform="translate(7.36 10.39)"/><g class="cls-29"><path class="cls-30" d="M186.79,193.34a89.46,89.46,0,0,1-5.72,26.79l16.83-17.94a56.17,56.17,0,0,1-14.18,26.33L199,218.67a32.67,32.67,0,0,1-9.73,14.53,50.4,50.4,0,0,0,19.64-33.56,144.41,144.41,0,0,1-3,26.46,52.36,52.36,0,0,0,11.64-30.94,51.33,51.33,0,0,1-3.28,40.74A97.26,97.26,0,0,0,224.74,223a21.33,21.33,0,0,1-3.49,9.32A32.44,32.44,0,0,0,238.77,206a27.27,27.27,0,0,1,2.06,17.16,32.88,32.88,0,0,0,9-15.69,29.56,29.56,0,0,1-6.07,22.39,68.4,68.4,0,0,0,20.47-24.39,47.68,47.68,0,0,1-11,22.38,46.56,46.56,0,0,0,20.1-24c-.48,1.58-.95,3.16-1.43,4.75a50.75,50.75,0,0,0,3.43-33.85c-3.13,4.42-8.52,6.77-13.87,7.6s-10.81.36-16.22.27a112.46,112.46,0,0,0-45.88,9" transform="translate(7.36 10.39)"/></g><g class="cls-29"><g class="cls-27"><path class="cls-20" d="M157.75,257.81a59.27,59.27,0,0,1,30.32-38.1A65.84,65.84,0,0,0,171.68,250a38.34,38.34,0,0,1,17-20.31,32.21,32.21,0,0,0-8.23,21.17c1.37-4.53,5.58-7.47,9.2-10.51a59.58,59.58,0,0,0,17-23.68,54.38,54.38,0,0,1-8.88,23.22,34,34,0,0,0,15.89-23.57A54.26,54.26,0,0,1,205,248.39c11-6.37,25.33-11.3,29.9-23.52-1.6,11.08-3.62,23-11.64,30.82-4.22,4.11-9.77,6.69-13.88,10.91-4.43,4.56-6.85,10.68-8.66,16.77-1.17,4-2.35,8.34-5.72,10.76-4.79,3.45-11.43,1.31-16.89-.95-9.38-3.87-19.83-8.89-22.74-18.61-1.17-3.93-.9-8.12-.62-12.21" transform="translate(7.36 10.39)"/></g></g><path class="cls-7" d="M248.63,212.15s.21,15.26,9.46,17.52a26.11,26.11,0,0,0,9.21,1.46S265.07,243,246,246.53s-26.73-7.81-26.73-7.81,11.31-3.37,12.33-10a27.23,27.23,0,0,0-1.13-12.4A99.71,99.71,0,0,0,248.63,212.15Z" transform="translate(7.36 10.39)"/><path class="cls-31" d="M267.21,231.48l-.7-.33a26.48,26.48,0,0,1-8.42-1.48,9,9,0,0,1-3.93-2.11,56.75,56.75,0,0,0-8.06-.57,53,53,0,0,0-14.59,2c-1.28,6.47-12.28,9.75-12.28,9.75S226.84,250,246,246.53C263.12,243.39,266.67,233.48,267.21,231.48Z" transform="translate(7.36 10.39)"/><path class="cls-16" d="M250.38,221.69h.05a32.31,32.31,0,0,1-1.8-9.53,99.71,99.71,0,0,1-18.2,4.16,24.63,24.63,0,0,1,1,4A68.14,68.14,0,0,0,250.38,221.69Z" transform="translate(7.36 10.39)"/><path class="cls-9" d="M265.51,231.13s9.4-4.37,15-5.29,17.32,8.32,17.32,8.32a144.66,144.66,0,0,1,22,23.37c-5.55,9.56-19.43,17.27-19.43,17.27L287.8,258.46s2.46,37,3.08,41.32,7.4,11.1,6.56,12.64-22,6.17-33.7,7.1-34.85,7.09-35.52,5.86,1-9.25,2.21-13-13.26-35.63-13.26-35.63l-10.09,15.28-22-9.25c10.79-27.45,20.12-40.95,27.14-43.49,5.39-2,8.21-1,8.21-1,28.56,14.7,45.06-7.17,45.06-7.17" transform="translate(7.36 10.39)"/><ellipse class="cls-32" cx="261.21" cy="283.65" rx="15.98" ry="14.92"/><circle class="cls-9" cx="255.36" cy="282.08" r="3.97"/><polygon class="cls-9" points="269.51 280.68 268.09 279.82 269.47 277.75 266.54 276.31 265.86 278.46 263.8 277.21 263.8 279.98 265.24 280.39 264.36 283.13 265.52 283.65 267.3 280.99 269.47 281.61 269.51 280.68"/><g class="cls-33"><path class="cls-9" d="M289.21,275.87c-.09-.85-.16-1.7-.19-2.55l-15.16-3c-3.37-.66-6.87-1.32-10.19-.46-6.61,1.71-11.91,9.17-18.52,7.48-2.33-.6-4.33-2.32-6.73-2.49a9.93,9.93,0,0,0-5.49,1.73,59.32,59.32,0,0,0-11.79,8.81,26.43,26.43,0,0,1,2,4.18,15,15,0,0,1,.81,3.82,22.17,22.17,0,0,0,4.54.92c6.09.66,12.34,1.31,18.26-.27,4-1.06,7.83-3.14,11.95-2.91,3.65.21,7.32,2.22,10.81,1.12a12.82,12.82,0,0,0,3.08-1.63l16.39-10.73.46-.31C289.35,278.36,289.27,277.12,289.21,275.87Z" transform="translate(7.36 10.39)"/></g><path class="cls-32" d="M259.84,261.79s.22-13.16,6.55-11-4,14.54-4,14.54Z" transform="translate(7.36 10.39)"/><path class="cls-32" d="M244.51,264.22s-8.15-11.59-11.91-7.2,9.54,9.82,9.54,9.82Z" transform="translate(7.36 10.39)"/><g class="cls-34"><path class="cls-3" d="M188.22,281.84c4.38,1.89,9.22,3.11,13.93,2.31s9.2-4,10.54-8.56a8.88,8.88,0,0,1-6.55,2.6,15.55,15.55,0,0,0,7.75-8,36,36,0,0,0,2.74-11,28.35,28.35,0,0,1,1.19,11.28,18.18,18.18,0,0,1,9.57-9.89,28.25,28.25,0,0,0-4.8,14.32,8.74,8.74,0,0,1,5.37-4.83c-2.82,6.38-5.63,13.79-2.57,20.05a22.05,22.05,0,0,0,3,4.32c3.77,4.58,8.27,9.22,14.12,10.13,5,.77,10-1.37,14.62-3.46l-12.47,8.46a4.89,4.89,0,0,0-1.58,1.45c-1.13,1.88.65,4.3,2.7,5.1,3.58,1.42,7.61.08,11.23-1.25l25.21-9.29a109.81,109.81,0,0,1-23.39,11.2c11.63,1.19,22.83-4.07,33.33-9.2l-8.28,6.66,15.52-.4q-34,9.08-68.48,16.67a8.69,8.69,0,0,1-3.2.29c-2.26-.37-3.87-2.52-4.41-4.75a23.37,23.37,0,0,1-.14-6.84c.46-9-1.69-17.94-3.83-26.71-.17-.69-.43-1.48-1.09-1.7a2,2,0,0,0-1.49.28c-3.54,1.78-6.73,5-10.68,4.77-2.13-.11-4.06-1.23-5.9-2.32l-6.95-4.14c-3.09-1.83-6.26-3.73-8.41-6.61a6.74,6.74,0,0,1,3.2-.46" transform="translate(7.36 10.39)"/><g class="cls-19"><path class="cls-20" d="M199,249.48a63.37,63.37,0,0,1-8.19,24.14c4.51,1.56,9.53-1,12.69-4.6s5.06-8.07,7.77-12,6.74-7.49,11.51-7.59a26.79,26.79,0,0,0-1.57,7.92c4.53-4.8,11.06-9.17,17.33-7.09,1.69.56,3.21,1.56,4.92,2.06,7.86,2.26,15.34-6.73,23.41-5.43a9.91,9.91,0,0,1,8.06,9.07c.06,1.56-.13,3.42,1.11,4.36s3.23.13,4.07-1.23a12.57,12.57,0,0,0,1.2-4.61,19.27,19.27,0,0,1,8-12.47,27.81,27.81,0,0,1,.47,6.63,15.08,15.08,0,0,1,8.83-8.35,30.2,30.2,0,0,1,2.63,14.76c4.14,1.44,8.94-1.5,10.47-5.6S312,240.6,309.5,237s-6-6.35-9.6-8.89c-2.56-1.81-5.25-3.6-8.33-4.17-4.39-.8-8.89,1.05-12.5,3.68s-6.58,6-10,8.91a46.28,46.28,0,0,1-43.4,8.56c-4.7-1.52-9.21-3.83-14.12-4.37S201,242,199,246.53" transform="translate(7.36 10.39)"/></g><path class="cls-3" d="M288.05,259.84a43.62,43.62,0,0,1,1-11.68,17.18,17.18,0,0,0,1.84,10.78A27.07,27.07,0,0,1,296,247.25a29.7,29.7,0,0,0-1.74,10.53,13.31,13.31,0,0,0,4.3,9.52,5,5,0,0,0,2.6,1.26,6.31,6.31,0,0,0,3.63-1.12,123.5,123.5,0,0,0,16.43-10.95,39.07,39.07,0,0,1-17.5,20.21,5.19,5.19,0,0,1-2.41.83c-2,.05-3.38-1.84-4.42-3.53l-9-14.56" transform="translate(7.36 10.39)"/></g><path class="cls-11" d="M228.22,325.38a4.12,4.12,0,0,1-.28-1.6c0-.54,0-1.08,0-1.62.06-1.09.18-2.16.32-3.23a52.59,52.59,0,0,1,1.28-6.38l.11-.38a.72.72,0,0,1,0-.21,5.5,5.5,0,0,0-.07-.66c-.07-.47-.19-1-.31-1.47-.26-1-.6-2-.93-3q-1-3-2.18-6c-1.5-4-3.08-8-4.6-12s-3-8-4.43-12.08c2.14,3.73,4.06,7.58,5.86,11.47s3.49,7.85,5,11.87c.74,2,1.47,4,2.11,6.12.3,1.05.6,2.09.83,3.18a14.38,14.38,0,0,1,.27,1.68,7.26,7.26,0,0,1,0,.94c0,.2-.07.4-.11.59l-.14.38c-.68,2-1.27,4-1.8,6.1-.28,1-.51,2.06-.73,3.11-.12.52-.21,1-.28,1.57A3.82,3.82,0,0,0,228.22,325.38Z" transform="translate(7.36 10.39)"/><path class="cls-35" d="M242.1,281.08q-2.08,1.05-4.09,2.24c-1.76,1.05-3.61,2.37-4.08,4.37a5.32,5.32,0,0,0,2,5.09,11.72,11.72,0,0,0,5.26,2.2c9,1.83,18.29-.38,27.1-3,3.22-.95,6.8-2.26,8.15-5.33a6.13,6.13,0,0,0-2.94-7.76c-2.2-1-4.75-.58-7.14-.2-8.79,1.43-17.38,3-26.28,2.92" transform="translate(7.36 10.39)"/><g class="cls-33"><path class="cls-9" d="M242.38,284.17c-1.6.74-3.5,2.06-3.07,3.78.39,1.53,2.33,1.95,3.91,2A104.84,104.84,0,0,0,264,288.92l-12.87,4.5c-.28.1-.63.33-.5.61l2.17.39c-2.14,1.46-5,1.14-7.56.76-3.19-.46-6.51-1-9.11-2.88a4.54,4.54,0,0,1-1.28-1.34,3.84,3.84,0,0,1,.68-4.22,10.53,10.53,0,0,1,3.76-2.51" transform="translate(7.36 10.39)"/></g><g class="cls-33"><path class="cls-9" d="M249.14,280.66c.74.87-.13,2.19-1.06,2.87-3,2.2-6.88,2.89-9.88,5.07-.48.35-1,.88-.81,1.45s.65.69,1.11.85l12.91,4.46c-2,.63-4.06,0-6.08-.27-1.85-.27-3.73-.26-5.59-.51a10.31,10.31,0,0,1-5.18-1.94,5.18,5.18,0,0,1-2-4.93c.57-2.55,3.37-3.91,5.93-4.37s5.32-.42,7.57-1.75" transform="translate(7.36 10.39)"/></g><g class="cls-33"><path class="cls-9" d="M257.59,280c-.29.32.09.81.45,1.06a10.85,10.85,0,0,0,6.07,1.88c1.56,0,3.09-.34,4.64-.41a6.5,6.5,0,0,1,4.42,1.12c-1.11,2.18-3.12,3.73-5.08,5.21L262,293.42c2.88-1.33,5.71-2.78,8.46-4.35,3.08-1.76,6.24-3.84,7.67-7.08a1.34,1.34,0,0,0,.14-.51c0-.39-.36-.68-.69-.89a10.47,10.47,0,0,0-4.78-1.64c-3.86-.34-7.69,1.48-11.54,1" transform="translate(7.36 10.39)"/></g><path class="cls-9" d="M272.73,319.76A2.59,2.59,0,0,0,270,318l-17.51,1.88c-3.59,0-4.47,2.94-2.62,7.46s3.7,11.1,7.61,11.31,16.65-2.88,18.09-4.73C276.67,332.49,274,323.76,272.73,319.76Zm-14.64,14.32c-2-.41-4.8-10.16-4.8-10.16l15.6-2.38s3.18,8.84,3.18,10.08S260.15,334.49,258.09,334.08Z" transform="translate(7.36 10.39)"/><path class="cls-9" d="M262.09,327.3a2.33,2.33,0,0,1,1.62-2.24c3-1.05,10.38-3.43,12.12-2.46,2.2,1.24,0,4.37-6.73,5.68C263.89,329.3,262.18,329,262.09,327.3Z" transform="translate(7.36 10.39)"/><path class="cls-23" d="M281.33,316.89s6.16,9.85,7.39,11.69,8.22-3.1,9-4.33-5.69-9.81-5.69-9.81Z" transform="translate(7.36 10.39)"/><path class="cls-23" d="M243.26,322.37s.23,12.57-1.21,14.21-9.87,1.44-9.87,0V325.15Z" transform="translate(7.36 10.39)"/><path class="cls-25" d="M191.58,345.11a116.65,116.65,0,0,1,20,.24,92.54,92.54,0,0,1,9.93,1.49,72.53,72.53,0,0,1,9.7,2.67c3.17,1.17,6.2,2.53,9.32,3.73s6.23,2.39,9.38,3.5c6.3,2.2,12.67,4.25,19.1,6l-.32,1.2c-6.46-1.85-12.8-4-19.09-6.3-3.14-1.16-6.26-2.39-9.36-3.65s-6.15-2.68-9.24-3.87a82.92,82.92,0,0,0-19.45-4.43A117.34,117.34,0,0,0,191.58,345.11Z" transform="translate(7.36 10.39)"/><path class="cls-25" d="M308.39,334.23a79.84,79.84,0,0,0-17.08,10.95c-5.18,4.31-10.53,8.41-15.95,12.43s-10.92,7.91-16.48,11.71l-.63.42.29.72c.8,1.93,1.69,3.77,2.65,5.6a57.48,57.48,0,0,0,3.15,5.34,39.33,39.33,0,0,0,3.82,5,23.7,23.7,0,0,0,4,3.5l.46-.16,1-.37,1.27-.48a36.38,36.38,0,0,1-5.06-4.08,37,37,0,0,1-3.72-4.6,57.64,57.64,0,0,1-3.16-5.09c-.85-1.53-1.65-3.11-2.37-4.69q7.92-5.7,15.61-11.66c5.33-4.15,10.61-8.39,15.7-12.84a79.24,79.24,0,0,1,16.68-11.24,119.41,119.41,0,0,1,18.67-7.74A119.83,119.83,0,0,0,308.39,334.23Z" transform="translate(7.36 10.39)"/><path class="cls-7" d="M187.19,283.7s-9,16.39-9.4,23.79,7.31,17.42,13.79,11,13.64-27.22,13.64-27.22Z" transform="translate(7.36 10.39)"/><path class="cls-7" d="M234.12,281c-5.22,3-8.35,5.82-10.18,6.47s-33,13.88-39.56,17-7.46,21.42,13,14.1a102.08,102.08,0,0,0,33.07-19.35s8.95,2.35,11.41,3,10.08-1.32,9.26-6.77c0,0-7.51-2.16-11.21-2.67s-5.14-3.19-4.42-4.32,1.9-4.41,4.77-4.1,9.26-1.33,9.36-3.29-2.76-.92-5.06-1C238.9,279.69,237.81,278.81,234.12,281Z" transform="translate(7.36 10.39)"/><path class="cls-7" d="M273.35,274.2c5.92,1.21,9.78,2.82,11.72,2.85s35.68,2.51,42.92,3.31,14,17.87-7.74,17.53a102.14,102.14,0,0,1-37.55-7.65s-7.71,5.1-9.84,6.48-10,2-10.94-3.42c0,0,6.41-4.46,9.74-6.14s3.84-4.68,2.8-5.51-4.45-2.51-7.07-1.29-9.19,1.71-9.92-.1,2.31-1.76,4.45-2.61C267.18,275.59,269.16,273.35,273.35,274.2Z" transform="translate(7.36 10.39)"/><path class="cls-21" d="M306,377.28s18.29,3.2,24.46,0,8.65-9.11,3.71-12.74C334.16,364.54,316.58,373.17,306,377.28Z" transform="translate(7.36 10.39)"/><path class="cls-7" d="M267.13,169.37s-.2-5.17,6-6,22.41-10,23.85-10.23.25,7.24-10.89,20.54c-5.52,6.57-11.53,16.8-19.23,13.45C266.82,187.18,267.31,175.28,267.13,169.37Z" transform="translate(7.36 10.39)"/><g class="cls-33"><path class="cls-16" d="M273.09,163.42c-6.16.78-6,6-6,6,.18,5.91-.31,17.81-.31,17.81.19.08.39.16.58.22a81.14,81.14,0,0,0,6.83-24.19A9,9,0,0,1,273.09,163.42Z" transform="translate(7.36 10.39)"/></g><path class="cls-16" d="M284.43,164.9c-3.25.66-5.64,3.56-6.85,6.65-.64,1.63-1,3.35-1.78,4.93a6.37,6.37,0,0,1-3.67,3.53,8.14,8.14,0,0,0,2.1-3.64,3,3,0,0,0-1.79-3.44c-1.68-.47-3.17,1.08-4.73,1.86a10.08,10.08,0,0,1,5.58-6.41,29.94,29.94,0,0,1,8.46-2.28" transform="translate(7.36 10.39)"/><path class="cls-30" d="M287.59,163.2a37.14,37.14,0,0,1-8.45,3.13c-2.87.76-6.07,1.17-8.64,3.2a14.86,14.86,0,0,0-3.68,4.49,7.3,7.3,0,0,1,.46,1.84,15.46,15.46,0,0,1,3.86-5.55c2.21-1.9,5.28-2.46,8.18-3.33a38,38,0,0,0,8.44-3.49,17.09,17.09,0,0,0,6.47-6.3A17,17,0,0,1,287.59,163.2Z" transform="translate(7.36 10.39)"/><path class="cls-30" d="M274.35,167.56l-1.15.7a11.11,11.11,0,0,1,2.2,6,5.9,5.9,0,0,1-3.11,5.42,6.2,6.2,0,0,0,3.78-5.39A12.14,12.14,0,0,0,274.35,167.56Z" transform="translate(7.36 10.39)"/><path class="cls-7" d="M191.61,180.8s-1.43-5-7.53-3.77-24.42-2.48-25.85-2.22,2,6.95,16.79,16.07c7.3,4.51,16.23,12.34,22.49,6.73C197.51,197.61,193.3,186.48,191.61,180.8Z" transform="translate(7.36 10.39)"/><path class="cls-16" d="M192.74,185.35a9.1,9.1,0,0,0-6.32-3.46,33.24,33.24,0,0,0-7.39.17,19.76,19.76,0,0,1-7.36-.39,9.6,9.6,0,0,1,7,4.08c1,1.43,1.6,3.16,3,4.24a9,9,0,0,0,1.88,1c2.22,1,4.71,1.86,7,1.13a5.64,5.64,0,0,1-4.14-5.51,1.79,1.79,0,0,1,.31-1,1.74,1.74,0,0,1,1-.54,6.89,6.89,0,0,1,5,.53" transform="translate(7.36 10.39)"/><path class="cls-30" d="M170.25,181.37a37.2,37.2,0,0,0,9,.32c3-.18,6.13-.79,9.2.32a15,15,0,0,1,4.91,3.11,7.14,7.14,0,0,0,.14,1.9A15.47,15.47,0,0,0,188.1,183c-2.69-1.12-5.78-.68-8.81-.59a37.64,37.64,0,0,1-9.11-.67,17.12,17.12,0,0,1-8.12-3.94A17,17,0,0,0,170.25,181.37Z" transform="translate(7.36 10.39)"/><g class="cls-33"><path class="cls-16" d="M186.67,181.48c2.42,6.06,5.89,11.87,10.82,16.1-.26-.7-4.24-11.29-5.88-16.78a5.87,5.87,0,0,0-6.38-3.92A25.56,25.56,0,0,0,186.67,181.48Z" transform="translate(7.36 10.39)"/></g><path class="cls-30" d="M185.51,181.66l-1.32-.31a12.05,12.05,0,0,0,.48,6.93,6.19,6.19,0,0,0,5.28,3.93,5.88,5.88,0,0,1-4.65-4.16A11.06,11.06,0,0,1,185.51,181.66Z" transform="translate(7.36 10.39)"/><path class="cls-7" d="M185.1,155.45S191,186,197.35,197.51c9.54,17.36,26.65,20.92,42,17.77,19.79-4.06,26.72-19.74,27.78-30.63.64-6.54-1.11-43.69-1.11-43.69Z" transform="translate(7.36 10.39)"/><path class="cls-36" d="M202.48,183.82s5.29,7.91,13.36,4,5.34-13.21,1.66-15.6-7.29-5-13-.93S202.48,183.82,202.48,183.82Z" transform="translate(7.36 10.39)"/><path d="M220.45,176c-1.93-2.64-4.54-4.76-7.42-5.35a9.08,9.08,0,0,0-4.33.18,11.52,11.52,0,0,0-3.95,1.87,7.18,7.18,0,0,0-2.76,7.5,12.1,12.1,0,0,0,1.66,4.24,9.57,9.57,0,0,0,3.36,3.33,8.27,8.27,0,0,1-4.32-2.59,11.51,11.51,0,0,1-2.57-4.53,9.68,9.68,0,0,1-.09-5.42,8.69,8.69,0,0,1,3.24-4.5,13.28,13.28,0,0,1,4.9-2.17,10,10,0,0,1,9.74,3.11A11.92,11.92,0,0,1,220.45,176Z" transform="translate(7.36 10.39)"/><path d="M207.17,181.58a6.73,6.73,0,1,0,5.51-7.76A6.73,6.73,0,0,0,207.17,181.58Z" transform="translate(7.36 10.39)"/><path d="M221.13,169l-1.66-.86a41.1,41.1,0,0,0-4.58-2,43.19,43.19,0,0,0-15.61-2.51l.64-.12c.41-.07,1-.17,1.75-.25a28.22,28.22,0,0,1,6,0,26.9,26.9,0,0,1,7.37,1.87A21.17,21.17,0,0,1,221.13,169Z" transform="translate(7.36 10.39)"/><path d="M204.85,186.73l-1.67-2.11a8.7,8.7,0,0,0-1.73,4.51A7.37,7.37,0,0,1,204.85,186.73Z" transform="translate(7.36 10.39)"/><path d="M201.17,177l-.07-2.7a9.11,9.11,0,0,1-7.26-1.66A10.47,10.47,0,0,0,201.17,177Z" transform="translate(7.36 10.39)"/><path d="M200.77,179.82l-.87-2.56a6.21,6.21,0,0,1-5.52.56A7.57,7.57,0,0,0,200.77,179.82Z" transform="translate(7.36 10.39)"/><path class="cls-36" d="M214.29,177.7a2.94,2.94,0,1,1-3.52-2.22A2.94,2.94,0,0,1,214.29,177.7Z" transform="translate(7.36 10.39)"/><g class="cls-37"><path class="cls-16" d="M243.5,151.76a40.21,40.21,0,0,1,8.66,12.78,19.9,19.9,0,0,0,3.21-6.47c-1.33,6.39,6.14,14.72,12.34,16.72,1.75-1.27-.62-6.67.38-8.59-6-4.88-6.39-11.19-10.29-17.88a1.51,1.51,0,0,0-.81-.8,1.63,1.63,0,0,0-1.12.23,31.87,31.87,0,0,1-13.44,3" transform="translate(7.36 10.39)"/></g><path class="cls-28" d="M243.08,153.19l5.55,8.63,6.37-8.63s.07,17.12,12.17,19.05l.92-6,5-2.78s.34-13.52-5.79-19.28S243.08,153.19,243.08,153.19Z" transform="translate(7.36 10.39)"/><g class="cls-38"><path class="cls-16" d="M237.81,151.92c-1.33,5.41-2.71,10.86-5.2,15.85s-6.2,9.52-11.18,12a36.32,36.32,0,0,0,3.85-17.88A52.68,52.68,0,0,1,204,182.47q.81-8.83,1.61-17.68a88.51,88.51,0,0,0-10.9,21.07,132.34,132.34,0,0,1-.64-17.47,6.15,6.15,0,0,1,.54-2.85,6.41,6.41,0,0,1,3.44-2.43,305.08,305.08,0,0,1,31.13-10.75c2.62-.75,5.52-1.44,8-.23" transform="translate(7.36 10.39)"/></g><path class="cls-28" d="M237.63,152s-7.1,17.84-17.18,20.28V159.56s-15.4,21.07-21.17,24.26V166.2l-7.65,16.19s-9.78-3.21-7.2-21C185.78,152.09,237.63,152,237.63,152Z" transform="translate(7.36 10.39)"/><path class="cls-21" d="M190,119.48s-10.08-33-20.32-25.64-2,28.74,15.47,35A51.55,51.55,0,0,1,190,119.48Z" transform="translate(7.36 10.39)"/><path class="cls-21" d="M246.9,106.93S242.6,72.65,255,75.22s13.35,25.79,0,38.67A46.16,46.16,0,0,0,246.9,106.93Z" transform="translate(7.36 10.39)"/><path class="cls-39" d="M182,151.13s-4.53-39.47,34.33-48.72,50.47,32.69,50.47,32.69Z" transform="translate(7.36 10.39)"/><path class="cls-40" d="M266.68,134.65a58.33,58.33,0,0,0-4.39-10.22,6.12,6.12,0,0,1-3.49,2,6.2,6.2,0,0,1-6.09-2.69,2.49,2.49,0,0,1-.87,3.28,7.2,7.2,0,0,1-3.61,1l-9.17.81c-2.25.2-5,.14-6.12-1.84a2.64,2.64,0,0,1-.94,3.15,7.78,7.78,0,0,1-3.33,1.21l-3.89.77a4.94,4.94,0,0,1-2.32.08,1.79,1.79,0,0,1-1.3-1.4,3.72,3.72,0,0,1-2.12,3,10.47,10.47,0,0,1-4,.88c-2.82.24-6.3.14-7.62-2.36-.72-1.36-.56-3.13-1.55-4.3a54.34,54.34,0,0,1-.66,6.74,3.86,3.86,0,0,1-.66,1.88,3.59,3.59,0,0,1-1.65,1,10.39,10.39,0,0,1-7.21.39,5.7,5.7,0,0,1-3.56-4.21l-.08,4a3.52,3.52,0,0,1-.27,1.51,2.72,2.72,0,0,1-2.17,1.25,6.33,6.33,0,0,1-5.89-2.63,6.27,6.27,0,0,1-.72-1.47,52.14,52.14,0,0,0-.94,14.74l83.48-15.78C265.9,135.13,266.3,134.89,266.68,134.65Z" transform="translate(7.36 10.39)"/><path class="cls-40" d="M221.16,130.77a1.71,1.71,0,0,0,0-.32A1.16,1.16,0,0,0,221.16,130.77Z" transform="translate(7.36 10.39)"/><path class="cls-40" d="M192.09,133.76l0-1.56A3.91,3.91,0,0,0,192.09,133.76Z" transform="translate(7.36 10.39)"/><path class="cls-40" d="M193.33,127.6a38,38,0,0,1,8.13-17.84c.77-1,1.55-1.82,2.33-2.64-.94.51-1.83,1-2.69,1.59-.28.33-.57.63-.84,1a38,38,0,0,0-5.49,9.09,34.87,34.87,0,0,0-2.56,9.86,34.08,34.08,0,0,0,2,16.13c.34,1,.78,1.8,1.11,2.54l.63,1.19.16,0A35.47,35.47,0,0,1,193.33,127.6Z" transform="translate(7.36 10.39)"/><path class="cls-40" d="M206.57,128.1a49.7,49.7,0,0,1,2-18.07,41.6,41.6,0,0,1,2.4-6l-1,.35a40.07,40.07,0,0,0-2.5,6,46.77,46.77,0,0,0-1.74,18.93,71.14,71.14,0,0,0,3.16,14.65c.23.75.46,1.41.67,2l.25-.05A85.81,85.81,0,0,1,206.57,128.1Z" transform="translate(7.36 10.39)"/><path class="cls-40" d="M217.76,110.44c-.47-3-.87-5.72-1.2-8.08l-.21,0c-.16,0-.3.08-.46.12.26,2.84.59,5.76,1,8.71,1,6.72,2.29,13.54,3.77,19.61,1.13,4.68,2.32,8.91,3.37,12.34l.51-.1C221.41,130.78,219.17,119.34,217.76,110.44Z" transform="translate(7.36 10.39)"/><path class="cls-40" d="M232.66,121.65a42.16,42.16,0,0,0-3-8.76,54.36,54.36,0,0,0-4-7c-1.13-1.66-2.24-3.15-3.28-4.48l-.87.1c1.24,1.74,2.48,3.54,3.65,5.41a57.64,57.64,0,0,1,4.2,7.86,47.55,47.55,0,0,1,2.62,8.12,75.5,75.5,0,0,1,1.67,13.76c.09,2.16.12,3.8.13,4.74h0A69.56,69.56,0,0,0,232.66,121.65Z" transform="translate(7.36 10.39)"/><path class="cls-40" d="M256,137.14a21.17,21.17,0,0,0-1.61-11,56.51,56.51,0,0,0-5.29-9.63A72.3,72.3,0,0,0,238,102.67c-.68-.21-1.38-.4-2.09-.57.37.32.75.65,1.11,1,4.72,4.44,8.53,10,11.92,14.92s5.84,9.72,6.62,13.47A19.12,19.12,0,0,1,256,136c0,.51,0,.91,0,1.19Z" transform="translate(7.36 10.39)"/><path class="cls-39" d="M184.43,147.23c-3.44,1-6.32,2.25-5.7,6s1.36,12.5,8.39,11.7,78.37-15.81,81.66-16.43,1.38-16,0-17.06C262.61,126.51,184.43,147.23,184.43,147.23Z" transform="translate(7.36 10.39)"/><path class="cls-40" d="M192.11,158.34c-1.72-3.4-2.94-6.72-2.79-9.61a10.66,10.66,0,0,1,.57-2.92l-.69.17a10.23,10.23,0,0,0-.63,3.07c-.12,3.78,1.63,7.27,3.17,10.16.87,1.61,1.7,3.12,2.44,4.45l.51-.09C193.81,161.76,192.94,160,192.11,158.34Z" transform="translate(7.36 10.39)"/><path class="cls-40" d="M205.6,148a27.65,27.65,0,0,1-1.91-5.65l-.31.08a9.43,9.43,0,0,0,.21,1.65,42.85,42.85,0,0,0,1.43,4.47c1.07,3,2.23,6,3.31,8.77.47,1.17.91,2.28,1.33,3.31l.55-.11C208.57,155.73,207,151.41,205.6,148Z" transform="translate(7.36 10.39)"/><path class="cls-40" d="M225.3,151.35c-1.33-3.24-2.62-6.16-3.73-8.63-.72-1.61-1.37-3-1.92-4.18l-.46.1c1.65,4.4,3.78,9.32,5.66,13.5.82,1.82,1.55,3.49,2.17,4.94l.44-.09C226.77,155,226,153.13,225.3,151.35Z" transform="translate(7.36 10.39)"/><path class="cls-40" d="M242.11,147.28a43.2,43.2,0,0,0-3.57-9.69c-.52-1.06-1-2-1.5-2.86l-.59.12c.53,1.1,1.06,2.22,1.58,3.37a54.07,54.07,0,0,1,3.51,9.81,34.12,34.12,0,0,1,.88,5.88l.43-.09A29.45,29.45,0,0,0,242.11,147.28Z" transform="translate(7.36 10.39)"/><path class="cls-40" d="M259.6,137.23a32.64,32.64,0,0,0-1.56-5.14c-.14-.37-.27-.66-.38-.92l-.16,0c.51,2,1,4.15,1.43,6.44a52.93,52.93,0,0,1,.75,7.85,48.24,48.24,0,0,1-.17,4.89l.42-.09A35,35,0,0,0,259.6,137.23Z" transform="translate(7.36 10.39)"/><path d="M256.79,176.37l-1.06,2.48a5.49,5.49,0,0,1,3.77,1.9A6.84,6.84,0,0,0,256.79,176.37Z" transform="translate(7.36 10.39)"/><path class="cls-36" d="M256,178.07s-4.83,7.61-13.36,4c-8-3.35-5.34-13.21-1.65-15.6s7.28-5,13-.92S256,178.07,256,178.07Z" transform="translate(7.36 10.39)"/><path d="M237.63,171.69a11.9,11.9,0,0,1,1.78-4.69,9.94,9.94,0,0,1,9.08-4.69,13.15,13.15,0,0,1,5.2,1.32,8.68,8.68,0,0,1,3.94,3.89,9.66,9.66,0,0,1,.82,5.36,11.62,11.62,0,0,1-1.78,4.9,8.25,8.25,0,0,1-3.83,3.27,9.58,9.58,0,0,0,2.76-3.84,12.28,12.28,0,0,0,.93-4.46,7.17,7.17,0,0,0-4-6.93,11.49,11.49,0,0,0-4.22-1.19,9.07,9.07,0,0,0-4.29.54C241.3,166.24,239.09,168.76,237.63,171.69Z" transform="translate(7.36 10.39)"/><path d="M251.65,175a6.73,6.73,0,1,1-6.73-6.73A6.73,6.73,0,0,1,251.65,175Z" transform="translate(7.36 10.39)"/><path d="M235.73,164.86l.33-.36c.22-.23.52-.6,1-1a26.19,26.19,0,0,1,4-3.18,27.51,27.51,0,0,1,6.7-3.18,26.34,26.34,0,0,1,8.74-1.2l-.63.1c-.41.06-1,.16-1.74.31a39.58,39.58,0,0,0-5.66,1.58,44.92,44.92,0,0,0-6.7,3.09C239.52,162.26,237.48,163.64,235.73,164.86Z" transform="translate(7.36 10.39)"/><path d="M253.72,164.87l1.43,2.29a19.08,19.08,0,0,0,5.71-7.95A17.82,17.82,0,0,1,253.72,164.87Z" transform="translate(7.36 10.39)"/><path d="M255.81,167.55l1.68,2.12a40.15,40.15,0,0,0,4.7-6.42A38.38,38.38,0,0,1,255.81,167.55Z" transform="translate(7.36 10.39)"/><path class="cls-36" d="M245.72,172.59a2.94,2.94,0,1,1-3.52-2.23A2.94,2.94,0,0,1,245.72,172.59Z" transform="translate(7.36 10.39)"/><path class="cls-41" d="M223,204.2s3.33,9.88,15.74,6.28c10.4-3,9.22-16,9.22-16Z" transform="translate(7.36 10.39)"/><path class="cls-3" d="M220.56,200.37s0,.89,7.95-1.45c9.69-2.84,20.12-10.37,20.12-10.37s.44,15.31-11.41,18.92C224.61,211.3,220.56,200.37,220.56,200.37Z" transform="translate(7.36 10.39)"/><path class="cls-36" d="M223,204.2a26.7,26.7,0,0,0,21.21-7.63s1.64,1.13,2.16-1.44l1.95-3a7.78,7.78,0,0,0,.34-1.56,8.4,8.4,0,0,0,0-2,88.24,88.24,0,0,1-10.06,6c-5.69,3-12.71,5.94-18,5.83a9.89,9.89,0,0,0,.93,2A9.64,9.64,0,0,0,223,204.2Z" transform="translate(7.36 10.39)"/><g class="cls-27"><path class="cls-20" d="M253.49,182.57c-9.88-2.64-20.38-.07-30.05,3.29-9,3.13-18.27,7.34-24.36,14.52,9.79,14.87,25.81,17.87,40.3,14.9,16.4-3.37,24-14.71,26.68-24.69A25.27,25.27,0,0,0,253.49,182.57Z" transform="translate(7.36 10.39)"/></g><g class="cls-38"><path class="cls-16" d="M226.75,189.64c-.26.37.25.86.71,1.09a4.23,4.23,0,0,0,1.61.28l1.74.1a4.71,4.71,0,0,0,1.3-.06,4.16,4.16,0,0,0,1.33-.76,7.4,7.4,0,0,1,3.3-1.37,22.88,22.88,0,0,0-3.53,3,2.51,2.51,0,0,1-1.09.78,3.62,3.62,0,0,1-.93.08,13.53,13.53,0,0,1-2.63-.19,3.48,3.48,0,0,1-2.09-1.11,1.26,1.26,0,0,1,.28-1.82" transform="translate(7.36 10.39)"/></g><g class="cls-42"><g class="cls-27"><path class="cls-20" d="M233.92,302.35c.14-3.77-4.58-6.06-8.27-5.27s-6.64,3.46-9.86,5.42c-7.78,4.73-17.26,5.36-26.17,7.26-2.63.56-5.36,1.31-7.26,3.21s-2.55,5.29-.7,7.24c1.3,1.36,3.35,1.63,5.23,1.67,11.66.24,22.61-5.16,33-10.43l15.89-8" transform="translate(7.36 10.39)"/></g></g><g class="cls-43"><g class="cls-27"><path class="cls-20" d="M263,297.49l9.84-4.21q-1.38,2-2.78,4l12.12-9.45a4.91,4.91,0,0,1,1.68-1,5,5,0,0,1,2.79.39,52.73,52.73,0,0,0,25,1.88,52.08,52.08,0,0,1,8.83-1.21c3,0,6.12.95,8,3.23s2.08,6.11-.17,8.06a7.87,7.87,0,0,1-4.16,1.56c-10.61,1.42-21.05-4.65-31.73-3.81-4.46.35-8.72,1.9-13,3.33-6,2-13.05,3.74-18.28.19" transform="translate(7.36 10.39)"/></g></g><path class="cls-44" d="M244.61,289l-4.93.69a1.7,1.7,0,0,1-1.91-1.44h0a1.7,1.7,0,0,1,1.44-1.91l4.93-.69a1.7,1.7,0,0,1,1.91,1.44h0A1.7,1.7,0,0,1,244.61,289Z" transform="translate(7.36 10.39)"/><path class="cls-44" d="M269.62,285.48l-4.93.69a1.7,1.7,0,0,1-1.91-1.45h0a1.7,1.7,0,0,1,1.45-1.91l4.92-.69a1.69,1.69,0,0,1,1.91,1.44h0A1.7,1.7,0,0,1,269.62,285.48Z" transform="translate(7.36 10.39)"/><g class="cls-45"><path class="cls-46" d="M164.62,108.63a13.09,13.09,0,0,1,.55-9.16c.74-1.65,2-3.25,3.76-3.62a4.93,4.93,0,0,1,4.3,1.51,13,13,0,0,1,2.5,4,75.41,75.41,0,0,1,5,15c.42,1.86.66,4.1-.72,5.42a4.19,4.19,0,0,1-2.46,1c-3.59.41-7.06-1.85-9.12-4.82s-3-6.57-3.81-10.08" transform="translate(7.36 10.39)"/></g><g class="cls-47"><path class="cls-46" d="M265.1,82.29c-.49-.92-1-1.85-1.45-2.78-.6-1.15-1.32-2.41-2.57-2.76a3.79,3.79,0,0,0-2.92.63c-3.72,2.25-5.23,6.86-5.94,11.15a56.78,56.78,0,0,0-.67,6,13.16,13.16,0,0,0,.81,6.36c.92,2,3,3.53,5.11,3.25s3.64-2.2,4.66-4.09a25.56,25.56,0,0,0,2.36-17.75" transform="translate(7.36 10.39)"/></g><path class="cls-48" d="M173.53,113.7c.19,1.78-.49,3.31-1.52,3.42s-2-1.25-2.21-3,.5-3.31,1.53-3.42S173.34,111.92,173.53,113.7Z" transform="translate(7.36 10.39)"/><path class="cls-48" d="M260.77,97.8c-.41,1.74-1.56,3-2.57,2.72s-1.49-1.84-1.08-3.58,1.56-3,2.57-2.72S261.18,96.06,260.77,97.8Z" transform="translate(7.36 10.39)"/><path class="cls-16" d="M203.48,296c1.08-2.8,1.74-4.69,1.74-4.69h0a104.78,104.78,0,0,0-18.71,9.36A77.27,77.27,0,0,0,203.48,296Z" transform="translate(7.36 10.39)"/><g class="cls-27"><path class="cls-20" d="M187.12,196.07c-8.82-1.73-14.73-10.54-23.24-13.28A81.21,81.21,0,0,0,175,190.88c7.3,4.51,16.23,12.34,22.49,6.73,0,0-.28-.72-.71-1.88a8.71,8.71,0,0,1-1.4.29A25,25,0,0,1,187.12,196.07Z" transform="translate(7.36 10.39)"/></g><g class="cls-27"><path class="cls-20" d="M286.05,173.73a88.19,88.19,0,0,0,7-9.46,57.53,57.53,0,0,0-5.57,5.24c-3.3,3.65-5.82,8-9.47,11.29-3,2.72-7.2,4.63-11.1,4.09,0,1.4-.08,2.29-.08,2.29C274.52,190.53,280.53,180.3,286.05,173.73Z" transform="translate(7.36 10.39)"/></g><g class="cls-49"><g class="cls-27"><path class="cls-20" d="M177.83,153.79c-1.52,2.68.61,6.26,3.49,7.37s6.11.46,9.1-.28c19.57-4.8,38.7-13,58.85-12.87,2.25,0,4.58.12,6.69-.67s4-2.74,3.87-5a7.53,7.53,0,0,0,12.44-.19c1.65,1.32,1.36,4.09,0,5.66s-3.54,2.27-5.57,2.88c-9.35,2.82-18.76,5.49-28.27,7.72-14.46,3.37-29.14,5.7-43.8,8-3,.48-6.13,1-9.12.3s-5.88-2.73-6.58-5.72" transform="translate(7.36 10.39)"/></g></g><g class="cls-27"><path class="cls-20" d="M257.2,301.34a11.39,11.39,0,0,1-3.9,3.78,11.76,11.76,0,0,0-3.94,3.77c-.87,1.61-.8,3.88.66,5s3.38.68,5.06.19c10-2.91,19.5-7.71,29.81-9.2l-12.17,7.93a50.27,50.27,0,0,0,15.35-4.57,3.56,3.56,0,0,0,1.76-1.4,3.79,3.79,0,0,0,.17-2.14l-.54-4.48c-8.3,2.89-16.81,5.82-25.6,5.67,4.19-1.83,8.54-3.79,11.4-7.36-3.33-.64-6.46,1.57-9.32,3.4a53.87,53.87,0,0,1-11.43,5.54,16.1,16.1,0,0,0,3.43-6.51" transform="translate(7.36 10.39)"/></g><g class="cls-27"><path class="cls-20" d="M254.89,152.59h0v0Z" transform="translate(7.36 10.39)"/></g><g class="cls-27"><path class="cls-20" d="M254.69,152.74a25.7,25.7,0,0,0-5.95,6.14L243.6,154l5,7.83,5.81-7.87c0-.09,0-.19.05-.28Z" transform="translate(7.36 10.39)"/></g><g class="cls-27"><path class="cls-20" d="M254.88,152.61v0c0-.16,0-.33,0-.49l-.14.64-.2.93c0,.09,0,.19-.05.28l.52-.7C254.93,153,254.91,152.82,254.88,152.61Z" transform="translate(7.36 10.39)"/></g><g class="cls-27"><path class="cls-20" d="M267.17,172.24l.33-2.16c-.1-.12-.2-.24-.3-.34a10.49,10.49,0,0,0-2.19-1.47,21,21,0,0,1-10-14.66C255.12,156.27,256.21,170.49,267.17,172.24Z" transform="translate(7.36 10.39)"/></g><g class="cls-27"><path class="cls-20" d="M205.75,172.82a48.23,48.23,0,0,1,4.73-9.75,26.44,26.44,0,0,0-7.4,12.91l-.36.44a26.44,26.44,0,0,1,1.66-10,5.44,5.44,0,0,0,.51-2.08,26.38,26.38,0,0,0-3.11,9.59c-.28-3.56-.71-7.1-1.32-10.61a48.15,48.15,0,0,0-7.68,9.45,23.24,23.24,0,0,1,1.07-4.81,3.46,3.46,0,0,0,.23-2.49,17.51,17.51,0,0,0-3.18,10.58c-.19.37-.38.75-.56,1.13a30.81,30.81,0,0,1-2.52-10.86c-.29,2.88-.58,5.86.27,8.62a14.51,14.51,0,0,0,.51,1.39,20.85,20.85,0,0,1-4.59-10c-.26,13.4,7.62,16,7.62,16l7.65-16.19v17.62c4.51-2.49,14.91-15.92,19.23-21.66a8.7,8.7,0,0,0,.41-1.78A100,100,0,0,0,205.75,172.82Z" transform="translate(7.36 10.39)"/></g><g class="cls-27"><path class="cls-20" d="M231,157.68a48.15,48.15,0,0,1-4.73,8.25c-1,.83-2,1.67-3,2.5a32,32,0,0,0,1.8-8.86c-.86,2.88-1.83,5.72-2.87,8.54a36.44,36.44,0,0,1-1.82-7.19v11.32c5.59-1.36,10.27-7.45,13.32-12.61-1.62,1.38-3.26,2.75-4.89,4.12A19.24,19.24,0,0,0,231,157.68Z" transform="translate(7.36 10.39)"/></g><g class="cls-27"><path class="cls-20" d="M267.59,155.64c-.73,4.44-1.62,8.86-2.67,13.23-1.58-1-2.36-2.81-3-4.54-1.31-3.42-2.5-7-2.38-10.65a19.16,19.16,0,0,0,.54,13.2,7,7,0,0,0,1.76,2.69c1.2,1,2.86,1.31,4.14,2.23l.56-.31C267.89,166.36,267.75,161,267.59,155.64Z" transform="translate(7.36 10.39)"/></g><g class="cls-50"><g class="cls-27"><path class="cls-20" d="M243.24,322.25l-3.34,1.27a3.34,3.34,0,0,0-1.21.67,3.28,3.28,0,0,0-.7,1.64l-1.19,5.4a.79.79,0,0,0,.67,1.16l3.43.95-2.55.3a.89.89,0,0,0-.59.21.9.9,0,0,0-.19.56l-.46,4.06a.64.64,0,0,0,0,.31c.05.11.17.16.27.22l3.38,1.64-8.27.51a118.48,118.48,0,0,0-1.24-16.83,52.69,52.69,0,0,1,10.87-1.77" transform="translate(7.36 10.39)"/></g></g><path class="cls-22" d="M334.16,364.54s-3.45,1.69-8.21,3.93a9.3,9.3,0,0,1,5.95,2.62,7.75,7.75,0,0,1,1.8,3.94C337.31,371.77,338.1,367.44,334.16,364.54Z" transform="translate(7.36 10.39)"/><path class="cls-11" d="M187.19,283.7c-1.61,3.4-3.2,6.81-4.61,10.29A72.33,72.33,0,0,0,179,304.56a12.83,12.83,0,0,0-.25,5.29,15,15,0,0,0,1.9,4.95,11.73,11.73,0,0,0,3.5,3.8,5.13,5.13,0,0,0,4.52.7l.17-.06H189a21.27,21.27,0,0,0,5.55-.88c1.82-.49,3.63-1.22,5.45-1.91,3.62-1.42,7.17-3,10.63-4.8s6.83-3.76,10.1-5.88a92.9,92.9,0,0,0,9.4-6.93l.21-.18.22.07c3.76,1.13,7.54,2.21,11.29,3.4-3.85-.79-7.68-1.69-11.52-2.53l.42-.11c-1.42,1.41-2.93,2.67-4.46,3.92s-3.11,2.44-4.73,3.57a99.7,99.7,0,0,1-20.84,11.3c-3.63,1.47-7.52,2.89-11.71,2.91l.33-.06a7,7,0,0,1-6.22-.94,13.52,13.52,0,0,1-4-4.49,16.09,16.09,0,0,1-2-5.59,14.37,14.37,0,0,1,.47-5.89,62.34,62.34,0,0,1,4.2-10.58C183.47,290.25,185.23,286.92,187.19,283.7Z" transform="translate(7.36 10.39)"/><path class="cls-11" d="M207.08,292.07c-1.89-.64-3.75-1.33-5.62-2s-3.74-1.36-5.59-2.08q-5.58-2.12-11.11-4.34l-.78-.32.3-.81c1.55-4.08,3.17-8.13,4.95-12.12s3.66-7.93,5.81-11.75a80.9,80.9,0,0,1,7.15-11,35.29,35.29,0,0,1,4.47-4.84,15.1,15.1,0,0,1,5.58-3.43,16.6,16.6,0,0,0-5.09,3.93,45.21,45.21,0,0,0-4,5.07,107.11,107.11,0,0,0-6.54,11.16c-1,1.91-1.93,3.87-2.89,5.8s-1.83,3.92-2.7,5.9c-1.8,3.94-3.45,7.95-5.14,11.95l-.47-1.13c3.64,1.61,7.26,3.23,10.87,4.91,1.81.82,3.6,1.69,5.4,2.54S205.3,291.17,207.08,292.07Z" transform="translate(7.36 10.39)"/><path class="cls-11" d="M178.73,153.19a32.66,32.66,0,0,1,1.45,3.82,31.36,31.36,0,0,0,1.39,3.58,8.09,8.09,0,0,0,2.07,2.84,7.67,7.67,0,0,0,3.48,1.46,5.13,5.13,0,0,1-4.31-.13,7,7,0,0,1-3-3.3,12.52,12.52,0,0,1-1.11-4.11A16.1,16.1,0,0,1,178.73,153.19Z" transform="translate(7.36 10.39)"/><path class="cls-11" d="M158.23,174.81c-.28.09-.27.39-.21.62a2.94,2.94,0,0,0,.3.68,8.84,8.84,0,0,0,.86,1.24,24.19,24.19,0,0,0,2.08,2.22,54.42,54.42,0,0,0,4.64,3.93c3.24,2.47,6.64,4.69,10.13,6.84s6.77,4.73,10.29,6.66a16.38,16.38,0,0,0,5.54,2,7.53,7.53,0,0,0,5.65-1.41c-.38.35-.76.71-1.17,1a12.4,12.4,0,0,1-1.39.77,7.91,7.91,0,0,1-3.16.57,15.8,15.8,0,0,1-6.17-1.6c-3.85-1.75-7.21-4.23-10.65-6.37a74.7,74.7,0,0,1-10.06-7.33,39.27,39.27,0,0,1-4.37-4.47,19.84,19.84,0,0,1-1.81-2.57,8.15,8.15,0,0,1-.68-1.43,3.4,3.4,0,0,1-.18-.78,1.37,1.37,0,0,1,0-.4A.38.38,0,0,1,158.23,174.81Z" transform="translate(7.36 10.39)"/><path class="cls-11" d="M173.83,233c-1.5,3-3,6.09-4.15,9.23a64.29,64.29,0,0,0-2.92,9.6,38.67,38.67,0,0,0-.89,9.86,27.32,27.32,0,0,0,2.18,9.5l-1.84.61A21,21,0,0,1,171,253.11l0,0a.93.93,0,0,1,1.59.83,17.22,17.22,0,0,0,.26,8,25.4,25.4,0,0,0,3.36,7.46,45,45,0,0,0,5.29,6.46c1.95,2,4.06,3.89,6.12,5.83-2.27-1.69-4.5-3.43-6.63-5.31a39,39,0,0,1-5.83-6.26,25.32,25.32,0,0,1-3.89-7.75,18.47,18.47,0,0,1-.5-8.78l1.6.81a19.61,19.61,0,0,0-4.32,17,1,1,0,0,1-.73,1.17,1,1,0,0,1-1.11-.56,27.1,27.1,0,0,1-2.17-10.21,37.12,37.12,0,0,1,1.26-10.25,55.62,55.62,0,0,1,3.53-9.62A79.32,79.32,0,0,1,173.83,233Z" transform="translate(7.36 10.39)"/><path class="cls-11" d="M219.23,238.72a56.42,56.42,0,0,0,6.21-3.68,19.21,19.21,0,0,0,2.66-2.22,14.39,14.39,0,0,0,1.11-1.25c.17-.22.3-.46.45-.68l.22-.34.15-.36a7.55,7.55,0,0,0,.32-.72l.21-.75c.11-.53.18-1.14.25-1.71a31.49,31.49,0,0,0,.2-3.51,46.45,46.45,0,0,0-.58-7.19,19.79,19.79,0,0,1,2.14,7.09,21.58,21.58,0,0,1,.12,3.77,16.15,16.15,0,0,1-.21,1.91l-.25,1a8,8,0,0,1-.39,1,10.28,10.28,0,0,1-2.44,3.14,15.73,15.73,0,0,1-3.14,2.17A21.32,21.32,0,0,1,219.23,238.72Z" transform="translate(7.36 10.39)"/><g class="cls-27"><path class="cls-20" d="M318.19,260a28.15,28.15,0,0,0,1.68-2.51,144.66,144.66,0,0,0-22-23.37s-11.7-9.25-17.32-8.32c-5,.82-12.9,4.33-14.65,5.12l-.44,1.09c5.15-3.7,12.37-3.32,18.14-.68S294,238.56,298.48,243l16.34,16.16a7.21,7.21,0,0,1-2.17,4.84A43.31,43.31,0,0,0,318.19,260Z" transform="translate(7.36 10.39)"/></g><g class="cls-27"><path class="cls-20" d="M330.66,275.56c3.4,4.67,5.33,10.71,4.28,16.32a15,15,0,0,0,.28-10.73c-2.64-6.58-16-19.65-17.13-20.77L315.48,263C321.17,266.38,326.77,270.21,330.66,275.56Z" transform="translate(7.36 10.39)"/></g><g class="cls-51"><path class="cls-7" d="M348.49,109.4l-38-5.29a5.94,5.94,0,0,1-5.12-5.88h0a5.93,5.93,0,0,1,5.22-5.89l38.29-4.71Z" transform="translate(7.36 10.39)"/><polygon class="cls-52" points="350.31 98.75 350.31 119.02 355.85 119.79 356.23 98.02 350.31 98.75"/><polygon class="cls-32" points="362.86 116.95 451.87 130.7 475.02 107.21 453.16 83.72 362.42 101.29 362.86 116.95"/><path class="cls-53" d="M355.51,106.56q11.16,1.51,22.3,3.13t22.27,3.3c7.42,1.14,14.84,2.22,22.25,3.41l22.24,3.51-.35.12c7.79-7.77,15.57-15.54,23.45-23.21-7.56,8-15.22,15.88-22.87,23.77l-.14.15-.21,0-22.26-3.36c-7.43-1.1-14.83-2.32-22.25-3.47s-14.82-2.36-22.23-3.58S362.9,107.85,355.51,106.56Z" transform="translate(7.36 10.39)"/><polygon class="cls-9" points="362.86 116.95 412.08 119.79 369 112.78 400.59 112.78 359.74 108.9 362.86 116.95"/><polygon class="cls-9" points="359.74 108.9 475.02 107.21 453.16 83.72 362.42 101.29 359.74 108.9"/><path class="cls-7" d="M357.75,81V116a5.37,5.37,0,0,1-5.36,5.36h0A5.38,5.38,0,0,1,347,116V81a5.38,5.38,0,0,1,5.37-5.36h0A5.37,5.37,0,0,1,357.75,81Z" transform="translate(7.36 10.39)"/><path class="cls-5" d="M347,81V116a5.39,5.39,0,0,0,2.6,4.59,5.37,5.37,0,0,0,2.6-4.59V81a5.37,5.37,0,0,0-2.6-4.59A5.39,5.39,0,0,0,347,81Z" transform="translate(7.36 10.39)"/><circle class="cls-52" cx="347.02" cy="98.51" r="7.85" transform="translate(200.51 435.18) rotate(-80.6)"/><circle class="cls-9" cx="347.02" cy="98.51" r="5.55" transform="translate(200.82 435.32) rotate(-80.65)"/><circle class="cls-36" cx="354.38" cy="108.9" r="4.06"/><rect class="cls-36" x="365.11" y="112.78" width="6.69" height="17.23"/><rect class="cls-36" x="428.34" y="112.78" width="6.69" height="17.23"/></g><g class="cls-51"><path class="cls-9" d="M151.52,81.9C114.13,72.9,91.24,45,91.24,45S68.35,72.9,31,81.9c0,0-8.31,69.16,60.24,100.89v-.47c0,.16,0,.31.08.47C159.83,151.06,151.52,81.9,151.52,81.9Z" transform="translate(7.36 10.39)"/><path class="cls-7" d="M140.19,87.91C109.83,80.6,91.24,58,91.24,58s-18.59,22.65-48.95,30c0,0-6.75,56.17,48.92,81.93v-.38l.06.38C146.94,144.08,140.19,87.91,140.19,87.91Z" transform="translate(7.36 10.39)"/><polygon class="cls-9" points="122.66 138.18 122.66 110.39 98.6 96.5 74.53 110.39 74.53 138.18 98.6 152.07 122.66 138.18"/><polygon class="cls-54" points="117.32 135.09 117.32 113.47 98.6 102.66 79.87 113.47 79.87 135.09 98.6 145.91 117.32 135.09"/><polygon class="cls-7" points="112.69 132.42 112.69 116.15 98.6 108.01 84.51 116.15 84.51 132.42 98.6 140.55 112.69 132.42"/><g class="cls-55"><path class="cls-31" d="M31,81.9l7.1,3.65s39.06-12,53.18-33.35V45S64.74,73.28,31,81.9Z" transform="translate(7.36 10.39)"/><path class="cls-31" d="M91.24,45v7.2c14.12,21.38,53.17,33.35,53.17,33.35l7.11-3.65C117.74,73.28,91.24,45,91.24,45Z" transform="translate(7.36 10.39)"/></g><path class="cls-56" d="M38.06,85.55s-9.54,63,52.82,90.37l.32,6.87S27,158.67,31,81.9Z" transform="translate(7.36 10.39)"/><path class="cls-56" d="M144.41,85.55s8.16,63.83-53.53,90.37l.32,6.87s67.24-25,60.32-100.89Z" transform="translate(7.36 10.39)"/><path class="cls-11" d="M31,81.9a75.79,75.79,0,0,0-.16,7.83c.07,2.6.21,5.21.47,7.8a109.28,109.28,0,0,0,2.6,15.38,101.2,101.2,0,0,0,11.65,28.76A98.06,98.06,0,0,0,65.46,165.3a114.09,114.09,0,0,0,26.16,16.58l-1.42.91v-.47l2-.16.07.47-1.4-.75A114.31,114.31,0,0,0,117,165.3,98.06,98.06,0,0,0,137,141.67a101.17,101.17,0,0,0,11.64-28.76,107.85,107.85,0,0,0,2.6-15.38c.27-2.59.41-5.2.48-7.8a75.79,75.79,0,0,0-.16-7.83,87.25,87.25,0,0,1,.21,15.67,108.9,108.9,0,0,1-2.18,15.56,102,102,0,0,1-11.27,29.32,95.61,95.61,0,0,1-20.07,24.23,116.77,116.77,0,0,1-26.51,17l-1.21.56-.2-1.31-.07-.47,2-.16v2l-1.41-.66a116.17,116.17,0,0,1-26.51-17A95.48,95.48,0,0,1,44.2,142.44a101.85,101.85,0,0,1-11.27-29.31,108.9,108.9,0,0,1-2.18-15.56A86.33,86.33,0,0,1,31,81.9Z" transform="translate(7.36 10.39)"/><path class="cls-57" d="M91.24,58l0,111.89s52.94-18.48,49-81.93C140.19,87.91,113.75,83.06,91.24,58Z" transform="translate(7.36 10.39)"/><polyline class="cls-58" points="84.51 116.15 98.58 120.91 112.69 116.15"/><line class="cls-58" x1="98.6" y1="140.55" x2="98.58" y2="120.91"/><rect class="cls-36" x="64.33" y="165.04" width="6.69" height="17.23"/><rect class="cls-36" x="125.46" y="165.04" width="6.69" height="17.23"/></g><path class="cls-5" d="M376.34,511a118.43,118.43,0,0,0-234.08,0Z" transform="translate(7.36 10.39)"/><polygon class="cls-59" points="364.85 521.43 497.02 286.05 29.02 289.45 169.14 521.43 364.85 521.43"/><circle class="cls-60" cx="373.69" cy="200.89" r="49.17"/><circle class="cls-60" cx="373.69" cy="200.89" r="37.77"/><path class="cls-21" d="M385.58,180.37s10.09-15.44,14.24-10.12-3.47,15.11-13.36,15.74A24.8,24.8,0,0,0,385.58,180.37Z" transform="translate(7.36 10.39)"/><path class="cls-46" d="M400.82,172.34a4,4,0,0,0-.44-.11c-2.3-.37-4.5,1-6.27,2.49a30.43,30.43,0,0,0-2.34,2.2,7,7,0,0,0-1.87,2.87,2.83,2.83,0,0,0,1,3.09,3.71,3.71,0,0,0,3.31-.06,13.33,13.33,0,0,0,3.17-1.77C400,178.38,401.47,175.08,400.82,172.34Z" transform="translate(7.36 10.39)"/><path class="cls-48" d="M394.38,181.45c-.77.57-1.66.66-2,.22s0-1.27.8-1.83,1.65-.67,2-.22S395.15,180.88,394.38,181.45Z" transform="translate(7.36 10.39)"/><path class="cls-21" d="M358.42,171.82s-1.72-18.36-7.87-15.6-4,15,4.47,20.16A24.71,24.71,0,0,1,358.42,171.82Z" transform="translate(7.36 10.39)"/><path class="cls-46" d="M348.7,157.6l.44.11c2.2.75,3.51,3,4.38,5.13a29.43,29.43,0,0,1,1,3,7,7,0,0,1,.31,3.41,2.82,2.82,0,0,1-2.29,2.28,3.73,3.73,0,0,1-2.9-1.59,13.6,13.6,0,0,1-2-3C346.57,163.31,346.84,159.72,348.7,157.6Z" transform="translate(7.36 10.39)"/><path class="cls-48" d="M350.14,168.66c.41.86,1.15,1.37,1.65,1.12s.56-1.13.15-2-1.16-1.36-1.66-1.12S349.72,167.8,350.14,168.66Z" transform="translate(7.36 10.39)"/><circle class="cls-61" cx="372.98" cy="204.83" r="24.79"/><path class="cls-11" d="M390.41,194.44a24,24,0,0,1-1.51,9.64,25.19,25.19,0,0,1-5.3,8.34,24.7,24.7,0,0,1-8.19,5.64,24.94,24.94,0,0,1-19.57,0,24.64,24.64,0,0,1-8.2-5.64,25.35,25.35,0,0,1-5.3-8.34,24.31,24.31,0,0,1-1.51-9.64,25.67,25.67,0,0,0,2.26,9.33,24.66,24.66,0,0,0,39.62,7.75,24.26,24.26,0,0,0,5.44-7.75A25.47,25.47,0,0,0,390.41,194.44Z" transform="translate(7.36 10.39)"/><path class="cls-3" d="M357.29,188.51a3.13,3.13,0,1,1-3.13-3.13A3.13,3.13,0,0,1,357.29,188.51Z" transform="translate(7.36 10.39)"/><path class="cls-3" d="M376.93,191.63a3.13,3.13,0,1,1-3.13-3.12A3.13,3.13,0,0,1,376.93,191.63Z" transform="translate(7.36 10.39)"/><path class="cls-62" d="M358.41,193.53s-2.62,1.25-2.27,3.24,4,2.36,5.07-.22c0,0,1.13,3.39,3.78,3s2.47-4.06.44-5.06" transform="translate(7.36 10.39)"/><circle class="cls-39" cx="360.52" cy="197.88" r="0.97"/><path class="cls-39" d="M373.8,190.66a1,1,0,1,1-1-1A1,1,0,0,1,373.8,190.66Z" transform="translate(7.36 10.39)"/><path class="cls-5" d="M383.52,189.69a20.64,20.64,0,0,0-15.19-19.9,26.86,26.86,0,0,0-2.71-.14A24.8,24.8,0,0,0,343,184.31a20.62,20.62,0,1,0,40.53,5.38Z" transform="translate(7.36 10.39)"/><path class="cls-63" d="M359.49,175.24c.46,1-.69,2.57-2.56,3.38s-3.75.61-4.21-.45.68-2.58,2.55-3.39S359,174.18,359.49,175.24Z" transform="translate(7.36 10.39)"/><circle class="cls-60" cx="137.8" cy="237.54" r="27.49"/><circle class="cls-60" cx="137.8" cy="237.54" r="21.25"/><path class="cls-21" d="M118.5,219.13s-6-9.1-8.39-6,2,8.92,7.88,9.29A14.69,14.69,0,0,1,118.5,219.13Z" transform="translate(7.36 10.39)"/><path class="cls-46" d="M109.52,214.39l.26-.06a4.84,4.84,0,0,1,3.7,1.47,16.83,16.83,0,0,1,1.37,1.3,4.12,4.12,0,0,1,1.11,1.69,1.68,1.68,0,0,1-.57,1.82,2.19,2.19,0,0,1-2,0,7.81,7.81,0,0,1-1.87-1.05C110,218,109.14,216,109.52,214.39Z" transform="translate(7.36 10.39)"/><path class="cls-48" d="M113.31,219.77c.46.33,1,.39,1.17.13s0-.75-.47-1.08-1-.4-1.17-.13S112.86,219.43,113.31,219.77Z" transform="translate(7.36 10.39)"/><path class="cls-21" d="M134.52,214.09s1-10.83,4.64-9.2,2.35,8.84-2.64,11.89A14.58,14.58,0,0,0,134.52,214.09Z" transform="translate(7.36 10.39)"/><path class="cls-46" d="M140.26,205.7l-.26.07a4.84,4.84,0,0,0-2.59,3c-.23.59-.44,1.19-.61,1.79a4.2,4.2,0,0,0-.19,2,1.67,1.67,0,0,0,1.35,1.35,2.18,2.18,0,0,0,1.71-.94,8,8,0,0,0,1.17-1.8C141.51,209.07,141.35,207,140.26,205.7Z" transform="translate(7.36 10.39)"/><path class="cls-48" d="M139.41,212.23c-.25.5-.68.8-1,.66s-.33-.67-.08-1.18.68-.8,1-.66S139.65,211.72,139.41,212.23Z" transform="translate(7.36 10.39)"/><circle class="cls-64" cx="137.63" cy="237.82" r="14.62"/><path class="cls-65" d="M135.19,223.93a1.85,1.85,0,1,0,1.84-1.84A1.84,1.84,0,0,0,135.19,223.93Z" transform="translate(7.36 10.39)"/><circle class="cls-65" cx="132.81" cy="236.16" r="1.84"/><path class="cls-66" d="M130.87,230.81a1.32,1.32,0,0,1-.27,0,1.59,1.59,0,0,1-1.42-1.38,2.13,2.13,0,0,1,1.06-2.22.32.32,0,0,1,.44.15.31.31,0,0,1-.15.43,1.5,1.5,0,0,0-.7,1.53.94.94,0,0,0,.86.84c1.27.18,1.87-1.55,1.88-1.57a.33.33,0,0,1,.3-.23.33.33,0,0,1,.31.21,1.41,1.41,0,0,0,1.49.86.94.94,0,0,0,.88-.67c.16-.91-1.15-1.55-1.16-1.55a.33.33,0,0,1-.16-.44.35.35,0,0,1,.44-.16c.07,0,1.77.86,1.52,2.27a1.54,1.54,0,0,1-1.45,1.2,2.1,2.1,0,0,1-1.82-.7A2.43,2.43,0,0,1,130.87,230.81Z" transform="translate(7.36 10.39)"/><path class="cls-67" d="M137.05,223.33a.57.57,0,1,0,.57-.58A.57.57,0,0,0,137.05,223.33Z" transform="translate(7.36 10.39)"/><path class="cls-67" d="M125.45,225.2a.58.58,0,1,0,.57-.57A.57.57,0,0,0,125.45,225.2Z" transform="translate(7.36 10.39)"/><path class="cls-68" d="M119.72,224.63a12.18,12.18,0,0,1,9-11.74c.52,0,1.06-.08,1.59-.08a14.61,14.61,0,0,1,13.35,8.65,12.16,12.16,0,1,1-23.9,3.17Z" transform="translate(7.36 10.39)"/><path class="cls-67" d="M133.89,216.1c-.27.63.41,1.52,1.51,2s2.21.36,2.48-.27-.4-1.52-1.5-2S134.16,215.48,133.89,216.1Z" transform="translate(7.36 10.39)"/><g class="cls-69"><path class="cls-11" d="M109.59,227.54a21.59,21.59,0,0,0,6.59,14,20.39,20.39,0,0,0,28,0,21.59,21.59,0,0,0,6.59-14,19.89,19.89,0,0,1-5.49,15.13,20.76,20.76,0,0,1-6.87,4.79,21,21,0,0,1-16.51,0,21,21,0,0,1-6.87-4.79A19.93,19.93,0,0,1,109.59,227.54Z" transform="translate(7.36 10.39)"/></g><path class="cls-70" d="M483.84,511c.16-2.27.26-4.56.26-6.86,0-80.29-101.52-145.38-226.74-145.38S30.62,423.89,30.62,504.18c0,2.3.1,4.59.26,6.86Z" transform="translate(7.36 10.39)"/></g></g></g></svg>