<svg width="121" height="133" viewBox="0 0 121 133" fill="none" xmlns="http://www.w3.org/2000/svg">
<g filter="url(#filter0_dd)">
<path fill-rule="evenodd" clip-rule="evenodd" d="M30.457 66.7168C30.457 53.464 41.2042 42.7168 54.457 42.7168C67.7098 42.7168 78.457 53.464 78.457 66.7168C78.457 79.9696 67.7098 90.7168 54.457 90.7168C41.2042 90.7168 30.457 79.9696 30.457 66.7168ZM67.5146 75.7439C67.8552 74.8672 68.0885 73.8656 68.1552 72.3986C68.2225 70.929 68.2383 70.4595 68.2383 66.7168C68.2383 62.9741 68.2225 62.5046 68.1555 61.035C68.0885 59.568 67.8556 58.5664 67.5146 57.6897C67.1689 56.7701 66.6262 55.9374 65.9253 55.2489C65.2368 54.5476 64.4037 54.0049 63.4841 53.6588C62.6074 53.3186 61.6058 53.0857 60.1388 53.019C58.6692 52.9517 58.1997 52.9355 54.457 52.9355C50.7144 52.9355 50.2449 52.9517 48.7753 53.0187C47.3082 53.0857 46.3066 53.3186 45.4299 53.6592C44.5104 54.0052 43.6772 54.5476 42.9891 55.2489C42.2878 55.937 41.7451 56.7701 41.399 57.6897C41.0585 58.5664 40.8256 59.568 40.7589 61.035C40.6915 62.5046 40.6758 62.9741 40.6758 66.7168C40.6758 70.4595 40.6915 70.929 40.7593 72.3989C40.8259 73.8656 41.0592 74.8676 41.3998 75.7439C41.7458 76.6635 42.2882 77.4966 42.9891 78.1847C43.6776 78.886 44.5104 79.4283 45.4303 79.7744C46.3066 80.115 47.3086 80.3479 48.7753 80.4149C50.2452 80.4819 50.7144 80.498 54.4574 80.498C58.2001 80.498 58.6696 80.4819 60.1392 80.4149C61.6058 80.3479 62.6078 80.115 63.4841 79.7744C65.3353 79.0585 66.7987 77.5951 67.5146 75.7439ZM65.2002 58.5891C64.9794 57.9907 64.6271 57.4491 64.1693 57.0045C63.7247 56.5468 63.1835 56.1945 62.5847 55.9736C62.0991 55.785 61.3696 55.5605 60.026 55.4994C58.5725 55.4331 58.1367 55.4188 54.457 55.4188C50.777 55.4188 50.3412 55.4327 48.8881 55.499C47.5444 55.5605 46.8146 55.785 46.3293 55.9736C45.7306 56.1945 45.189 56.5468 44.7448 57.0045C44.287 57.4491 43.9347 57.9904 43.7135 58.5891C43.5249 59.0747 43.3004 59.8046 43.2393 61.1482C43.173 62.6013 43.1587 63.0371 43.1587 66.7172C43.1587 70.3969 43.173 70.8326 43.2393 72.2861C43.3004 73.6298 43.5249 74.3593 43.7135 74.8448C43.9347 75.4436 44.2866 75.9849 44.7444 76.4294C45.189 76.8872 45.7302 77.2395 46.329 77.4603C46.8146 77.6493 47.5444 77.8738 48.8881 77.9349C50.3412 78.0012 50.7766 78.0151 54.4567 78.0151C58.1371 78.0151 58.5729 78.0012 60.0256 77.9349C61.3693 77.8738 62.0991 77.6493 62.5847 77.4603C63.7866 76.9967 64.7366 76.0468 65.2002 74.8448C65.3888 74.3593 65.6133 73.6298 65.6748 72.2861C65.7411 70.8326 65.755 70.3969 65.755 66.7172C65.755 63.0371 65.7411 62.6013 65.6748 61.1482C65.6136 59.8046 65.3892 59.0747 65.2002 58.5891ZM54.457 73.7935C50.5485 73.7935 47.38 70.6254 47.38 66.7168C47.38 62.8082 50.5485 59.6401 54.457 59.6401C58.3652 59.6401 61.5337 62.8082 61.5337 66.7168C61.5337 70.6254 58.3652 73.7935 54.457 73.7935ZM61.8135 61.0142C60.9001 61.0142 60.1597 60.2737 60.1597 59.3604C60.1597 58.447 60.9001 57.7065 61.8135 57.7065C62.7268 57.7065 63.4673 58.447 63.4673 59.3604C63.4669 60.2737 62.7268 61.0142 61.8135 61.0142ZM59.0508 66.7168C59.0508 69.2539 56.9941 71.3105 54.457 71.3105C51.9199 71.3105 49.8633 69.2539 49.8633 66.7168C49.8633 64.1797 51.9199 62.123 54.457 62.123C56.9941 62.123 59.0508 64.1797 59.0508 66.7168Z" fill="url(#paint0_linear)" style="mix-blend-mode:overlay"/>
</g>
<defs>
<filter id="filter0_dd" x="-11.543" y="0.716797" width="132" height="132" filterUnits="userSpaceOnUse" color-interpolation-filters="sRGB">
<feFlood flood-opacity="0" result="BackgroundImageFix"/>
<feColorMatrix in="SourceAlpha" type="matrix" values="0 0 0 0 0 0 0 0 0 0 0 0 0 0 0 0 0 0 127 0"/>
<feOffset/>
<feColorMatrix type="matrix" values="0 0 0 0 0.926667 0 0 0 0 0.9736 0 0 0 0 1 0 0 0 0.39 0"/>
<feBlend mode="normal" in2="BackgroundImageFix" result="effect1_dropShadow"/>
<feColorMatrix in="SourceAlpha" type="matrix" values="0 0 0 0 0 0 0 0 0 0 0 0 0 0 0 0 0 0 127 0"/>
<feOffset/>
<feGaussianBlur stdDeviation="21"/>
<feColorMatrix type="matrix" values="0 0 0 0 0.958183 0 0 0 0 0.839167 0 0 0 0 1 0 0 0 0.25 0"/>
<feBlend mode="normal" in2="effect1_dropShadow" result="effect2_dropShadow"/>
<feBlend mode="normal" in="SourceGraphic" in2="effect2_dropShadow" result="shape"/>
</filter>
<linearGradient id="paint0_linear" x1="-25.8173" y1="29.2599" x2="105.716" y2="-1.71834" gradientUnits="userSpaceOnUse">
<stop offset="0.430208" stop-color="#3C4174"/>
<stop offset="0.951042" stop-color="#828EDF"/>
</linearGradient>
</defs>
</svg>
