<svg width="35" height="35" viewBox="0 0 35 35" fill="none" xmlns="http://www.w3.org/2000/svg">
<path d="M34.0368 17.7205C34.0368 25.1522 29.1663 31.4403 22.4433 33.5764V21.8255H25.7555H26.0631L26.1026 21.5205L26.6532 17.2678L26.7044 16.8729H26.3061H22.4433V14.516C22.4433 13.9179 22.5316 13.512 22.7529 13.2499C22.9631 13.001 23.364 12.8027 24.1964 12.8027H26.4255H26.7755V12.4527V8.65783V8.3528L26.4734 8.31112C26.0692 8.25537 24.7192 8.14197 23.1548 8.14197C21.4649 8.14197 20.0056 8.65913 18.9678 9.68525C17.929 10.7124 17.3513 12.2112 17.3513 14.0981V16.8795H14.0523H13.7023V17.2295V21.4822V21.8322H14.0523H17.3513V34.3545C8.18715 34.3268 0.768579 26.8911 0.768579 17.7205C0.768579 8.53268 8.21493 1.08633 17.4027 1.08633C26.5905 1.08633 34.0368 8.53268 34.0368 17.7205Z" stroke="#9AB1FF" stroke-width="0.7"/>
</svg>
