<svg width="75" height="75" viewBox="0 0 75 75" fill="none" xmlns="http://www.w3.org/2000/svg">
<path fill-rule="evenodd" clip-rule="evenodd" d="M37.7306 71.9144C18.7092 71.9144 3.28906 56.4942 3.28906 37.4728C3.28906 18.4514 18.7092 3.03125 37.7306 3.03125C56.7521 3.03125 72.1722 18.4514 72.1722 37.4728C72.1506 56.4852 56.743 71.8928 37.7306 71.9144ZM56.9422 52.4794V52.4808H49.7853V41.2359C49.7853 38.5562 49.7305 35.1198 46.0562 35.1198C42.3271 35.1198 41.7563 38.0315 41.7563 41.0428V52.4794H34.5922V29.3827H41.4724V32.5323H41.5733C42.5289 30.7175 44.8699 28.8032 48.3583 28.8032C55.6146 28.8032 56.9509 33.5846 56.9509 39.7916V52.4794H56.9422ZM22.9266 29.3843H30.0994V52.481H22.9266V29.3843ZM22.3556 22.0399C22.3556 19.7465 24.2165 17.8856 26.5099 17.8856C28.8018 17.8856 30.6628 19.7465 30.6642 22.0399C30.6642 24.3333 28.8033 26.2331 26.5099 26.2331C24.2165 26.2331 22.3556 24.3333 22.3556 22.0399Z" fill="#F6E8FF"/>
<path d="M37.7298 0.570312C17.3498 0.570312 0.828125 17.092 0.828125 37.472C0.828125 57.852 17.3498 74.3737 37.7298 74.3737C58.1098 74.3737 74.6315 57.852 74.6315 37.472C74.6087 17.1016 58.1002 0.593136 37.7298 0.570312ZM37.7298 71.9136C18.7084 71.9136 3.28824 56.4934 3.28824 37.472C3.28824 18.4506 18.7084 3.03042 37.7298 3.03042C56.7512 3.03042 72.1714 18.4506 72.1714 37.472C72.1498 56.4844 56.7422 71.8919 37.7298 71.9136Z" fill="#F6E8FF"/>
</svg>
