<svg xmlns="http://www.w3.org/2000/svg" xmlns:xlink="http://www.w3.org/1999/xlink" viewBox="0 0 54.81 56.01"><defs><style>.cls-1{fill:none;}.cls-2{fill:#fff;}.cls-3{clip-path:url(#clip-path);}.cls-4{fill-rule:evenodd;}</style><clipPath id="clip-path" transform="translate(2.44 5.33)"><ellipse id="SVGID" class="cls-1" cx="24.82" cy="24.61" rx="24.82" ry="24.61"/></clipPath></defs><g id="Layer_2" data-name="Layer 2"><g id="OBJECTS"><ellipse class="cls-2" cx="27.26" cy="29.94" rx="24.82" ry="24.61"/><g class="cls-3"><path class="cls-4" d="M18,17.7a28.66,28.66,0,0,0-8.46-6.22.71.71,0,0,0-.91.32.66.66,0,0,0,.31.95,27.45,27.45,0,0,1,8,5.86.69.69,0,1,0,1-.91Z" transform="translate(2.44 5.33)"/><path class="cls-4" d="M16.68,18.27a11.94,11.94,0,0,1,0,3.63,42.83,42.83,0,0,1-1.95,9.69.7.7,0,0,0,1.34.41,43.47,43.47,0,0,0,2-10,13.11,13.11,0,0,0-.06-4.1.74.74,0,0,0-.91-.48A.71.71,0,0,0,16.68,18.27Z" transform="translate(2.44 5.33)"/><path class="cls-4" d="M14.75,31.4a19.13,19.13,0,0,1-10,3.23.7.7,0,0,0,0,1.4,20.09,20.09,0,0,0,10.69-3.46.73.73,0,0,0,.25-1A.7.7,0,0,0,14.75,31.4Z" transform="translate(2.44 5.33)"/><path class="cls-4" d="M4.92,34.64C2.62,33.89.37,31.69-1.26,30a.68.68,0,0,0-1,0,.72.72,0,0,0,0,1C-.5,32.85,2,35.15,4.5,36a.67.67,0,0,0,.88-.41A.74.74,0,0,0,4.92,34.64Z" transform="translate(2.44 5.33)"/><path class="cls-4" d="M9.21,11.21c-.85,0-7.41,1.38-9.6,2.55a.74.74,0,0,0-.3,1,.75.75,0,0,0,1,.3A39.2,39.2,0,0,1,9.21,12.6a.66.66,0,0,0,.7-.7A.67.67,0,0,0,9.21,11.21Z" transform="translate(2.44 5.33)"/><path class="cls-4" d="M9.79,11.73a34.28,34.28,0,0,0,.49-9,.66.66,0,0,0-.76-.61.72.72,0,0,0-.66.75,31.14,31.14,0,0,1-.47,8.62.72.72,0,0,0,.61.83A.69.69,0,0,0,9.79,11.73Z" transform="translate(2.44 5.33)"/><path class="cls-4" d="M17.73,18.75c2.41-1,7.05-3.13,10.7-4.34a.69.69,0,0,0,.43-.9.67.67,0,0,0-.86-.43c-3.69,1.21-8.39,3.37-10.8,4.38a.7.7,0,0,0,.53,1.29Z" transform="translate(2.44 5.33)"/><path class="cls-4" d="M29.12,13.85c2-5.92,2.72-12.2,3.5-18.39A.7.7,0,0,0,32-5.32a.64.64,0,0,0-.74.6c-.77,6.09-1.5,12.28-3.43,18.11a.77.77,0,0,0,.46.92A.7.7,0,0,0,29.12,13.85Z" transform="translate(2.44 5.33)"/><path class="cls-4" d="M14.83,32.29a12,12,0,0,0,2.94,2.47c1.69,1.32,3.44,2.64,5,4a.68.68,0,0,0,1,0,.72.72,0,0,0,0-1c-1.6-1.45-3.39-2.82-5.08-4.14a13.38,13.38,0,0,1-2.72-2.17.7.7,0,0,0-1-.16A.67.67,0,0,0,14.83,32.29Z" transform="translate(2.44 5.33)"/><path class="cls-4" d="M22.6,38.33c.87,3.92,2,7.67,2.47,11.74a.7.7,0,0,0,.76.61.69.69,0,0,0,.62-.8C26,45.8,24.85,42,23.94,38a.67.67,0,0,0-.81-.51A.69.69,0,0,0,22.6,38.33Z" transform="translate(2.44 5.33)"/><path class="cls-4" d="M4.07,35.42a23.22,23.22,0,0,0,1.15,8.22.73.73,0,0,0,.86.52.71.71,0,0,0,.48-.86,22.7,22.7,0,0,1-1.09-7.74.67.67,0,0,0-.61-.79A.76.76,0,0,0,4.07,35.42Z" transform="translate(2.44 5.33)"/><path class="cls-4" d="M28.21,14.65c3.46,1,9.12,5.35,12.58,9a.65.65,0,0,0,1,.05.72.72,0,0,0,0-1c-3.64-3.91-9.58-8.37-13.23-9.45a.75.75,0,0,0-.89.51A.7.7,0,0,0,28.21,14.65Z" transform="translate(2.44 5.33)"/><path class="cls-4" d="M23.18,38.88a8.92,8.92,0,0,0,1.61-.37c3.06-.87,9.78-3.14,12.34-4.23a.69.69,0,0,0,.34-.91.76.76,0,0,0-.91-.38c-2.52,1.09-9.14,3.32-12.15,4.15a8.92,8.92,0,0,1-1.24.34.7.7,0,0,0-.7.75A.68.68,0,0,0,23.18,38.88Z" transform="translate(2.44 5.33)"/><path class="cls-4" d="M40.69,22.87a80.73,80.73,0,0,0-4.54,10.56.68.68,0,0,0,.46.86.63.63,0,0,0,.87-.41,74.91,74.91,0,0,1,4.43-10.32.7.7,0,0,0-1.22-.69Z" transform="translate(2.44 5.33)"/><path class="cls-4" d="M36.21,34a106.14,106.14,0,0,0,6.44,9.86.69.69,0,0,0,1,.2.68.68,0,0,0,.16-1,102.06,102.06,0,0,1-6.31-9.76.74.74,0,0,0-1-.29A.73.73,0,0,0,36.21,34Z" transform="translate(2.44 5.33)"/><path class="cls-4" d="M41.75,23.78c3.17-2.54,7.93-3.63,10.25-4.69a.73.73,0,0,0,.3-1,.7.7,0,0,0-.92-.34c-2.32,1.11-7.28,2.28-10.49,4.86a.63.63,0,0,0-.11,1A.68.68,0,0,0,41.75,23.78Z" transform="translate(2.44 5.33)"/></g></g></g></svg>