<svg width="154" height="141" viewBox="0 0 154 141" fill="none" xmlns="http://www.w3.org/2000/svg">
<path opacity="0.75" d="M128.286 17.8184L145.429 17.8184L87.5628 123.407L59.2438 123.407L128.286 17.8184Z" fill="url(#paint0_linear)"/>
<path d="M27.0889 53.9261H3.27778V61.1073H14.6164L1.98193 86.3223H26.8729V79.1411H14.6164L27.0889 53.9261ZM51.6577 61.1073V53.9261H31.5721V86.3223H51.6577V79.1411H39.8331V73.6878H49.8219V66.5606H39.8331V61.1073H51.6577ZM67.0256 86.7542C73.2348 86.7542 78.5802 83.1366 78.5802 76.9274C78.5802 64.6169 63.894 67.6945 63.894 62.7811C63.894 61.3773 64.9738 60.7293 66.2697 60.7293C67.8895 60.7293 69.6713 61.7012 71.3991 63.537L76.7984 58.2996C74.2607 55.33 70.4272 53.4942 66.3777 53.4942C61.2483 53.4942 55.579 56.4638 55.579 63.375C55.579 74.6057 70.3192 71.906 70.3192 76.8194C70.3192 78.1152 69.2393 79.0331 67.1336 79.0331C64.3259 79.0331 62.0582 77.5213 60.9243 75.0916L54.1751 79.3031C56.3349 83.4066 61.0863 86.7542 67.0256 86.7542ZM103.348 53.9261H79.2669V61.1073H87.204V86.3223H95.411V61.1073H103.348V53.9261Z" fill="#FDFDFD"/>
<path opacity="0.75" d="M83.9998 17.8184L66.857 17.8184L124.723 123.407L153.042 123.407L83.9998 17.8184Z" fill="url(#paint1_linear)"/>
<defs>
<linearGradient id="paint0_linear" x1="68.7449" y1="19.9182" x2="68.7449" y2="131.907" gradientUnits="userSpaceOnUse">
<stop offset="0.0239582" stop-color="#EC5602"/>
<stop offset="1" stop-color="#4E2203"/>
</linearGradient>
<linearGradient id="paint1_linear" x1="143.541" y1="19.9182" x2="143.541" y2="131.907" gradientUnits="userSpaceOnUse">
<stop offset="0.0760415" stop-color="#36C52A"/>
<stop offset="0.914583" stop-color="#045A0D"/>
</linearGradient>
</defs>
</svg>
