<svg width="33" height="33" viewBox="0 0 33 33" fill="none" xmlns="http://www.w3.org/2000/svg">
<path d="M27.3516 7.05859L5.35156 7.0586" stroke="#E8F9FF" stroke-width="2" stroke-linecap="round" stroke-linejoin="round"/>
<path d="M13.3516 13.0586V21.0586" stroke="#E8F9FF" stroke-width="2" stroke-linecap="round" stroke-linejoin="round"/>
<path d="M19.3516 13.0586V21.0586" stroke="#E8F9FF" stroke-width="2" stroke-linecap="round" stroke-linejoin="round"/>
<path d="M25.3516 7.05859V26.0586C25.3516 26.3238 25.2462 26.5782 25.0587 26.7657C24.8711 26.9532 24.6168 27.0586 24.3516 27.0586H8.35156C8.08635 27.0586 7.83199 26.9532 7.64446 26.7657C7.45692 26.5782 7.35156 26.3238 7.35156 26.0586V7.05859" stroke="#E8F9FF" stroke-width="2" stroke-linecap="round" stroke-linejoin="round"/>
<path d="M21.3516 7.05859V5.05859C21.3516 4.52816 21.1408 4.01945 20.7658 3.64438C20.3907 3.26931 19.882 3.05859 19.3516 3.05859H13.3516C12.8211 3.05859 12.3124 3.26931 11.9373 3.64438C11.5623 4.01945 11.3516 4.52816 11.3516 5.05859V7.05859" stroke="#E8F9FF" stroke-width="2" stroke-linecap="round" stroke-linejoin="round"/>
</svg>
